<?xml version="1.0" encoding="UTF-8"?>
<!DOCTYPE svg PUBLIC "-//W3C//DTD SVG 1.1//EN" "http://www.w3.org/Graphics/SVG/1.1/DTD/svg11.dtd">
<svg xmlns="http://www.w3.org/2000/svg" version="1.1" width="614px" height="406px" style="shape-rendering:geometricPrecision; text-rendering:geometricPrecision; image-rendering:optimizeQuality; fill-rule:evenodd; clip-rule:evenodd" xmlns:xlink="http://www.w3.org/1999/xlink">
<g><path style="opacity:0.944" fill="#99d1d5" d="M 287.5,28.5 C 299.66,27.3401 311.993,27.1735 324.5,28C 329.076,28.2715 333.409,29.1049 337.5,30.5C 320.996,28.8472 304.33,28.1805 287.5,28.5 Z"/></g>
<g><path style="opacity:1" fill="#79cbd2" d="M 287.5,28.5 C 304.33,28.1805 320.996,28.8472 337.5,30.5C 337.833,30.5 338.167,30.5 338.5,30.5C 341.455,31.4149 344.122,32.9149 346.5,35C 353.782,35.4334 360.782,36.9334 367.5,39.5C 367.281,40.675 367.614,41.675 368.5,42.5C 373.754,44.5523 373.42,46.0523 367.5,47C 365.2,47.6583 362.867,48.1583 360.5,48.5C 357.507,46.5395 354.174,45.5395 350.5,45.5C 350.5,46.5 350.5,47.5 350.5,48.5C 347.013,47.5148 343.513,46.5148 340,45.5C 335.832,46.3334 331.832,47.6668 328,49.5C 323.586,48.1991 318.919,47.5324 314,47.5C 309.117,47.5256 304.284,47.859 299.5,48.5C 289.564,48.1354 279.731,47.1354 270,45.5C 265.571,46.9123 260.738,47.579 255.5,47.5C 255.5,46.1667 255.5,44.8333 255.5,43.5C 250.652,44.9876 245.652,45.8209 240.5,46C 238.65,49.1112 236.65,49.2779 234.5,46.5C 235.729,45.7189 237.062,45.2189 238.5,45C 237.667,44.8333 236.833,44.6667 236,44.5C 231.291,46.6087 226.457,48.2754 221.5,49.5C 241.883,37.7071 263.883,30.7071 287.5,28.5 Z"/></g>
<g><path style="opacity:1" fill="#91cdd3" d="M 338.5,30.5 C 349.695,31.9627 360.362,34.9627 370.5,39.5C 369.5,39.5 368.5,39.5 367.5,39.5C 360.782,36.9334 353.782,35.4334 346.5,35C 344.122,32.9149 341.455,31.4149 338.5,30.5 Z"/></g>
<g><path style="opacity:1" fill="#73cad1" d="M 367.5,39.5 C 368.5,39.5 369.5,39.5 370.5,39.5C 389.132,46.4718 405.799,56.4718 420.5,69.5C 419.624,69.3691 418.957,69.7025 418.5,70.5C 423.984,78.9305 422.984,79.5972 415.5,72.5C 414.614,73.325 414.281,74.325 414.5,75.5C 411.179,76.1628 407.846,76.8295 404.5,77.5C 395.662,76.1887 386.829,74.8554 378,73.5C 362.342,73.9156 346.842,73.9156 331.5,73.5C 324.811,73.9463 318.144,74.613 311.5,75.5C 306.167,74.8333 300.833,74.1667 295.5,73.5C 290.167,74.1667 284.833,74.8333 279.5,75.5C 270.698,74.4566 261.864,73.7899 253,73.5C 238.22,74.1278 223.387,74.1278 208.5,73.5C 208.915,75.9477 207.915,77.2811 205.5,77.5C 201.823,76.3282 198.489,74.6615 195.5,72.5C 195.491,70.6916 195.991,69.0249 197,67.5C 200.158,64.7807 203.658,62.614 207.5,61C 207.619,59.8552 207.952,58.6885 208.5,57.5C 212.323,54.0843 216.657,51.4176 221.5,49.5C 226.457,48.2754 231.291,46.6087 236,44.5C 236.833,44.6667 237.667,44.8333 238.5,45C 237.062,45.2189 235.729,45.7189 234.5,46.5C 236.65,49.2779 238.65,49.1112 240.5,46C 245.652,45.8209 250.652,44.9876 255.5,43.5C 255.5,44.8333 255.5,46.1667 255.5,47.5C 260.738,47.579 265.571,46.9123 270,45.5C 279.731,47.1354 289.564,48.1354 299.5,48.5C 304.284,47.859 309.117,47.5256 314,47.5C 318.919,47.5324 323.586,48.1991 328,49.5C 331.832,47.6668 335.832,46.3334 340,45.5C 343.513,46.5148 347.013,47.5148 350.5,48.5C 350.5,47.5 350.5,46.5 350.5,45.5C 354.174,45.5395 357.507,46.5395 360.5,48.5C 362.867,48.1583 365.2,47.6583 367.5,47C 373.42,46.0523 373.754,44.5523 368.5,42.5C 367.614,41.675 367.281,40.675 367.5,39.5 Z"/></g>
<g><path style="opacity:1" fill="#6dcace" d="M 420.5,69.5 C 439.535,85.5934 454.202,104.927 464.5,127.5C 462.833,127.5 461.167,127.5 459.5,127.5C 459.5,126.167 459.5,124.833 459.5,123.5C 458.178,123.67 457.011,123.337 456,122.5C 455.825,118.789 455.325,115.122 454.5,111.5C 453.269,112.651 453.269,113.817 454.5,115C 453.552,115.483 452.552,115.649 451.5,115.5C 450.414,115.38 449.747,114.713 449.5,113.5C 450.189,111.647 451.522,110.481 453.5,110C 452.624,108.414 451.624,106.914 450.5,105.5C 449.757,106.908 448.923,108.241 448,109.5C 447.667,109.167 447.333,108.833 447,108.5C 446.136,111.669 444.803,111.335 443,107.5C 442.667,107.833 442.333,108.167 442,108.5C 436.704,106.208 433.204,102.375 431.5,97C 433.932,95.9125 433.598,95.4125 430.5,95.5C 431.138,97.46 431.138,99.2933 430.5,101C 417.456,101.18 404.456,102.014 391.5,103.5C 378.309,101.485 365.142,101.152 352,102.5C 351,101.833 350,101.167 349,100.5C 347.801,102.576 346.301,104.242 344.5,105.5C 346.055,102.06 347.888,98.7271 350,95.5C 350.49,94.2068 350.657,92.8734 350.5,91.5C 348.801,91.3398 347.134,91.5065 345.5,92C 338.705,98.4793 332.039,104.979 325.5,111.5C 325.586,110.504 325.252,109.671 324.5,109C 328.017,107.516 329.851,105.016 330,101.5C 328.92,104.483 327.087,105.817 324.5,105.5C 323.86,100.938 322.694,100.604 321,104.5C 320.167,103.667 319.333,102.833 318.5,102C 271.163,101.167 223.83,101.333 176.5,102.5C 175.152,104.461 173.819,104.628 172.5,103C 173.337,101.989 173.67,100.822 173.5,99.5C 172.167,99.5 170.833,99.5 169.5,99.5C 169.5,98.5 169.5,97.5 169.5,96.5C 171.081,94.3263 172.581,91.9929 174,89.5C 178.256,88.2115 181.256,85.5448 183,81.5C 184.299,81.9662 185.799,81.9662 187.5,81.5C 187.5,79.5 187.5,77.5 187.5,75.5C 190.14,74.5515 192.807,73.5515 195.5,72.5C 198.489,74.6615 201.823,76.3282 205.5,77.5C 207.915,77.2811 208.915,75.9477 208.5,73.5C 223.387,74.1278 238.22,74.1278 253,73.5C 261.864,73.7899 270.698,74.4566 279.5,75.5C 284.833,74.8333 290.167,74.1667 295.5,73.5C 300.833,74.1667 306.167,74.8333 311.5,75.5C 318.144,74.613 324.811,73.9463 331.5,73.5C 346.842,73.9156 362.342,73.9156 378,73.5C 386.829,74.8554 395.662,76.1887 404.5,77.5C 407.846,76.8295 411.179,76.1628 414.5,75.5C 414.281,74.325 414.614,73.325 415.5,72.5C 422.984,79.5972 423.984,78.9305 418.5,70.5C 418.957,69.7025 419.624,69.3691 420.5,69.5 Z"/></g>
<g><path style="opacity:1" fill="#7ecbcc" d="M 208.5,57.5 C 207.952,58.6885 207.619,59.8552 207.5,61C 203.658,62.614 200.158,64.7807 197,67.5C 195.991,69.0249 195.491,70.6916 195.5,72.5C 192.807,73.5515 190.14,74.5515 187.5,75.5C 187.5,77.5 187.5,79.5 187.5,81.5C 185.799,81.9662 184.299,81.9662 183,81.5C 181.256,85.5448 178.256,88.2115 174,89.5C 172.581,91.9929 171.081,94.3263 169.5,96.5C 168.833,96.5 168.167,96.5 167.5,96.5C 171.885,89.9369 176.885,83.7702 182.5,78C 187.833,73.3333 193.167,68.6667 198.5,64C 201.72,61.5633 205.053,59.3967 208.5,57.5 Z"/></g>
<g><path style="opacity:1" fill="#fbfefe" d="M 344.5,105.5 C 337.761,115.647 332.094,126.314 327.5,137.5C 326.115,138.574 324.949,139.907 324,141.5C 318.402,152.753 312.402,163.753 306,174.5C 305.505,176.473 305.338,178.473 305.5,180.5C 331.997,181.332 358.664,181.832 385.5,182C 386.252,182.671 386.586,183.504 386.5,184.5C 375.473,195.194 364.473,205.861 353.5,216.5C 349.459,220.176 345.459,223.843 341.5,227.5C 333.3,234.132 325.634,241.466 318.5,249.5C 309.173,257.494 300.173,265.827 291.5,274.5C 286.707,278.121 282.04,281.954 277.5,286C 269.325,294.342 260.992,302.508 252.5,310.5C 250.99,311.728 249.49,311.728 248,310.5C 247.4,307.905 247.9,305.571 249.5,303.5C 255.213,297.122 260.547,290.455 265.5,283.5C 272.358,278.75 277.025,272.416 279.5,264.5C 288.368,250.786 297.868,237.452 308,224.5C 310.268,221.915 311.434,218.915 311.5,215.5C 309.735,214.539 307.735,214.205 305.5,214.5C 305.719,213.325 305.386,212.325 304.5,211.5C 292.656,212.813 280.656,213.48 268.5,213.5C 256.833,213.333 245.167,213.167 233.5,213C 232.315,211.647 230.981,210.48 229.5,209.5C 232.955,206.061 235.955,202.394 238.5,198.5C 245.833,190.5 253.5,182.833 261.5,175.5C 265.633,172.221 269.966,169.055 274.5,166C 276.919,164.491 277.919,162.325 277.5,159.5C 283.833,152.833 290.167,146.167 296.5,139.5C 297.5,138.833 298.5,138.167 299.5,137.5C 306.798,134.868 311.798,129.868 314.5,122.5C 317.833,118.5 321.5,114.833 325.5,111.5C 332.039,104.979 338.705,98.4793 345.5,92C 347.134,91.5065 348.801,91.3398 350.5,91.5C 350.657,92.8734 350.49,94.2068 350,95.5C 347.888,98.7271 346.055,102.06 344.5,105.5 Z"/></g>
<g><path style="opacity:1" fill="#67cacc" d="M 451.5,115.5 C 450.782,117.137 450.616,118.803 451,120.5C 454.665,121.985 456.498,124.651 456.5,128.5C 452.422,128.74 450.256,126.74 450,122.5C 448.117,123.653 447.284,125.319 447.5,127.5C 444.833,127.5 442.167,127.5 439.5,127.5C 439.5,125.5 439.5,123.5 439.5,121.5C 438.167,121.5 436.833,121.5 435.5,121.5C 435.5,123.5 435.5,125.5 435.5,127.5C 426.094,127.374 416.761,128.041 407.5,129.5C 407.5,127.5 407.5,125.5 407.5,123.5C 404.833,123.5 402.167,123.5 399.5,123.5C 399.5,124.833 399.5,126.167 399.5,127.5C 396.289,127.012 393.456,127.679 391,129.5C 388.667,126.833 386.333,126.833 384,129.5C 381.446,128.229 378.613,127.562 375.5,127.5C 372.181,127.641 369.014,128.307 366,129.5C 364.604,128.606 363.104,127.939 361.5,127.5C 358.217,128.327 354.884,128.66 351.5,128.5C 351.649,127.448 351.483,126.448 351,125.5C 349.984,126.634 349.317,126.301 349,124.5C 347.371,128.231 344.538,129.731 340.5,129C 342.419,127.121 344.419,125.288 346.5,123.5C 347.833,121.5 347.833,119.5 346.5,117.5C 343.936,120.28 341.603,123.28 339.5,126.5C 337.424,127.1 335.424,127.433 333.5,127.5C 331.648,129.857 330.481,132.523 330,135.5C 329.292,136.381 328.458,137.047 327.5,137.5C 332.094,126.314 337.761,115.647 344.5,105.5C 346.301,104.242 347.801,102.576 349,100.5C 350,101.167 351,101.833 352,102.5C 365.142,101.152 378.309,101.485 391.5,103.5C 404.456,102.014 417.456,101.18 430.5,101C 431.138,99.2933 431.138,97.46 430.5,95.5C 433.598,95.4125 433.932,95.9125 431.5,97C 433.204,102.375 436.704,106.208 442,108.5C 442.333,108.167 442.667,107.833 443,107.5C 444.803,111.335 446.136,111.669 447,108.5C 447.333,108.833 447.667,109.167 448,109.5C 448.923,108.241 449.757,106.908 450.5,105.5C 451.624,106.914 452.624,108.414 453.5,110C 451.522,110.481 450.189,111.647 449.5,113.5C 449.747,114.713 450.414,115.38 451.5,115.5 Z"/></g>
<g><path style="opacity:1" fill="#67cacc" d="M 167.5,96.5 C 168.167,96.5 168.833,96.5 169.5,96.5C 169.5,97.5 169.5,98.5 169.5,99.5C 170.833,99.5 172.167,99.5 173.5,99.5C 173.67,100.822 173.337,101.989 172.5,103C 173.819,104.628 175.152,104.461 176.5,102.5C 223.83,101.333 271.163,101.167 318.5,102C 319.333,102.833 320.167,103.667 321,104.5C 322.694,100.604 323.86,100.938 324.5,105.5C 327.087,105.817 328.92,104.483 330,101.5C 329.851,105.016 328.017,107.516 324.5,109C 325.252,109.671 325.586,110.504 325.5,111.5C 321.5,114.833 317.833,118.5 314.5,122.5C 309.194,127.14 304.194,132.14 299.5,137.5C 298.5,138.167 297.5,138.833 296.5,139.5C 296.67,138.178 296.337,137.011 295.5,136C 294.049,136.263 292.716,136.096 291.5,135.5C 291.833,134.833 292.167,134.167 292.5,133.5C 291.147,132.476 290.48,131.143 290.5,129.5C 292.288,129.785 293.955,129.452 295.5,128.5C 293.314,127.779 291.147,127.113 289,126.5C 271.013,126.942 253.013,127.942 235,129.5C 232.949,129.577 231.116,129.077 229.5,128C 231.107,126.951 231.773,125.451 231.5,123.5C 230.167,123.5 228.833,123.5 227.5,123.5C 227.627,126.245 226.46,128.245 224,129.5C 218.746,128.193 213.246,127.526 207.5,127.5C 201.921,127.511 196.421,127.844 191,128.5C 179.493,128.159 168.159,127.159 157,125.5C 154.404,129.03 152.071,132.697 150,136.5C 149.186,134.098 149.353,131.765 150.5,129.5C 155.348,127.364 155.681,124.697 151.5,121.5C 155.263,112.089 160.596,103.755 167.5,96.5 Z"/></g>
<g><path style="opacity:1" fill="#62c9ca" d="M 464.5,127.5 C 469.194,135.572 472.527,144.238 474.5,153.5C 472.897,153.688 471.563,153.188 470.5,152C 471.102,150.096 470.602,148.263 469,146.5C 466.969,149.059 467.135,151.559 469.5,154C 467.741,154.267 466.075,155.1 464.5,156.5C 465.392,153.052 465.392,149.385 464.5,145.5C 462.914,147.173 462.247,149.173 462.5,151.5C 460.167,151.5 457.833,151.5 455.5,151.5C 455.5,150.5 455.5,149.5 455.5,148.5C 444.836,148.167 434.169,147.834 423.5,147.5C 402.346,147.555 402.346,148.888 423.5,151.5C 428.853,150.826 434.186,150.159 439.5,149.5C 439.5,150.833 439.5,152.167 439.5,153.5C 435.476,153.497 431.476,153.164 427.5,152.5C 424.833,153.167 422.167,153.833 419.5,154.5C 414.594,153.023 409.594,152.023 404.5,151.5C 402.626,151.39 401.126,152.056 400,153.5C 399.506,151.866 399.34,150.199 399.5,148.5C 396.833,148.5 394.167,148.5 391.5,148.5C 391.5,149.5 391.5,150.5 391.5,151.5C 388.833,151.5 386.167,151.5 383.5,151.5C 383.5,150.167 383.5,148.833 383.5,147.5C 368.682,148.315 354.182,148.315 340,147.5C 338.272,147.454 336.772,147.954 335.5,149C 338.146,149.497 340.813,149.664 343.5,149.5C 343.5,150.5 343.5,151.5 343.5,152.5C 338.351,154.477 333.018,155.644 327.5,156C 326.663,157.011 326.33,158.178 326.5,159.5C 323.737,159.204 321.237,158.204 319,156.5C 319.43,158.127 319.596,159.627 319.5,161C 318.354,161.645 317.354,162.478 316.5,163.5C 315.914,163.291 315.414,162.957 315,162.5C 315.195,164.126 315.195,165.793 315,167.5C 314.667,167.833 314.333,168.167 314,168.5C 313.667,167.5 313.333,166.5 313,165.5C 311.04,170.412 308.873,175.078 306.5,179.5C 332.833,179.5 359.167,179.5 385.5,179.5C 386.167,179.5 386.5,179.833 386.5,180.5C 359.5,180.5 332.5,180.5 305.5,180.5C 305.338,178.473 305.505,176.473 306,174.5C 312.402,163.753 318.402,152.753 324,141.5C 324.949,139.907 326.115,138.574 327.5,137.5C 328.458,137.047 329.292,136.381 330,135.5C 330.481,132.523 331.648,129.857 333.5,127.5C 335.424,127.433 337.424,127.1 339.5,126.5C 341.603,123.28 343.936,120.28 346.5,117.5C 347.833,119.5 347.833,121.5 346.5,123.5C 344.419,125.288 342.419,127.121 340.5,129C 344.538,129.731 347.371,128.231 349,124.5C 349.317,126.301 349.984,126.634 351,125.5C 351.483,126.448 351.649,127.448 351.5,128.5C 354.884,128.66 358.217,128.327 361.5,127.5C 363.104,127.939 364.604,128.606 366,129.5C 369.014,128.307 372.181,127.641 375.5,127.5C 378.613,127.562 381.446,128.229 384,129.5C 386.333,126.833 388.667,126.833 391,129.5C 393.456,127.679 396.289,127.012 399.5,127.5C 399.5,126.167 399.5,124.833 399.5,123.5C 402.167,123.5 404.833,123.5 407.5,123.5C 407.5,125.5 407.5,127.5 407.5,129.5C 416.761,128.041 426.094,127.374 435.5,127.5C 435.5,125.5 435.5,123.5 435.5,121.5C 436.833,121.5 438.167,121.5 439.5,121.5C 439.5,123.5 439.5,125.5 439.5,127.5C 442.167,127.5 444.833,127.5 447.5,127.5C 447.284,125.319 448.117,123.653 450,122.5C 450.256,126.74 452.422,128.74 456.5,128.5C 456.498,124.651 454.665,121.985 451,120.5C 450.616,118.803 450.782,117.137 451.5,115.5C 452.552,115.649 453.552,115.483 454.5,115C 453.269,113.817 453.269,112.651 454.5,111.5C 455.325,115.122 455.825,118.789 456,122.5C 457.011,123.337 458.178,123.67 459.5,123.5C 459.5,124.833 459.5,126.167 459.5,127.5C 461.167,127.5 462.833,127.5 464.5,127.5 Z"/></g>
<g><path style="opacity:1" fill="#61c9ca" d="M 151.5,121.5 C 155.681,124.697 155.348,127.364 150.5,129.5C 149.353,131.765 149.186,134.098 150,136.5C 152.071,132.697 154.404,129.03 157,125.5C 168.159,127.159 179.493,128.159 191,128.5C 196.421,127.844 201.921,127.511 207.5,127.5C 213.246,127.526 218.746,128.193 224,129.5C 226.46,128.245 227.627,126.245 227.5,123.5C 228.833,123.5 230.167,123.5 231.5,123.5C 231.773,125.451 231.107,126.951 229.5,128C 231.116,129.077 232.949,129.577 235,129.5C 253.013,127.942 271.013,126.942 289,126.5C 291.147,127.113 293.314,127.779 295.5,128.5C 293.955,129.452 292.288,129.785 290.5,129.5C 290.48,131.143 291.147,132.476 292.5,133.5C 292.167,134.167 291.833,134.833 291.5,135.5C 292.716,136.096 294.049,136.263 295.5,136C 296.337,137.011 296.67,138.178 296.5,139.5C 290.167,146.167 283.833,152.833 277.5,159.5C 276.5,160.167 275.5,160.833 274.5,161.5C 274.672,159.508 274.005,157.842 272.5,156.5C 273.738,153.834 273.738,151.168 272.5,148.5C 271.914,148.709 271.414,149.043 271,149.5C 265.966,148.151 260.799,147.485 255.5,147.5C 246.475,148.628 237.475,148.628 228.5,147.5C 228.5,148.833 228.5,150.167 228.5,151.5C 224.167,151.5 219.833,151.5 215.5,151.5C 215.5,150.167 215.5,148.833 215.5,147.5C 212.833,147.5 210.167,147.5 207.5,147.5C 207.5,148.833 207.5,150.167 207.5,151.5C 205.833,151.5 204.167,151.5 202.5,151.5C 202.5,150.5 202.5,149.5 202.5,148.5C 198.833,148.5 195.167,148.5 191.5,148.5C 191.5,149.5 191.5,150.5 191.5,151.5C 188.428,151.817 185.428,151.484 182.5,150.5C 179.918,146.511 177.751,146.844 176,151.5C 175.517,150.552 175.351,149.552 175.5,148.5C 170.167,148.167 164.833,147.833 159.5,147.5C 159.5,149.5 159.5,151.5 159.5,153.5C 154.167,152.833 148.833,152.167 143.5,151.5C 143.768,158.822 142.935,159.156 141,152.5C 140.581,153.672 139.915,154.672 139,155.5C 138.158,161.278 136.992,166.944 135.5,172.5C 134.833,172.833 134.167,173.167 133.5,173.5C 136.141,154.906 142.141,137.573 151.5,121.5 Z"/></g>
<g><path style="opacity:1" fill="#e4fbfb" d="M 314.5,122.5 C 311.798,129.868 306.798,134.868 299.5,137.5C 304.194,132.14 309.194,127.14 314.5,122.5 Z"/></g>
<g><path style="opacity:1" fill="#5ac9c8" d="M 474.5,153.5 C 474.5,154.833 474.5,156.167 474.5,157.5C 474.336,162.534 474.669,167.534 475.5,172.5C 474.818,174.841 474.151,177.174 473.5,179.5C 448.833,179.5 424.167,179.5 399.5,179.5C 399.284,183.059 399.618,186.559 400.5,190C 399.167,193.333 397.833,193.333 396.5,190C 397.055,186.799 397.388,183.633 397.5,180.5C 395.612,172.581 394.278,172.581 393.5,180.5C 391.035,179.535 388.535,178.535 386,177.5C 384.316,177.683 384.15,178.35 385.5,179.5C 359.167,179.5 332.833,179.5 306.5,179.5C 308.873,175.078 311.04,170.412 313,165.5C 313.333,166.5 313.667,167.5 314,168.5C 314.333,168.167 314.667,167.833 315,167.5C 315.195,165.793 315.195,164.126 315,162.5C 315.414,162.957 315.914,163.291 316.5,163.5C 317.354,162.478 318.354,161.645 319.5,161C 319.596,159.627 319.43,158.127 319,156.5C 321.237,158.204 323.737,159.204 326.5,159.5C 326.33,158.178 326.663,157.011 327.5,156C 333.018,155.644 338.351,154.477 343.5,152.5C 343.5,151.5 343.5,150.5 343.5,149.5C 340.813,149.664 338.146,149.497 335.5,149C 336.772,147.954 338.272,147.454 340,147.5C 354.182,148.315 368.682,148.315 383.5,147.5C 383.5,148.833 383.5,150.167 383.5,151.5C 386.167,151.5 388.833,151.5 391.5,151.5C 391.5,150.5 391.5,149.5 391.5,148.5C 394.167,148.5 396.833,148.5 399.5,148.5C 399.34,150.199 399.506,151.866 400,153.5C 401.126,152.056 402.626,151.39 404.5,151.5C 409.594,152.023 414.594,153.023 419.5,154.5C 422.167,153.833 424.833,153.167 427.5,152.5C 431.476,153.164 435.476,153.497 439.5,153.5C 439.5,152.167 439.5,150.833 439.5,149.5C 434.186,150.159 428.853,150.826 423.5,151.5C 402.346,148.888 402.346,147.555 423.5,147.5C 434.169,147.834 444.836,148.167 455.5,148.5C 455.5,149.5 455.5,150.5 455.5,151.5C 457.833,151.5 460.167,151.5 462.5,151.5C 462.247,149.173 462.914,147.173 464.5,145.5C 465.392,149.385 465.392,153.052 464.5,156.5C 466.075,155.1 467.741,154.267 469.5,154C 467.135,151.559 466.969,149.059 469,146.5C 470.602,148.263 471.102,150.096 470.5,152C 471.563,153.188 472.897,153.688 474.5,153.5 Z"/></g>
<g><path style="opacity:1" fill="#5bc9c8" d="M 274.5,161.5 C 270.167,166.167 265.833,170.833 261.5,175.5C 253.5,182.833 245.833,190.5 238.5,198.5C 236.5,200.167 234.5,201.833 232.5,203.5C 232.167,200.833 231.833,198.167 231.5,195.5C 228.475,195.769 225.808,194.936 223.5,193C 225.408,191.065 227.242,191.231 229,193.5C 234.417,192.125 239.084,189.459 243,185.5C 243.497,182.854 243.664,180.187 243.5,177.5C 247.252,175.698 251.252,174.698 255.5,174.5C 255.5,173.5 255.5,172.5 255.5,171.5C 218.143,171.129 180.81,171.129 143.5,171.5C 143.66,169.801 143.494,168.134 143,166.5C 142.346,165.304 141.846,165.304 141.5,166.5C 141.833,167.167 142.167,167.833 142.5,168.5C 141.881,173.482 141.214,178.482 140.5,183.5C 139.833,181.167 139.167,178.833 138.5,176.5C 137.016,175.533 136.016,174.2 135.5,172.5C 136.992,166.944 138.158,161.278 139,155.5C 139.915,154.672 140.581,153.672 141,152.5C 142.935,159.156 143.768,158.822 143.5,151.5C 148.833,152.167 154.167,152.833 159.5,153.5C 159.5,151.5 159.5,149.5 159.5,147.5C 164.833,147.833 170.167,148.167 175.5,148.5C 175.351,149.552 175.517,150.552 176,151.5C 177.751,146.844 179.918,146.511 182.5,150.5C 185.428,151.484 188.428,151.817 191.5,151.5C 191.5,150.5 191.5,149.5 191.5,148.5C 195.167,148.5 198.833,148.5 202.5,148.5C 202.5,149.5 202.5,150.5 202.5,151.5C 204.167,151.5 205.833,151.5 207.5,151.5C 207.5,150.167 207.5,148.833 207.5,147.5C 210.167,147.5 212.833,147.5 215.5,147.5C 215.5,148.833 215.5,150.167 215.5,151.5C 219.833,151.5 224.167,151.5 228.5,151.5C 228.5,150.167 228.5,148.833 228.5,147.5C 237.475,148.628 246.475,148.628 255.5,147.5C 260.799,147.485 265.966,148.151 271,149.5C 271.414,149.043 271.914,148.709 272.5,148.5C 273.738,151.168 273.738,153.834 272.5,156.5C 274.005,157.842 274.672,159.508 274.5,161.5 Z"/></g>
<g><path style="opacity:1" fill="#7cc9c6" d="M 474.5,153.5 C 478.015,162.74 480.015,172.406 480.5,182.5C 478.314,174.183 476.314,165.849 474.5,157.5C 474.5,156.167 474.5,154.833 474.5,153.5 Z"/></g>
<g><path style="opacity:1" fill="#e3fafa" d="M 277.5,159.5 C 277.919,162.325 276.919,164.491 274.5,166C 269.966,169.055 265.633,172.221 261.5,175.5C 265.833,170.833 270.167,166.167 274.5,161.5C 275.5,160.833 276.5,160.167 277.5,159.5 Z"/></g>
<g><path style="opacity:1" fill="#56c9c5" d="M 474.5,157.5 C 476.314,165.849 478.314,174.183 480.5,182.5C 483.072,195.837 483.072,209.17 480.5,222.5C 480.5,214.833 480.5,207.167 480.5,199.5C 477.5,199.5 474.5,199.5 471.5,199.5C 471.5,202.167 471.5,204.833 471.5,207.5C 466.167,207.5 460.833,207.5 455.5,207.5C 454.833,196.833 454.167,196.833 453.5,207.5C 448.833,207.5 444.167,207.5 439.5,207.5C 439.5,204.833 439.5,202.167 439.5,199.5C 436.833,199.5 434.167,199.5 431.5,199.5C 431.5,202.167 431.5,204.833 431.5,207.5C 428.833,207.5 426.167,207.5 423.5,207.5C 423.5,204.833 423.5,202.167 423.5,199.5C 420.833,199.5 418.167,199.5 415.5,199.5C 415.5,202.167 415.5,204.833 415.5,207.5C 408.733,207.821 402.066,207.154 395.5,205.5C 392.979,206.089 390.479,206.755 388,207.5C 385.966,207.646 384.299,206.98 383,205.5C 382.612,206.428 381.945,207.095 381,207.5C 378.913,205.874 376.747,204.374 374.5,203C 373.99,198.603 372.656,198.603 370.5,203C 370.833,203.333 371.167,203.667 371.5,204C 368.085,204.406 365.418,206.072 363.5,209C 365.271,209.535 365.604,210.369 364.5,211.5C 363.232,210.572 361.899,210.405 360.5,211C 358.559,213.454 356.225,215.287 353.5,216.5C 364.473,205.861 375.473,195.194 386.5,184.5C 387.686,183.295 387.686,181.961 386.5,180.5C 386.5,179.833 386.167,179.5 385.5,179.5C 384.15,178.35 384.316,177.683 386,177.5C 388.535,178.535 391.035,179.535 393.5,180.5C 394.278,172.581 395.612,172.581 397.5,180.5C 397.388,183.633 397.055,186.799 396.5,190C 397.833,193.333 399.167,193.333 400.5,190C 399.618,186.559 399.284,183.059 399.5,179.5C 424.167,179.5 448.833,179.5 473.5,179.5C 474.151,177.174 474.818,174.841 475.5,172.5C 474.669,167.534 474.336,162.534 474.5,157.5 Z"/></g>
<g><path style="opacity:1" fill="#54c8c6" d="M 232.5,203.5 C 230.539,205.963 228.372,208.297 226,210.5C 225.36,212.265 225.527,213.932 226.5,215.5C 225.596,216.209 225.263,217.209 225.5,218.5C 229.514,218.334 233.514,218.501 237.5,219C 238.167,219.667 238.833,220.333 239.5,221C 236.571,221.777 233.737,221.61 231,220.5C 230.072,223.035 228.238,224.035 225.5,223.5C 225.306,220.67 224.639,218.004 223.5,215.5C 222.448,215.351 221.448,215.517 220.5,216C 220.833,216.333 221.167,216.667 221.5,217C 212.746,217.916 204.079,217.416 195.5,215.5C 192.833,216.167 190.167,216.833 187.5,217.5C 184.833,216.833 182.167,216.167 179.5,215.5C 167.564,217.662 155.564,217.996 143.5,216.5C 142.022,213.368 141.022,210.035 140.5,206.5C 139.749,207.376 139.249,208.376 139,209.5C 138.667,213.833 138.333,218.167 138,222.5C 137.667,219.833 137.333,217.167 137,214.5C 136.667,214.833 136.333,215.167 136,215.5C 135.654,212.424 134.988,209.424 134,206.5C 133.617,207.056 133.117,207.389 132.5,207.5C 132.417,196.484 132.751,185.484 133.5,174.5C 133.5,174.167 133.5,173.833 133.5,173.5C 134.167,173.167 134.833,172.833 135.5,172.5C 136.016,174.2 137.016,175.533 138.5,176.5C 139.167,178.833 139.833,181.167 140.5,183.5C 141.214,178.482 141.881,173.482 142.5,168.5C 142.167,167.833 141.833,167.167 141.5,166.5C 141.846,165.304 142.346,165.304 143,166.5C 143.494,168.134 143.66,169.801 143.5,171.5C 180.81,171.129 218.143,171.129 255.5,171.5C 255.5,172.5 255.5,173.5 255.5,174.5C 251.252,174.698 247.252,175.698 243.5,177.5C 243.664,180.187 243.497,182.854 243,185.5C 239.084,189.459 234.417,192.125 229,193.5C 227.242,191.231 225.408,191.065 223.5,193C 225.808,194.936 228.475,195.769 231.5,195.5C 231.833,198.167 232.167,200.833 232.5,203.5 Z"/></g>
<g><path style="opacity:1" fill="#e1fefe" d="M 305.5,180.5 C 332.5,180.5 359.5,180.5 386.5,180.5C 387.686,181.961 387.686,183.295 386.5,184.5C 386.586,183.504 386.252,182.671 385.5,182C 358.664,181.832 331.997,181.332 305.5,180.5 Z"/></g>
<g><path style="opacity:1" fill="#81cecd" d="M 133.5,174.5 C 132.751,185.484 132.417,196.484 132.5,207.5C 133.393,221.354 135.06,235.02 137.5,248.5C 130.192,224.141 128.858,199.474 133.5,174.5 Z"/></g>
<g><path style="opacity:1" fill="#4ec8c4" d="M 480.5,222.5 C 479.466,238.244 475.799,253.244 469.5,267.5C 470.674,263.181 470.674,258.847 469.5,254.5C 470.15,254.804 470.817,255.137 471.5,255.5C 473.237,251.621 474.571,247.621 475.5,243.5C 474.471,243.704 473.471,243.204 472.5,242C 471.347,238.448 469.847,234.614 468,230.5C 467.667,228.167 467.333,225.833 467,223.5C 465.965,228.836 464.631,234.17 463,239.5C 462.505,237.527 462.338,235.527 462.5,233.5C 425.832,233.667 389.165,233.5 352.5,233C 351.781,230.444 350.114,229.277 347.5,229.5C 348.683,226.865 349.516,224.198 350,221.5C 348.106,224.873 345.273,226.873 341.5,227.5C 345.459,223.843 349.459,220.176 353.5,216.5C 356.225,215.287 358.559,213.454 360.5,211C 361.899,210.405 363.232,210.572 364.5,211.5C 365.604,210.369 365.271,209.535 363.5,209C 365.418,206.072 368.085,204.406 371.5,204C 371.167,203.667 370.833,203.333 370.5,203C 372.656,198.603 373.99,198.603 374.5,203C 376.747,204.374 378.913,205.874 381,207.5C 381.945,207.095 382.612,206.428 383,205.5C 384.299,206.98 385.966,207.646 388,207.5C 390.479,206.755 392.979,206.089 395.5,205.5C 402.066,207.154 408.733,207.821 415.5,207.5C 415.5,204.833 415.5,202.167 415.5,199.5C 418.167,199.5 420.833,199.5 423.5,199.5C 423.5,202.167 423.5,204.833 423.5,207.5C 426.167,207.5 428.833,207.5 431.5,207.5C 431.5,204.833 431.5,202.167 431.5,199.5C 434.167,199.5 436.833,199.5 439.5,199.5C 439.5,202.167 439.5,204.833 439.5,207.5C 444.167,207.5 448.833,207.5 453.5,207.5C 454.167,196.833 454.833,196.833 455.5,207.5C 460.833,207.5 466.167,207.5 471.5,207.5C 471.5,204.833 471.5,202.167 471.5,199.5C 474.5,199.5 477.5,199.5 480.5,199.5C 480.5,207.167 480.5,214.833 480.5,222.5 Z"/></g>
<g><path style="opacity:1" fill="#dbf5f4" d="M 238.5,198.5 C 235.955,202.394 232.955,206.061 229.5,209.5C 230.981,210.48 232.315,211.647 233.5,213C 245.167,213.167 256.833,213.333 268.5,213.5C 280.656,213.48 292.656,212.813 304.5,211.5C 305.386,212.325 305.719,213.325 305.5,214.5C 307.735,214.205 309.735,214.539 311.5,215.5C 283.167,215.5 254.833,215.5 226.5,215.5C 225.527,213.932 225.36,212.265 226,210.5C 228.372,208.297 230.539,205.963 232.5,203.5C 234.5,201.833 236.5,200.167 238.5,198.5 Z"/></g>
<g><path style="opacity:1" fill="#4ac7c3" d="M 226.5,215.5 C 254.833,215.5 283.167,215.5 311.5,215.5C 311.434,218.915 310.268,221.915 308,224.5C 297.868,237.452 288.368,250.786 279.5,264.5C 278.5,265.167 277.5,265.833 276.5,266.5C 277.537,263.173 278.704,259.839 280,256.5C 283.115,254.353 285.948,251.853 288.5,249C 287.809,247.933 287.309,246.766 287,245.5C 284.333,246.167 281.667,246.833 279,247.5C 278.895,251.37 278.062,255.037 276.5,258.5C 275.585,257.672 274.919,256.672 274.5,255.5C 276.17,251.683 275.504,248.349 272.5,245.5C 271.796,248.704 271.13,251.871 270.5,255C 233.835,255.5 197.168,255.667 160.5,255.5C 160.778,257.346 160.111,258.68 158.5,259.5C 157.05,258.345 156.05,256.845 155.5,255C 151.663,254.239 147.996,254.739 144.5,256.5C 149.31,257.137 153.31,259.304 156.5,263C 155.897,264.825 155.23,266.659 154.5,268.5C 152.579,263.453 148.913,261.119 143.5,261.5C 141.304,258.566 139.971,255.233 139.5,251.5C 139.043,250.702 138.376,250.369 137.5,250.5C 137.5,249.833 137.5,249.167 137.5,248.5C 135.06,235.02 133.393,221.354 132.5,207.5C 133.117,207.389 133.617,207.056 134,206.5C 134.988,209.424 135.654,212.424 136,215.5C 136.333,215.167 136.667,214.833 137,214.5C 137.333,217.167 137.667,219.833 138,222.5C 138.333,218.167 138.667,213.833 139,209.5C 139.249,208.376 139.749,207.376 140.5,206.5C 141.022,210.035 142.022,213.368 143.5,216.5C 155.564,217.996 167.564,217.662 179.5,215.5C 182.167,216.167 184.833,216.833 187.5,217.5C 190.167,216.833 192.833,216.167 195.5,215.5C 204.079,217.416 212.746,217.916 221.5,217C 221.167,216.667 220.833,216.333 220.5,216C 221.448,215.517 222.448,215.351 223.5,215.5C 224.639,218.004 225.306,220.67 225.5,223.5C 228.238,224.035 230.072,223.035 231,220.5C 233.737,221.61 236.571,221.777 239.5,221C 238.833,220.333 238.167,219.667 237.5,219C 233.514,218.501 229.514,218.334 225.5,218.5C 225.263,217.209 225.596,216.209 226.5,215.5 Z"/></g>
<g><path style="opacity:1" fill="#48c7c2" d="M 469.5,254.5 C 469.063,251.193 469.73,248.193 471.5,245.5C 471.167,245.167 470.833,244.833 470.5,244.5C 465.901,246.642 464.234,250.309 465.5,255.5C 422.499,255.667 379.499,255.5 336.5,255C 334.765,253.015 333.432,253.349 332.5,256C 331.552,256.483 330.552,256.649 329.5,256.5C 331.016,253.626 333.016,250.959 335.5,248.5C 334.897,247.365 334.564,246.365 334.5,245.5C 331.313,248.853 328.313,252.353 325.5,256C 324.207,256.49 322.873,256.657 321.5,256.5C 321.662,254.473 321.495,252.473 321,250.5C 320.329,249.748 319.496,249.414 318.5,249.5C 325.634,241.466 333.3,234.132 341.5,227.5C 345.273,226.873 348.106,224.873 350,221.5C 349.516,224.198 348.683,226.865 347.5,229.5C 350.114,229.277 351.781,230.444 352.5,233C 389.165,233.5 425.832,233.667 462.5,233.5C 462.338,235.527 462.505,237.527 463,239.5C 464.631,234.17 465.965,228.836 467,223.5C 467.333,225.833 467.667,228.167 468,230.5C 469.847,234.614 471.347,238.448 472.5,242C 473.471,243.204 474.471,243.704 475.5,243.5C 474.571,247.621 473.237,251.621 471.5,255.5C 470.817,255.137 470.15,254.804 469.5,254.5 Z"/></g>
<g><path style="opacity:1" fill="#42c7c0" d="M 276.5,266.5 C 273.082,272.337 269.416,278.004 265.5,283.5C 260.547,290.455 255.213,297.122 249.5,303.5C 249.5,302.167 249.5,300.833 249.5,299.5C 250.5,299.5 251.5,299.5 252.5,299.5C 252.617,297.516 251.95,295.85 250.5,294.5C 252.334,292.502 253.334,290.168 253.5,287.5C 252.5,287.5 251.5,287.5 250.5,287.5C 251.16,292.328 249.16,294.161 244.5,293C 245.997,289.828 244.997,287.995 241.5,287.5C 241.785,289.288 241.452,290.955 240.5,292.5C 239.692,292.192 239.025,291.692 238.5,291C 239.641,290.259 239.641,289.425 238.5,288.5C 234.667,288.167 230.833,287.833 227,287.5C 219.09,287.937 211.256,288.937 203.5,290.5C 196.859,289.668 190.192,289.335 183.5,289.5C 183.5,290.5 183.5,291.5 183.5,292.5C 180.833,292.5 178.167,292.5 175.5,292.5C 175.56,296.327 174.393,296.994 172,294.5C 172.14,292.149 172.64,289.816 173.5,287.5C 170.768,289.035 168.102,290.869 165.5,293C 166.158,294.905 167.325,296.405 169,297.5C 169.287,299.891 169.787,302.224 170.5,304.5C 169.302,304.94 168.135,305.273 167,305.5C 166.805,306.819 166.972,308.153 167.5,309.5C 165.478,307.469 163.811,305.135 162.5,302.5C 161.043,298.906 159.543,295.239 158,291.5C 157.667,291.833 157.333,292.167 157,292.5C 155.632,291.007 155.465,289.507 156.5,288C 155.323,284.698 153.489,282.531 151,281.5C 147.863,275.074 145.363,268.407 143.5,261.5C 148.913,261.119 152.579,263.453 154.5,268.5C 155.23,266.659 155.897,264.825 156.5,263C 153.31,259.304 149.31,257.137 144.5,256.5C 147.996,254.739 151.663,254.239 155.5,255C 156.05,256.845 157.05,258.345 158.5,259.5C 160.111,258.68 160.778,257.346 160.5,255.5C 197.168,255.667 233.835,255.5 270.5,255C 271.13,251.871 271.796,248.704 272.5,245.5C 275.504,248.349 276.17,251.683 274.5,255.5C 274.919,256.672 275.585,257.672 276.5,258.5C 278.062,255.037 278.895,251.37 279,247.5C 281.667,246.833 284.333,246.167 287,245.5C 287.309,246.766 287.809,247.933 288.5,249C 285.948,251.853 283.115,254.353 280,256.5C 278.704,259.839 277.537,263.173 276.5,266.5 Z"/></g>
<g><path style="opacity:1" fill="#68c8be" d="M 137.5,250.5 C 138.376,250.369 139.043,250.702 139.5,251.5C 139.971,255.233 141.304,258.566 143.5,261.5C 145.363,268.407 147.863,275.074 151,281.5C 153.489,282.531 155.323,284.698 156.5,288C 155.465,289.507 155.632,291.007 157,292.5C 157.333,292.167 157.667,291.833 158,291.5C 159.543,295.239 161.043,298.906 162.5,302.5C 150.997,286.823 142.663,269.489 137.5,250.5 Z"/></g>
<g><path style="opacity:1" fill="#42c7c0" d="M 469.5,254.5 C 470.674,258.847 470.674,263.181 469.5,267.5C 465.372,279.094 459.705,289.761 452.5,299.5C 452.357,297.738 452.691,296.071 453.5,294.5C 452.645,293.707 451.811,294.04 451,295.5C 450.505,293.527 450.338,291.527 450.5,289.5C 453.114,289.723 454.781,288.556 455.5,286C 453.311,285.323 452.978,284.156 454.5,282.5C 453.915,279.152 452.582,276.152 450.5,273.5C 449.28,273.887 448.613,274.72 448.5,276C 449.046,278.861 450.046,281.527 451.5,284C 450.809,285.067 450.309,286.234 450,287.5C 449.396,285.314 448.23,285.148 446.5,287C 414.835,287.5 383.168,287.667 351.5,287.5C 351.5,285.5 351.5,283.5 351.5,281.5C 346.167,281.5 340.833,281.5 335.5,281.5C 335.5,283.5 335.5,285.5 335.5,287.5C 327.5,287.5 319.5,287.5 311.5,287.5C 311.5,288.5 311.5,289.5 311.5,290.5C 304.122,291.094 297.455,289.428 291.5,285.5C 290.667,286.5 289.833,287.5 289,288.5C 290.165,285.545 290.665,282.545 290.5,279.5C 291.167,279.167 291.833,278.833 292.5,278.5C 294.544,282.045 297.377,284.711 301,286.5C 301.745,284.797 302.579,283.13 303.5,281.5C 303.333,280.833 303.167,280.167 303,279.5C 301.736,281.607 299.903,282.607 297.5,282.5C 297.137,280.089 298.137,278.589 300.5,278C 298.5,277.667 296.5,277.333 294.5,277C 293.922,275.583 292.922,274.75 291.5,274.5C 300.173,265.827 309.173,257.494 318.5,249.5C 319.496,249.414 320.329,249.748 321,250.5C 321.495,252.473 321.662,254.473 321.5,256.5C 322.873,256.657 324.207,256.49 325.5,256C 328.313,252.353 331.313,248.853 334.5,245.5C 334.564,246.365 334.897,247.365 335.5,248.5C 333.016,250.959 331.016,253.626 329.5,256.5C 330.552,256.649 331.552,256.483 332.5,256C 333.432,253.349 334.765,253.015 336.5,255C 379.499,255.5 422.499,255.667 465.5,255.5C 464.234,250.309 465.901,246.642 470.5,244.5C 470.833,244.833 471.167,245.167 471.5,245.5C 469.73,248.193 469.063,251.193 469.5,254.5 Z"/></g>
<g><path style="opacity:1" fill="#e0fcfb" d="M 279.5,264.5 C 277.025,272.416 272.358,278.75 265.5,283.5C 269.416,278.004 273.082,272.337 276.5,266.5C 277.5,265.833 278.5,265.167 279.5,264.5 Z"/></g>
<g><path style="opacity:1" fill="#3cc7be" d="M 249.5,303.5 C 247.9,305.571 247.4,307.905 248,310.5C 249.49,311.728 250.99,311.728 252.5,310.5C 248.962,312.35 245.128,314.017 241,315.5C 240.5,315.333 240,315.167 239.5,315C 240.337,313.989 240.67,312.822 240.5,311.5C 218.831,311.333 197.164,311.5 175.5,312C 174.376,312.249 173.376,312.749 172.5,313.5C 174.559,314.951 175.559,316.951 175.5,319.5C 172.484,316.48 169.817,313.146 167.5,309.5C 166.972,308.153 166.805,306.819 167,305.5C 168.135,305.273 169.302,304.94 170.5,304.5C 169.787,302.224 169.287,299.891 169,297.5C 167.325,296.405 166.158,294.905 165.5,293C 168.102,290.869 170.768,289.035 173.5,287.5C 172.64,289.816 172.14,292.149 172,294.5C 174.393,296.994 175.56,296.327 175.5,292.5C 178.167,292.5 180.833,292.5 183.5,292.5C 183.5,291.5 183.5,290.5 183.5,289.5C 190.192,289.335 196.859,289.668 203.5,290.5C 211.256,288.937 219.09,287.937 227,287.5C 230.833,287.833 234.667,288.167 238.5,288.5C 239.641,289.425 239.641,290.259 238.5,291C 239.025,291.692 239.692,292.192 240.5,292.5C 241.452,290.955 241.785,289.288 241.5,287.5C 244.997,287.995 245.997,289.828 244.5,293C 249.16,294.161 251.16,292.328 250.5,287.5C 251.5,287.5 252.5,287.5 253.5,287.5C 253.334,290.168 252.334,292.502 250.5,294.5C 251.95,295.85 252.617,297.516 252.5,299.5C 251.5,299.5 250.5,299.5 249.5,299.5C 249.5,300.833 249.5,302.167 249.5,303.5 Z"/></g>
<g><path style="opacity:1" fill="#3dc6be" d="M 452.5,299.5 C 446.003,310.338 438.003,320.005 428.5,328.5C 428.371,326.784 428.038,325.117 427.5,323.5C 429.499,324.857 430.665,324.19 431,321.5C 431.333,321.833 431.667,322.167 432,322.5C 432.791,320.396 434.291,319.063 436.5,318.5C 435.592,315.013 433.926,312.013 431.5,309.5C 404.98,310.825 378.313,311.491 351.5,311.5C 323.946,311.47 296.446,310.804 269,309.5C 265.06,310.094 262.226,312.261 260.5,316C 256.166,315.839 252.333,317.006 249,319.5C 247.378,319.046 246.212,318.046 245.5,316.5C 249.737,315.048 253.737,313.048 257.5,310.5C 258.812,311.46 260.146,311.294 261.5,310C 262.433,306.87 263.933,304.036 266,301.5C 267.617,302.536 267.784,303.703 266.5,305C 270.148,305.062 273.815,304.895 277.5,304.5C 277.5,303.167 277.5,301.833 277.5,300.5C 275.354,300.878 273.187,301.212 271,301.5C 269.284,301.252 267.784,300.585 266.5,299.5C 262.369,303.977 257.703,307.644 252.5,310.5C 260.992,302.508 269.325,294.342 277.5,286C 282.04,281.954 286.707,278.121 291.5,274.5C 292.922,274.75 293.922,275.583 294.5,277C 296.5,277.333 298.5,277.667 300.5,278C 298.137,278.589 297.137,280.089 297.5,282.5C 299.903,282.607 301.736,281.607 303,279.5C 303.167,280.167 303.333,280.833 303.5,281.5C 302.579,283.13 301.745,284.797 301,286.5C 297.377,284.711 294.544,282.045 292.5,278.5C 291.833,278.833 291.167,279.167 290.5,279.5C 290.665,282.545 290.165,285.545 289,288.5C 289.833,287.5 290.667,286.5 291.5,285.5C 297.455,289.428 304.122,291.094 311.5,290.5C 311.5,289.5 311.5,288.5 311.5,287.5C 319.5,287.5 327.5,287.5 335.5,287.5C 335.5,285.5 335.5,283.5 335.5,281.5C 340.833,281.5 346.167,281.5 351.5,281.5C 351.5,283.5 351.5,285.5 351.5,287.5C 383.168,287.667 414.835,287.5 446.5,287C 448.23,285.148 449.396,285.314 450,287.5C 450.309,286.234 450.809,285.067 451.5,284C 450.046,281.527 449.046,278.861 448.5,276C 448.613,274.72 449.28,273.887 450.5,273.5C 452.582,276.152 453.915,279.152 454.5,282.5C 452.978,284.156 453.311,285.323 455.5,286C 454.781,288.556 453.114,289.723 450.5,289.5C 450.338,291.527 450.505,293.527 451,295.5C 451.811,294.04 452.645,293.707 453.5,294.5C 452.691,296.071 452.357,297.738 452.5,299.5 Z"/></g>
<g><path style="opacity:1" fill="#36c7bc" d="M 427.5,323.5 C 423.594,322.798 420.094,321.131 417,318.5C 415.72,318.613 414.887,319.28 414.5,320.5C 420.888,322.069 420.888,323.736 414.5,325.5C 414.5,326.833 414.5,328.167 414.5,329.5C 377.112,330.157 339.946,329.49 303,327.5C 301.451,330.003 299.784,330.003 298,327.5C 276.025,329.004 253.859,330.337 231.5,331.5C 219.777,330.177 208.11,329.011 196.5,328C 197.167,328.333 197.833,328.667 198.5,329C 195.22,329.056 192.22,329.889 189.5,331.5C 191.261,332.917 192.594,334.583 193.5,336.5C 186.869,331.537 180.869,325.87 175.5,319.5C 175.559,316.951 174.559,314.951 172.5,313.5C 173.376,312.749 174.376,312.249 175.5,312C 197.164,311.5 218.831,311.333 240.5,311.5C 240.67,312.822 240.337,313.989 239.5,315C 240,315.167 240.5,315.333 241,315.5C 245.128,314.017 248.962,312.35 252.5,310.5C 257.703,307.644 262.369,303.977 266.5,299.5C 267.784,300.585 269.284,301.252 271,301.5C 273.187,301.212 275.354,300.878 277.5,300.5C 277.5,301.833 277.5,303.167 277.5,304.5C 273.815,304.895 270.148,305.062 266.5,305C 267.784,303.703 267.617,302.536 266,301.5C 263.933,304.036 262.433,306.87 261.5,310C 260.146,311.294 258.812,311.46 257.5,310.5C 253.737,313.048 249.737,315.048 245.5,316.5C 246.212,318.046 247.378,319.046 249,319.5C 252.333,317.006 256.166,315.839 260.5,316C 262.226,312.261 265.06,310.094 269,309.5C 296.446,310.804 323.946,311.47 351.5,311.5C 378.313,311.491 404.98,310.825 431.5,309.5C 433.926,312.013 435.592,315.013 436.5,318.5C 434.291,319.063 432.791,320.396 432,322.5C 431.667,322.167 431.333,321.833 431,321.5C 430.665,324.19 429.499,324.857 427.5,323.5 Z"/></g>
<g><path style="opacity:1" fill="#31c6b9" d="M 427.5,323.5 C 428.038,325.117 428.371,326.784 428.5,328.5C 407.659,349.764 382.659,364.097 353.5,371.5C 348.738,371.533 344.071,372.199 339.5,373.5C 337.68,373.351 336.18,372.684 335,371.5C 331.892,373.073 328.726,374.573 325.5,376C 309.153,376.703 292.819,376.536 276.5,375.5C 244.768,370.722 217.101,357.722 193.5,336.5C 192.594,334.583 191.261,332.917 189.5,331.5C 192.22,329.889 195.22,329.056 198.5,329C 197.833,328.667 197.167,328.333 196.5,328C 208.11,329.011 219.777,330.177 231.5,331.5C 253.859,330.337 276.025,329.004 298,327.5C 299.784,330.003 301.451,330.003 303,327.5C 339.946,329.49 377.112,330.157 414.5,329.5C 414.5,328.167 414.5,326.833 414.5,325.5C 420.888,323.736 420.888,322.069 414.5,320.5C 414.887,319.28 415.72,318.613 417,318.5C 420.094,321.131 423.594,322.798 427.5,323.5 Z"/></g>
<g><path style="opacity:1" fill="#5dc7ba" d="M 353.5,371.5 C 342.919,375.116 331.919,377.282 320.5,378C 311.167,378.667 301.833,378.667 292.5,378C 286.936,377.751 281.602,376.918 276.5,375.5C 292.819,376.536 309.153,376.703 325.5,376C 328.726,374.573 331.892,373.073 335,371.5C 336.18,372.684 337.68,373.351 339.5,373.5C 344.071,372.199 348.738,371.533 353.5,371.5 Z"/></g>
</svg>
