<?xml version="1.0" encoding="UTF-8"?>
<!DOCTYPE svg PUBLIC "-//W3C//DTD SVG 1.1//EN" "http://www.w3.org/Graphics/SVG/1.1/DTD/svg11.dtd">
<svg xmlns="http://www.w3.org/2000/svg" version="1.1" width="474px" height="395px" style="shape-rendering:geometricPrecision; text-rendering:geometricPrecision; image-rendering:optimizeQuality; fill-rule:evenodd; clip-rule:evenodd" xmlns:xlink="http://www.w3.org/1999/xlink">
<g><path style="opacity:0.116" fill="#969696" d="M 247.5,23.5 C 253.726,23.3877 259.726,24.0543 265.5,25.5C 259.288,25.4766 253.288,24.8099 247.5,23.5 Z"/></g>
<g><path style="opacity:0.999" fill="#343434" d="M 247.5,23.5 C 253.288,24.8099 259.288,25.4766 265.5,25.5C 271.007,25.735 276.34,26.735 281.5,28.5C 286.222,30.7408 291.222,32.4074 296.5,33.5C 297.791,33.2627 298.791,33.596 299.5,34.5C 301.848,37.1533 304.848,38.4866 308.5,38.5C 314.419,40.1263 319.753,42.7929 324.5,46.5C 324.973,47.9063 325.973,48.573 327.5,48.5C 328.492,48.3284 329.158,48.6618 329.5,49.5C 329.973,50.9063 330.973,51.573 332.5,51.5C 332.973,52.9063 333.973,53.573 335.5,53.5C 336.035,55.4456 337.368,56.4456 339.5,56.5C 340.262,58.2624 341.596,59.2624 343.5,59.5C 344.539,61.5311 346.205,62.8645 348.5,63.5C 349.833,64.1667 350.833,65.1667 351.5,66.5C 353.239,69.2427 355.573,71.2427 358.5,72.5C 359.5,72.8333 360.167,73.5 360.5,74.5C 361.757,77.4274 363.757,79.7607 366.5,81.5C 382.225,98.2648 393.891,117.598 401.5,139.5C 400.229,143.7 401.229,147.367 404.5,150.5C 410.804,172.761 412.471,195.427 409.5,218.5C 408.105,222.591 407.438,226.924 407.5,231.5C 406.948,237.373 405.615,243.039 403.5,248.5C 402.778,248.918 402.278,249.584 402,250.5C 401.667,250.167 401.333,249.833 401,249.5C 400.697,251.888 399.863,254.055 398.5,256C 399.38,257.356 399.714,258.856 399.5,260.5C 398.618,264.593 396.951,268.26 394.5,271.5C 392.659,273.849 391.326,276.515 390.5,279.5C 390.008,281.819 389.008,283.819 387.5,285.5C 386.5,285.5 385.5,285.5 384.5,285.5C 384.5,287.167 384.5,288.833 384.5,290.5C 383.25,290.423 382.417,289.756 382,288.5C 381.091,291.513 380.258,294.513 379.5,297.5C 334.434,357.001 274.767,380.501 200.5,368C 149.864,356.021 111.031,327.854 84,283.5C 81.2152,278.265 78.7152,272.932 76.5,267.5C 77.4319,265.227 77.7652,263.061 77.5,261C 74.8537,258.96 74.8537,256.96 77.5,255C 76.8095,253.933 76.3095,252.766 76,251.5C 72.4592,250.981 70.2926,248.981 69.5,245.5C 70.0253,244.808 70.6919,244.308 71.5,244C 69.867,243.52 68.5336,242.687 67.5,241.5C 61.9531,220.302 60.6198,198.969 63.5,177.5C 64.6389,173.699 65.4723,169.699 66,165.5C 66.9138,166.654 67.7471,166.487 68.5,165C 66.9837,163.103 66.317,160.936 66.5,158.5C 66.5,158.167 66.5,157.833 66.5,157.5C 67.6611,154.898 68.8277,152.231 70,149.5C 70.4955,147.527 70.6621,145.527 70.5,143.5C 72.1408,135.234 75.1408,127.567 79.5,120.5C 82.7681,117.638 84.7681,113.972 85.5,109.5C 86.9063,109.027 87.573,108.027 87.5,106.5C 88.9063,106.027 89.573,105.027 89.5,103.5C 89.427,101.973 90.0937,100.973 91.5,100.5C 92.9063,100.027 93.573,99.0269 93.5,97.5C 95.2624,96.7377 96.2624,95.4044 96.5,93.5C 98.2624,92.7377 99.2624,91.4044 99.5,89.5C 101.914,88.0892 103.581,86.0892 104.5,83.5C 104.5,82.8333 104.833,82.5 105.5,82.5C 108.243,80.7607 110.243,78.4274 111.5,75.5C 117.803,70.5315 123.803,65.1982 129.5,59.5C 131.404,59.2624 132.738,58.2624 133.5,56.5C 135.027,56.573 136.027,55.9063 136.5,54.5C 138.027,54.573 139.027,53.9063 139.5,52.5C 141.404,52.2624 142.738,51.2624 143.5,49.5C 143.842,48.6618 144.508,48.3284 145.5,48.5C 147.027,48.573 148.027,47.9063 148.5,46.5C 150.027,46.573 151.027,45.9063 151.5,44.5C 151.833,44.5 152.167,44.5 152.5,44.5C 154.027,44.573 155.027,43.9063 155.5,42.5C 160.307,39.0995 165.64,36.7662 171.5,35.5C 175.358,35.2299 178.691,33.8966 181.5,31.5C 181.833,31.5 182.167,31.5 182.5,31.5C 187.458,30.3952 192.458,29.3952 197.5,28.5C 199.568,28.9672 201.568,29.6339 203.5,30.5C 203.833,30.1667 204.167,29.8333 204.5,29.5C 203.271,28.7189 201.938,28.2189 200.5,28C 203.104,27.6097 205.438,26.7763 207.5,25.5C 220.634,22.945 233.968,22.2783 247.5,23.5 Z"/></g>
<g><path style="opacity:1" fill="#5b5b5b" d="M 207.5,25.5 C 205.438,26.7763 203.104,27.6097 200.5,28C 201.938,28.2189 203.271,28.7189 204.5,29.5C 204.167,29.8333 203.833,30.1667 203.5,30.5C 201.568,29.6339 199.568,28.9672 197.5,28.5C 192.458,29.3952 187.458,30.3952 182.5,31.5C 190.392,28.1113 198.725,26.1113 207.5,25.5 Z"/></g>
<g><path style="opacity:0.224" fill="#9a9a9a" d="M 281.5,28.5 C 286.921,29.1959 291.921,30.8626 296.5,33.5C 291.222,32.4074 286.222,30.7408 281.5,28.5 Z"/></g>
<g><path style="opacity:0.486" fill="#6b6b6b" d="M 181.5,31.5 C 178.691,33.8966 175.358,35.2299 171.5,35.5C 174.518,33.6001 177.851,32.2667 181.5,31.5 Z"/></g>
<g><path style="opacity:0.796" fill="#797979" d="M 299.5,34.5 C 302.912,35.0421 305.912,36.3754 308.5,38.5C 304.848,38.4866 301.848,37.1533 299.5,34.5 Z"/></g>
<g><path style="opacity:0.306" fill="#969696" d="M 155.5,42.5 C 155.027,43.9063 154.027,44.573 152.5,44.5C 152.973,43.0937 153.973,42.427 155.5,42.5 Z"/></g>
<g><path style="opacity:0.196" fill="#b9b9b9" d="M 151.5,44.5 C 151.027,45.9063 150.027,46.573 148.5,46.5C 148.973,45.0937 149.973,44.427 151.5,44.5 Z"/></g>
<g><path style="opacity:0.31" fill="#9d9d9d" d="M 148.5,46.5 C 148.027,47.9063 147.027,48.573 145.5,48.5C 145.973,47.0937 146.973,46.427 148.5,46.5 Z"/></g>
<g><path style="opacity:0.063" fill="#b5b5b5" d="M 324.5,46.5 C 326.027,46.427 327.027,47.0937 327.5,48.5C 325.973,48.573 324.973,47.9063 324.5,46.5 Z"/></g>
<g><path style="opacity:0.216" fill="#b2b2b2" d="M 143.5,49.5 C 142.738,51.2624 141.404,52.2624 139.5,52.5C 140.262,50.7376 141.596,49.7376 143.5,49.5 Z"/></g>
<g><path style="opacity:0.055" fill="#cccccc" d="M 329.5,49.5 C 331.027,49.427 332.027,50.0937 332.5,51.5C 330.973,51.573 329.973,50.9063 329.5,49.5 Z"/></g>
<g><path style="opacity:0.067" fill="#c9c9c9" d="M 332.5,51.5 C 334.027,51.427 335.027,52.0937 335.5,53.5C 333.973,53.573 332.973,52.9063 332.5,51.5 Z"/></g>
<g><path style="opacity:0.416" fill="#8f8f8f" d="M 139.5,52.5 C 139.027,53.9063 138.027,54.573 136.5,54.5C 136.973,53.0937 137.973,52.427 139.5,52.5 Z"/></g>
<g><path style="opacity:0.565" fill="#939393" d="M 335.5,53.5 C 337.23,54.0256 338.564,55.0256 339.5,56.5C 337.368,56.4456 336.035,55.4456 335.5,53.5 Z"/></g>
<g><path style="opacity:0.251" fill="#a9a9a9" d="M 136.5,54.5 C 136.027,55.9063 135.027,56.573 133.5,56.5C 133.973,55.0937 134.973,54.427 136.5,54.5 Z"/></g>
<g><path style="opacity:0.192" fill="#bcbcbc" d="M 133.5,56.5 C 132.738,58.2624 131.404,59.2624 129.5,59.5C 130.262,57.7376 131.596,56.7376 133.5,56.5 Z"/></g>
<g><path style="opacity:0.043" fill="#c1c1c1" d="M 339.5,56.5 C 341.404,56.7376 342.738,57.7376 343.5,59.5C 341.596,59.2624 340.262,58.2624 339.5,56.5 Z"/></g>
<g><path style="opacity:0.208" fill="#a4a4a4" d="M 343.5,59.5 C 345.754,60.1237 347.421,61.457 348.5,63.5C 346.205,62.8645 344.539,61.5311 343.5,59.5 Z"/></g>
<g><path style="opacity:0.012" fill="#bebebe" d="M 351.5,66.5 C 354.427,67.7573 356.761,69.7573 358.5,72.5C 355.573,71.2427 353.239,69.2427 351.5,66.5 Z"/></g>
<g><path style="opacity:0.212" fill="#ababab" d="M 129.5,59.5 C 123.803,65.1982 117.803,70.5315 111.5,75.5C 116.602,69.059 122.602,63.7256 129.5,59.5 Z"/></g>
<g><path style="opacity:0.306" fill="#b2b2b2" d="M 360.5,74.5 C 363.243,76.2393 365.243,78.5726 366.5,81.5C 363.757,79.7607 361.757,77.4274 360.5,74.5 Z"/></g>
<g><path style="opacity:0.2" fill="#acacac" d="M 111.5,75.5 C 110.243,78.4274 108.243,80.7607 105.5,82.5C 106.757,79.5726 108.757,77.2393 111.5,75.5 Z"/></g>
<g><path style="opacity:0.239" fill="#a8a8a8" d="M 104.5,83.5 C 103.581,86.0892 101.914,88.0892 99.5,89.5C 100.419,86.9108 102.086,84.9108 104.5,83.5 Z"/></g>
<g><path style="opacity:0.427" fill="#9a9a9a" d="M 99.5,89.5 C 99.2624,91.4044 98.2624,92.7377 96.5,93.5C 96.7376,91.5956 97.7376,90.2623 99.5,89.5 Z"/></g>
<g><path style="opacity:0.224" fill="#9f9f9f" d="M 96.5,93.5 C 96.2624,95.4044 95.2624,96.7377 93.5,97.5C 93.7376,95.5956 94.7376,94.2623 96.5,93.5 Z"/></g>
<g><path style="opacity:0.169" fill="#9f9f9f" d="M 93.5,97.5 C 93.573,99.0269 92.9063,100.027 91.5,100.5C 91.427,98.9731 92.0937,97.9731 93.5,97.5 Z"/></g>
<g><path style="opacity:0.157" fill="#9e9e9e" d="M 89.5,103.5 C 89.573,105.027 88.9063,106.027 87.5,106.5C 87.427,104.973 88.0937,103.973 89.5,103.5 Z"/></g>
<g><path style="opacity:0.122" fill="#b6b6b6" d="M 87.5,106.5 C 87.573,108.027 86.9063,109.027 85.5,109.5C 85.427,107.973 86.0937,106.973 87.5,106.5 Z"/></g>
<g><path style="opacity:0.782" fill="#6e6e6e" d="M 85.5,109.5 C 84.7681,113.972 82.7681,117.638 79.5,120.5C 80.7417,116.345 82.7417,112.678 85.5,109.5 Z"/></g>
<g><path style="opacity:1" fill="#adadad" d="M 265.5,130.5 C 256.318,130.173 247.318,130.507 238.5,131.5C 237.957,131.44 237.624,131.107 237.5,130.5C 246.992,129.178 256.325,129.178 265.5,130.5 Z"/></g>
<g><path style="opacity:1" fill="#aaaaaa" d="M 331.5,130.5 C 340.342,129.178 349.342,129.178 358.5,130.5C 358.376,131.107 358.043,131.44 357.5,131.5C 349.016,130.507 340.349,130.174 331.5,130.5 Z"/></g>
<g><path style="opacity:1" fill="#f9f9f9" d="M 227.5,188.5 C 227.5,192.833 227.5,197.167 227.5,201.5C 195.329,201.168 163.329,201.502 131.5,202.5C 130.43,224.728 140.43,239.061 161.5,245.5C 164.146,246.164 166.979,246.498 170,246.5C 175.079,246.595 179.912,245.928 184.5,244.5C 195.226,241.108 202.226,234.108 205.5,223.5C 212.167,223.5 218.833,223.5 225.5,223.5C 225.5,224.5 225.5,225.5 225.5,226.5C 219.861,247.011 206.528,259.345 185.5,263.5C 177.529,264.323 169.529,264.656 161.5,264.5C 137.23,260.954 121.063,247.62 113,224.5C 104.234,198.41 107.567,174.077 123,151.5C 145.009,127.953 170.509,123.12 199.5,137C 216.807,149.776 226.14,166.943 227.5,188.5 Z"/></g>
<g><path style="opacity:1" fill="#f9f9f9" d="M 265.5,130.5 C 276.47,145.653 287.304,160.987 298,176.5C 308.943,160.922 320.11,145.589 331.5,130.5C 340.349,130.174 349.016,130.507 357.5,131.5C 342.521,151.432 327.521,171.432 312.5,191.5C 329.009,215.851 346.009,239.851 363.5,263.5C 354.184,264.665 344.851,264.832 335.5,264C 322.877,245.92 310.377,227.754 298,209.5C 285.572,227.366 273.406,245.366 261.5,263.5C 252.402,264.815 243.402,264.815 234.5,263.5C 250.706,240.258 267.04,217.091 283.5,194C 268.683,173.02 253.683,152.186 238.5,131.5C 247.318,130.507 256.318,130.173 265.5,130.5 Z"/></g>
<g><path style="opacity:0.659" fill="#616161" d="M 401.5,139.5 C 403.074,142.907 404.074,146.573 404.5,150.5C 401.229,147.367 400.229,143.7 401.5,139.5 Z"/></g>
<g><path style="opacity:1" fill="#606060" d="M 176.5,149.5 C 169.798,149.336 163.131,149.669 156.5,150.5C 160.034,148.952 163.867,148.286 168,148.5C 171.021,148.502 173.854,148.836 176.5,149.5 Z"/></g>
<g><path style="opacity:0.38" fill="#656565" d="M 70.5,143.5 C 70.6621,145.527 70.4955,147.527 70,149.5C 68.8277,152.231 67.6611,154.898 66.5,157.5C 66.9205,152.471 68.2538,147.805 70.5,143.5 Z"/></g>
<g><path style="opacity:1" fill="#343434" d="M 176.5,149.5 C 194.085,154.084 203.751,165.418 205.5,183.5C 181.006,184.498 156.339,184.831 131.5,184.5C 132.553,167.699 140.886,156.366 156.5,150.5C 163.131,149.669 169.798,149.336 176.5,149.5 Z"/></g>
<g><path style="opacity:0.842" fill="#565656" d="M 66.5,158.5 C 66.317,160.936 66.9837,163.103 68.5,165C 67.7471,166.487 66.9138,166.654 66,165.5C 65.4723,169.699 64.6389,173.699 63.5,177.5C 63.5473,170.889 64.5473,164.556 66.5,158.5 Z"/></g>
<g><path style="opacity:1" fill="#969696" d="M 205.5,183.5 C 206.043,183.56 206.376,183.893 206.5,184.5C 181.337,185.829 156.337,185.829 131.5,184.5C 156.339,184.831 181.006,184.498 205.5,183.5 Z"/></g>
<g><path style="opacity:1" fill="#d8d8d8" d="M 227.5,188.5 C 228.486,192.97 228.819,197.637 228.5,202.5C 196.167,202.5 163.833,202.5 131.5,202.5C 163.329,201.502 195.329,201.168 227.5,201.5C 227.5,197.167 227.5,192.833 227.5,188.5 Z"/></g>
<g><path style="opacity:1" fill="#959595" d="M 205.5,223.5 C 212.313,222.509 219.313,222.175 226.5,222.5C 226.768,224.099 226.434,225.432 225.5,226.5C 225.5,225.5 225.5,224.5 225.5,223.5C 218.833,223.5 212.167,223.5 205.5,223.5 Z"/></g>
<g><path style="opacity:0.22" fill="#767676" d="M 409.5,218.5 C 409.562,223.076 408.895,227.409 407.5,231.5C 407.438,226.924 408.105,222.591 409.5,218.5 Z"/></g>
<g><path style="opacity:1" fill="#717171" d="M 184.5,244.5 C 179.912,245.928 175.079,246.595 170,246.5C 166.979,246.498 164.146,246.164 161.5,245.5C 169.187,245.54 176.854,245.207 184.5,244.5 Z"/></g>
<g><path style="opacity:0.89" fill="#4c4c4c" d="M 67.5,241.5 C 68.5336,242.687 69.867,243.52 71.5,244C 70.6919,244.308 70.0253,244.808 69.5,245.5C 70.2926,248.981 72.4592,250.981 76,251.5C 76.3095,252.766 76.8095,253.933 77.5,255C 74.8537,256.96 74.8537,258.96 77.5,261C 77.7652,263.061 77.4319,265.227 76.5,267.5C 72.3328,259.335 69.3328,250.668 67.5,241.5 Z"/></g>
<g><path style="opacity:0.678" fill="#5f5f5f" d="M 403.5,248.5 C 402.739,252.784 401.405,256.784 399.5,260.5C 399.714,258.856 399.38,257.356 398.5,256C 399.863,254.055 400.697,251.888 401,249.5C 401.333,249.833 401.667,250.167 402,250.5C 402.278,249.584 402.778,248.918 403.5,248.5 Z"/></g>
<g><path style="opacity:1" fill="#6a6a6a" d="M 185.5,263.5 C 181.104,265.033 176.437,265.7 171.5,265.5C 167.982,265.498 164.649,265.165 161.5,264.5C 169.529,264.656 177.529,264.323 185.5,263.5 Z"/></g>
<g><path style="opacity:1" fill="#7f7f7f" d="M 234.5,263.5 C 243.402,264.815 252.402,264.815 261.5,263.5C 257.217,264.827 252.551,265.493 247.5,265.5C 242.833,265.167 238.167,264.833 233.5,264.5C 233.624,263.893 233.957,263.56 234.5,263.5 Z"/></g>
<g><path style="opacity:0.102" fill="#b8b8b8" d="M 394.5,271.5 C 394.206,274.754 392.873,277.421 390.5,279.5C 391.326,276.515 392.659,273.849 394.5,271.5 Z"/></g>
<g><path style="opacity:0.694" fill="#7c7c7c" d="M 387.5,285.5 C 386.737,287.368 385.737,289.035 384.5,290.5C 384.5,288.833 384.5,287.167 384.5,285.5C 385.5,285.5 386.5,285.5 387.5,285.5 Z"/></g>
<g><path style="opacity:0.937" fill="#686868" d="M 384.5,290.5 C 383.066,293.047 381.4,295.381 379.5,297.5C 380.258,294.513 381.091,291.513 382,288.5C 382.417,289.756 383.25,290.423 384.5,290.5 Z"/></g>
</svg>
