<?xml version="1.0" encoding="UTF-8"?>
<!DOCTYPE svg PUBLIC "-//W3C//DTD SVG 1.1//EN" "http://www.w3.org/Graphics/SVG/1.1/DTD/svg11.dtd">
<svg xmlns="http://www.w3.org/2000/svg" version="1.1" width="474px" height="521px" style="shape-rendering:geometricPrecision; text-rendering:geometricPrecision; image-rendering:optimizeQuality; fill-rule:evenodd; clip-rule:evenodd" xmlns:xlink="http://www.w3.org/1999/xlink">
<g><path style="opacity:0.949" fill="#b7e084" d="M 230.5,-0.5 C 235.167,-0.5 239.833,-0.5 244.5,-0.5C 245.5,0.166667 246.5,0.833333 247.5,1.5C 244.833,1.5 242.167,1.5 239.5,1.5C 236.5,1.5 233.5,1.5 230.5,1.5C 230.167,1.5 229.833,1.5 229.5,1.5C 229.833,0.833333 230.167,0.166667 230.5,-0.5 Z"/></g>
<g><path style="opacity:0.224" fill="#dff1be" d="M 228.5,-0.5 C 229.167,-0.5 229.833,-0.5 230.5,-0.5C 230.167,0.166667 229.833,0.833333 229.5,1.5C 223.312,2.92715 217.312,4.92715 211.5,7.5C 213.428,5.52594 215.761,4.02594 218.5,3C 221.98,1.89744 225.313,0.73077 228.5,-0.5 Z"/></g>
<g><path style="opacity:0.263" fill="#c9e5a9" d="M 247.5,1.5 C 250.542,1.73292 253.208,2.73292 255.5,4.5C 252.364,4.39685 249.698,3.39685 247.5,1.5 Z"/></g>
<g><path style="opacity:0.941" fill="#90be61" d="M 239.5,1.5 C 242.167,1.5 244.833,1.5 247.5,1.5C 249.698,3.39685 252.364,4.39685 255.5,4.5C 256.306,5.72813 257.306,6.72813 258.5,7.5C 251.961,5.99727 245.627,3.99727 239.5,1.5 Z"/></g>
<g><path style="opacity:1" fill="#94be5d" d="M 229.5,1.5 C 229.833,1.5 230.167,1.5 230.5,1.5C 229.71,2.40128 228.71,3.06795 227.5,3.5C 226.127,3.34332 224.793,3.50999 223.5,4C 221.12,6.35439 218.454,8.35439 215.5,10C 212.348,10.3949 209.348,11.2282 206.5,12.5C 208.167,10.8333 209.833,9.16667 211.5,7.5C 217.312,4.92715 223.312,2.92715 229.5,1.5 Z"/></g>
<g><path style="opacity:1" fill="#8bc84b" d="M 230.5,1.5 C 233.5,1.5 236.5,1.5 239.5,1.5C 245.627,3.99727 251.961,5.99727 258.5,7.5C 259.028,8.72065 259.695,9.88732 260.5,11C 262.608,11.3599 264.608,12.0266 266.5,13C 267.337,14.0113 267.67,15.1779 267.5,16.5C 268.833,16.5 270.167,16.5 271.5,16.5C 271.201,18.604 271.534,20.604 272.5,22.5C 274.881,20.6075 277.547,20.1075 280.5,21C 282.107,22.049 282.773,23.549 282.5,25.5C 277.048,25.703 276.548,26.703 281,28.5C 283.145,28.604 284.979,27.9373 286.5,26.5C 288.747,27.3742 291.08,27.7076 293.5,27.5C 295.319,28.9362 295.652,30.6029 294.5,32.5C 292.502,34.3337 290.168,35.3337 287.5,35.5C 287.5,38.1667 287.5,40.8333 287.5,43.5C 290.525,43.231 293.192,44.0643 295.5,46C 293.369,46.5431 291.369,47.3764 289.5,48.5C 291.678,50.5114 293.678,52.6781 295.5,55C 294.66,56.1712 293.827,57.3379 293,58.5C 289.606,57.5442 286.106,57.2108 282.5,57.5C 278.963,55.9019 275.296,54.5686 271.5,53.5C 271.586,52.5041 271.252,51.6708 270.5,51C 262.281,45.6145 253.614,41.1145 244.5,37.5C 244.5,36.5 244.5,35.5 244.5,34.5C 242.833,34.5 241.167,34.5 239.5,34.5C 238.486,33.2353 236.986,32.5687 235,32.5C 231.173,31.761 227.34,31.5943 223.5,32C 226.767,32.8951 227.434,34.7284 225.5,37.5C 223.5,37.5 221.5,37.5 219.5,37.5C 219.36,35.8762 220.027,34.7096 221.5,34C 216.609,33.8849 211.943,33.0515 207.5,31.5C 207.833,28.5 206.5,27.1667 203.5,27.5C 203.167,24.5 204.5,23.1667 207.5,23.5C 207.335,20.4816 207.502,17.4816 208,14.5C 210.571,15.2453 213.071,15.5787 215.5,15.5C 215.716,10.2808 218.382,7.94746 223.5,8.5C 223.5,9.5 223.5,10.5 223.5,11.5C 228.672,9.6655 234.005,8.6655 239.5,8.5C 239.5,7.5 239.5,6.5 239.5,5.5C 234.396,8.24093 229.396,8.07426 224.5,5C 225.737,4.76791 226.737,4.26791 227.5,3.5C 228.71,3.06795 229.71,2.40128 230.5,1.5 Z"/></g>
<g><path style="opacity:0.141" fill="#d9e9bb" d="M 255.5,4.5 C 262.496,7.6625 269.162,11.3292 275.5,15.5C 269.723,13.1122 264.057,10.4456 258.5,7.5C 257.306,6.72813 256.306,5.72813 255.5,4.5 Z"/></g>
<g><path style="opacity:0.169" fill="#dff2c1" d="M 211.5,7.5 C 209.833,9.16667 208.167,10.8333 206.5,12.5C 202.736,13.5481 199.069,14.8815 195.5,16.5C 200.343,12.6627 205.677,9.6627 211.5,7.5 Z"/></g>
<g><path style="opacity:1" fill="#8ec15a" d="M 258.5,7.5 C 264.057,10.4456 269.723,13.1122 275.5,15.5C 279.652,18.4173 283.652,21.584 287.5,25C 289.852,25.2401 291.852,26.0735 293.5,27.5C 291.08,27.7076 288.747,27.3742 286.5,26.5C 284.979,27.9373 283.145,28.604 281,28.5C 276.548,26.703 277.048,25.703 282.5,25.5C 282.773,23.549 282.107,22.049 280.5,21C 277.547,20.1075 274.881,20.6075 272.5,22.5C 271.534,20.604 271.201,18.604 271.5,16.5C 270.167,16.5 268.833,16.5 267.5,16.5C 267.67,15.1779 267.337,14.0113 266.5,13C 264.608,12.0266 262.608,11.3599 260.5,11C 259.695,9.88732 259.028,8.72065 258.5,7.5 Z"/></g>
<g><path style="opacity:1" fill="#8cc74d" d="M 227.5,3.5 C 226.737,4.26791 225.737,4.76791 224.5,5C 229.396,8.07426 234.396,8.24093 239.5,5.5C 239.5,6.5 239.5,7.5 239.5,8.5C 234.005,8.6655 228.672,9.6655 223.5,11.5C 223.5,10.5 223.5,9.5 223.5,8.5C 218.382,7.94746 215.716,10.2808 215.5,15.5C 213.071,15.5787 210.571,15.2453 208,14.5C 207.502,17.4816 207.335,20.4816 207.5,23.5C 204.5,23.1667 203.167,24.5 203.5,27.5C 206.5,27.1667 207.833,28.5 207.5,31.5C 211.943,33.0515 216.609,33.8849 221.5,34C 220.027,34.7096 219.36,35.8762 219.5,37.5C 221.5,37.5 223.5,37.5 225.5,37.5C 227.434,34.7284 226.767,32.8951 223.5,32C 227.34,31.5943 231.173,31.761 235,32.5C 236.986,32.5687 238.486,33.2353 239.5,34.5C 232.945,35.4054 226.612,37.2387 220.5,40C 213.175,44.6658 205.842,49.3325 198.5,54C 194.004,55.6771 189.67,57.6771 185.5,60C 184.382,61.0736 183.382,62.2402 182.5,63.5C 177.987,64.88 173.654,66.7133 169.5,69C 168.619,69.7083 167.953,70.5416 167.5,71.5C 159.152,71.6737 152.486,75.007 147.5,81.5C 146.156,83.0348 144.489,84.3681 142.5,85.5C 137.754,87.3712 133.088,89.5379 128.5,92C 127.663,93.0113 127.33,94.1779 127.5,95.5C 125.801,95.3398 124.134,95.5065 122.5,96C 121.748,96.6708 121.414,97.5041 121.5,98.5C 118.081,99.3738 114.748,100.54 111.5,102C 109.365,102.876 108.031,104.376 107.5,106.5C 107.158,107.338 106.492,107.672 105.5,107.5C 103.5,107.5 101.5,107.5 99.5,107.5C 99.5,108.5 99.5,109.5 99.5,110.5C 98.5,110.5 97.5,110.5 96.5,110.5C 95.3058,108.516 95.3058,106.516 96.5,104.5C 99.128,106.633 101.961,106.966 105,105.5C 105.749,104.365 105.583,103.365 104.5,102.5C 102.096,101.992 101.429,100.825 102.5,99C 105.202,98.9467 107.869,99.4467 110.5,100.5C 113.321,99.9258 115.654,98.5924 117.5,96.5C 116.05,95.1502 115.383,93.4835 115.5,91.5C 114.167,91.5 112.833,91.5 111.5,91.5C 111.5,87.5 111.5,83.5 111.5,79.5C 110.127,79.6567 108.793,79.49 107.5,79C 105.549,76.8176 103.382,74.9843 101,73.5C 97.3886,74.5349 96.8886,76.2016 99.5,78.5C 94.8776,79.3083 91.5443,81.8083 89.5,86C 86.0801,86.517 82.7468,87.3503 79.5,88.5C 82.2844,88.3384 85.2844,88.6718 88.5,89.5C 88.2907,90.086 87.9574,90.586 87.5,91C 84.266,91.7114 81.0994,92.5447 78,93.5C 75.9339,88.7431 73.4339,88.4097 70.5,92.5C 68.2573,93.4742 65.924,93.8076 63.5,93.5C 63.5,97.1667 63.5,100.833 63.5,104.5C 60.5,104.833 59.1667,103.5 59.5,100.5C 55.8226,100.338 52.4892,101.338 49.5,103.5C 50.2634,104.719 51.2634,105.719 52.5,106.5C 51.8333,106.833 51.1667,107.167 50.5,107.5C 48.6425,106.733 46.9758,105.733 45.5,104.5C 49.8578,101.987 53.8578,98.9866 57.5,95.5C 60.3607,94.6602 63.0273,93.3268 65.5,91.5C 70.7106,90.0708 75.044,87.4041 78.5,83.5C 80.1992,83.6602 81.8659,83.4935 83.5,83C 87.7082,80.4017 91.7082,77.5684 95.5,74.5C 96.5137,73.3263 97.847,72.6596 99.5,72.5C 103.521,70.8208 107.521,69.1541 111.5,67.5C 111.5,66.5 111.5,65.5 111.5,64.5C 112.391,63.8902 113.391,63.5569 114.5,63.5C 120.493,61.1802 126.493,58.8469 132.5,56.5C 133.26,54.6396 134.26,52.973 135.5,51.5C 137.849,49.659 140.515,48.3257 143.5,47.5C 148.474,46.6848 152.474,44.3515 155.5,40.5C 163.929,36.7518 172.262,32.9185 180.5,29C 181.823,28.1841 182.489,27.0174 182.5,25.5C 185.961,22.3997 189.961,20.0664 194.5,18.5C 195.298,18.0431 195.631,17.3764 195.5,16.5C 199.069,14.8815 202.736,13.5481 206.5,12.5C 209.348,11.2282 212.348,10.3949 215.5,10C 218.454,8.35439 221.12,6.35439 223.5,4C 224.793,3.50999 226.127,3.34332 227.5,3.5 Z"/></g>
<g><path style="opacity:0.141" fill="#cae5a9" d="M 275.5,15.5 C 285.167,20.3309 294.5,25.6643 303.5,31.5C 300.167,30.1667 296.833,28.8333 293.5,27.5C 291.852,26.0735 289.852,25.2401 287.5,25C 283.652,21.584 279.652,18.4173 275.5,15.5 Z"/></g>
<g><path style="opacity:0.843" fill="#8fbc63" d="M 182.5,25.5 C 182.489,27.0174 181.823,28.1841 180.5,29C 172.262,32.9185 163.929,36.7518 155.5,40.5C 158.45,38.8847 161.116,36.8847 163.5,34.5C 169.944,31.7787 176.277,28.7787 182.5,25.5 Z"/></g>
<g><path style="opacity:0.102" fill="#dcf4c0" d="M 195.5,16.5 C 195.631,17.3764 195.298,18.0431 194.5,18.5C 189.961,20.0664 185.961,22.3997 182.5,25.5C 176.277,28.7787 169.944,31.7787 163.5,34.5C 173.835,27.9968 184.502,21.9968 195.5,16.5 Z"/></g>
<g><path style="opacity:1" fill="#8ec550" d="M 293.5,27.5 C 296.833,28.8333 300.167,30.1667 303.5,31.5C 308.133,35.4898 313.466,38.4898 319.5,40.5C 319.5,41.5 319.5,42.5 319.5,43.5C 315.102,40.6346 310.436,38.3012 305.5,36.5C 303.293,36.881 301.96,38.2143 301.5,40.5C 303.307,40.3229 305.307,40.6562 307.5,41.5C 308.429,42.6888 308.762,44.0222 308.5,45.5C 305.921,45.0833 303.754,45.75 302,47.5C 302.251,52.4556 302.418,57.4556 302.5,62.5C 301.5,62.5 300.5,62.5 299.5,62.5C 299.351,63.552 299.517,64.552 300,65.5C 302.246,66.553 304.246,67.8863 306,69.5C 307.169,68.9915 308.002,68.1581 308.5,67C 311.146,66.5026 313.813,66.3359 316.5,66.5C 316.471,69.6557 314.804,71.3223 311.5,71.5C 310.702,71.9569 310.369,72.6236 310.5,73.5C 305.455,71.002 300.455,68.1687 295.5,65C 293.26,64.023 290.927,63.523 288.5,63.5C 288.167,63.5 287.833,63.5 287.5,63.5C 287.649,62.448 287.483,61.448 287,60.5C 284.974,60.0853 283.474,59.0853 282.5,57.5C 286.106,57.2108 289.606,57.5442 293,58.5C 293.827,57.3379 294.66,56.1712 295.5,55C 293.678,52.6781 291.678,50.5114 289.5,48.5C 291.369,47.3764 293.369,46.5431 295.5,46C 293.192,44.0643 290.525,43.231 287.5,43.5C 287.5,40.8333 287.5,38.1667 287.5,35.5C 290.168,35.3337 292.502,34.3337 294.5,32.5C 295.652,30.6029 295.319,28.9362 293.5,27.5 Z"/></g>
<g><path style="opacity:0.141" fill="#cfe4b1" d="M 303.5,31.5 C 309.165,33.9969 314.498,36.9969 319.5,40.5C 313.466,38.4898 308.133,35.4898 303.5,31.5 Z"/></g>
<g><path style="opacity:0.094" fill="#def3c2" d="M 163.5,34.5 C 161.116,36.8847 158.45,38.8847 155.5,40.5C 152.807,41.5515 150.14,42.5515 147.5,43.5C 152.502,39.9969 157.835,36.9969 163.5,34.5 Z"/></g>
<g><path style="opacity:0.961" fill="#91be65" d="M 155.5,40.5 C 152.474,44.3515 148.474,46.6848 143.5,47.5C 144.833,46.1667 146.167,44.8333 147.5,43.5C 150.14,42.5515 152.807,41.5515 155.5,40.5 Z"/></g>
<g><path style="opacity:1" fill="#93bf5f" d="M 321.5,43.5 C 329.439,46.4678 336.772,50.4678 343.5,55.5C 339.311,55.572 335.311,54.7387 331.5,53C 329.578,51.5804 328.245,49.7471 327.5,47.5C 325.435,46.1433 323.435,44.81 321.5,43.5 Z"/></g>
<g><path style="opacity:0.078" fill="#e4f6cb" d="M 147.5,43.5 C 146.167,44.8333 144.833,46.1667 143.5,47.5C 140.515,48.3257 137.849,49.659 135.5,51.5C 128.036,54.7308 121.036,58.7308 114.5,63.5C 113.391,63.5569 112.391,63.8902 111.5,64.5C 109.95,65.4408 108.284,66.1075 106.5,66.5C 119.674,58.0767 133.34,50.41 147.5,43.5 Z"/></g>
<g><path style="opacity:0.796" fill="#adcc84" d="M 239.5,34.5 C 241.167,34.5 242.833,34.5 244.5,34.5C 244.5,35.5 244.5,36.5 244.5,37.5C 253.614,41.1145 262.281,45.6145 270.5,51C 271.252,51.6708 271.586,52.5041 271.5,53.5C 260.007,47.2529 248.34,41.2529 236.5,35.5C 209.99,49.5871 183.656,63.9204 157.5,78.5C 158.234,77.2921 158.567,75.9587 158.5,74.5C 161.67,73.7345 164.67,72.7345 167.5,71.5C 167.953,70.5416 168.619,69.7083 169.5,69C 173.654,66.7133 177.987,64.88 182.5,63.5C 183.382,62.2402 184.382,61.0736 185.5,60C 189.67,57.6771 194.004,55.6771 198.5,54C 205.842,49.3325 213.175,44.6658 220.5,40C 226.612,37.2387 232.945,35.4054 239.5,34.5 Z"/></g>
<g><path style="opacity:0.722" fill="#a7ca7c" d="M 271.5,53.5 C 275.296,54.5686 278.963,55.9019 282.5,57.5C 283.474,59.0853 284.974,60.0853 287,60.5C 287.483,61.448 287.649,62.448 287.5,63.5C 282.131,60.1526 276.797,56.8193 271.5,53.5 Z"/></g>
<g><path style="opacity:0.976" fill="#98c068" d="M 135.5,51.5 C 134.26,52.973 133.26,54.6396 132.5,56.5C 126.493,58.8469 120.493,61.1802 114.5,63.5C 121.036,58.7308 128.036,54.7308 135.5,51.5 Z"/></g>
<g><path style="opacity:0.882" fill="#93bc61" d="M 351.5,60.5 C 356.941,62.3867 361.941,65.0534 366.5,68.5C 365.127,68.6567 363.793,68.49 362.5,68C 358.572,65.7653 354.905,63.2653 351.5,60.5 Z"/></g>
<g><path style="opacity:0.157" fill="#d1e8b4" d="M 319.5,40.5 C 337.164,49.6631 354.497,59.3298 371.5,69.5C 370.041,69.5674 368.708,69.2341 367.5,68.5C 367.167,68.5 366.833,68.5 366.5,68.5C 361.941,65.0534 356.941,62.3867 351.5,60.5C 350.432,59.5655 349.099,59.2322 347.5,59.5C 347.512,56.858 346.179,55.5246 343.5,55.5C 336.772,50.4678 329.439,46.4678 321.5,43.5C 320.833,43.5 320.167,43.5 319.5,43.5C 319.5,42.5 319.5,41.5 319.5,40.5 Z"/></g>
<g><path style="opacity:0.843" fill="#9bbf6d" d="M 111.5,64.5 C 111.5,65.5 111.5,66.5 111.5,67.5C 107.521,69.1541 103.521,70.8208 99.5,72.5C 101.647,70.2632 103.98,68.2632 106.5,66.5C 108.284,66.1075 109.95,65.4408 111.5,64.5 Z"/></g>
<g><path style="opacity:0.169" fill="#ddf1c3" d="M 106.5,66.5 C 103.98,68.2632 101.647,70.2632 99.5,72.5C 97.847,72.6596 96.5137,73.3263 95.5,74.5C 90.7923,76.5236 86.1256,78.5236 81.5,80.5C 89.3405,75.0766 97.6739,70.4099 106.5,66.5 Z"/></g>
<g><path style="opacity:1" fill="#90c15a" d="M 167.5,71.5 C 164.67,72.7345 161.67,73.7345 158.5,74.5C 158.567,75.9587 158.234,77.2921 157.5,78.5C 153.779,78.3685 150.446,79.3685 147.5,81.5C 152.486,75.007 159.152,71.6737 167.5,71.5 Z"/></g>
<g><path style="opacity:0.867" fill="#96be69" d="M 367.5,68.5 C 368.708,69.2341 370.041,69.5674 371.5,69.5C 375.542,72.5557 379.542,75.5557 383.5,78.5C 377.796,76.7582 372.462,74.4248 367.5,71.5C 367.5,70.5 367.5,69.5 367.5,68.5 Z"/></g>
<g><path style="opacity:0.914" fill="#98bc6b" d="M 95.5,74.5 C 91.7082,77.5684 87.7082,80.4017 83.5,83C 81.8659,83.4935 80.1992,83.6602 78.5,83.5C 79.6935,82.7281 80.6935,81.7281 81.5,80.5C 86.1256,78.5236 90.7923,76.5236 95.5,74.5 Z"/></g>
<g><path style="opacity:0.184" fill="#eaf7cd" d="M 81.5,80.5 C 80.6935,81.7281 79.6935,82.7281 78.5,83.5C 75.6484,85.0909 72.6484,86.4242 69.5,87.5C 72.9758,84.3768 76.9758,82.0435 81.5,80.5 Z"/></g>
<g><path style="opacity:0.694" fill="#acce87" d="M 288.5,63.5 C 290.927,63.523 293.26,64.023 295.5,65C 300.455,68.1687 305.455,71.002 310.5,73.5C 316.826,77.6654 323.492,81.3321 330.5,84.5C 331.362,85.7658 332.029,87.0992 332.5,88.5C 317.5,80.6693 302.834,72.336 288.5,63.5 Z"/></g>
<g><path style="opacity:0.925" fill="#9dbf70" d="M 78.5,83.5 C 75.044,87.4041 70.7106,90.0708 65.5,91.5C 66.1667,90.5 66.8333,89.5 67.5,88.5C 67.8417,87.6618 68.5084,87.3284 69.5,87.5C 72.6484,86.4242 75.6484,85.0909 78.5,83.5 Z"/></g>
<g><path style="opacity:0.576" fill="#aece86" d="M 157.5,78.5 C 147.86,84.6575 137.86,90.3242 127.5,95.5C 127.33,94.1779 127.663,93.0113 128.5,92C 133.088,89.5379 137.754,87.3712 142.5,85.5C 144.489,84.3681 146.156,83.0348 147.5,81.5C 150.446,79.3685 153.779,78.3685 157.5,78.5 Z"/></g>
<g><path style="opacity:0.906" fill="#97bc62" d="M 393.5,83.5 C 400.873,87.518 408.206,91.518 415.5,95.5C 408.446,92.8114 401.446,89.8114 394.5,86.5C 393.614,85.675 393.281,84.675 393.5,83.5 Z"/></g>
<g><path style="opacity:0.016" fill="#e8f4bd" d="M 332.5,88.5 C 334.38,88.2291 335.713,88.8958 336.5,90.5C 334.847,90.3404 333.514,89.6737 332.5,88.5 Z"/></g>
<g><path style="opacity:1" fill="#8bc84b" d="M 96.5,110.5 C 87.8575,114.434 79.5241,119.101 71.5,124.5C 70.6143,125.325 70.281,126.325 70.5,127.5C 66.3713,127.655 62.3713,128.488 58.5,130C 52.3295,136.326 44.9961,140.826 36.5,143.5C 35.5726,145.113 34.7393,146.779 34,148.5C 33.3333,222.5 33.3333,296.5 34,370.5C 34.6911,374.632 37.1911,377.132 41.5,378C 42.1667,379 42.8333,380 43.5,381C 47.3391,381.236 51.0058,382.069 54.5,383.5C 54.4142,384.496 54.7476,385.329 55.5,386C 59.8345,388.167 63.8345,390.834 67.5,394C 72.1242,396.263 76.7909,398.43 81.5,400.5C 87.3619,405.094 94.0285,408.094 101.5,409.5C 102.95,411.383 104.95,412.383 107.5,412.5C 113.961,412.375 120.128,411.042 126,408.5C 127.03,408.164 127.53,407.497 127.5,406.5C 129.827,406.753 131.827,406.086 133.5,404.5C 136.992,399.696 139.326,394.362 140.5,388.5C 141.333,315.001 141.833,241.334 142,167.5C 142.5,167 143,166.5 143.5,166C 152.16,165.5 160.827,165.334 169.5,165.5C 170.906,165.973 171.573,166.973 171.5,168.5C 171.5,240.167 171.5,311.833 171.5,383.5C 170.667,311.668 170.167,239.668 170,167.5C 168.301,166.594 166.467,166.261 164.5,166.5C 165.82,235.523 165.82,305.023 164.5,375C 164.833,377.5 165.167,380 165.5,382.5C 167.556,383.628 168.556,385.462 168.5,388C 167.623,393.84 167.123,399.673 167,405.5C 167.333,406.167 167.667,406.833 168,407.5C 168.942,404.626 170.109,401.96 171.5,399.5C 170.441,406.07 168.608,412.403 166,418.5C 164.483,420.24 162.983,421.906 161.5,423.5C 159.574,422.758 157.741,421.758 156,420.5C 155.784,418.616 155.117,416.949 154,415.5C 151.333,415.5 148.667,415.5 146,415.5C 143.56,418.709 142.893,422.375 144,426.5C 145.699,427.406 147.533,427.739 149.5,427.5C 151.589,432.367 149.923,434.867 144.5,435C 143.748,435.671 143.414,436.504 143.5,437.5C 140.5,437.5 137.5,437.5 134.5,437.5C 134.833,435.5 135.167,433.5 135.5,431.5C 132.833,431.5 130.167,431.5 127.5,431.5C 127.66,433.199 127.494,434.866 127,436.5C 119.959,435.414 112.959,434.414 106,433.5C 102.477,433.707 98.9774,434.04 95.5,434.5C 95.5,435.833 95.5,437.167 95.5,438.5C 93.8008,438.66 92.1341,438.494 90.5,438C 87.3811,434.779 83.7145,432.612 79.5,431.5C 78.8977,424.517 78.231,424.183 77.5,430.5C 75.8333,430.5 74.1667,430.5 72.5,430.5C 71.0779,430.25 70.0779,429.417 69.5,428C 65.879,426.862 62.2124,426.028 58.5,425.5C 58.5,424.5 58.5,423.5 58.5,422.5C 50.5458,419.413 42.8792,415.58 35.5,411C 34.2068,410.51 32.8734,410.343 31.5,410.5C 31.5,409.5 31.5,408.5 31.5,407.5C 26.0731,404.952 20.7398,402.118 15.5,399C 12.7116,396.318 10.7116,393.151 9.5,389.5C 10.5893,387.883 12.256,387.05 14.5,387C 15.0585,386.275 15.3918,385.442 15.5,384.5C 14.7247,309.279 14.2247,233.945 14,158.5C 13.6667,158.833 13.3333,159.167 13,159.5C 12.1661,154.994 11.3327,150.494 10.5,146C 13.324,142.924 13.1573,140.091 10,137.5C 9.05456,137.905 8.38789,138.572 8,139.5C 7.83333,142.833 7.66667,146.167 7.5,149.5C 7.36766,153.349 7.86766,157.016 9,160.5C 9.5,229.166 9.66666,297.833 9.5,366.5C 8.5,366.5 7.5,366.5 6.5,366.5C 6.66666,297.166 6.5,227.833 6,158.5C 5.66667,158.833 5.33333,159.167 5,159.5C 4.50042,152.842 4.33375,146.175 4.5,139.5C 6.25564,134.205 8.75564,129.205 12,124.5C 19.6966,118.204 27.8633,112.537 36.5,107.5C 40.1125,108.076 43.1125,107.076 45.5,104.5C 46.9758,105.733 48.6425,106.733 50.5,107.5C 51.1667,107.167 51.8333,106.833 52.5,106.5C 51.2634,105.719 50.2634,104.719 49.5,103.5C 52.4892,101.338 55.8226,100.338 59.5,100.5C 59.1667,103.5 60.5,104.833 63.5,104.5C 63.5,100.833 63.5,97.1667 63.5,93.5C 65.924,93.8076 68.2573,93.4742 70.5,92.5C 73.4339,88.4097 75.9339,88.7431 78,93.5C 81.0994,92.5447 84.266,91.7114 87.5,91C 87.9574,90.586 88.2907,90.086 88.5,89.5C 85.2844,88.6718 82.2844,88.3384 79.5,88.5C 82.7468,87.3503 86.0801,86.517 89.5,86C 91.5443,81.8083 94.8776,79.3083 99.5,78.5C 96.8886,76.2016 97.3886,74.5349 101,73.5C 103.382,74.9843 105.549,76.8176 107.5,79C 108.793,79.49 110.127,79.6567 111.5,79.5C 111.5,83.5 111.5,87.5 111.5,91.5C 112.833,91.5 114.167,91.5 115.5,91.5C 115.383,93.4835 116.05,95.1502 117.5,96.5C 115.654,98.5924 113.321,99.9258 110.5,100.5C 107.869,99.4467 105.202,98.9467 102.5,99C 101.429,100.825 102.096,101.992 104.5,102.5C 105.583,103.365 105.749,104.365 105,105.5C 101.961,106.966 99.128,106.633 96.5,104.5C 95.3058,106.516 95.3058,108.516 96.5,110.5 Z"/></g>
<g><path style="opacity:0.129" fill="#dff1c2" d="M 371.5,69.5 C 387.832,77.9968 403.832,86.9968 419.5,96.5C 418.041,96.5674 416.708,96.2341 415.5,95.5C 408.206,91.518 400.873,87.518 393.5,83.5C 390.613,80.9483 387.28,79.2816 383.5,78.5C 379.542,75.5557 375.542,72.5557 371.5,69.5 Z"/></g>
<g><path style="opacity:0.784" fill="#c6e3a4" d="M 67.5,88.5 C 66.8333,89.5 66.1667,90.5 65.5,91.5C 63.0273,93.3268 60.3607,94.6602 57.5,95.5C 56.8333,95.5 56.1667,95.5 55.5,95.5C 58.9758,92.3768 62.9758,90.0435 67.5,88.5 Z"/></g>
<g><path style="opacity:0.255" fill="#bad59c" d="M 127.5,95.5 C 125.819,97.0075 123.819,98.0075 121.5,98.5C 121.414,97.5041 121.748,96.6708 122.5,96C 124.134,95.5065 125.801,95.3398 127.5,95.5 Z"/></g>
<g><path style="opacity:0.439" fill="#b4d490" d="M 336.5,90.5 C 338.547,90.5111 340.547,90.8444 342.5,91.5C 351.226,96.5963 359.893,101.596 368.5,106.5C 370.297,107.393 371.63,108.726 372.5,110.5C 360.17,104.337 348.17,97.6704 336.5,90.5 Z"/></g>
<g><path style="opacity:0.075" fill="#d7eebd" d="M 419.5,96.5 C 423.836,98.332 427.836,100.665 431.5,103.5C 426.55,102.695 422.55,100.362 419.5,96.5 Z"/></g>
<g><path style="opacity:0.541" fill="#b2d38f" d="M 121.5,98.5 C 117.167,101.669 112.5,104.336 107.5,106.5C 108.031,104.376 109.365,102.876 111.5,102C 114.748,100.54 118.081,99.3738 121.5,98.5 Z"/></g>
<g><path style="opacity:0.145" fill="#e4f6ca" d="M 55.5,95.5 C 49.3355,99.75 43.0021,103.75 36.5,107.5C 35.1667,107.833 33.8333,108.167 32.5,108.5C 39.6722,103.411 47.3388,99.0773 55.5,95.5 Z"/></g>
<g><path style="opacity:0.941" fill="#94bc67" d="M 415.5,95.5 C 416.708,96.2341 418.041,96.5674 419.5,96.5C 422.55,100.362 426.55,102.695 431.5,103.5C 435.833,106.669 440.5,109.336 445.5,111.5C 445.5,111.833 445.5,112.167 445.5,112.5C 441.781,111.481 438.114,110.148 434.5,108.5C 431.5,108.833 430.167,107.5 430.5,104.5C 426.422,103.298 422.422,101.798 418.5,100C 416.561,99.0922 415.561,97.5922 415.5,95.5 Z"/></g>
<g><path style="opacity:0.945" fill="#97be67" d="M 55.5,95.5 C 56.1667,95.5 56.8333,95.5 57.5,95.5C 53.8578,98.9866 49.8578,101.987 45.5,104.5C 43.1125,107.076 40.1125,108.076 36.5,107.5C 43.0021,103.75 49.3355,99.75 55.5,95.5 Z"/></g>
<g><path style="opacity:0.114" fill="#e6f3c7" d="M 431.5,103.5 C 436.827,105.159 441.493,107.826 445.5,111.5C 440.5,109.336 435.833,106.669 431.5,103.5 Z"/></g>
<g><path style="opacity:0.2" fill="#e1f3c0" d="M 32.5,108.5 C 30.6644,110.588 28.3311,111.921 25.5,112.5C 27.3356,110.412 29.6689,109.079 32.5,108.5 Z"/></g>
<g><path style="opacity:0.58" fill="#aaca82" d="M 105.5,107.5 C 94.004,114.416 82.3374,121.083 70.5,127.5C 70.281,126.325 70.6143,125.325 71.5,124.5C 79.5241,119.101 87.8575,114.434 96.5,110.5C 97.5,110.5 98.5,110.5 99.5,110.5C 99.5,109.5 99.5,108.5 99.5,107.5C 101.5,107.5 103.5,107.5 105.5,107.5 Z"/></g>
<g><path style="opacity:0.769" fill="#bad796" d="M 445.5,112.5 C 445.5,112.167 445.5,111.833 445.5,111.5C 448.331,112.079 450.664,113.412 452.5,115.5C 449.325,116.091 446.991,115.091 445.5,112.5 Z"/></g>
<g><path style="opacity:0.984" fill="#97c366" d="M 368.5,106.5 C 371.127,107.092 373.794,107.425 376.5,107.5C 376.238,108.978 376.571,110.311 377.5,111.5C 380.192,112.882 383.026,113.882 386,114.5C 387.31,115.13 388.144,116.13 388.5,117.5C 385.817,115.664 382.817,114.664 379.5,114.5C 376.996,113.416 374.663,112.083 372.5,110.5C 371.63,108.726 370.297,107.393 368.5,106.5 Z"/></g>
<g><path style="opacity:0.58" fill="#b4d496" d="M 379.5,114.5 C 382.817,114.664 385.817,115.664 388.5,117.5C 388.557,118.609 388.89,119.609 389.5,120.5C 385.827,119 382.494,117 379.5,114.5 Z"/></g>
<g><path style="opacity:0.059" fill="#cfe8ba" d="M 452.5,115.5 C 455.961,116.551 458.627,118.551 460.5,121.5C 456.788,120.736 454.121,118.736 452.5,115.5 Z"/></g>
<g><path style="opacity:0.541" fill="#bada9a" d="M 389.5,120.5 C 391.898,120.259 393.898,120.926 395.5,122.5C 395.5,122.833 395.5,123.167 395.5,123.5C 393.181,123.008 391.181,122.008 389.5,120.5 Z"/></g>
<g><path style="opacity:0.984" fill="#96be67" d="M 36.5,107.5 C 27.8633,112.537 19.6966,118.204 12,124.5C 8.75564,129.205 6.25564,134.205 4.5,139.5C 3.56552,140.568 3.23219,141.901 3.5,143.5C 2.83333,143.5 2.16667,143.5 1.5,143.5C 2.32877,140.185 3.1621,136.852 4,133.5C 6.24808,130.672 8.24808,127.672 10,124.5C 14.0261,121.302 17.8595,117.968 21.5,114.5C 22.5137,113.326 23.847,112.66 25.5,112.5C 28.3311,111.921 30.6644,110.588 32.5,108.5C 33.8333,108.167 35.1667,107.833 36.5,107.5 Z"/></g>
<g><path style="opacity:1" fill="#94c367" d="M 395.5,122.5 C 400.572,121.386 404.239,123.053 406.5,127.5C 405.167,127.5 403.833,127.5 402.5,127.5C 399.996,126.416 397.663,125.083 395.5,123.5C 395.5,123.167 395.5,122.833 395.5,122.5 Z"/></g>
<g><path style="opacity:1" fill="#8bc84c" d="M 319.5,43.5 C 320.167,43.5 320.833,43.5 321.5,43.5C 323.435,44.81 325.435,46.1433 327.5,47.5C 328.245,49.7471 329.578,51.5804 331.5,53C 335.311,54.7387 339.311,55.572 343.5,55.5C 346.179,55.5246 347.512,56.858 347.5,59.5C 349.099,59.2322 350.432,59.5655 351.5,60.5C 354.905,63.2653 358.572,65.7653 362.5,68C 363.793,68.49 365.127,68.6567 366.5,68.5C 366.833,68.5 367.167,68.5 367.5,68.5C 367.5,69.5 367.5,70.5 367.5,71.5C 372.462,74.4248 377.796,76.7582 383.5,78.5C 387.28,79.2816 390.613,80.9483 393.5,83.5C 393.281,84.675 393.614,85.675 394.5,86.5C 401.446,89.8114 408.446,92.8114 415.5,95.5C 415.561,97.5922 416.561,99.0922 418.5,100C 422.422,101.798 426.422,103.298 430.5,104.5C 430.167,107.5 431.5,108.833 434.5,108.5C 436.702,110.753 437.535,113.419 437,116.5C 435.416,115.139 433.582,114.472 431.5,114.5C 430.194,120.956 432.361,125.623 438,128.5C 440.069,127.736 442.236,127.236 444.5,127C 443.905,123.564 442.239,120.731 439.5,118.5C 441.333,118.167 443.167,117.833 445,117.5C 448.897,118.462 452.73,119.628 456.5,121C 458.747,122.995 459.747,125.495 459.5,128.5C 460.675,128.281 461.675,128.614 462.5,129.5C 464.186,133.177 465.853,136.844 467.5,140.5C 466.32,144.14 466.32,147.807 467.5,151.5C 467.597,153.945 466.93,156.111 465.5,158C 465.63,159.059 466.13,159.892 467,160.5C 466.836,229.507 467.669,298.174 469.5,366.5C 469.842,367.338 470.508,367.672 471.5,367.5C 471.5,369.833 471.5,372.167 471.5,374.5C 470.685,375.429 469.852,376.429 469,377.5C 468.432,381.274 467.265,384.607 465.5,387.5C 461.098,387.228 456.765,387.561 452.5,388.5C 451.396,386.611 450.063,384.945 448.5,383.5C 447.177,385.204 447.51,386.537 449.5,387.5C 450.493,392.12 450.827,396.786 450.5,401.5C 444.307,404.191 438.14,407.191 432,410.5C 432.227,408.312 431.894,405.979 431,403.5C 430.29,404.973 429.124,405.64 427.5,405.5C 426.737,402.859 426.57,400.192 427,397.5C 427.991,396.061 429.324,395.061 431,394.5C 432.753,388.747 430.586,386.081 424.5,386.5C 424.167,385.833 423.833,385.167 423.5,384.5C 424.993,383.859 425.993,382.859 426.5,381.5C 429.389,380.212 431.722,378.212 433.5,375.5C 435.216,375.371 436.883,375.038 438.5,374.5C 436.631,376.03 434.631,377.53 432.5,379C 439.101,383.295 444.101,381.961 447.5,375C 444.732,373.238 443.232,370.738 443,367.5C 442.333,297.5 442.333,227.5 443,157.5C 443.308,156.692 443.808,156.025 444.5,155.5C 445.72,156.711 446.887,156.711 448,155.5C 448.64,153.735 448.473,152.068 447.5,150.5C 446.643,147.957 445.31,145.623 443.5,143.5C 442.64,145.931 440.973,147.264 438.5,147.5C 438.167,146.5 437.5,145.833 436.5,145.5C 434.95,144.559 433.284,143.893 431.5,143.5C 430.335,140.41 428.002,139.076 424.5,139.5C 424.489,137.983 423.823,136.816 422.5,136C 420.134,135.56 417.801,135.06 415.5,134.5C 415.586,133.504 415.252,132.671 414.5,132C 412.26,131.023 409.927,130.523 407.5,130.5C 406.89,129.609 406.557,128.609 406.5,127.5C 404.239,123.053 400.572,121.386 395.5,122.5C 393.898,120.926 391.898,120.259 389.5,120.5C 388.89,119.609 388.557,118.609 388.5,117.5C 388.144,116.13 387.31,115.13 386,114.5C 383.026,113.882 380.192,112.882 377.5,111.5C 376.571,110.311 376.238,108.978 376.5,107.5C 373.794,107.425 371.127,107.092 368.5,106.5C 359.893,101.596 351.226,96.5963 342.5,91.5C 340.547,90.8444 338.547,90.5111 336.5,90.5C 335.713,88.8958 334.38,88.2291 332.5,88.5C 332.029,87.0992 331.362,85.7658 330.5,84.5C 323.492,81.3321 316.826,77.6654 310.5,73.5C 310.369,72.6236 310.702,71.9569 311.5,71.5C 314.804,71.3223 316.471,69.6557 316.5,66.5C 313.813,66.3359 311.146,66.5026 308.5,67C 308.002,68.1581 307.169,68.9915 306,69.5C 304.246,67.8863 302.246,66.553 300,65.5C 299.517,64.552 299.351,63.552 299.5,62.5C 300.5,62.5 301.5,62.5 302.5,62.5C 302.418,57.4556 302.251,52.4556 302,47.5C 303.754,45.75 305.921,45.0833 308.5,45.5C 308.762,44.0222 308.429,42.6888 307.5,41.5C 305.307,40.6562 303.307,40.3229 301.5,40.5C 301.96,38.2143 303.293,36.881 305.5,36.5C 310.436,38.3012 315.102,40.6346 319.5,43.5 Z"/></g>
<g><path style="opacity:0.157" fill="#dae7c7" d="M 460.5,121.5 C 463.243,123.239 465.243,125.573 466.5,128.5C 466.167,128.5 465.833,128.5 465.5,128.5C 463.42,126.427 461.754,124.093 460.5,121.5 Z"/></g>
<g><path style="opacity:0.675" fill="#c0d89a" d="M 402.5,127.5 C 403.833,127.5 405.167,127.5 406.5,127.5C 406.557,128.609 406.89,129.609 407.5,130.5C 405.566,129.89 403.899,128.89 402.5,127.5 Z"/></g>
<g><path style="opacity:0.596" fill="#afcc8a" d="M 407.5,130.5 C 409.927,130.523 412.26,131.023 414.5,132C 415.252,132.671 415.586,133.504 415.5,134.5C 412.515,133.674 409.849,132.341 407.5,130.5 Z"/></g>
<g><path style="opacity:0.153" fill="#dff2c4" d="M 21.5,114.5 C 17.8595,117.968 14.0261,121.302 10,124.5C 8.24808,127.672 6.24808,130.672 4,133.5C 3.1621,136.852 2.32877,140.185 1.5,143.5C 0.833333,143.5 0.166667,143.5 -0.5,143.5C -0.5,143.167 -0.5,142.833 -0.5,142.5C 2.51827,129.806 9.8516,120.473 21.5,114.5 Z"/></g>
<g><path style="opacity:0.918" fill="#99bc73" d="M 465.5,128.5 C 465.833,128.5 466.167,128.5 466.5,128.5C 468.564,133.027 470.231,137.693 471.5,142.5C 471.5,142.833 471.5,143.167 471.5,143.5C 469.962,140.101 468.129,136.767 466,133.5C 465.506,131.866 465.34,130.199 465.5,128.5 Z"/></g>
<g><path style="opacity:0.596" fill="#afcb84" d="M 415.5,134.5 C 417.801,135.06 420.134,135.56 422.5,136C 423.823,136.816 424.489,137.983 424.5,139.5C 421.008,138.59 418.008,136.924 415.5,134.5 Z"/></g>
<g><path style="opacity:0.808" fill="#aed186" d="M 424.5,139.5 C 428.002,139.076 430.335,140.41 431.5,143.5C 428.669,142.921 426.336,141.588 424.5,139.5 Z"/></g>
<g><path style="opacity:0.076" fill="#edfcd6" d="M 466.5,128.5 C 469.626,132.419 471.959,136.752 473.5,141.5C 473.5,141.833 473.5,142.167 473.5,142.5C 472.833,142.5 472.167,142.5 471.5,142.5C 470.231,137.693 468.564,133.027 466.5,128.5 Z"/></g>
<g><path style="opacity:1" fill="#8dc74d" d="M 9.5,389.5 C 7.67835,387.596 6.01168,385.596 4.5,383.5C 3.84545,308.144 3.17878,232.81 2.5,157.5C 3.44348,152.9 3.77681,148.233 3.5,143.5C 3.23219,141.901 3.56552,140.568 4.5,139.5C 4.33375,146.175 4.50042,152.842 5,159.5C 5.33333,159.167 5.66667,158.833 6,158.5C 6.5,227.833 6.66666,297.166 6.5,366.5C 7.5,366.5 8.5,366.5 9.5,366.5C 9.66666,297.833 9.5,229.166 9,160.5C 7.86766,157.016 7.36766,153.349 7.5,149.5C 7.66667,146.167 7.83333,142.833 8,139.5C 8.38789,138.572 9.05456,137.905 10,137.5C 13.1573,140.091 13.324,142.924 10.5,146C 11.3327,150.494 12.1661,154.994 13,159.5C 13.3333,159.167 13.6667,158.833 14,158.5C 14.2247,233.945 14.7247,309.279 15.5,384.5C 15.3918,385.442 15.0585,386.275 14.5,387C 12.256,387.05 10.5893,387.883 9.5,389.5 Z"/></g>
<g><path style="opacity:0.314" fill="#cbe3ac" d="M 41.5,143.5 C 40.1667,145.5 38.5,147.167 36.5,148.5C 36.5,147.167 36.5,145.833 36.5,144.5C 38.2161,144.371 39.8828,144.038 41.5,143.5 Z"/></g>
<g><path style="opacity:0.972" fill="#8bc34f" d="M 1.5,143.5 C 2.16667,143.5 2.83333,143.5 3.5,143.5C 3.77681,148.233 3.44348,152.9 2.5,157.5C 3.17878,232.81 3.84545,308.144 4.5,383.5C 4.16667,383.5 3.83333,383.5 3.5,383.5C 3.7475,381.142 3.08083,379.142 1.5,377.5C 1.5,299.5 1.5,221.5 1.5,143.5 Z"/></g>
<g><path style="opacity:1" fill="#8cc947" d="M 447.5,150.5 C 448.473,152.068 448.64,153.735 448,155.5C 446.887,156.711 445.72,156.711 444.5,155.5C 443.808,156.025 443.308,156.692 443,157.5C 442.333,227.5 442.333,297.5 443,367.5C 443.232,370.738 444.732,373.238 447.5,375C 444.101,381.961 439.101,383.295 432.5,379C 434.631,377.53 436.631,376.03 438.5,374.5C 439.167,300.332 439.833,225.999 440.5,151.5C 442.059,152.074 443.559,152.74 445,153.5C 445.377,152.058 446.21,151.058 447.5,150.5 Z"/></g>
<g><path style="opacity:0.643" fill="#9fd767" d="M -0.5,143.5 C 0.166667,143.5 0.833333,143.5 1.5,143.5C 1.5,221.5 1.5,299.5 1.5,377.5C 1.16667,377.5 0.833333,377.5 0.5,377.5C 0.5,376.833 0.166667,376.5 -0.5,376.5C -0.5,298.833 -0.5,221.167 -0.5,143.5 Z"/></g>
<g><path style="opacity:0.089" fill="#e9fccf" d="M 275.5,157.5 C 280.155,156.834 284.988,156.501 290,156.5C 298.38,156.397 306.547,157.063 314.5,158.5C 301.513,157.762 288.513,157.429 275.5,157.5 Z"/></g>
<g><path style="opacity:0.435" fill="#d3e7b7" d="M 275.5,157.5 C 274.167,158.167 272.833,158.833 271.5,159.5C 266.833,159.5 262.167,159.5 257.5,159.5C 263.274,158.054 269.274,157.388 275.5,157.5 Z"/></g>
<g><path style="opacity:0.908" fill="#9ac06a" d="M 275.5,157.5 C 288.513,157.429 301.513,157.762 314.5,158.5C 316.167,159.167 317.833,159.833 319.5,160.5C 303.509,159.834 287.509,159.5 271.5,159.5C 272.833,158.833 274.167,158.167 275.5,157.5 Z"/></g>
<g><path style="opacity:1" fill="#8dc350" d="M 434.5,108.5 C 438.114,110.148 441.781,111.481 445.5,112.5C 446.991,115.091 449.325,116.091 452.5,115.5C 454.121,118.736 456.788,120.736 460.5,121.5C 461.754,124.093 463.42,126.427 465.5,128.5C 465.34,130.199 465.506,131.866 466,133.5C 468.129,136.767 469.962,140.101 471.5,143.5C 471.5,218.167 471.5,292.833 471.5,367.5C 470.508,367.672 469.842,367.338 469.5,366.5C 469.475,294.936 469.475,223.436 469.5,152C 469.236,147.958 468.57,144.125 467.5,140.5C 465.853,136.844 464.186,133.177 462.5,129.5C 461.675,128.614 460.675,128.281 459.5,128.5C 459.747,125.495 458.747,122.995 456.5,121C 452.73,119.628 448.897,118.462 445,117.5C 443.167,117.833 441.333,118.167 439.5,118.5C 442.239,120.731 443.905,123.564 444.5,127C 442.236,127.236 440.069,127.736 438,128.5C 432.361,125.623 430.194,120.956 431.5,114.5C 433.582,114.472 435.416,115.139 437,116.5C 437.535,113.419 436.702,110.753 434.5,108.5 Z"/></g>
<g><path style="opacity:1" fill="#93c161" d="M 257.5,159.5 C 262.167,159.5 266.833,159.5 271.5,159.5C 269.031,160.317 266.365,160.817 263.5,161C 262.833,161.667 262.167,162.333 261.5,163C 256.845,163.499 252.179,163.666 247.5,163.5C 250.889,162.29 254.222,160.957 257.5,159.5 Z"/></g>
<g><path style="opacity:1" fill="#8bc84c" d="M 271.5,159.5 C 287.509,159.5 303.509,159.834 319.5,160.5C 324.804,161.384 330.137,162.051 335.5,162.5C 335.5,162.833 335.5,163.167 335.5,163.5C 335.5,164.5 335.5,165.5 335.5,166.5C 340.455,167.816 345.455,168.816 350.5,169.5C 351.404,170.209 351.737,171.209 351.5,172.5C 357.28,174.625 362.613,177.292 367.5,180.5C 368.069,184.666 370.402,187.332 374.5,188.5C 374.427,190.027 375.094,191.027 376.5,191.5C 376.031,194.393 377.031,196.393 379.5,197.5C 379.5,198.833 379.5,200.167 379.5,201.5C 379.756,203.792 379.423,205.959 378.5,208C 379.563,209.188 380.897,209.688 382.5,209.5C 382.5,215.5 382.5,221.5 382.5,227.5C 372.5,227.5 362.5,227.5 352.5,227.5C 352.712,223.655 351.712,220.321 349.5,217.5C 348.607,215.703 347.274,214.37 345.5,213.5C 344.395,209.059 342.395,205.059 339.5,201.5C 338.972,200.279 338.305,199.113 337.5,198C 335.381,197.902 333.714,197.069 332.5,195.5C 333.689,194.571 335.022,194.238 336.5,194.5C 336.5,193.5 336.5,192.5 336.5,191.5C 333.734,191.67 331.067,192.336 328.5,193.5C 325.563,192.53 322.563,191.863 319.5,191.5C 319.739,189.533 319.406,187.699 318.5,186C 303.8,186.124 289.3,186.29 275,186.5C 272.343,184.519 269.343,183.519 266,183.5C 262.539,184.49 259.039,185.157 255.5,185.5C 255.5,187.5 255.5,189.5 255.5,191.5C 252.463,194.001 249.129,196.167 245.5,198C 243.238,201.076 241.238,204.242 239.5,207.5C 233.942,210.063 232.275,214.229 234.5,220C 236.653,225.104 239.987,229.271 244.5,232.5C 244.833,232.5 245.167,232.5 245.5,232.5C 248.768,234.189 251.768,236.023 254.5,238C 262.073,239.686 269.74,240.852 277.5,241.5C 278.908,242.243 280.241,243.077 281.5,244C 288.804,243.753 296.137,243.586 303.5,243.5C 306.167,243.833 308.833,244.167 311.5,244.5C 312.347,245.966 313.68,246.8 315.5,247C 330.396,248.746 345.063,251.579 359.5,255.5C 360.968,256.779 361.635,258.446 361.5,260.5C 363.857,260.337 366.19,260.503 368.5,261C 369.731,262.183 369.731,263.349 368.5,264.5C 364.906,263.574 361.24,263.241 357.5,263.5C 357.281,264.675 357.614,265.675 358.5,266.5C 363.079,267.973 367.413,269.64 371.5,271.5C 371.326,269.139 370.993,266.806 370.5,264.5C 371.5,264.5 372.5,264.5 373.5,264.5C 374.167,264.5 374.833,264.5 375.5,264.5C 376.467,268.633 378.967,271.3 383,272.5C 384.249,275.925 385.749,279.258 387.5,282.5C 387.957,283.298 388.624,283.631 389.5,283.5C 389.838,290.527 390.504,297.527 391.5,304.5C 392.126,308.908 390.793,312.574 387.5,315.5C 386.669,307.855 386.169,300.188 386,292.5C 385.585,294.291 384.585,295.624 383,296.5C 382.667,293.5 382.333,290.5 382,287.5C 378,287.5 374,287.5 370,287.5C 368.43,292.335 367.263,297.335 366.5,302.5C 365.24,300.647 365.24,298.814 366.5,297C 365.671,295.184 364.837,293.351 364,291.5C 363.333,292.167 362.667,292.833 362,293.5C 361.502,296.817 361.335,300.15 361.5,303.5C 359.856,303.714 358.356,303.38 357,302.5C 356.819,299.305 356.319,296.305 355.5,293.5C 353.355,292.011 351.022,291.011 348.5,290.5C 346.167,288.076 343.5,285.909 340.5,284C 335.648,284.193 331.315,282.86 327.5,280C 321.29,279.614 315.29,278.281 309.5,276C 294.787,275.662 280.121,274.662 265.5,273C 263.956,272.71 262.623,272.044 261.5,271C 255.728,270.564 250.061,269.731 244.5,268.5C 241.482,268.296 238.482,267.963 235.5,267.5C 232.66,265.085 229.327,263.752 225.5,263.5C 223.21,259.728 219.877,257.395 215.5,256.5C 215.167,255.833 214.833,255.167 214.5,254.5C 211.189,249.669 208.022,244.669 205,239.5C 201.058,223.838 201.891,208.505 207.5,193.5C 207.328,192.508 207.662,191.842 208.5,191.5C 211.971,190.522 213.805,188.188 214,184.5C 215.319,182.513 217.152,181.346 219.5,181C 221.046,178.743 222.712,176.576 224.5,174.5C 232.467,171.134 240.133,167.467 247.5,163.5C 252.179,163.666 256.845,163.499 261.5,163C 262.167,162.333 262.833,161.667 263.5,161C 266.365,160.817 269.031,160.317 271.5,159.5 Z"/></g>
<g><path style="opacity:0.314" fill="#d5e9b4" d="M 314.5,158.5 C 321.862,158.573 328.862,159.907 335.5,162.5C 330.137,162.051 324.804,161.384 319.5,160.5C 317.833,159.833 316.167,159.167 314.5,158.5 Z"/></g>
<g><path style="opacity:0.341" fill="#ddf1c2" d="M 257.5,159.5 C 254.222,160.957 250.889,162.29 247.5,163.5C 242.192,165.148 236.859,166.815 231.5,168.5C 232.749,166.864 234.416,165.697 236.5,165C 243.276,162.24 250.276,160.407 257.5,159.5 Z"/></g>
<g><path style="opacity:0.149" fill="#d6eec1" d="M 335.5,163.5 C 335.5,163.167 335.5,162.833 335.5,162.5C 340.534,163.398 345.201,165.065 349.5,167.5C 344.793,166.376 340.126,165.043 335.5,163.5 Z"/></g>
<g><path style="opacity:0.98" fill="#94c067" d="M 335.5,163.5 C 340.126,165.043 344.793,166.376 349.5,167.5C 349.833,167.5 350.167,167.5 350.5,167.5C 350.5,168.167 350.5,168.833 350.5,169.5C 345.455,168.816 340.455,167.816 335.5,166.5C 335.5,165.5 335.5,164.5 335.5,163.5 Z"/></g>
<g><path style="opacity:0.09" fill="#eaf8d5" d="M 231.5,168.5 C 230.341,170.25 228.674,171.25 226.5,171.5C 227.659,169.75 229.326,168.75 231.5,168.5 Z"/></g>
<g><path style="opacity:1" fill="#97c06d" d="M 247.5,163.5 C 240.133,167.467 232.467,171.134 224.5,174.5C 222.712,176.576 221.046,178.743 219.5,181C 217.152,181.346 215.319,182.513 214,184.5C 213.805,188.188 211.971,190.522 208.5,191.5C 211.317,185.34 215.317,180.007 220.5,175.5C 222.147,173.674 224.147,172.34 226.5,171.5C 228.674,171.25 230.341,170.25 231.5,168.5C 236.859,166.815 242.192,165.148 247.5,163.5 Z"/></g>
<g><path style="opacity:0.796" fill="#aece86" d="M 350.5,167.5 C 360.609,172.201 368.609,179.201 374.5,188.5C 370.402,187.332 368.069,184.666 367.5,180.5C 362.613,177.292 357.28,174.625 351.5,172.5C 351.737,171.209 351.404,170.209 350.5,169.5C 350.5,168.833 350.5,168.167 350.5,167.5 Z"/></g>
<g><path style="opacity:0.911" fill="#ace071" d="M 471.5,142.5 C 472.167,142.5 472.833,142.5 473.5,142.5C 473.5,220.5 473.5,298.5 473.5,376.5C 473.167,376.5 472.833,376.5 472.5,376.5C 472.167,376.5 471.833,376.5 471.5,376.5C 471.5,375.833 471.5,375.167 471.5,374.5C 471.5,372.167 471.5,369.833 471.5,367.5C 471.5,292.833 471.5,218.167 471.5,143.5C 471.5,143.167 471.5,142.833 471.5,142.5 Z"/></g>
<g><path style="opacity:1" fill="#89c948" d="M 171.5,383.5 C 172.06,388.649 172.06,393.982 171.5,399.5C 170.109,401.96 168.942,404.626 168,407.5C 167.667,406.833 167.333,406.167 167,405.5C 167.123,399.673 167.623,393.84 168.5,388C 168.556,385.462 167.556,383.628 165.5,382.5C 165.167,380 164.833,377.5 164.5,375C 165.82,305.023 165.82,235.523 164.5,166.5C 166.467,166.261 168.301,166.594 170,167.5C 170.167,239.668 170.667,311.668 171.5,383.5 Z"/></g>
<g><path style="opacity:1" fill="#90c74f" d="M 467.5,140.5 C 468.57,144.125 469.236,147.958 469.5,152C 469.475,223.436 469.475,294.936 469.5,366.5C 467.669,298.174 466.836,229.507 467,160.5C 466.13,159.892 465.63,159.059 465.5,158C 466.93,156.111 467.597,153.945 467.5,151.5C 466.32,147.807 466.32,144.14 467.5,140.5 Z"/></g>
<g><path style="opacity:0.999" fill="#8ec551" d="M 339.5,201.5 C 337.833,200.833 336.167,200.167 334.5,199.5C 329.535,197.176 324.535,195.176 319.5,193.5C 319.389,192.883 319.056,192.383 318.5,192C 314.514,191.501 310.514,191.334 306.5,191.5C 305.5,191.5 304.5,191.5 303.5,191.5C 293.013,190.506 282.346,190.172 271.5,190.5C 266.13,190.392 260.797,190.725 255.5,191.5C 255.5,189.5 255.5,187.5 255.5,185.5C 259.039,185.157 262.539,184.49 266,183.5C 269.343,183.519 272.343,184.519 275,186.5C 289.3,186.29 303.8,186.124 318.5,186C 319.406,187.699 319.739,189.533 319.5,191.5C 322.563,191.863 325.563,192.53 328.5,193.5C 331.067,192.336 333.734,191.67 336.5,191.5C 336.5,192.5 336.5,193.5 336.5,194.5C 335.022,194.238 333.689,194.571 332.5,195.5C 333.714,197.069 335.381,197.902 337.5,198C 338.305,199.113 338.972,200.279 339.5,201.5 Z"/></g>
<g><path style="opacity:0.148" fill="#ddf7c9" d="M 431.5,143.5 C 433.284,143.893 434.95,144.559 436.5,145.5C 437.66,221.126 437.827,296.793 437,372.5C 435.855,373.636 434.688,374.636 433.5,375.5C 428.5,377.664 423.833,380.331 419.5,383.5C 418.833,383.5 418.167,383.5 417.5,383.5C 422.097,379.858 427.097,376.692 432.5,374C 434.886,372.113 436.053,369.613 436,366.5C 436.667,294.5 436.667,222.5 436,150.5C 435.096,147.767 433.596,145.433 431.5,143.5 Z"/></g>
<g><path style="opacity:0.098" fill="#d6f5bb" d="M 374.5,188.5 C 375.906,188.973 376.573,189.973 376.5,191.5C 375.094,191.027 374.427,190.027 374.5,188.5 Z"/></g>
<g><path style="opacity:0.937" fill="#96c363" d="M 271.5,190.5 C 265.849,191.144 260.182,192.311 254.5,194C 252.574,194.422 251.574,195.589 251.5,197.5C 247.88,199.453 244.88,202.119 242.5,205.5C 241.222,205.782 240.222,206.449 239.5,207.5C 241.238,204.242 243.238,201.076 245.5,198C 249.129,196.167 252.463,194.001 255.5,191.5C 260.797,190.725 266.13,190.392 271.5,190.5 Z"/></g>
<g><path style="opacity:0.29" fill="#a5c580" d="M 306.5,191.5 C 310.514,191.334 314.514,191.501 318.5,192C 319.056,192.383 319.389,192.883 319.5,193.5C 314.972,193.23 310.639,192.563 306.5,191.5 Z"/></g>
<g><path style="opacity:0.275" fill="#a5c97e" d="M 271.5,190.5 C 282.346,190.172 293.013,190.506 303.5,191.5C 289.408,190.968 275.408,191.802 261.5,194C 257.961,194.679 254.628,195.846 251.5,197.5C 251.574,195.589 252.574,194.422 254.5,194C 260.182,192.311 265.849,191.144 271.5,190.5 Z"/></g>
<g><path style="opacity:0.518" fill="#aece8a" d="M 376.5,191.5 C 378.008,193.181 379.008,195.181 379.5,197.5C 377.031,196.393 376.031,194.393 376.5,191.5 Z"/></g>
<g><path style="opacity:0.333" fill="#c7e4a8" d="M 220.5,175.5 C 215.317,180.007 211.317,185.34 208.5,191.5C 207.662,191.842 207.328,192.508 207.5,193.5C 205.126,196.949 203.126,200.616 201.5,204.5C 203.588,191.977 209.921,182.31 220.5,175.5 Z"/></g>
<g><path style="opacity:0.882" fill="#a4c778" d="M 379.5,197.5 C 382,200.66 383.333,204.327 383.5,208.5C 382.85,208.196 382.183,207.863 381.5,207.5C 380.831,205.369 380.165,203.369 379.5,201.5C 379.5,200.167 379.5,198.833 379.5,197.5 Z"/></g>
<g><path style="opacity:1" fill="#93c45c" d="M 169.5,165.5 C 160.827,165.334 152.16,165.5 143.5,166C 143,166.5 142.5,167 142,167.5C 141.833,241.334 141.333,315.001 140.5,388.5C 140.5,314.5 140.5,240.5 140.5,166.5C 141.289,166.217 141.956,165.717 142.5,165C 151.676,164.176 160.676,164.343 169.5,165.5 Z"/></g>
<g><path style="opacity:0.999" fill="#8fc05c" d="M 171.5,168.5 C 172.117,168.611 172.617,168.944 173,169.5C 173.667,243.5 173.667,317.5 173,391.5C 172.817,394.365 172.317,397.031 171.5,399.5C 172.06,393.982 172.06,388.649 171.5,383.5C 171.5,311.833 171.5,240.167 171.5,168.5 Z"/></g>
<g><path style="opacity:0.673" fill="#97bc69" d="M 70.5,127.5 C 61.0019,133.084 51.3352,138.417 41.5,143.5C 39.8828,144.038 38.2161,144.371 36.5,144.5C 36.5,145.833 36.5,147.167 36.5,148.5C 35.3345,222.666 35.1678,296.999 36,371.5C 37.1061,374.477 39.2728,376.144 42.5,376.5C 46.8362,378.332 50.8362,380.665 54.5,383.5C 51.0058,382.069 47.3391,381.236 43.5,381C 42.8333,380 42.1667,379 41.5,378C 37.1911,377.132 34.6911,374.632 34,370.5C 33.3333,296.5 33.3333,222.5 34,148.5C 34.7393,146.779 35.5726,145.113 36.5,143.5C 44.9961,140.826 52.3295,136.326 58.5,130C 62.3713,128.488 66.3713,127.655 70.5,127.5 Z"/></g>
<g><path style="opacity:0.349" fill="#a5c877" d="M 334.5,199.5 C 336.167,200.167 337.833,200.833 339.5,201.5C 342.395,205.059 344.395,209.059 345.5,213.5C 342.627,208.284 338.96,203.617 334.5,199.5 Z"/></g>
<g><path style="opacity:0.055" fill="#dfefc3" d="M 242.5,205.5 C 241.248,208.163 240.248,210.83 239.5,213.5C 239.5,211.5 239.5,209.5 239.5,207.5C 240.222,206.449 241.222,205.782 242.5,205.5 Z"/></g>
<g><path style="opacity:0.118" fill="#ecfecc" d="M 36.5,148.5 C 36.3333,222.167 36.5,295.834 37,369.5C 37.9383,372.598 39.7716,374.931 42.5,376.5C 39.2728,376.144 37.1061,374.477 36,371.5C 35.1678,296.999 35.3345,222.666 36.5,148.5 Z"/></g>
<g><path style="opacity:1" fill="#8ec058" d="M 239.5,207.5 C 239.5,209.5 239.5,211.5 239.5,213.5C 238.359,216.64 238.192,219.973 239,223.5C 240.689,226.667 242.522,229.667 244.5,232.5C 239.987,229.271 236.653,225.104 234.5,220C 232.275,214.229 233.942,210.063 239.5,207.5 Z"/></g>
<g><path style="opacity:0.922" fill="#97bf68" d="M 207.5,193.5 C 201.891,208.505 201.058,223.838 205,239.5C 208.022,244.669 211.189,249.669 214.5,254.5C 212.395,251.973 210.061,249.64 207.5,247.5C 203.89,243.604 201.89,238.937 201.5,233.5C 200.813,226.187 200.479,218.854 200.5,211.5C 200.298,209.05 200.631,206.717 201.5,204.5C 203.126,200.616 205.126,196.949 207.5,193.5 Z"/></g>
<g><path style="opacity:0.706" fill="#a3c67b" d="M 345.5,213.5 C 347.274,214.37 348.607,215.703 349.5,217.5C 350.583,221.085 351.249,224.751 351.5,228.5C 350.21,227.942 349.377,226.942 349,225.5C 347.924,221.441 346.757,217.441 345.5,213.5 Z"/></g>
<g><path style="opacity:0.094" fill="#d5eaae" d="M 200.5,211.5 C 200.479,218.854 200.813,226.187 201.5,233.5C 200.088,229.079 199.421,224.412 199.5,219.5C 199.503,216.645 199.836,213.978 200.5,211.5 Z"/></g>
<g><path style="opacity:0.235" fill="#abcd89" d="M 383.5,208.5 C 385.849,214.617 386.515,220.95 385.5,227.5C 384.364,221.359 383.697,215.026 383.5,208.5 Z"/></g>
<g><path style="opacity:0.196" fill="#cfeab2" d="M 239.5,213.5 C 238.41,222.326 241.743,228.66 249.5,232.5C 248.167,232.5 246.833,232.5 245.5,232.5C 245.167,232.5 244.833,232.5 244.5,232.5C 242.522,229.667 240.689,226.667 239,223.5C 238.192,219.973 238.359,216.64 239.5,213.5 Z"/></g>
<g><path style="opacity:0.917" fill="#98c363" d="M 379.5,201.5 C 380.165,203.369 380.831,205.369 381.5,207.5C 382.183,207.863 382.85,208.196 383.5,208.5C 383.697,215.026 384.364,221.359 385.5,227.5C 384.4,228.558 383.066,229.392 381.5,230C 372.167,230.667 362.833,230.667 353.5,230C 352.584,229.722 351.918,229.222 351.5,228.5C 351.249,224.751 350.583,221.085 349.5,217.5C 351.712,220.321 352.712,223.655 352.5,227.5C 362.5,227.5 372.5,227.5 382.5,227.5C 382.5,221.5 382.5,215.5 382.5,209.5C 380.897,209.688 379.563,209.188 378.5,208C 379.423,205.959 379.756,203.792 379.5,201.5 Z"/></g>
<g><path style="opacity:0.545" fill="#a2c579" d="M 249.5,232.5 C 254.259,233.853 258.925,235.186 263.5,236.5C 266.087,237.749 268.754,238.749 271.5,239.5C 265.086,238.864 258.753,237.698 252.5,236C 251.635,234.641 250.635,233.474 249.5,232.5 Z"/></g>
<g><path style="opacity:1" fill="#93c35c" d="M 245.5,232.5 C 246.833,232.5 248.167,232.5 249.5,232.5C 250.635,233.474 251.635,234.641 252.5,236C 258.753,237.698 265.086,238.864 271.5,239.5C 281.841,240.418 292.175,241.418 302.5,242.5C 302.833,242.5 303.167,242.5 303.5,242.5C 303.5,242.833 303.5,243.167 303.5,243.5C 296.137,243.586 288.804,243.753 281.5,244C 280.241,243.077 278.908,242.243 277.5,241.5C 269.74,240.852 262.073,239.686 254.5,238C 251.768,236.023 248.768,234.189 245.5,232.5 Z"/></g>
<g><path style="opacity:0.125" fill="#d6eab6" d="M 263.5,236.5 C 276.712,237.981 289.712,239.981 302.5,242.5C 292.175,241.418 281.841,240.418 271.5,239.5C 268.754,238.749 266.087,237.749 263.5,236.5 Z"/></g>
<g><path style="opacity:0.137" fill="#cae5aa" d="M 303.5,243.5 C 303.5,243.167 303.5,242.833 303.5,242.5C 309.732,242.872 315.732,243.872 321.5,245.5C 318.098,245.658 314.764,245.324 311.5,244.5C 308.833,244.167 306.167,243.833 303.5,243.5 Z"/></g>
<g><path style="opacity:0.941" fill="#94bd68" d="M 311.5,244.5 C 314.764,245.324 318.098,245.658 321.5,245.5C 327.217,247.415 333.217,248.415 339.5,248.5C 343.2,250.281 347.2,251.281 351.5,251.5C 354.079,253.025 356.746,254.359 359.5,255.5C 345.063,251.579 330.396,248.746 315.5,247C 313.68,246.8 312.347,245.966 311.5,244.5 Z"/></g>
<g><path style="opacity:0.173" fill="#c8dfa1" d="M 321.5,245.5 C 327.732,245.872 333.732,246.872 339.5,248.5C 333.217,248.415 327.217,247.415 321.5,245.5 Z"/></g>
<g><path style="opacity:0.125" fill="#d9eebe" d="M 339.5,248.5 C 343.8,248.719 347.8,249.719 351.5,251.5C 347.2,251.281 343.2,250.281 339.5,248.5 Z"/></g>
<g><path style="opacity:0.161" fill="#dff1b3" d="M 207.5,247.5 C 210.061,249.64 212.395,251.973 214.5,254.5C 214.833,255.167 215.167,255.833 215.5,256.5C 211.689,254.564 209.022,251.564 207.5,247.5 Z"/></g>
<g><path style="opacity:0.118" fill="#dbf3c0" d="M 351.5,251.5 C 355.537,252.065 359.203,253.399 362.5,255.5C 361.5,255.5 360.5,255.5 359.5,255.5C 356.746,254.359 354.079,253.025 351.5,251.5 Z"/></g>
<g><path style="opacity:0.733" fill="#b8d997" d="M 215.5,256.5 C 219.877,257.395 223.21,259.728 225.5,263.5C 221.458,262.149 218.125,259.815 215.5,256.5 Z"/></g>
<g><path style="opacity:0.663" fill="#bad399" d="M 362.5,255.5 C 365.912,256.075 368.912,257.408 371.5,259.5C 367.425,260.341 364.425,259.008 362.5,255.5 Z"/></g>
<g><path style="opacity:0.061" fill="#ecfdd7" d="M 138.5,167.5 C 138.5,241.833 138.5,316.167 138.5,390.5C 137.494,396.894 134.161,401.561 128.5,404.5C 132.591,400.662 135.424,395.995 137,390.5C 137.167,315.999 137.667,241.666 138.5,167.5 Z"/></g>
<g><path style="opacity:0.416" fill="#c2df9e" d="M 225.5,263.5 C 229.327,263.752 232.66,265.085 235.5,267.5C 231.863,266.737 228.53,265.403 225.5,263.5 Z"/></g>
<g><path style="opacity:1" fill="#8ec554" d="M 359.5,255.5 C 360.5,255.5 361.5,255.5 362.5,255.5C 364.425,259.008 367.425,260.341 371.5,259.5C 371.893,261.284 372.559,262.95 373.5,264.5C 372.5,264.5 371.5,264.5 370.5,264.5C 370.993,266.806 371.326,269.139 371.5,271.5C 367.413,269.64 363.079,267.973 358.5,266.5C 357.614,265.675 357.281,264.675 357.5,263.5C 361.24,263.241 364.906,263.574 368.5,264.5C 369.731,263.349 369.731,262.183 368.5,261C 366.19,260.503 363.857,260.337 361.5,260.5C 361.635,258.446 360.968,256.779 359.5,255.5 Z"/></g>
<g><path style="opacity:0.384" fill="#c0da9b" d="M 371.5,259.5 C 375.758,261.793 379.424,264.793 382.5,268.5C 380.167,267.167 377.833,265.833 375.5,264.5C 374.833,264.5 374.167,264.5 373.5,264.5C 372.559,262.95 371.893,261.284 371.5,259.5 Z"/></g>
<g><path style="opacity:0.991" fill="#8fc157" d="M 447.5,150.5 C 446.21,151.058 445.377,152.058 445,153.5C 443.559,152.74 442.059,152.074 440.5,151.5C 439.833,225.999 439.167,300.332 438.5,374.5C 438.5,298.833 438.5,223.167 438.5,147.5C 440.973,147.264 442.64,145.931 443.5,143.5C 445.31,145.623 446.643,147.957 447.5,150.5 Z"/></g>
<g><path style="opacity:0.573" fill="#b5d191" d="M 235.5,267.5 C 238.482,267.963 241.482,268.296 244.5,268.5C 245.306,269.728 246.306,270.728 247.5,271.5C 243.216,270.739 239.216,269.405 235.5,267.5 Z"/></g>
<g><path style="opacity:1" fill="#91c05b" d="M 375.5,264.5 C 377.833,265.833 380.167,267.167 382.5,268.5C 383.912,270.998 385.079,273.664 386,276.5C 386.759,278.063 387.926,279.063 389.5,279.5C 389.5,280.833 389.5,282.167 389.5,283.5C 388.624,283.631 387.957,283.298 387.5,282.5C 385.749,279.258 384.249,275.925 383,272.5C 378.967,271.3 376.467,268.633 375.5,264.5 Z"/></g>
<g><path style="opacity:0.667" fill="#b5d18e" d="M 248.5,271.5 C 251.85,271.335 255.183,271.502 258.5,272C 260.491,272.374 262.158,273.207 263.5,274.5C 258.256,274.118 253.256,273.118 248.5,271.5 Z"/></g>
<g><path style="opacity:0.227" fill="#c8e4a8" d="M 263.5,274.5 C 269.051,274.527 274.384,275.194 279.5,276.5C 273.931,276.624 268.598,275.957 263.5,274.5 Z"/></g>
<g><path style="opacity:1" fill="#96c363" d="M 244.5,268.5 C 250.061,269.731 255.728,270.564 261.5,271C 262.623,272.044 263.956,272.71 265.5,273C 280.121,274.662 294.787,275.662 309.5,276C 315.29,278.281 321.29,279.614 327.5,280C 331.315,282.86 335.648,284.193 340.5,284C 343.5,285.909 346.167,288.076 348.5,290.5C 339.115,286.407 329.449,283.407 319.5,281.5C 314.783,279.762 309.783,279.096 304.5,279.5C 304.167,279.5 303.833,279.5 303.5,279.5C 298.384,278.194 293.051,277.527 287.5,277.5C 284.615,277.806 281.948,277.473 279.5,276.5C 274.384,275.194 269.051,274.527 263.5,274.5C 262.158,273.207 260.491,272.374 258.5,272C 255.183,271.502 251.85,271.335 248.5,271.5C 248.167,271.5 247.833,271.5 247.5,271.5C 246.306,270.728 245.306,269.728 244.5,268.5 Z"/></g>
<g><path style="opacity:0.157" fill="#daf1c3" d="M 287.5,277.5 C 293.051,277.527 298.384,278.194 303.5,279.5C 297.931,279.624 292.598,278.957 287.5,277.5 Z"/></g>
<g><path style="opacity:0.51" fill="#b3cf90" d="M 382.5,268.5 C 386.01,271.358 388.343,275.024 389.5,279.5C 387.926,279.063 386.759,278.063 386,276.5C 385.079,273.664 383.912,270.998 382.5,268.5 Z"/></g>
<g><path style="opacity:0.4" fill="#c5dfa4" d="M 304.5,279.5 C 309.783,279.096 314.783,279.762 319.5,281.5C 314.269,281.556 309.269,280.889 304.5,279.5 Z"/></g>
<g><path style="opacity:1" fill="#8dc64e" d="M 389.5,283.5 C 390.222,283.918 390.722,284.584 391,285.5C 392.176,294.144 392.51,302.81 392,311.5C 390.806,316.612 389.473,321.612 388,326.5C 387.617,327.056 387.117,327.389 386.5,327.5C 386.5,325.833 386.5,324.167 386.5,322.5C 385.5,322.5 384.5,322.5 383.5,322.5C 385.813,318.249 385.979,313.916 384,309.5C 382.964,312.753 382.297,316.086 382,319.5C 376.87,319.392 371.37,319.058 365.5,318.5C 365.91,313.327 365.243,308.327 363.5,303.5C 362.914,303.709 362.414,304.043 362,304.5C 361.667,308.167 361.333,311.833 361,315.5C 360.261,314.426 359.261,313.759 358,313.5C 355.815,315.915 353.648,318.249 351.5,320.5C 351.5,319.833 351.5,319.167 351.5,318.5C 353.311,316.615 354.478,314.281 355,311.5C 355.499,305.509 355.666,299.509 355.5,293.5C 356.319,296.305 356.819,299.305 357,302.5C 358.356,303.38 359.856,303.714 361.5,303.5C 361.335,300.15 361.502,296.817 362,293.5C 362.667,292.833 363.333,292.167 364,291.5C 364.837,293.351 365.671,295.184 366.5,297C 365.24,298.814 365.24,300.647 366.5,302.5C 367.263,297.335 368.43,292.335 370,287.5C 374,287.5 378,287.5 382,287.5C 382.333,290.5 382.667,293.5 383,296.5C 384.585,295.624 385.585,294.291 386,292.5C 386.169,300.188 386.669,307.855 387.5,315.5C 390.793,312.574 392.126,308.908 391.5,304.5C 390.504,297.527 389.838,290.527 389.5,283.5 Z"/></g>
<g><path style="opacity:0.074" fill="#e0f8cb" d="M 196.5,292.5 C 206.325,291.342 216.325,291.175 226.5,292C 228.426,292.422 229.426,293.589 229.5,295.5C 228.18,294.058 226.514,293.392 224.5,293.5C 215.348,292.506 206.015,292.173 196.5,292.5 Z"/></g>
<g><path style="opacity:0.549" fill="#a1c17e" d="M 196.5,292.5 C 206.015,292.173 215.348,292.506 224.5,293.5C 214.652,293.173 204.986,293.506 195.5,294.5C 194.833,296.833 194.167,299.167 193.5,301.5C 193.5,299.5 193.5,297.5 193.5,295.5C 193.5,293.5 194.5,292.5 196.5,292.5 Z"/></g>
<g><path style="opacity:0.922" fill="#90bb5d" d="M 195.5,294.5 C 204.986,293.506 214.652,293.173 224.5,293.5C 226.514,293.392 228.18,294.058 229.5,295.5C 229.5,298.167 229.5,300.833 229.5,303.5C 228.996,300.547 227.996,297.714 226.5,295C 216.172,294.5 205.839,294.334 195.5,294.5 Z"/></g>
<g><path style="opacity:0.651" fill="#abcb81" d="M 348.5,290.5 C 351.022,291.011 353.355,292.011 355.5,293.5C 355.666,299.509 355.499,305.509 355,311.5C 354.478,314.281 353.311,316.615 351.5,318.5C 354.611,311.338 355.111,304.005 353,296.5C 351.668,294.34 350.168,292.34 348.5,290.5 Z"/></g>
<g><path style="opacity:0.298" fill="#dcf5c0" d="M 172.5,407.5 C 172.765,403.147 173.265,398.813 174,394.5C 174.667,318.5 174.667,242.5 174,166.5C 173.167,165.667 172.333,164.833 171.5,164C 161.506,163.5 151.506,163.334 141.5,163.5C 151.794,161.711 162.127,161.545 172.5,163C 173.333,163.833 174.167,164.667 175,165.5C 175.315,168.372 175.815,171.205 176.5,174C 176.31,241.471 176.143,308.971 176,376.5C 175.667,382.833 175.333,389.167 175,395.5C 174.665,399.736 173.832,403.736 172.5,407.5 Z"/></g>
<g><path style="opacity:0.624" fill="#b0ce87" d="M 229.5,295.5 C 230.955,306.409 235.621,315.743 243.5,323.5C 240.9,322.081 238.4,320.415 236,318.5C 232.74,313.858 230.573,308.858 229.5,303.5C 229.5,300.833 229.5,298.167 229.5,295.5 Z"/></g>
<g><path style="opacity:1" fill="#8dc357" d="M 195.5,294.5 C 195.5,295.5 195.5,296.5 195.5,297.5C 196.759,312.023 197.426,312.023 197.5,297.5C 198.833,297.5 200.167,297.5 201.5,297.5C 201.879,302.297 201.379,306.964 200,311.5C 199.667,310.833 199.333,310.167 199,309.5C 198.833,311.5 198.667,313.5 198.5,315.5C 198.657,320.108 199.657,324.441 201.5,328.5C 203.451,328.773 204.951,328.107 206,326.5C 206.374,327.416 206.874,328.25 207.5,329C 206.577,331.041 206.244,333.208 206.5,335.5C 202.423,332.205 199.59,327.872 198,322.5C 195.252,315.765 193.752,308.765 193.5,301.5C 194.167,299.167 194.833,296.833 195.5,294.5 Z"/></g>
<g><path style="opacity:1" fill="#8dc64f" d="M 195.5,294.5 C 205.839,294.334 216.172,294.5 226.5,295C 227.996,297.714 228.996,300.547 229.5,303.5C 230.573,308.858 232.74,313.858 236,318.5C 238.4,320.415 240.9,322.081 243.5,323.5C 245.059,325.624 247.059,327.291 249.5,328.5C 247.5,328.5 245.5,328.5 243.5,328.5C 243.5,329.833 243.5,331.167 243.5,332.5C 239.314,332.433 235.481,333.433 232,335.5C 229.558,335.35 227.058,335.016 224.5,334.5C 224.167,333 223.833,331.5 223.5,330C 224.721,325.231 225.554,320.398 226,315.5C 229.787,312.451 230.453,308.784 228,304.5C 226.615,305.551 225.615,306.884 225,308.5C 224.667,308.167 224.333,307.833 224,307.5C 225.503,304.095 226.17,300.429 226,296.5C 219.889,295.191 213.722,295.191 207.5,296.5C 212.792,297.495 218.125,297.828 223.5,297.5C 223.5,298.833 223.5,300.167 223.5,301.5C 217.5,301.5 211.5,301.5 205.5,301.5C 205.5,299.5 205.5,297.5 205.5,295.5C 201.821,295.06 198.488,295.727 195.5,297.5C 195.5,296.5 195.5,295.5 195.5,294.5 Z"/></g>
<g><path style="opacity:0.881" fill="#90b863" d="M 140.5,166.5 C 140.5,240.5 140.5,314.5 140.5,388.5C 139.326,394.362 136.992,399.696 133.5,404.5C 131.827,406.086 129.827,406.753 127.5,406.5C 127.833,405.833 128.167,405.167 128.5,404.5C 134.161,401.561 137.494,396.894 138.5,390.5C 139.167,315.833 139.833,241.167 140.5,166.5 Z"/></g>
<g><path style="opacity:0.812" fill="#aacb81" d="M 389.5,279.5 C 395.978,294.935 396.145,310.602 390,326.5C 387.697,331.279 384.864,335.613 381.5,339.5C 381.557,338.391 381.89,337.391 382.5,336.5C 383.088,333.111 384.421,330.111 386.5,327.5C 387.117,327.389 387.617,327.056 388,326.5C 389.473,321.612 390.806,316.612 392,311.5C 392.51,302.81 392.176,294.144 391,285.5C 390.722,284.584 390.222,283.918 389.5,283.5C 389.5,282.167 389.5,280.833 389.5,279.5 Z"/></g>
<g><path style="opacity:0.707" fill="#92b96a" d="M 436.5,145.5 C 437.5,145.833 438.167,146.5 438.5,147.5C 438.5,223.167 438.5,298.833 438.5,374.5C 436.883,375.038 435.216,375.371 433.5,375.5C 434.688,374.636 435.855,373.636 437,372.5C 437.827,296.793 437.66,221.126 436.5,145.5 Z"/></g>
<g><path style="opacity:1" fill="#8bc84c" d="M 249.5,328.5 C 250.492,328.328 251.158,328.662 251.5,329.5C 251.611,330.117 251.944,330.617 252.5,331C 257.077,332.81 261.744,334.31 266.5,335.5C 287.183,336.944 307.85,336.777 328.5,335C 333.651,334.511 338.151,332.678 342,329.5C 343.766,330.233 345.599,330.567 347.5,330.5C 347.34,328.801 347.506,327.134 348,325.5C 349.802,324.211 350.969,322.544 351.5,320.5C 353.648,318.249 355.815,315.915 358,313.5C 359.261,313.759 360.261,314.426 361,315.5C 361.333,311.833 361.667,308.167 362,304.5C 362.414,304.043 362.914,303.709 363.5,303.5C 365.243,308.327 365.91,313.327 365.5,318.5C 371.37,319.058 376.87,319.392 382,319.5C 382.297,316.086 382.964,312.753 384,309.5C 385.979,313.916 385.813,318.249 383.5,322.5C 384.5,322.5 385.5,322.5 386.5,322.5C 386.5,324.167 386.5,325.833 386.5,327.5C 384.421,330.111 383.088,333.111 382.5,336.5C 376.934,339.395 372.267,343.395 368.5,348.5C 368.5,349.5 368.5,350.5 368.5,351.5C 366.801,351.34 365.134,351.506 363.5,352C 360.066,354.435 356.4,356.435 352.5,358C 343.412,360.986 334.079,363.153 324.5,364.5C 301.358,363.441 278.358,362.774 255.5,362.5C 252.279,361.889 249.279,360.722 246.5,359C 242.514,358.501 238.514,358.334 234.5,358.5C 234.579,357.07 234.246,355.736 233.5,354.5C 225.074,352.365 217.907,348.032 212,341.5C 211.517,340.552 211.351,339.552 211.5,338.5C 210.5,338.5 209.5,338.5 208.5,338.5C 208.715,336.821 208.048,335.821 206.5,335.5C 206.244,333.208 206.577,331.041 207.5,329C 206.874,328.25 206.374,327.416 206,326.5C 204.951,328.107 203.451,328.773 201.5,328.5C 199.657,324.441 198.657,320.108 198.5,315.5C 198.667,313.5 198.833,311.5 199,309.5C 199.333,310.167 199.667,310.833 200,311.5C 201.379,306.964 201.879,302.297 201.5,297.5C 200.167,297.5 198.833,297.5 197.5,297.5C 197.426,312.023 196.759,312.023 195.5,297.5C 198.488,295.727 201.821,295.06 205.5,295.5C 205.5,297.5 205.5,299.5 205.5,301.5C 211.5,301.5 217.5,301.5 223.5,301.5C 223.5,300.167 223.5,298.833 223.5,297.5C 218.125,297.828 212.792,297.495 207.5,296.5C 213.722,295.191 219.889,295.191 226,296.5C 226.17,300.429 225.503,304.095 224,307.5C 224.333,307.833 224.667,308.167 225,308.5C 225.615,306.884 226.615,305.551 228,304.5C 230.453,308.784 229.787,312.451 226,315.5C 225.554,320.398 224.721,325.231 223.5,330C 223.833,331.5 224.167,333 224.5,334.5C 227.058,335.016 229.558,335.35 232,335.5C 235.481,333.433 239.314,332.433 243.5,332.5C 243.5,331.167 243.5,329.833 243.5,328.5C 245.5,328.5 247.5,328.5 249.5,328.5 Z"/></g>
<g><path style="opacity:0.278" fill="#bedb94" d="M 342.5,326.5 C 339.311,329.686 335.311,331.353 330.5,331.5C 334.424,329.853 338.424,328.186 342.5,326.5 Z"/></g>
<g><path style="opacity:0.322" fill="#c9e4a6" d="M 243.5,323.5 C 248.232,325.866 252.899,328.199 257.5,330.5C 255.435,330.483 253.435,330.15 251.5,329.5C 251.158,328.662 250.492,328.328 249.5,328.5C 247.059,327.291 245.059,325.624 243.5,323.5 Z"/></g>
<g><path style="opacity:0.196" fill="#c3e2a1" d="M 351.5,318.5 C 351.5,319.167 351.5,319.833 351.5,320.5C 349.026,323.31 346.026,325.31 342.5,326.5C 345.474,323.862 348.474,321.195 351.5,318.5 Z"/></g>
<g><path style="opacity:0.83" fill="#95bf6c" d="M 141.5,163.5 C 151.506,163.334 161.506,163.5 171.5,164C 172.333,164.833 173.167,165.667 174,166.5C 174.667,242.5 174.667,318.5 174,394.5C 173.265,398.813 172.765,403.147 172.5,407.5C 170.733,409.792 169.733,412.458 169.5,415.5C 167.323,421.007 163.99,425.674 159.5,429.5C 159.604,427.297 160.27,425.297 161.5,423.5C 162.983,421.906 164.483,420.24 166,418.5C 168.608,412.403 170.441,406.07 171.5,399.5C 172.317,397.031 172.817,394.365 173,391.5C 173.667,317.5 173.667,243.5 173,169.5C 172.617,168.944 172.117,168.611 171.5,168.5C 171.573,166.973 170.906,165.973 169.5,165.5C 160.676,164.343 151.676,164.176 142.5,165C 141.956,165.717 141.289,166.217 140.5,166.5C 140.557,165.391 140.89,164.391 141.5,163.5 Z"/></g>
<g><path style="opacity:0.902" fill="#91bf5d" d="M 351.5,320.5 C 350.969,322.544 349.802,324.211 348,325.5C 347.506,327.134 347.34,328.801 347.5,330.5C 345.599,330.567 343.766,330.233 342,329.5C 338.151,332.678 333.651,334.511 328.5,335C 307.85,336.777 287.183,336.944 266.5,335.5C 261.744,334.31 257.077,332.81 252.5,331C 251.944,330.617 251.611,330.117 251.5,329.5C 253.435,330.15 255.435,330.483 257.5,330.5C 259.099,330.232 260.432,330.566 261.5,331.5C 264.534,333.018 267.867,333.851 271.5,334C 282.863,335.254 294.197,335.421 305.5,334.5C 310.179,334.666 314.845,334.499 319.5,334C 323.133,333.851 326.466,333.018 329.5,331.5C 329.833,331.5 330.167,331.5 330.5,331.5C 335.311,331.353 339.311,329.686 342.5,326.5C 346.026,325.31 349.026,323.31 351.5,320.5 Z"/></g>
<g><path style="opacity:0.153" fill="#d1e9b2" d="M 261.5,331.5 C 276.112,333.153 290.779,333.82 305.5,333.5C 305.5,333.833 305.5,334.167 305.5,334.5C 294.197,335.421 282.863,335.254 271.5,334C 267.867,333.851 264.534,333.018 261.5,331.5 Z"/></g>
<g><path style="opacity:0.294" fill="#c6e3a1" d="M 329.5,331.5 C 326.466,333.018 323.133,333.851 319.5,334C 314.845,334.499 310.179,334.666 305.5,334.5C 305.5,334.167 305.5,333.833 305.5,333.5C 313.572,333.597 321.572,332.93 329.5,331.5 Z"/></g>
<g><path style="opacity:0.255" fill="#d0e7b0" d="M 193.5,295.5 C 193.5,297.5 193.5,299.5 193.5,301.5C 193.752,308.765 195.252,315.765 198,322.5C 199.59,327.872 202.423,332.205 206.5,335.5C 206.709,336.922 207.209,338.255 208,339.5C 210.372,341.703 212.539,344.037 214.5,346.5C 201.955,337.097 194.788,324.431 193,308.5C 192.186,303.98 192.353,299.646 193.5,295.5 Z"/></g>
<g><path style="opacity:0.359" fill="#b2d094" d="M 141.5,163.5 C 140.89,164.391 140.557,165.391 140.5,166.5C 139.833,241.167 139.167,315.833 138.5,390.5C 138.5,316.167 138.5,241.833 138.5,167.5C 138.554,165.368 139.554,164.035 141.5,163.5 Z"/></g>
<g><path style="opacity:0.439" fill="#b0ce84" d="M 381.5,339.5 C 378.241,344.635 373.908,348.635 368.5,351.5C 368.5,350.5 368.5,349.5 368.5,348.5C 370.628,347.043 372.962,346.043 375.5,345.5C 375.833,341.833 377.833,339.833 381.5,339.5 Z"/></g>
<g><path style="opacity:0.906" fill="#93c15f" d="M 382.5,336.5 C 381.89,337.391 381.557,338.391 381.5,339.5C 377.833,339.833 375.833,341.833 375.5,345.5C 372.962,346.043 370.628,347.043 368.5,348.5C 372.267,343.395 376.934,339.395 382.5,336.5 Z"/></g>
<g><path style="opacity:1" fill="#9bc56d" d="M 206.5,335.5 C 208.048,335.821 208.715,336.821 208.5,338.5C 209.5,338.5 210.5,338.5 211.5,338.5C 211.351,339.552 211.517,340.552 212,341.5C 217.907,348.032 225.074,352.365 233.5,354.5C 234.246,355.736 234.579,357.07 234.5,358.5C 226.83,356.006 220.163,352.006 214.5,346.5C 212.539,344.037 210.372,341.703 208,339.5C 207.209,338.255 206.709,336.922 206.5,335.5 Z"/></g>
<g><path style="opacity:1" fill="#95c166" d="M 234.5,358.5 C 238.514,358.334 242.514,358.501 246.5,359C 249.279,360.722 252.279,361.889 255.5,362.5C 255.5,362.833 255.5,363.167 255.5,363.5C 253.833,363.5 252.167,363.5 250.5,363.5C 247.495,361.723 244.162,360.723 240.5,360.5C 238.214,360.405 236.214,359.738 234.5,358.5 Z"/></g>
<g><path style="opacity:0.251" fill="#bbd89f" d="M 240.5,360.5 C 244.162,360.723 247.495,361.723 250.5,363.5C 246.838,363.277 243.505,362.277 240.5,360.5 Z"/></g>
<g><path style="opacity:0.231" fill="#a6c97d" d="M 368.5,351.5 C 350.483,362.331 330.816,367.831 309.5,368C 298.481,368.684 287.481,368.518 276.5,367.5C 276.5,367.167 276.5,366.833 276.5,366.5C 290.837,366.667 305.171,366.5 319.5,366C 321.382,365.802 323.048,365.302 324.5,364.5C 334.079,363.153 343.412,360.986 352.5,358C 356.4,356.435 360.066,354.435 363.5,352C 365.134,351.506 366.801,351.34 368.5,351.5 Z"/></g>
<g><path style="opacity:0.616" fill="#adcc84" d="M 250.5,363.5 C 252.167,363.5 253.833,363.5 255.5,363.5C 262.457,364.78 269.457,365.78 276.5,366.5C 276.5,366.833 276.5,367.167 276.5,367.5C 267.544,367.228 258.877,365.895 250.5,363.5 Z"/></g>
<g><path style="opacity:0.842" fill="#8fc457" d="M 255.5,363.5 C 255.5,363.167 255.5,362.833 255.5,362.5C 278.358,362.774 301.358,363.441 324.5,364.5C 323.048,365.302 321.382,365.802 319.5,366C 305.171,366.5 290.837,366.667 276.5,366.5C 269.457,365.78 262.457,364.78 255.5,363.5 Z"/></g>
<g><path style="opacity:1" fill="#9bbd6e" d="M 433.5,375.5 C 431.722,378.212 429.389,380.212 426.5,381.5C 424.254,382.455 421.921,383.122 419.5,383.5C 423.833,380.331 428.5,377.664 433.5,375.5 Z"/></g>
<g><path style="opacity:0.986" fill="#99bf6e" d="M 471.5,374.5 C 471.5,375.167 471.5,375.833 471.5,376.5C 470.036,380.019 469.036,383.686 468.5,387.5C 468.573,389.027 467.906,390.027 466.5,390.5C 465.5,391.167 464.5,391.833 463.5,392.5C 463.831,390.678 464.498,389.011 465.5,387.5C 467.265,384.607 468.432,381.274 469,377.5C 469.852,376.429 470.685,375.429 471.5,374.5 Z"/></g>
<g><path style="opacity:0.655" fill="#c2e1a3" d="M 0.5,377.5 C 0.833333,377.5 1.16667,377.5 1.5,377.5C 3.08083,379.142 3.7475,381.142 3.5,383.5C 4.23411,384.708 4.56745,386.041 4.5,387.5C 2.08491,384.66 0.751581,381.327 0.5,377.5 Z"/></g>
<g><path style="opacity:0.196" fill="#d5efb7" d="M 471.5,376.5 C 471.833,376.5 472.167,376.5 472.5,376.5C 472.543,380.733 471.21,384.4 468.5,387.5C 469.036,383.686 470.036,380.019 471.5,376.5 Z"/></g>
<g><path style="opacity:1" fill="#8dc550" d="M 426.5,381.5 C 425.993,382.859 424.993,383.859 423.5,384.5C 423.833,385.167 424.167,385.833 424.5,386.5C 430.586,386.081 432.753,388.747 431,394.5C 429.324,395.061 427.991,396.061 427,397.5C 426.57,400.192 426.737,402.859 427.5,405.5C 429.124,405.64 430.29,404.973 431,403.5C 431.894,405.979 432.227,408.312 432,410.5C 438.14,407.191 444.307,404.191 450.5,401.5C 450.827,396.786 450.493,392.12 449.5,387.5C 447.51,386.537 447.177,385.204 448.5,383.5C 450.063,384.945 451.396,386.611 452.5,388.5C 456.765,387.561 461.098,387.228 465.5,387.5C 464.498,389.011 463.831,390.678 463.5,392.5C 463.119,393.931 462.119,394.764 460.5,395C 460.833,395.333 461.167,395.667 461.5,396C 460.177,396.816 459.511,397.983 459.5,399.5C 455.957,400.807 452.29,401.974 448.5,403C 443.614,405.532 438.947,408.532 434.5,412C 433.552,412.483 432.552,412.649 431.5,412.5C 431.5,413.5 431.5,414.5 431.5,415.5C 428.478,415.342 426.478,416.675 425.5,419.5C 421.619,420.835 417.619,422.002 413.5,423C 412.257,424.154 411.257,425.488 410.5,427C 409.552,427.483 408.552,427.649 407.5,427.5C 409.639,425.861 409.973,423.861 408.5,421.5C 411.81,421.396 415.144,420.562 418.5,419C 417.584,418.626 416.75,418.126 416,417.5C 414.651,408.418 416.485,400.085 421.5,392.5C 418.451,390.534 415.118,390.034 411.5,391C 407.677,394.204 403.344,396.371 398.5,397.5C 401.777,395.582 404.777,393.249 407.5,390.5C 412.481,389.639 416.481,387.306 419.5,383.5C 421.921,383.122 424.254,382.455 426.5,381.5 Z"/></g>
<g><path style="opacity:0.616" fill="#a1c573" d="M 54.5,383.5 C 69.589,392.044 84.9223,400.044 100.5,407.5C 100.833,408.167 101.167,408.833 101.5,409.5C 94.0285,408.094 87.3619,405.094 81.5,400.5C 76.7909,398.43 72.1242,396.263 67.5,394C 63.8345,390.834 59.8345,388.167 55.5,386C 54.7476,385.329 54.4142,384.496 54.5,383.5 Z"/></g>
<g><path style="opacity:0.851" fill="#a5c97b" d="M 417.5,383.5 C 418.167,383.5 418.833,383.5 419.5,383.5C 416.481,387.306 412.481,389.639 407.5,390.5C 407.833,389.833 408.167,389.167 408.5,388.5C 411.008,386.076 414.008,384.41 417.5,383.5 Z"/></g>
<g><path style="opacity:0.192" fill="#e4f5c6" d="M 408.5,388.5 C 408.167,389.167 407.833,389.833 407.5,390.5C 405.5,391.167 403.5,391.833 401.5,392.5C 403.336,390.412 405.669,389.079 408.5,388.5 Z"/></g>
<g><path style="opacity:0.376" fill="#c8e2a3" d="M 466.5,390.5 C 465.306,394.363 462.973,397.363 459.5,399.5C 459.511,397.983 460.177,396.816 461.5,396C 461.167,395.667 460.833,395.333 460.5,395C 462.119,394.764 463.119,393.931 463.5,392.5C 464.5,391.833 465.5,391.167 466.5,390.5 Z"/></g>
<g><path style="opacity:0.165" fill="#dff5c0" d="M 399.5,393.5 C 396.165,396.839 392.165,399.172 387.5,400.5C 391.164,397.665 395.164,395.332 399.5,393.5 Z"/></g>
<g><path style="opacity:0.227" fill="#a0c473" d="M 3.5,383.5 C 3.83333,383.5 4.16667,383.5 4.5,383.5C 6.01168,385.596 7.67835,387.596 9.5,389.5C 10.7116,393.151 12.7116,396.318 15.5,399C 20.7398,402.118 26.0731,404.952 31.5,407.5C 31.5,408.5 31.5,409.5 31.5,410.5C 19.8818,405.865 10.8818,398.198 4.5,387.5C 4.56745,386.041 4.23411,384.708 3.5,383.5 Z"/></g>
<g><path style="opacity:0.612" fill="#c7dc9e" d="M 387.5,400.5 C 386.393,402.969 384.393,403.969 381.5,403.5C 383.181,401.992 385.181,400.992 387.5,400.5 Z"/></g>
<g><path style="opacity:0.255" fill="#daf3b7" d="M 381.5,403.5 C 378.839,406.502 375.505,408.502 371.5,409.5C 374.494,407 377.827,405 381.5,403.5 Z"/></g>
<g><path style="opacity:0.204" fill="#dff4cb" d="M 128.5,404.5 C 128.167,405.167 127.833,405.833 127.5,406.5C 125.007,407.774 122.341,408.44 119.5,408.5C 122.314,406.93 125.314,405.597 128.5,404.5 Z"/></g>
<g><path style="opacity:0.365" fill="#cae3a6" d="M 100.5,407.5 C 106.789,408.372 113.122,408.705 119.5,408.5C 119.389,409.117 119.056,409.617 118.5,410C 112.805,410.626 107.138,410.459 101.5,409.5C 101.167,408.833 100.833,408.167 100.5,407.5 Z"/></g>
<g><path style="opacity:0.886" fill="#94bd63" d="M 127.5,406.5 C 127.53,407.497 127.03,408.164 126,408.5C 120.128,411.042 113.961,412.375 107.5,412.5C 104.95,412.383 102.95,411.383 101.5,409.5C 107.138,410.459 112.805,410.626 118.5,410C 119.056,409.617 119.389,409.117 119.5,408.5C 122.341,408.44 125.007,407.774 127.5,406.5 Z"/></g>
<g><path style="opacity:0.141" fill="#d8f4be" d="M 172.5,407.5 C 172.267,410.542 171.267,413.208 169.5,415.5C 169.733,412.458 170.733,409.792 172.5,407.5 Z"/></g>
<g><path style="opacity:1" fill="#94bf61" d="M 407.5,390.5 C 404.777,393.249 401.777,395.582 398.5,397.5C 392.715,400.78 387.049,404.28 381.5,408C 376.518,409.179 371.852,411.012 367.5,413.5C 369.041,412.333 370.375,411 371.5,409.5C 375.505,408.502 378.839,406.502 381.5,403.5C 384.393,403.969 386.393,402.969 387.5,400.5C 392.165,399.172 396.165,396.839 399.5,393.5C 399.842,392.662 400.508,392.328 401.5,392.5C 403.5,391.833 405.5,391.167 407.5,390.5 Z"/></g>
<g><path style="opacity:0.596" fill="#a8c97d" d="M 459.5,399.5 C 448.833,407.172 437.5,413.838 425.5,419.5C 426.478,416.675 428.478,415.342 431.5,415.5C 431.5,414.5 431.5,413.5 431.5,412.5C 432.552,412.649 433.552,412.483 434.5,412C 438.947,408.532 443.614,405.532 448.5,403C 452.29,401.974 455.957,400.807 459.5,399.5 Z"/></g>
<g><path style="opacity:0.388" fill="#add089" d="M 31.5,410.5 C 32.8734,410.343 34.2068,410.51 35.5,411C 42.8792,415.58 50.5458,419.413 58.5,422.5C 58.5,423.5 58.5,424.5 58.5,425.5C 49.0086,421.257 40.0086,416.257 31.5,410.5 Z"/></g>
<g><path style="opacity:1" fill="#8ec650" d="M 161.5,423.5 C 160.27,425.297 159.604,427.297 159.5,429.5C 159.167,430.5 158.5,431.167 157.5,431.5C 153.081,434.042 148.414,436.042 143.5,437.5C 143.414,436.504 143.748,435.671 144.5,435C 149.923,434.867 151.589,432.367 149.5,427.5C 147.533,427.739 145.699,427.406 144,426.5C 142.893,422.375 143.56,418.709 146,415.5C 148.667,415.5 151.333,415.5 154,415.5C 155.117,416.949 155.784,418.616 156,420.5C 157.741,421.758 159.574,422.758 161.5,423.5 Z"/></g>
<g><path style="opacity:0.839" fill="#b9d696" d="M 371.5,409.5 C 370.375,411 369.041,412.333 367.5,413.5C 364.139,414.684 361.139,416.517 358.5,419C 356.866,419.494 355.199,419.66 353.5,419.5C 359.17,415.663 365.17,412.33 371.5,409.5 Z"/></g>
<g><path style="opacity:1" fill="#8fc552" d="M 367.5,413.5 C 366.565,416.919 364.232,418.753 360.5,419C 359.044,420.745 357.711,422.578 356.5,424.5C 357.333,424.833 358.167,425.167 359,425.5C 361.468,424.497 363.968,423.997 366.5,424C 368.137,429.367 366.637,430.534 362,427.5C 361.676,429.569 360.842,429.902 359.5,428.5C 356.241,431.064 352.575,431.898 348.5,431C 354.039,425.267 353.039,424.1 345.5,427.5C 348.662,425.383 351.329,422.716 353.5,419.5C 355.199,419.66 356.866,419.494 358.5,419C 361.139,416.517 364.139,414.684 367.5,413.5 Z"/></g>
<g><path style="opacity:0.675" fill="#c3dea5" d="M 346.5,423.5 C 344.468,426.856 341.468,428.523 337.5,428.5C 340.24,426.44 343.24,424.774 346.5,423.5 Z"/></g>
<g><path style="opacity:1" fill="#8bc84b" d="M 407.5,427.5 C 405.034,429.345 402.367,431.012 399.5,432.5C 398.388,433.265 397.721,434.265 397.5,435.5C 397.167,435.5 396.833,435.5 396.5,435.5C 390.774,436.125 386.774,438.459 384.5,442.5C 380.103,441.861 377.103,443.527 375.5,447.5C 367.202,448.814 360.202,452.481 354.5,458.5C 348.922,460.446 343.589,462.78 338.5,465.5C 336.633,465.045 334.8,464.378 333,463.5C 331.112,463.796 329.278,464.296 327.5,465C 328.793,465.49 330.127,465.657 331.5,465.5C 331.703,467.39 331.037,468.89 329.5,470C 327.385,470.557 325.385,471.391 323.5,472.5C 323.167,472.167 322.833,471.833 322.5,471.5C 324.144,467.449 322.978,464.449 319,462.5C 318.501,458.848 318.335,455.182 318.5,451.5C 317.5,451.5 316.5,451.5 315.5,451.5C 315.193,449.554 315.193,447.887 315.5,446.5C 317.5,447.167 319.5,447.833 321.5,448.5C 325.186,446.325 329.186,444.992 333.5,444.5C 334.415,443.672 335.081,442.672 335.5,441.5C 332.572,440.516 329.572,440.183 326.5,440.5C 327.751,436.079 330.751,434.412 335.5,435.5C 335.5,434.5 335.5,433.5 335.5,432.5C 335.5,432.167 335.5,431.833 335.5,431.5C 339.149,430.733 342.482,429.4 345.5,427.5C 353.039,424.1 354.039,425.267 348.5,431C 352.575,431.898 356.241,431.064 359.5,428.5C 360.842,429.902 361.676,429.569 362,427.5C 366.637,430.534 368.137,429.367 366.5,424C 363.968,423.997 361.468,424.497 359,425.5C 358.167,425.167 357.333,424.833 356.5,424.5C 357.711,422.578 359.044,420.745 360.5,419C 364.232,418.753 366.565,416.919 367.5,413.5C 371.852,411.012 376.518,409.179 381.5,408C 387.049,404.28 392.715,400.78 398.5,397.5C 403.344,396.371 407.677,394.204 411.5,391C 415.118,390.034 418.451,390.534 421.5,392.5C 416.485,400.085 414.651,408.418 416,417.5C 416.75,418.126 417.584,418.626 418.5,419C 415.144,420.562 411.81,421.396 408.5,421.5C 409.973,423.861 409.639,425.861 407.5,427.5 Z"/></g>
<g><path style="opacity:0.667" fill="#b3d08a" d="M 425.5,419.5 C 416.426,425.23 407.093,430.563 397.5,435.5C 397.721,434.265 398.388,433.265 399.5,432.5C 402.367,431.012 405.034,429.345 407.5,427.5C 408.552,427.649 409.552,427.483 410.5,427C 411.257,425.488 412.257,424.154 413.5,423C 417.619,422.002 421.619,420.835 425.5,419.5 Z"/></g>
<g><path style="opacity:0.082" fill="#deeccb" d="M 337.5,428.5 C 336.833,429.5 336.167,430.5 335.5,431.5C 334.5,431.5 333.5,431.5 332.5,431.5C 333.659,429.75 335.326,428.75 337.5,428.5 Z"/></g>
<g><path style="opacity:1" fill="#93bf67" d="M 353.5,419.5 C 351.329,422.716 348.662,425.383 345.5,427.5C 342.482,429.4 339.149,430.733 335.5,431.5C 336.167,430.5 336.833,429.5 337.5,428.5C 341.468,428.523 344.468,426.856 346.5,423.5C 348.663,421.917 350.996,420.584 353.5,419.5 Z"/></g>
<g><path style="opacity:0.51" fill="#9dc06d" d="M 58.5,425.5 C 62.2124,426.028 65.879,426.862 69.5,428C 70.0779,429.417 71.0779,430.25 72.5,430.5C 75.593,432.034 78.2597,434.034 80.5,436.5C 72.849,433.341 65.5157,429.675 58.5,425.5 Z"/></g>
<g><path style="opacity:0.161" fill="#cce4ac" d="M 332.5,431.5 C 333.5,431.5 334.5,431.5 335.5,431.5C 335.5,431.833 335.5,432.167 335.5,432.5C 329.343,433.578 324.01,436.245 319.5,440.5C 317.784,440.629 316.117,440.962 314.5,441.5C 319.847,437.156 325.847,433.823 332.5,431.5 Z"/></g>
<g><path style="opacity:1" fill="#8dc64f" d="M 143.5,437.5 C 141.369,438.314 139.036,438.814 136.5,439C 135.158,441.892 132.825,443.225 129.5,443C 123.509,443.499 117.509,443.666 111.5,443.5C 108.833,443.5 106.167,443.5 103.5,443.5C 101.585,443.784 99.9187,443.451 98.5,442.5C 95.3347,440.753 92.0014,439.253 88.5,438C 85.8832,437.178 83.2165,436.678 80.5,436.5C 78.2597,434.034 75.593,432.034 72.5,430.5C 74.1667,430.5 75.8333,430.5 77.5,430.5C 78.231,424.183 78.8977,424.517 79.5,431.5C 83.7145,432.612 87.3811,434.779 90.5,438C 92.1341,438.494 93.8008,438.66 95.5,438.5C 95.5,437.167 95.5,435.833 95.5,434.5C 98.9774,434.04 102.477,433.707 106,433.5C 112.959,434.414 119.959,435.414 127,436.5C 127.494,434.866 127.66,433.199 127.5,431.5C 130.167,431.5 132.833,431.5 135.5,431.5C 135.167,433.5 134.833,435.5 134.5,437.5C 137.5,437.5 140.5,437.5 143.5,437.5 Z"/></g>
<g><path style="opacity:0.325" fill="#9dc16f" d="M 80.5,436.5 C 83.2165,436.678 85.8832,437.178 88.5,438C 92.0014,439.253 95.3347,440.753 98.5,442.5C 92.0512,441.597 86.0512,439.597 80.5,436.5 Z"/></g>
<g><path style="opacity:0.882" fill="#a1c576" d="M 157.5,431.5 C 154.133,435.68 149.8,438.513 144.5,440C 137.14,443.105 129.474,444.605 121.5,444.5C 117.958,444.813 114.625,444.479 111.5,443.5C 117.509,443.666 123.509,443.499 129.5,443C 132.825,443.225 135.158,441.892 136.5,439C 139.036,438.814 141.369,438.314 143.5,437.5C 148.414,436.042 153.081,434.042 157.5,431.5 Z"/></g>
<g><path style="opacity:0.537" fill="#bbd791" d="M 396.5,435.5 C 392.836,438.335 388.836,440.668 384.5,442.5C 386.774,438.459 390.774,436.125 396.5,435.5 Z"/></g>
<g><path style="opacity:0.149" fill="#bbd89b" d="M 103.5,443.5 C 106.167,443.5 108.833,443.5 111.5,443.5C 114.625,444.479 117.958,444.813 121.5,444.5C 115.443,445.738 109.443,445.405 103.5,443.5 Z"/></g>
<g><path style="opacity:0.192" fill="#def5bd" d="M 314.5,441.5 C 312.664,443.588 310.331,444.921 307.5,445.5C 309.336,443.412 311.669,442.079 314.5,441.5 Z"/></g>
<g><path style="opacity:0.459" fill="#b0d18b" d="M 384.5,442.5 C 381.992,444.924 378.992,446.59 375.5,447.5C 377.103,443.527 380.103,441.861 384.5,442.5 Z"/></g>
<g><path style="opacity:0.969" fill="#a1c271" d="M 319.5,440.5 C 315.118,445.025 309.785,447.358 303.5,447.5C 304.514,446.326 305.847,445.66 307.5,445.5C 310.331,444.921 312.664,443.588 314.5,441.5C 316.117,440.962 317.784,440.629 319.5,440.5 Z"/></g>
<g><path style="opacity:1" fill="#8dc64f" d="M 335.5,432.5 C 335.5,433.5 335.5,434.5 335.5,435.5C 330.751,434.412 327.751,436.079 326.5,440.5C 329.572,440.183 332.572,440.516 335.5,441.5C 335.081,442.672 334.415,443.672 333.5,444.5C 329.186,444.992 325.186,446.325 321.5,448.5C 319.5,447.833 317.5,447.167 315.5,446.5C 315.193,447.887 315.193,449.554 315.5,451.5C 316.5,451.5 317.5,451.5 318.5,451.5C 318.335,455.182 318.501,458.848 319,462.5C 322.978,464.449 324.144,467.449 322.5,471.5C 322.833,471.833 323.167,472.167 323.5,472.5C 325.385,471.391 327.385,470.557 329.5,470C 331.037,468.89 331.703,467.39 331.5,465.5C 330.127,465.657 328.793,465.49 327.5,465C 329.278,464.296 331.112,463.796 333,463.5C 334.8,464.378 336.633,465.045 338.5,465.5C 337.791,466.404 336.791,466.737 335.5,466.5C 335.5,467.5 335.5,468.5 335.5,469.5C 330.321,471.799 324.988,473.799 319.5,475.5C 319.5,476.833 319.5,478.167 319.5,479.5C 319.167,479.5 318.833,479.5 318.5,479.5C 314.86,479.471 311.527,480.471 308.5,482.5C 307.614,483.325 307.281,484.325 307.5,485.5C 306.167,485.5 304.833,485.5 303.5,485.5C 304.031,483.456 305.198,481.789 307,480.5C 307.494,478.866 307.66,477.199 307.5,475.5C 306.167,475.5 304.833,475.5 303.5,475.5C 303.5,470.833 303.5,466.167 303.5,461.5C 301.284,461.725 299.617,460.892 298.5,459C 299.978,456.961 301.978,456.128 304.5,456.5C 304.5,457.5 304.5,458.5 304.5,459.5C 308.034,459.968 311.034,458.968 313.5,456.5C 309.653,455.102 305.82,453.769 302,452.5C 297.754,454.372 293.921,456.872 290.5,460C 291.517,461.049 291.684,462.216 291,463.5C 290.161,462.376 288.994,461.709 287.5,461.5C 283.736,462.687 280.402,464.52 277.5,467C 275.26,467.977 272.927,468.477 270.5,468.5C 280.968,462.326 291.634,456.326 302.5,450.5C 303.386,449.675 303.719,448.675 303.5,447.5C 309.785,447.358 315.118,445.025 319.5,440.5C 324.01,436.245 329.343,433.578 335.5,432.5 Z"/></g>
<g><path style="opacity:0.855" fill="#abcb7d" d="M 185.5,456.5 C 182.615,456.194 179.948,456.527 177.5,457.5C 176.373,458.122 175.373,458.955 174.5,460C 170.144,461.184 165.811,462.351 161.5,463.5C 166.613,460.441 171.947,457.608 177.5,455C 180.538,454.115 183.205,454.615 185.5,456.5 Z"/></g>
<g><path style="opacity:0.804" fill="#b5d591" d="M 185.5,456.5 C 189.836,458.332 193.836,460.665 197.5,463.5C 194.275,462.478 191.109,461.144 188,459.5C 186.69,458.87 185.856,457.87 185.5,456.5 Z"/></g>
<g><path style="opacity:0.788" fill="#b0cf8b" d="M 303.5,447.5 C 303.719,448.675 303.386,449.675 302.5,450.5C 291.634,456.326 280.968,462.326 270.5,468.5C 263.62,473.04 256.287,476.706 248.5,479.5C 246.686,483.222 243.686,484.889 239.5,484.5C 241.918,483.707 243.918,482.374 245.5,480.5C 250.502,476.997 255.835,473.997 261.5,471.5C 264.331,470.921 266.664,469.588 268.5,467.5C 279.67,460.078 291.337,453.411 303.5,447.5 Z"/></g>
<g><path style="opacity:1" fill="#8bc84c" d="M 303.5,485.5 C 300.326,484.985 297.326,483.985 294.5,482.5C 291.671,482.548 289.337,483.548 287.5,485.5C 290.428,486.484 293.428,486.817 296.5,486.5C 296.608,488.514 295.942,490.18 294.5,491.5C 286.813,493.844 279.813,497.51 273.5,502.5C 271.577,503.308 269.577,503.808 267.5,504C 266.833,505 266.167,506 265.5,507C 258.251,511.103 250.918,514.937 243.5,518.5C 239.5,518.5 235.5,518.5 231.5,518.5C 227.38,515.633 222.713,514.3 217.5,514.5C 217.631,513.624 217.298,512.957 216.5,512.5C 213.044,512.21 211.044,510.376 210.5,507C 206.317,505.24 201.984,504.073 197.5,503.5C 196.933,501.97 196.267,500.47 195.5,499C 192.728,498.474 190.062,497.641 187.5,496.5C 179.281,490.59 170.615,485.59 161.5,481.5C 161.5,480.5 161.5,479.5 161.5,478.5C 157.53,476.281 153.197,474.614 148.5,473.5C 147.438,472.425 147.438,471.425 148.5,470.5C 153.029,468.34 157.363,466.007 161.5,463.5C 165.811,462.351 170.144,461.184 174.5,460C 175.373,458.955 176.373,458.122 177.5,457.5C 179.5,457.5 181.5,457.5 183.5,457.5C 183.33,458.822 183.663,459.989 184.5,461C 191.176,463.912 197.342,467.412 203,471.5C 203.252,473.931 202.752,476.265 201.5,478.5C 203.396,479.466 205.396,479.799 207.5,479.5C 207.5,477.5 207.5,475.5 207.5,473.5C 208.873,473.343 210.207,473.51 211.5,474C 213.83,476.084 216.497,477.584 219.5,478.5C 220.552,478.351 221.552,478.517 222.5,479C 225.142,483.888 229.309,486.055 235,485.5C 236.707,485.492 238.207,485.158 239.5,484.5C 243.686,484.889 246.686,483.222 248.5,479.5C 256.287,476.706 263.62,473.04 270.5,468.5C 272.927,468.477 275.26,467.977 277.5,467C 280.402,464.52 283.736,462.687 287.5,461.5C 288.994,461.709 290.161,462.376 291,463.5C 291.684,462.216 291.517,461.049 290.5,460C 293.921,456.872 297.754,454.372 302,452.5C 305.82,453.769 309.653,455.102 313.5,456.5C 311.034,458.968 308.034,459.968 304.5,459.5C 304.5,458.5 304.5,457.5 304.5,456.5C 301.978,456.128 299.978,456.961 298.5,459C 299.617,460.892 301.284,461.725 303.5,461.5C 303.5,466.167 303.5,470.833 303.5,475.5C 304.833,475.5 306.167,475.5 307.5,475.5C 307.66,477.199 307.494,478.866 307,480.5C 305.198,481.789 304.031,483.456 303.5,485.5 Z"/></g>
<g><path style="opacity:0.796" fill="#aac97c" d="M 198.5,463.5 C 203.037,465.93 207.37,468.597 211.5,471.5C 207.858,470.501 204.191,469.335 200.5,468C 199.418,466.67 198.751,465.17 198.5,463.5 Z"/></g>
<g><path style="opacity:0.518" fill="#a6c681" d="M 161.5,463.5 C 157.363,466.007 153.029,468.34 148.5,470.5C 147.438,471.425 147.438,472.425 148.5,473.5C 149.167,474.5 149.833,475.5 150.5,476.5C 142.641,473.293 142.641,470.126 150.5,467C 154.154,465.726 157.82,464.56 161.5,463.5 Z"/></g>
<g><path style="opacity:1" fill="#91c457" d="M 177.5,457.5 C 179.948,456.527 182.615,456.194 185.5,456.5C 185.856,457.87 186.69,458.87 188,459.5C 191.109,461.144 194.275,462.478 197.5,463.5C 197.833,463.5 198.167,463.5 198.5,463.5C 198.751,465.17 199.418,466.67 200.5,468C 204.191,469.335 207.858,470.501 211.5,471.5C 214.54,472.68 217.206,474.347 219.5,476.5C 219.5,477.167 219.5,477.833 219.5,478.5C 216.497,477.584 213.83,476.084 211.5,474C 210.207,473.51 208.873,473.343 207.5,473.5C 207.5,475.5 207.5,477.5 207.5,479.5C 205.396,479.799 203.396,479.466 201.5,478.5C 202.752,476.265 203.252,473.931 203,471.5C 197.342,467.412 191.176,463.912 184.5,461C 183.663,459.989 183.33,458.822 183.5,457.5C 181.5,457.5 179.5,457.5 177.5,457.5 Z"/></g>
<g><path style="opacity:0.196" fill="#e3f4c6" d="M 268.5,467.5 C 266.664,469.588 264.331,470.921 261.5,471.5C 263.336,469.412 265.669,468.079 268.5,467.5 Z"/></g>
<g><path style="opacity:0.42" fill="#b1cf8a" d="M 375.5,447.5 C 357.113,458.531 338.446,469.197 319.5,479.5C 319.5,478.167 319.5,476.833 319.5,475.5C 324.988,473.799 330.321,471.799 335.5,469.5C 335.5,468.5 335.5,467.5 335.5,466.5C 336.791,466.737 337.791,466.404 338.5,465.5C 343.589,462.78 348.922,460.446 354.5,458.5C 360.202,452.481 367.202,448.814 375.5,447.5 Z"/></g>
<g><path style="opacity:0.957" fill="#a4c772" d="M 219.5,476.5 C 222.622,477.561 225.622,478.895 228.5,480.5C 228.574,482.411 229.574,483.578 231.5,484C 234.146,484.497 236.813,484.664 239.5,484.5C 238.207,485.158 236.707,485.492 235,485.5C 229.309,486.055 225.142,483.888 222.5,479C 221.552,478.517 220.552,478.351 219.5,478.5C 219.5,477.833 219.5,477.167 219.5,476.5 Z"/></g>
<g><path style="opacity:0.086" fill="#ddefc1" d="M 228.5,480.5 C 230.817,481.907 233.317,482.907 236,483.5C 239.285,482.794 242.452,481.794 245.5,480.5C 243.918,482.374 241.918,483.707 239.5,484.5C 236.813,484.664 234.146,484.497 231.5,484C 229.574,483.578 228.574,482.411 228.5,480.5 Z"/></g>
<g><path style="opacity:1" fill="#8dc456" d="M 303.5,485.5 C 301.576,487.485 299.576,489.485 297.5,491.5C 296.5,491.5 295.5,491.5 294.5,491.5C 295.942,490.18 296.608,488.514 296.5,486.5C 293.428,486.817 290.428,486.484 287.5,485.5C 289.337,483.548 291.671,482.548 294.5,482.5C 297.326,483.985 300.326,484.985 303.5,485.5 Z"/></g>
<g><path style="opacity:0.349" fill="#b7d48f" d="M 318.5,479.5 C 311.996,484.255 304.996,488.255 297.5,491.5C 299.576,489.485 301.576,487.485 303.5,485.5C 304.833,485.5 306.167,485.5 307.5,485.5C 307.281,484.325 307.614,483.325 308.5,482.5C 311.527,480.471 314.86,479.471 318.5,479.5 Z"/></g>
<g><path style="opacity:0.498" fill="#a2c776" d="M 148.5,473.5 C 153.197,474.614 157.53,476.281 161.5,478.5C 161.5,479.5 161.5,480.5 161.5,481.5C 170.615,485.59 179.281,490.59 187.5,496.5C 190.062,497.641 192.728,498.474 195.5,499C 196.267,500.47 196.933,501.97 197.5,503.5C 181.57,494.892 165.904,485.892 150.5,476.5C 149.833,475.5 149.167,474.5 148.5,473.5 Z"/></g>
<g><path style="opacity:0.996" fill="#9ec572" d="M 294.5,491.5 C 295.5,491.5 296.5,491.5 297.5,491.5C 285.725,498.559 273.725,505.392 261.5,512C 255.812,515.347 249.812,517.847 243.5,519.5C 243.5,519.167 243.5,518.833 243.5,518.5C 250.918,514.937 258.251,511.103 265.5,507C 266.167,506 266.833,505 267.5,504C 269.577,503.808 271.577,503.308 273.5,502.5C 279.813,497.51 286.813,493.844 294.5,491.5 Z"/></g>
<g><path style="opacity:0.902" fill="#9dc46e" d="M 197.5,503.5 C 201.984,504.073 206.317,505.24 210.5,507C 211.044,510.376 213.044,512.21 216.5,512.5C 217.298,512.957 217.631,513.624 217.5,514.5C 210.504,511.337 203.838,507.671 197.5,503.5 Z"/></g>
<g><path style="opacity:0.604" fill="#9ec277" d="M 217.5,514.5 C 222.713,514.3 227.38,515.633 231.5,518.5C 230.167,518.5 228.833,518.5 227.5,518.5C 223.525,518.514 220.192,517.181 217.5,514.5 Z"/></g>
<g><path style="opacity:0.971" fill="#b9e683" d="M 227.5,518.5 C 228.833,518.5 230.167,518.5 231.5,518.5C 235.5,518.5 239.5,518.5 243.5,518.5C 243.5,518.833 243.5,519.167 243.5,519.5C 243.5,519.833 243.5,520.167 243.5,520.5C 238.833,520.5 234.167,520.5 229.5,520.5C 228.833,519.833 228.167,519.167 227.5,518.5 Z"/></g>
</svg>
