<?xml version="1.0" encoding="UTF-8"?>
<!DOCTYPE svg PUBLIC "-//W3C//DTD SVG 1.1//EN" "http://www.w3.org/Graphics/SVG/1.1/DTD/svg11.dtd">
<svg xmlns="http://www.w3.org/2000/svg" version="1.1" width="1206px" height="1464px" style="shape-rendering:geometricPrecision; text-rendering:geometricPrecision; image-rendering:optimizeQuality; fill-rule:evenodd; clip-rule:evenodd" xmlns:xlink="http://www.w3.org/1999/xlink">
<g><path style="opacity:0.997" fill="#123a50" d="M 616.5,-0.5 C 620.5,-0.5 624.5,-0.5 628.5,-0.5C 655.212,2.77745 676.379,15.4441 692,37.5C 862.773,399.826 1032.77,762.492 1202,1125.5C 1203.36,1130.6 1204.53,1135.6 1205.5,1140.5C 1205.5,1145.83 1205.5,1151.17 1205.5,1156.5C 1200.59,1190.9 1182.26,1215.07 1150.5,1229C 891.774,1305.8 633.107,1382.8 374.5,1460C 368.419,1461.5 362.419,1462.66 356.5,1463.5C 352.5,1463.5 348.5,1463.5 344.5,1463.5C 315.927,1460.8 293.761,1447.46 278,1423.5C 189.333,1285.5 100.667,1147.5 12,1009.5C 5.35823,998.219 1.19156,986.219 -0.5,973.5C -0.5,968.167 -0.5,962.833 -0.5,957.5C 1.19156,944.781 5.35823,932.781 12,921.5C 191.917,629.334 371.584,337.001 551,44.5C 558.696,31.135 568.863,19.9683 581.5,11C 592.607,5.01935 604.273,1.18602 616.5,-0.5 Z M 645.5,182.5 C 650.844,182.334 656.177,182.501 661.5,183C 665.009,183.336 667.842,184.836 670,187.5C 814.287,497.705 958.954,807.705 1104,1117.5C 1109.69,1133.26 1105.85,1146.09 1092.5,1156C 1090.28,1157.28 1087.95,1158.28 1085.5,1159C 867.822,1224 650.156,1289 432.5,1354C 414.418,1356.88 402.585,1349.72 397,1332.5C 396.333,1329.83 396.333,1327.17 397,1324.5C 475,948.5 553,572.5 631,196.5C 633.115,188.883 637.948,184.216 645.5,182.5 Z"/></g>
</svg>
