<?xml version="1.0" encoding="UTF-8"?>
<!DOCTYPE svg PUBLIC "-//W3C//DTD SVG 1.1//EN" "http://www.w3.org/Graphics/SVG/1.1/DTD/svg11.dtd">
<svg xmlns="http://www.w3.org/2000/svg" version="1.1" width="360px" height="216px" style="shape-rendering:geometricPrecision; text-rendering:geometricPrecision; image-rendering:optimizeQuality; fill-rule:evenodd; clip-rule:evenodd" xmlns:xlink="http://www.w3.org/1999/xlink">
<g><path style="opacity:0.98" fill="#86b0e6" d="M 72.5,79.5 C 71.0762,81.5145 70.4095,83.8478 70.5,86.5C 70.1667,86.5 69.8333,86.5 69.5,86.5C 69.5,85.1667 69.5,83.8333 69.5,82.5C 70.2178,80.8632 70.3845,79.1966 70,77.5C 68.6703,78.5822 67.1703,79.2488 65.5,79.5C 67.4293,77.8518 69.4293,76.1851 71.5,74.5C 72.4519,76.0453 72.7852,77.712 72.5,79.5 Z"/></g>
<g><path style="opacity:0.006" fill="#fefffe" d="M 72.5,79.5 C 73.525,79.8966 73.6917,80.5632 73,81.5C 72.5357,80.9056 72.369,80.2389 72.5,79.5 Z"/></g>
<g><path style="opacity:1" fill="#4f9af0" d="M 69.5,82.5 C 69.1667,82.5 68.8333,82.5 68.5,82.5C 68.1788,80.9519 67.1788,80.2852 65.5,80.5C 65.6602,82.1992 65.4935,83.8659 65,85.5C 64.6582,83.3808 63.8249,83.0474 62.5,84.5C 62.631,83.7611 62.4643,83.0944 62,82.5C 61.3292,83.2524 60.4959,83.5858 59.5,83.5C 61.1475,81.6736 63.1475,80.3403 65.5,79.5C 67.1703,79.2488 68.6703,78.5822 70,77.5C 70.3845,79.1966 70.2178,80.8632 69.5,82.5 Z"/></g>
<g><path style="opacity:1" fill="#4b96f0" d="M 62.5,84.5 C 60.8235,85.1834 60.1568,86.5168 60.5,88.5C 59.5,88.5 58.5,88.5 57.5,88.5C 55.1944,88.9926 52.861,89.3259 50.5,89.5C 52.9754,86.7589 55.9754,84.7589 59.5,83.5C 60.4959,83.5858 61.3292,83.2524 62,82.5C 62.4643,83.0944 62.631,83.7611 62.5,84.5 Z"/></g>
<g><path style="opacity:1" fill="#3294fb" d="M 68.5,82.5 C 67.5711,89.1271 65.9044,95.4604 63.5,101.5C 60.5682,99.1724 60.9015,97.339 64.5,96C 62.8257,93.1184 60.8257,92.9517 58.5,95.5C 58.5,94.8333 58.5,94.1667 58.5,93.5C 58.5,92.8333 58.1667,92.5 57.5,92.5C 58.8333,91.1667 58.8333,89.8333 57.5,88.5C 58.5,88.5 59.5,88.5 60.5,88.5C 60.1568,86.5168 60.8235,85.1834 62.5,84.5C 63.8249,83.0474 64.6582,83.3808 65,85.5C 65.4935,83.8659 65.6602,82.1992 65.5,80.5C 67.1788,80.2852 68.1788,80.9519 68.5,82.5 Z"/></g>
<g><path style="opacity:0.004" fill="#fefffe" d="M 70.5,86.5 C 71.8333,87.1667 71.8333,87.1667 70.5,86.5 Z"/></g>
<g><path style="opacity:0.009" fill="#fefffe" d="M 76.5,92.5 C 75.4265,91.7494 75.2599,90.7494 76,89.5C 76.4828,90.448 76.6495,91.448 76.5,92.5 Z"/></g>
<g><path style="opacity:1" fill="#072456" d="M 96.5,88.5 C 100.186,88.7924 102.852,90.6258 104.5,94C 103.584,94.2784 102.918,94.7784 102.5,95.5C 100.596,95.2624 99.2623,94.2624 98.5,92.5C 94.5317,91.6697 90.5317,90.503 86.5,89C 89.8168,88.5017 93.1501,88.335 96.5,88.5 Z"/></g>
<g><path style="opacity:1" fill="#3691f8" d="M 57.5,88.5 C 58.8333,89.8333 58.8333,91.1667 57.5,92.5C 55.9705,93.0668 54.4705,93.7334 53,94.5C 51.9264,93.3816 50.7598,92.3816 49.5,91.5C 49.8627,90.8165 50.1961,90.1499 50.5,89.5C 52.861,89.3259 55.1944,88.9926 57.5,88.5 Z"/></g>
<g><path style="opacity:1" fill="#172b54" d="M 103.5,88.5 C 101.167,88.5 98.8333,88.5 96.5,88.5C 93.1501,88.335 89.8168,88.5017 86.5,89C 90.5317,90.503 94.5317,91.6697 98.5,92.5C 93.42,92.8783 88.42,93.545 83.5,94.5C 82.2502,94.5774 81.4169,95.244 81,96.5C 79.5098,95.2721 78.0098,95.2721 76.5,96.5C 76.5,95.1667 76.5,93.8333 76.5,92.5C 77.339,91.3588 78.0057,90.0255 78.5,88.5C 86.9909,87.1791 95.3242,87.1791 103.5,88.5 Z"/></g>
<g><path style="opacity:1" fill="#6fa7ef" d="M 50.5,89.5 C 50.1961,90.1499 49.8627,90.8165 49.5,91.5C 50.7598,92.3816 51.9264,93.3816 53,94.5C 54.4705,93.7334 55.9705,93.0668 57.5,92.5C 58.1667,92.5 58.5,92.8333 58.5,93.5C 57.9851,95.7512 56.9851,97.7512 55.5,99.5C 55.4208,98.0695 55.7542,96.7362 56.5,95.5C 55.1405,94.3347 54.1405,94.668 53.5,96.5C 50.3933,97.8887 47.3933,99.5554 44.5,101.5C 44.1667,101 43.8333,100.5 43.5,100C 44.1608,97.536 44.6608,95.036 45,92.5C 46.4877,90.84 48.321,89.84 50.5,89.5 Z M 55.5,99.5 C 54.8333,98.5 54.1667,97.5 53.5,96.5C 54.1405,94.668 55.1405,94.3347 56.5,95.5C 55.7542,96.7362 55.4208,98.0695 55.5,99.5 Z"/></g>
<g><path style="opacity:0.012" fill="#fcfcfd" d="M 113.5,101.5 C 112.833,101.5 112.5,101.833 112.5,102.5C 111.469,103.355 110.303,104.022 109,104.5C 108.235,104.43 107.735,104.097 107.5,103.5C 108.338,103.158 108.672,102.492 108.5,101.5C 109.319,98.6946 109.819,95.6946 110,92.5C 110.333,94.5 110.667,96.5 111,98.5C 112.067,99.1905 113.234,99.6905 114.5,100C 113.944,100.383 113.611,100.883 113.5,101.5 Z"/></g>
<g><path style="opacity:1" fill="#162850" d="M 96.5,88.5 C 98.8333,88.5 101.167,88.5 103.5,88.5C 105.044,88.7031 106.378,89.3698 107.5,90.5C 108.489,94.1073 108.823,97.774 108.5,101.5C 108.167,101.5 107.833,101.5 107.5,101.5C 105.605,102.703 103.605,103.869 101.5,105C 101.833,105.333 102.167,105.667 102.5,106C 101.552,106.483 100.552,106.649 99.5,106.5C 98.9079,102.926 100.408,100.926 104,100.5C 104.167,99.6667 104.333,98.8333 104.5,98C 104.316,96.6244 103.649,95.7911 102.5,95.5C 102.918,94.7784 103.584,94.2784 104.5,94C 102.852,90.6258 100.186,88.7924 96.5,88.5 Z"/></g>
<g><path style="opacity:0.004" fill="#fefffe" d="M 194.5,96.5 C 195.833,97.1667 195.833,97.1667 194.5,96.5 Z"/></g>
<g><path style="opacity:0.02" fill="#fefffe" d="M 225.5,97.5 C 224.833,96.1667 224.833,96.1667 225.5,97.5 Z"/></g>
<g><path style="opacity:0.008" fill="#fefffe" d="M 284.5,96.5 C 285.833,97.1667 285.833,97.1667 284.5,96.5 Z"/></g>
<g><path style="opacity:0.004" fill="#fefffe" d="M 328.5,96.5 C 329.833,97.1667 329.833,97.1667 328.5,96.5 Z"/></g>
<g><path style="opacity:0.009" fill="#fefffe" d="M 231.5,98.5 C 232.5,97.1667 233.5,97.1667 234.5,98.5C 233.833,98.5 233.5,98.8333 233.5,99.5C 232.833,99.1667 232.167,98.8333 231.5,98.5 Z"/></g>
<g><path style="opacity:0.013" fill="#fefffe" d="M 287.5,98.5 C 288.077,97.2267 288.743,97.2267 289.5,98.5C 289.03,99.463 288.363,99.463 287.5,98.5 Z"/></g>
<g><path style="opacity:1" fill="#1e2d52" d="M 98.5,92.5 C 99.2623,94.2624 100.596,95.2624 102.5,95.5C 103.649,95.7911 104.316,96.6244 104.5,98C 104.333,98.8333 104.167,99.6667 104,100.5C 100.408,100.926 98.9079,102.926 99.5,106.5C 100.552,106.649 101.552,106.483 102.5,106C 102.167,105.667 101.833,105.333 101.5,105C 103.605,103.869 105.605,102.703 107.5,101.5C 107.5,102.167 107.5,102.833 107.5,103.5C 104.616,106.419 101.616,109.085 98.5,111.5C 97.6909,109.708 97.1909,107.708 97,105.5C 96.0853,106.328 95.4186,107.328 95,108.5C 94.5357,107.906 94.369,107.239 94.5,106.5C 94.8333,105.833 95.1667,105.167 95.5,104.5C 96.3149,103.163 97.4815,102.163 99,101.5C 99.8959,98.975 99.3959,96.8083 97.5,95C 93.5138,94.5012 89.5138,94.3345 85.5,94.5C 85.5,95.8333 85.5,97.1667 85.5,98.5C 84.8333,99.8333 84.1667,101.167 83.5,102.5C 83.5,101.167 83.5,99.8333 83.5,98.5C 83.5,97.1667 83.5,95.8333 83.5,94.5C 88.42,93.545 93.42,92.8783 98.5,92.5 Z"/></g>
<g><path style="opacity:0.007" fill="#fefffe" d="M 85.5,98.5 C 86.2216,98.0825 86.7216,97.4158 87,96.5C 87.5205,98.2889 87.1871,99.9556 86,101.5C 85.5172,100.552 85.3505,99.552 85.5,98.5 Z"/></g>
<g><path style="opacity:0.008" fill="#fefffe" d="M 115.5,98.5 C 116.833,99.1667 116.833,99.1667 115.5,98.5 Z"/></g>
<g><path style="opacity:0.016" fill="#f7f7ff" d="M 141.5,103.5 C 142.302,102.048 142.802,100.382 143,98.5C 143.925,99.0465 144.758,99.7132 145.5,100.5C 144.754,101.736 144.421,103.07 144.5,104.5C 143.209,104.737 142.209,104.404 141.5,103.5 Z"/></g>
<g><path style="opacity:0.009" fill="#f5f9fc" d="M 147.5,99.5 C 151.486,98.8343 155.653,98.501 160,98.5C 164.557,98.5085 168.724,99.1752 172.5,100.5C 172.167,100.5 171.833,100.5 171.5,100.5C 163.684,99.5076 155.684,99.1743 147.5,99.5 Z"/></g>
<g><path style="opacity:1" fill="#132854" d="M 83.5,94.5 C 83.5,95.8333 83.5,97.1667 83.5,98.5C 82.8423,99.3984 82.1757,100.398 81.5,101.5C 80.3652,102.103 79.3652,102.436 78.5,102.5C 79.7701,103.288 80.7701,104.288 81.5,105.5C 79.5,105.833 77.5,106.167 75.5,106.5C 75.5,104.5 75.5,102.5 75.5,100.5C 75.2322,98.901 75.5655,97.5676 76.5,96.5C 78.0098,95.2721 79.5098,95.2721 81,96.5C 81.4169,95.244 82.2502,94.5774 83.5,94.5 Z"/></g>
<g><path style="opacity:0.008" fill="#fefffe" d="M 178.5,99.5 C 179.833,100.167 179.833,100.167 178.5,99.5 Z"/></g>
<g><path style="opacity:1" fill="#303d5e" d="M 198.5,100.5 C 193.637,100.181 188.97,100.514 184.5,101.5C 182.225,102.111 180.559,103.445 179.5,105.5C 177.716,105.893 176.05,106.559 174.5,107.5C 174.557,106.391 174.89,105.391 175.5,104.5C 176.167,104.5 176.5,104.167 176.5,103.5C 177.167,103.5 177.5,103.167 177.5,102.5C 183.645,98.1279 190.311,96.9613 197.5,99C 198.056,99.3826 198.389,99.8826 198.5,100.5 Z"/></g>
<g><path style="opacity:1" fill="#484f6c" d="M 220.5,101.5 C 220.167,102.167 219.833,102.833 219.5,103.5C 219.084,102.212 217.751,101.212 215.5,100.5C 213.697,102.485 211.697,104.152 209.5,105.5C 209.621,99.0041 212.954,96.6708 219.5,98.5C 219.263,99.791 219.596,100.791 220.5,101.5 Z"/></g>
<g><path style="opacity:1" fill="#2e3c5e" d="M 255.5,98.5 C 255.5,98.8333 255.5,99.1667 255.5,99.5C 254.508,99.3284 253.842,99.6618 253.5,100.5C 253.5,101.5 253.5,102.5 253.5,103.5C 252.167,103.5 250.833,103.5 249.5,103.5C 249.5,102.5 249.5,101.5 249.5,100.5C 248.167,100.5 246.833,100.5 245.5,100.5C 248.556,97.9137 251.889,97.2471 255.5,98.5 Z"/></g>
<g><path style="opacity:1" fill="#4f5571" d="M 313.5,106.5 C 313.5,109.833 313.5,113.167 313.5,116.5C 313.167,116.5 312.833,116.5 312.5,116.5C 312.634,114.708 312.301,113.042 311.5,111.5C 311.768,109.901 311.434,108.568 310.5,107.5C 310.5,105.167 310.5,102.833 310.5,100.5C 308.5,100.5 306.5,100.5 304.5,100.5C 304.298,102.95 304.631,105.283 305.5,107.5C 306.335,111.34 306.335,115.006 305.5,118.5C 305.167,118.5 304.833,118.5 304.5,118.5C 304.795,116.265 304.461,114.265 303.5,112.5C 303.795,110.265 303.461,108.265 302.5,106.5C 302.5,103.833 302.5,101.167 302.5,98.5C 305.5,98.5 308.5,98.5 311.5,98.5C 311.565,101.428 312.232,104.095 313.5,106.5 Z"/></g>
<g><path style="opacity:1" fill="#0b2353" d="M 150.5,100.5 C 155.179,100.334 159.845,100.501 164.5,101C 165.252,101.671 165.586,102.504 165.5,103.5C 164.036,102.595 162.702,102.595 161.5,103.5C 159.296,104.623 156.963,104.623 154.5,103.5C 152.924,102.857 151.59,101.857 150.5,100.5 Z"/></g>
<g><path style="opacity:0.011" fill="#f9fcfc" d="M 172.5,100.5 C 173.951,102.375 175.617,103.042 177.5,102.5C 176.833,102.5 176.5,102.833 176.5,103.5C 175.833,103.5 175.5,103.833 175.5,104.5C 174.5,104.5 173.5,104.5 172.5,104.5C 172.5,103.167 172.5,101.833 172.5,100.5 Z"/></g>
<g><path style="opacity:1" fill="#565e78" d="M 225.5,97.5 C 227.621,97.3253 229.621,97.6586 231.5,98.5C 230.821,101.707 229.654,104.707 228,107.5C 226.301,106.594 224.467,106.261 222.5,106.5C 224.265,105.539 226.265,105.205 228.5,105.5C 228.662,103.473 228.495,101.473 228,99.5C 226.586,100.413 225.086,100.413 223.5,99.5C 224.167,98.8333 224.833,98.1667 225.5,97.5 Z"/></g>
<g><path style="opacity:0.012" fill="#fefffe" d="M 323.5,101.5 C 322.833,100.167 322.833,100.167 323.5,101.5 Z"/></g>
<g><path style="opacity:1" fill="#4b5374" d="M 141.5,99.5 C 138.833,99.5 136.167,99.5 133.5,99.5C 133.5,100.833 133.5,102.167 133.5,103.5C 131.833,103.5 130.167,103.5 128.5,103.5C 129.598,102.603 129.598,101.77 128.5,101C 124.525,100.013 120.859,100.513 117.5,102.5C 117.5,101.833 117.5,101.167 117.5,100.5C 122.881,96.1365 127.714,96.8032 132,102.5C 132.49,101.207 132.657,99.8734 132.5,98.5C 135.713,98.19 138.713,98.5233 141.5,99.5 Z"/></g>
<g><path style="opacity:1" fill="#0a2353" d="M 128.5,103.5 C 126.585,103.216 124.919,103.549 123.5,104.5C 121.071,104.884 118.737,105.551 116.5,106.5C 116.5,107.5 116.5,108.5 116.5,109.5C 115.209,109.737 114.209,109.404 113.5,108.5C 114.021,106.514 115.354,104.514 117.5,102.5C 120.859,100.513 124.525,100.013 128.5,101C 129.598,101.77 129.598,102.603 128.5,103.5 Z"/></g>
<g><path style="opacity:1" fill="#1f2f56" d="M 147.5,99.5 C 147.369,100.239 147.536,100.906 148,101.5C 148.671,100.748 149.504,100.414 150.5,100.5C 151.59,101.857 152.924,102.857 154.5,103.5C 152.5,104.167 150.5,104.833 148.5,105.5C 146.894,106.78 145.894,106.28 145.5,104C 145.899,102.272 146.566,100.772 147.5,99.5 Z"/></g>
<g><path style="opacity:1" fill="#0c1f44" d="M 147.5,99.5 C 155.684,99.1743 163.684,99.5076 171.5,100.5C 171.445,103.614 170.112,105.948 167.5,107.5C 165.801,107.527 164.467,108.194 163.5,109.5C 164.167,107.5 164.833,105.5 165.5,103.5C 165.586,102.504 165.252,101.671 164.5,101C 159.845,100.501 155.179,100.334 150.5,100.5C 149.504,100.414 148.671,100.748 148,101.5C 147.536,100.906 147.369,100.239 147.5,99.5 Z"/></g>
<g><path style="opacity:1" fill="#243259" d="M 184.5,101.5 C 188.97,100.514 193.637,100.181 198.5,100.5C 200.888,101.219 202.388,102.885 203,105.5C 203.927,108.863 203.427,111.863 201.5,114.5C 201.664,111.813 201.497,109.146 201,106.5C 199.245,105.33 198.245,103.663 198,101.5C 196.527,101.132 195.027,101.632 193.5,103C 194.381,103.708 195.047,104.542 195.5,105.5C 194.167,105.5 192.833,105.5 191.5,105.5C 188.822,104.825 186.488,103.491 184.5,101.5 Z"/></g>
<g><path style="opacity:0.012" fill="#fcfbf7" d="M 207.5,101.5 C 208.404,102.209 208.737,103.209 208.5,104.5C 206.801,104.66 205.134,104.494 203.5,104C 205.32,103.8 206.653,102.966 207.5,101.5 Z"/></g>
<g><path style="opacity:0.008" fill="#fefffe" d="M 322.5,101.5 C 321.833,102.167 321.833,102.167 322.5,101.5 Z"/></g>
<g><path style="opacity:0.11" fill="#d0e0ef" d="M 53.5,96.5 C 54.1667,97.5 54.8333,98.5 55.5,99.5C 55.7947,101.735 55.4614,103.735 54.5,105.5C 54.1583,104.662 53.4916,104.328 52.5,104.5C 52.5,104.167 52.5,103.833 52.5,103.5C 54.4241,103.289 54.7574,102.623 53.5,101.5C 53.7373,100.209 53.404,99.209 52.5,98.5C 52.8333,97.8333 53.1667,97.1667 53.5,96.5 Z"/></g>
<g><path style="opacity:1" fill="#3393fe" d="M 63.5,101.5 C 63.5,102.167 63.5,102.833 63.5,103.5C 61.8868,103.056 60.7202,102.056 60,100.5C 58.1599,102.165 57.4932,104.165 58,106.5C 58.3333,106.167 58.6667,105.833 59,105.5C 59.4828,106.448 59.6495,107.448 59.5,108.5C 58.8333,108.833 58.1667,109.167 57.5,109.5C 55.7888,105.355 56.4555,101.688 59.5,98.5C 58.8728,97.5832 58.5394,96.5832 58.5,95.5C 60.8257,92.9517 62.8257,93.1184 64.5,96C 60.9015,97.339 60.5682,99.1724 63.5,101.5 Z"/></g>
<g><path style="opacity:1" fill="#75a6e3" d="M 68.5,82.5 C 68.8333,82.5 69.1667,82.5 69.5,82.5C 69.5,83.8333 69.5,85.1667 69.5,86.5C 67.4023,96.7709 64.7356,106.771 61.5,116.5C 61.5,114.5 61.5,112.5 61.5,110.5C 62.3382,110.158 62.6716,109.492 62.5,108.5C 63.4511,107.081 63.7845,105.415 63.5,103.5C 63.5,102.833 63.5,102.167 63.5,101.5C 65.9044,95.4604 67.5711,89.1271 68.5,82.5 Z"/></g>
<g><path style="opacity:1" fill="#04193e" d="M 83.5,98.5 C 83.5,99.8333 83.5,101.167 83.5,102.5C 82.596,103.209 82.2627,104.209 82.5,105.5C 86.3714,105.815 90.0381,105.482 93.5,104.5C 94.1667,104.5 94.8333,104.5 95.5,104.5C 95.1667,105.167 94.8333,105.833 94.5,106.5C 90.8333,106.5 87.1667,106.5 83.5,106.5C 82.5084,106.672 81.8417,106.338 81.5,105.5C 80.7701,104.288 79.7701,103.288 78.5,102.5C 79.3652,102.436 80.3652,102.103 81.5,101.5C 82.1757,100.398 82.8423,99.3984 83.5,98.5 Z"/></g>
<g><path style="opacity:1" fill="#082459" d="M 165.5,103.5 C 164.833,105.5 164.167,107.5 163.5,109.5C 161.5,110.167 159.5,110.833 157.5,111.5C 157.5,110.833 157.5,110.167 157.5,109.5C 160.697,108.888 162.031,106.888 161.5,103.5C 162.702,102.595 164.036,102.595 165.5,103.5 Z"/></g>
<g><path style="opacity:1" fill="#0c214a" d="M 223.5,99.5 C 225.086,100.413 226.586,100.413 228,99.5C 228.495,101.473 228.662,103.473 228.5,105.5C 226.265,105.205 224.265,105.539 222.5,106.5C 221.5,106.5 220.5,106.5 219.5,106.5C 219.5,105.5 219.5,104.5 219.5,103.5C 219.833,102.833 220.167,102.167 220.5,101.5C 220.973,100.094 221.973,99.427 223.5,99.5 Z"/></g>
<g><path style="opacity:1" fill="#0a2253" d="M 241.5,102.5 C 245.574,102.918 245.407,104.251 241,106.5C 240.517,107.448 240.351,108.448 240.5,109.5C 239.5,109.5 238.5,109.5 237.5,109.5C 237.5,108.833 237.5,108.167 237.5,107.5C 236.232,106.213 236.565,105.213 238.5,104.5C 237.167,103.833 235.833,103.167 234.5,102.5C 236.811,101.425 239.144,101.425 241.5,102.5 Z"/></g>
<g><path style="opacity:1" fill="#152654" d="M 245.5,100.5 C 246.833,100.5 248.167,100.5 249.5,100.5C 249.5,101.5 249.5,102.5 249.5,103.5C 250.833,103.5 252.167,103.5 253.5,103.5C 253.5,102.5 253.5,101.5 253.5,100.5C 254.75,100.577 255.583,101.244 256,102.5C 256.43,105.192 256.263,107.859 255.5,110.5C 254.883,110.389 254.383,110.056 254,109.5C 253.79,111.058 253.29,112.391 252.5,113.5C 252.889,110.447 252.223,107.78 250.5,105.5C 249.081,104.549 247.415,104.216 245.5,104.5C 245.5,103.167 245.5,101.833 245.5,100.5 Z"/></g>
<g><path style="opacity:1" fill="#24305b" d="M 284.5,97.5 C 286.139,98.4725 287.473,99.8058 288.5,101.5C 286.036,103.399 283.369,104.732 280.5,105.5C 280.5,105.833 280.5,106.167 280.5,106.5C 279.833,106.5 279.167,106.5 278.5,106.5C 277.957,106.44 277.624,106.107 277.5,105.5C 278.167,104.833 278.833,104.167 279.5,103.5C 277.905,102.566 276.239,102.566 274.5,103.5C 275.6,102.395 276.267,101.062 276.5,99.5C 278.913,97.9493 281.579,97.2826 284.5,97.5 Z"/></g>
<g><path style="opacity:1" fill="#172754" d="M 325.5,99.5 C 327.655,99.372 329.655,99.872 331.5,101C 330.117,102.271 329.117,103.771 328.5,105.5C 326.589,105.426 325.422,104.426 325,102.5C 324.517,103.448 324.351,104.448 324.5,105.5C 323.5,105.5 322.5,105.5 321.5,105.5C 321.5,105.167 321.5,104.833 321.5,104.5C 322.906,104.027 323.573,103.027 323.5,101.5C 324.5,101.167 325.167,100.5 325.5,99.5 Z"/></g>
<g><path style="opacity:1" fill="#525775" d="M 325.5,99.5 C 328.287,98.5233 331.287,98.19 334.5,98.5C 331.594,104.641 327.928,110.307 323.5,115.5C 323.449,113.43 324.115,111.597 325.5,110C 325.095,109.055 324.428,108.388 323.5,108C 325.744,107.95 327.411,107.117 328.5,105.5C 329.117,103.771 330.117,102.271 331.5,101C 329.655,99.872 327.655,99.372 325.5,99.5 Z"/></g>
<g><path style="opacity:1" fill="#1e2e52" d="M 52.5,98.5 C 53.404,99.209 53.7373,100.209 53.5,101.5C 53.1667,102.167 52.8333,102.833 52.5,103.5C 52.5,103.833 52.5,104.167 52.5,104.5C 52.7678,106.099 52.4345,107.432 51.5,108.5C 51.6495,107.448 51.4828,106.448 51,105.5C 50.2904,106.973 49.1238,107.64 47.5,107.5C 47.2865,105.856 47.6198,104.356 48.5,103C 47.9056,102.536 47.2389,102.369 46.5,102.5C 48.2048,100.808 50.2048,99.4746 52.5,98.5 Z"/></g>
<g><path style="opacity:1" fill="#1e2c51" d="M 141.5,99.5 C 141.5,100.833 141.5,102.167 141.5,103.5C 140.833,104.5 140.167,105.5 139.5,106.5C 139.672,105.508 139.338,104.842 138.5,104.5C 138.5,103.5 138.5,102.5 138.5,101.5C 135.5,101.167 134.167,102.5 134.5,105.5C 133.167,105.5 131.833,105.5 130.5,105.5C 129.662,105.842 129.328,106.508 129.5,107.5C 128.5,106.833 127.5,106.167 126.5,105.5C 125.791,104.596 124.791,104.263 123.5,104.5C 124.919,103.549 126.585,103.216 128.5,103.5C 130.167,103.5 131.833,103.5 133.5,103.5C 133.5,102.167 133.5,100.833 133.5,99.5C 136.167,99.5 138.833,99.5 141.5,99.5 Z"/></g>
<g><path style="opacity:1" fill="#20315b" d="M 184.5,101.5 C 186.488,103.491 188.822,104.825 191.5,105.5C 189.585,105.216 187.919,105.549 186.5,106.5C 184.225,107.111 182.559,108.445 181.5,110.5C 181.631,109.624 181.298,108.957 180.5,108.5C 179.391,109.59 178.391,109.59 177.5,108.5C 178.612,107.735 179.279,106.735 179.5,105.5C 180.559,103.445 182.225,102.111 184.5,101.5 Z"/></g>
<g><path style="opacity:1" fill="#364167" d="M 234.5,98.5 C 237.187,98.3359 239.854,98.5026 242.5,99C 243.598,99.7697 243.598,100.603 242.5,101.5C 241.833,101.5 241.5,101.833 241.5,102.5C 239.144,101.425 236.811,101.425 234.5,102.5C 235.833,103.167 237.167,103.833 238.5,104.5C 236.565,105.213 236.232,106.213 237.5,107.5C 236.167,107.5 234.833,107.5 233.5,107.5C 233.167,107.5 232.833,107.5 232.5,107.5C 232.444,105.02 232.778,102.354 233.5,99.5C 234.167,99.5 234.5,99.1667 234.5,98.5 Z"/></g>
<g><path style="opacity:1" fill="#0a2455" d="M 310.5,107.5 C 308.616,112.628 306.949,112.628 305.5,107.5C 304.631,105.283 304.298,102.95 304.5,100.5C 306.5,100.5 308.5,100.5 310.5,100.5C 310.5,102.833 310.5,105.167 310.5,107.5 Z"/></g>
<g><path style="opacity:0.02" fill="#fefffe" d="M 321.5,104.5 C 320.833,103.167 320.833,103.167 321.5,104.5 Z"/></g>
<g><path style="opacity:0.518" fill="#76829a" d="M 83.5,102.5 C 86.3373,104.402 89.6707,105.069 93.5,104.5C 90.0381,105.482 86.3714,105.815 82.5,105.5C 82.2627,104.209 82.596,103.209 83.5,102.5 Z"/></g>
<g><path style="opacity:1" fill="#394262" d="M 294.5,120.5 C 294.167,120.5 293.833,120.5 293.5,120.5C 293.5,117.833 293.5,115.167 293.5,112.5C 294.458,110.698 295.125,108.698 295.5,106.5C 296.341,104.621 296.675,102.621 296.5,100.5C 293.45,99.9232 291.45,101.09 290.5,104C 289.552,104.483 288.552,104.649 287.5,104.5C 287.5,105.833 287.5,107.167 287.5,108.5C 286.009,105.909 283.675,104.909 280.5,105.5C 283.369,104.732 286.036,103.399 288.5,101.5C 291.584,98.9188 295.25,97.9188 299.5,98.5C 297.519,105.759 295.852,113.092 294.5,120.5 Z"/></g>
<g><path style="opacity:0.012" fill="#fcfcff" d="M 302.5,106.5 C 302.66,108.199 302.494,109.866 302,111.5C 301.26,109.623 300.427,108.123 299.5,107C 299.999,103.993 300.999,103.826 302.5,106.5 Z"/></g>
<g><path style="opacity:0.006" fill="#fefffe" d="M 72.5,107.5 C 71.475,107.103 71.3083,106.437 72,105.5C 72.4643,106.094 72.631,106.761 72.5,107.5 Z"/></g>
<g><path style="opacity:1" fill="#192850" d="M 117.5,100.5 C 117.5,101.167 117.5,101.833 117.5,102.5C 115.354,104.514 114.021,106.514 113.5,108.5C 112.778,108.082 112.278,107.416 112,106.5C 111.583,107.756 110.75,108.423 109.5,108.5C 110.529,106.483 111.529,104.483 112.5,102.5C 113.167,102.5 113.5,102.167 113.5,101.5C 114.833,101.167 116.167,100.833 117.5,100.5 Z"/></g>
<g><path style="opacity:1" fill="#082758" d="M 138.5,104.5 C 138.631,105.239 138.464,105.906 138,106.5C 135.974,106.915 134.474,107.915 133.5,109.5C 133.631,110.376 133.298,111.043 132.5,111.5C 131.253,109.994 131.253,108.494 132.5,107C 131.584,106.722 130.918,106.222 130.5,105.5C 131.833,105.5 133.167,105.5 134.5,105.5C 134.167,102.5 135.5,101.167 138.5,101.5C 138.5,102.5 138.5,103.5 138.5,104.5 Z"/></g>
<g><path style="opacity:0.998" fill="#334065" d="M 161.5,103.5 C 162.031,106.888 160.697,108.888 157.5,109.5C 158.29,108.206 159.29,107.039 160.5,106C 159.906,105.536 159.239,105.369 158.5,105.5C 157.833,105.5 157.5,105.833 157.5,106.5C 154.391,106.736 151.391,106.403 148.5,105.5C 150.5,104.833 152.5,104.167 154.5,103.5C 156.963,104.623 159.296,104.623 161.5,103.5 Z"/></g>
<g><path style="opacity:1" fill="#082150" d="M 295.5,106.5 C 293.396,106.201 291.396,106.534 289.5,107.5C 290.363,108.726 290.363,110.06 289.5,111.5C 288.732,112.263 288.232,113.263 288,114.5C 287.536,113.906 287.369,113.239 287.5,112.5C 287.5,111.167 287.5,109.833 287.5,108.5C 287.5,107.167 287.5,105.833 287.5,104.5C 288.552,104.649 289.552,104.483 290.5,104C 291.45,101.09 293.45,99.9232 296.5,100.5C 296.675,102.621 296.341,104.621 295.5,106.5 Z"/></g>
<g><path style="opacity:0.035" fill="#e0ecff" d="M 313.5,106.5 C 313.369,105.761 313.536,105.094 314,104.5C 314.692,105.437 314.525,106.103 313.5,106.5 Z"/></g>
<g><path style="opacity:1" fill="#212f5b" d="M 46.5,102.5 C 47.2389,102.369 47.9056,102.536 48.5,103C 47.6198,104.356 47.2865,105.856 47.5,107.5C 49.1238,107.64 50.2904,106.973 51,105.5C 51.4828,106.448 51.6495,107.448 51.5,108.5C 51.5,109.833 51.5,111.167 51.5,112.5C 50.8333,113.5 50.1667,114.5 49.5,115.5C 48.8423,114.602 48.1757,113.602 47.5,112.5C 46.2638,113.246 44.9305,113.579 43.5,113.5C 38.5325,113.134 38.8658,112.634 44.5,112C 45.1667,110.667 46.1667,109.667 47.5,109C 45.1112,108.261 43.1112,107.095 41.5,105.5C 42.8993,104.11 44.5659,103.11 46.5,102.5 Z"/></g>
<g><path style="opacity:1" fill="#3593f7" d="M 63.5,103.5 C 63.7845,105.415 63.4511,107.081 62.5,108.5C 61.6522,107.375 60.6522,107.375 59.5,108.5C 59.6495,107.448 59.4828,106.448 59,105.5C 58.6667,105.833 58.3333,106.167 58,106.5C 57.4932,104.165 58.1599,102.165 60,100.5C 60.7202,102.056 61.8868,103.056 63.5,103.5 Z"/></g>
<g><path style="opacity:1" fill="#092352" d="M 201.5,114.5 C 201.5,114.833 201.5,115.167 201.5,115.5C 200.5,115.5 199.5,115.5 198.5,115.5C 198.494,111.843 197.494,108.51 195.5,105.5C 195.047,104.542 194.381,103.708 193.5,103C 195.027,101.632 196.527,101.132 198,101.5C 198.245,103.663 199.245,105.33 201,106.5C 201.497,109.146 201.664,111.813 201.5,114.5 Z"/></g>
<g><path style="opacity:1" fill="#172a56" d="M 219.5,103.5 C 219.5,104.5 219.5,105.5 219.5,106.5C 220.5,106.5 221.5,106.5 222.5,106.5C 222.5,106.833 222.5,107.167 222.5,107.5C 221.5,107.5 220.5,107.5 219.5,107.5C 216.675,107.162 214.508,108.162 213,110.5C 211.989,109.663 210.822,109.33 209.5,109.5C 209.799,111.604 209.466,113.604 208.5,115.5C 207.702,115.043 207.369,114.376 207.5,113.5C 207.565,110.572 208.232,107.905 209.5,105.5C 211.697,104.152 213.697,102.485 215.5,100.5C 217.751,101.212 219.084,102.212 219.5,103.5 Z"/></g>
<g><path style="opacity:1" fill="#3a4569" d="M 245.5,100.5 C 245.5,101.833 245.5,103.167 245.5,104.5C 247.415,104.216 249.081,104.549 250.5,105.5C 244.995,105.079 241.328,107.413 239.5,112.5C 239.672,111.508 239.338,110.842 238.5,110.5C 236.591,111.679 236.258,111.346 237.5,109.5C 238.5,109.5 239.5,109.5 240.5,109.5C 240.351,108.448 240.517,107.448 241,106.5C 245.407,104.251 245.574,102.918 241.5,102.5C 241.5,101.833 241.833,101.5 242.5,101.5C 243.609,101.443 244.609,101.11 245.5,100.5 Z"/></g>
<g><path style="opacity:0.012" fill="#f2fdf2" d="M 246.5,106.5 C 250.648,106.453 252.148,108.453 251,112.5C 250.289,109.121 248.122,107.621 244.5,108C 245.416,107.722 246.082,107.222 246.5,106.5 Z"/></g>
<g><path style="opacity:1" fill="#1d2a4e" d="M 276.5,99.5 C 276.267,101.062 275.6,102.395 274.5,103.5C 272.107,106.063 269.441,108.397 266.5,110.5C 267.771,104.956 271.105,101.289 276.5,99.5 Z"/></g>
<g><path style="opacity:0.024" fill="#eefffe" d="M 280.5,106.5 C 281.833,106.5 283.167,106.5 284.5,106.5C 284.741,109.999 283.908,110.332 282,107.5C 280.989,108.337 279.822,108.67 278.5,108.5C 278.5,108.167 278.5,107.833 278.5,107.5C 279.492,107.672 280.158,107.338 280.5,106.5 Z"/></g>
<g><path style="opacity:1" fill="#072653" d="M 295.5,106.5 C 295.125,108.698 294.458,110.698 293.5,112.5C 292.207,112.125 290.874,111.792 289.5,111.5C 290.363,110.06 290.363,108.726 289.5,107.5C 291.396,106.534 293.396,106.201 295.5,106.5 Z"/></g>
<g><path style="opacity:1" fill="#172c5a" d="M 81.5,105.5 C 81.8417,106.338 82.5084,106.672 83.5,106.5C 83.8417,107.338 84.5084,107.672 85.5,107.5C 84.2568,109.164 82.5902,110.331 80.5,111C 80.7284,111.399 81.0618,111.565 81.5,111.5C 81.1249,113.698 80.4582,115.698 79.5,117.5C 79.6621,115.473 79.4955,113.473 79,111.5C 78.7216,112.416 78.2216,113.082 77.5,113.5C 76.7701,112.288 75.7701,111.288 74.5,110.5C 75.2458,109.264 75.5792,107.93 75.5,106.5C 77.5,106.167 79.5,105.833 81.5,105.5 Z"/></g>
<g><path style="opacity:1" fill="#243054" d="M 138.5,104.5 C 139.338,104.842 139.672,105.508 139.5,106.5C 138.167,112.833 136.833,119.167 135.5,125.5C 135.167,125.5 134.833,125.5 134.5,125.5C 134.268,121.026 134.934,116.693 136.5,112.5C 136.484,110.484 135.484,109.484 133.5,109.5C 134.474,107.915 135.974,106.915 138,106.5C 138.464,105.906 138.631,105.239 138.5,104.5 Z"/></g>
<g><path style="opacity:0.045" fill="#eaeaed" d="M 151.5,111.5 C 150.833,111.5 150.5,111.833 150.5,112.5C 149.549,111.081 149.216,109.415 149.5,107.5C 151.199,107.34 152.866,107.506 154.5,108C 153.29,109.039 152.29,110.206 151.5,111.5 Z"/></g>
<g><path style="opacity:0.016" fill="#f5f5fa" d="M 222.5,107.5 C 223.376,107.369 224.043,107.702 224.5,108.5C 223.277,109.614 221.944,109.781 220.5,109C 221.416,108.722 222.082,108.222 222.5,107.5 Z"/></g>
<g><path style="opacity:0.012" fill="#fefffe" d="M 32.5,108.5 C 33.8333,109.167 33.8333,109.167 32.5,108.5 Z"/></g>
<g><path style="opacity:1" fill="#4295f0" d="M 58.5,93.5 C 58.5,94.1667 58.5,94.8333 58.5,95.5C 58.5394,96.5832 58.8728,97.5832 59.5,98.5C 56.4555,101.688 55.7888,105.355 57.5,109.5C 56.2125,112.43 56.7125,114.763 59,116.5C 59.9055,113.866 60.7388,111.866 61.5,110.5C 61.5,112.5 61.5,114.5 61.5,116.5C 60.0652,117.913 59.0652,119.58 58.5,121.5C 58.5,121.167 58.5,120.833 58.5,120.5C 58.3385,118.176 57.1718,116.509 55,115.5C 54.6667,113.833 54.3333,112.167 54,110.5C 53.9977,113.051 53.1644,115.051 51.5,116.5C 51.5,115.167 51.5,113.833 51.5,112.5C 52.6772,110.321 53.6772,107.987 54.5,105.5C 55.4614,103.735 55.7947,101.735 55.5,99.5C 56.9851,97.7512 57.9851,95.7512 58.5,93.5 Z"/></g>
<g><path style="opacity:1" fill="#3394fe" d="M 62.5,108.5 C 62.6716,109.492 62.3382,110.158 61.5,110.5C 60.7388,111.866 59.9055,113.866 59,116.5C 56.7125,114.763 56.2125,112.43 57.5,109.5C 58.1667,109.167 58.8333,108.833 59.5,108.5C 60.6522,107.375 61.6522,107.375 62.5,108.5 Z"/></g>
<g><path style="opacity:0.013" fill="#fbfffe" d="M 102.5,113.5 C 102.167,113.5 101.833,113.5 101.5,113.5C 100.112,110.991 100.946,109.324 104,108.5C 103.513,110.044 103.013,111.71 102.5,113.5 Z"/></g>
<g><path style="opacity:0.018" fill="#f8f8ff" d="M 277.5,108.5 C 277.833,108.5 278.167,108.5 278.5,108.5C 277.968,111.46 277.301,111.793 276.5,109.5C 277.167,109.5 277.5,109.167 277.5,108.5 Z"/></g>
<g><path style="opacity:0.02" fill="#fefffe" d="M 32.5,109.5 C 32.5,109.833 32.5,110.167 32.5,110.5C 31.8299,110.019 31.8299,109.685 32.5,109.5 Z"/></g>
<g><path style="opacity:1" fill="#061e4a" d="M 85.5,107.5 C 87.288,107.215 88.9547,107.548 90.5,108.5C 89.3595,109.425 89.3595,110.259 90.5,111C 87.854,111.497 85.1873,111.664 82.5,111.5C 82.1667,111.5 81.8333,111.5 81.5,111.5C 81.0618,111.565 80.7284,111.399 80.5,111C 82.5902,110.331 84.2568,109.164 85.5,107.5 Z"/></g>
<g><path style="opacity:1" fill="#2a3964" d="M 98.5,111.5 C 99.5,112.167 100.5,112.833 101.5,113.5C 101.167,114.167 100.833,114.833 100.5,115.5C 99.2223,115.782 98.2223,116.449 97.5,117.5C 96.8444,116.722 96.0111,116.056 95,115.5C 94.5,115.833 94,116.167 93.5,116.5C 92.6072,119.084 92.2739,121.751 92.5,124.5C 91.6223,120.664 90.9557,116.664 90.5,112.5C 87.6146,112.806 84.9479,112.473 82.5,111.5C 85.1873,111.664 87.854,111.497 90.5,111C 89.3595,110.259 89.3595,109.425 90.5,108.5C 88.9547,107.548 87.288,107.215 85.5,107.5C 84.5084,107.672 83.8417,107.338 83.5,106.5C 87.1667,106.5 90.8333,106.5 94.5,106.5C 94.369,107.239 94.5357,107.906 95,108.5C 95.4186,107.328 96.0853,106.328 97,105.5C 97.1909,107.708 97.6909,109.708 98.5,111.5 Z"/></g>
<g><path style="opacity:1" fill="#303b60" d="M 123.5,104.5 C 124.791,104.263 125.791,104.596 126.5,105.5C 124.345,105.372 122.345,105.872 120.5,107C 118.563,109.071 116.896,111.238 115.5,113.5C 115.607,111.621 115.107,111.288 114,112.5C 113.167,111.5 112.333,110.5 111.5,109.5C 110.165,111.201 108.832,112.868 107.5,114.5C 107.259,112.102 107.926,110.102 109.5,108.5C 110.75,108.423 111.583,107.756 112,106.5C 112.278,107.416 112.778,108.082 113.5,108.5C 114.209,109.404 115.209,109.737 116.5,109.5C 116.5,108.5 116.5,107.5 116.5,106.5C 118.737,105.551 121.071,104.884 123.5,104.5 Z"/></g>
<g><path style="opacity:0.016" fill="#f9fdff" d="M 186.5,106.5 C 188.167,106.5 189.833,106.5 191.5,106.5C 192.537,108.738 192.703,111.071 192,113.5C 191.667,111.833 191.333,110.167 191,108.5C 189.378,107.901 187.878,107.234 186.5,106.5 Z"/></g>
<g><path style="opacity:1" fill="#142651" d="M 274.5,103.5 C 275.141,104.482 275.807,105.482 276.5,106.5C 274.709,108.46 272.543,109.793 270,110.5C 269.51,111.793 269.343,113.127 269.5,114.5C 268.603,113.402 267.77,113.402 267,114.5C 266.503,116.81 266.337,119.143 266.5,121.5C 266.737,122.791 266.404,123.791 265.5,124.5C 263.99,119.617 264.324,114.95 266.5,110.5C 269.441,108.397 272.107,106.063 274.5,103.5 Z"/></g>
<g><path style="opacity:0.016" fill="#fefffe" d="M 29.5,110.5 C 30.8333,111.167 30.8333,111.167 29.5,110.5 Z"/></g>
<g><path style="opacity:1" fill="#102854" d="M 41.5,105.5 C 43.1112,107.095 45.1112,108.261 47.5,109C 46.1667,109.667 45.1667,110.667 44.5,112C 38.8658,112.634 38.5325,113.134 43.5,113.5C 42.8333,114.833 42.1667,116.167 41.5,117.5C 40.8333,117.5 40.1667,117.5 39.5,117.5C 38.8333,117.167 38.1667,116.833 37.5,116.5C 37.6107,115.883 37.944,115.383 38.5,115C 36.9532,114.667 35.6199,115.167 34.5,116.5C 33.9432,114.668 32.9432,113.335 31.5,112.5C 31.8333,111.833 32.1667,111.167 32.5,110.5C 35.3116,108.592 38.3116,106.925 41.5,105.5 Z"/></g>
<g><path style="opacity:0.004" fill="#fefffe" d="M 70.5,110.5 C 71.8333,111.167 71.8333,111.167 70.5,110.5 Z"/></g>
<g><path style="opacity:1" fill="#11254b" d="M 179.5,105.5 C 179.279,106.735 178.612,107.735 177.5,108.5C 178.391,109.59 179.391,109.59 180.5,108.5C 181.298,108.957 181.631,109.624 181.5,110.5C 181.5,111.167 181.5,111.833 181.5,112.5C 180.662,112.842 180.328,113.508 180.5,114.5C 179.691,116.292 179.191,118.292 179,120.5C 177.812,119.437 177.312,118.103 177.5,116.5C 176.467,113.401 174.467,112.734 171.5,114.5C 171.935,111.843 172.935,109.509 174.5,107.5C 176.05,106.559 177.716,105.893 179.5,105.5 Z"/></g>
<g><path style="opacity:1" fill="#082251" d="M 253.5,100.5 C 253.842,99.6618 254.508,99.3284 255.5,99.5C 256.764,101.27 258.264,102.937 260,104.5C 259.841,108.841 259.675,113.175 259.5,117.5C 259.5,117.833 259.5,118.167 259.5,118.5C 258.222,118.218 257.222,117.551 256.5,116.5C 255.659,114.621 255.325,112.621 255.5,110.5C 256.263,107.859 256.43,105.192 256,102.5C 255.583,101.244 254.75,100.577 253.5,100.5 Z"/></g>
<g><path style="opacity:1" fill="#414a64" d="M 255.5,99.5 C 255.5,99.1667 255.5,98.8333 255.5,98.5C 261.668,101.174 263.834,105.84 262,112.5C 261.626,114.491 260.793,116.158 259.5,117.5C 259.675,113.175 259.841,108.841 260,104.5C 258.264,102.937 256.764,101.27 255.5,99.5 Z"/></g>
<g><path style="opacity:1" fill="#27375f" d="M 278.5,106.5 C 278.5,106.833 278.5,107.167 278.5,107.5C 277.833,107.5 277.5,107.833 277.5,108.5C 276.833,108.5 276.5,108.833 276.5,109.5C 275.069,110.78 274.402,112.447 274.5,114.5C 273.566,115.568 273.232,116.901 273.5,118.5C 272.732,117.737 272.232,116.737 272,115.5C 271.118,119.042 270.285,118.708 269.5,114.5C 269.343,113.127 269.51,111.793 270,110.5C 272.543,109.793 274.709,108.46 276.5,106.5C 275.807,105.482 275.141,104.482 274.5,103.5C 276.239,102.566 277.905,102.566 279.5,103.5C 278.833,104.167 278.167,104.833 277.5,105.5C 277.624,106.107 277.957,106.44 278.5,106.5 Z"/></g>
<g><path style="opacity:1" fill="#0c214a" d="M 130.5,105.5 C 130.918,106.222 131.584,106.722 132.5,107C 131.253,108.494 131.253,109.994 132.5,111.5C 133.298,111.043 133.631,110.376 133.5,109.5C 135.484,109.484 136.484,110.484 136.5,112.5C 134.934,116.693 134.268,121.026 134.5,125.5C 131.855,127.242 128.855,127.909 125.5,127.5C 125.5,126.833 125.5,126.167 125.5,125.5C 126.167,125.5 126.5,125.167 126.5,124.5C 128.194,126.438 130.194,126.771 132.5,125.5C 133.407,122.579 133.74,119.579 133.5,116.5C 132.167,116.5 130.833,116.5 129.5,116.5C 130.021,119.636 129.021,121.97 126.5,123.5C 126.167,123.5 125.833,123.5 125.5,123.5C 126.363,121.579 127.029,119.579 127.5,117.5C 129.023,114.365 129.69,111.032 129.5,107.5C 129.328,106.508 129.662,105.842 130.5,105.5 Z"/></g>
<g><path style="opacity:1" fill="#2b375c" d="M 158.5,105.5 C 159.239,105.369 159.906,105.536 160.5,106C 159.29,107.039 158.29,108.206 157.5,109.5C 157.5,110.167 157.5,110.833 157.5,111.5C 157.5,112.167 157.5,112.833 157.5,113.5C 154.763,113.401 152.096,113.735 149.5,114.5C 149.833,113.833 150.167,113.167 150.5,112.5C 151.167,112.5 151.5,112.167 151.5,111.5C 154.089,110.581 156.089,108.914 157.5,106.5C 158.167,106.5 158.5,106.167 158.5,105.5 Z"/></g>
<g><path style="opacity:1" fill="#0a2451" d="M 233.5,107.5 C 234.833,107.5 236.167,107.5 237.5,107.5C 237.5,108.167 237.5,108.833 237.5,109.5C 236.258,111.346 236.591,111.679 238.5,110.5C 238.703,112.39 238.037,113.89 236.5,115C 237.916,116.915 237.582,118.415 235.5,119.5C 235.806,115.253 235.139,111.253 233.5,107.5 Z"/></g>
<g><path style="opacity:1" fill="#142953" d="M 305.5,107.5 C 306.949,112.628 308.616,112.628 310.5,107.5C 311.434,108.568 311.768,109.901 311.5,111.5C 309.58,113.746 308.247,116.413 307.5,119.5C 306.662,119.842 306.328,120.508 306.5,121.5C 305.596,120.791 305.263,119.791 305.5,118.5C 306.335,115.006 306.335,111.34 305.5,107.5 Z"/></g>
<g><path style="opacity:1" fill="#172a59" d="M 49.5,115.5 C 49.7373,116.791 49.404,117.791 48.5,118.5C 48.5654,118.062 48.3988,117.728 48,117.5C 47.7216,118.416 47.2216,119.082 46.5,119.5C 44.6776,119.169 43.0109,118.502 41.5,117.5C 42.1667,116.167 42.8333,114.833 43.5,113.5C 44.9305,113.579 46.2638,113.246 47.5,112.5C 48.1757,113.602 48.8423,114.602 49.5,115.5 Z"/></g>
<g><path style="opacity:1" fill="#394166" d="M 167.5,107.5 C 165.793,108.873 164.46,110.539 163.5,112.5C 161.77,113.026 160.436,114.026 159.5,115.5C 158.833,115.5 158.5,115.833 158.5,116.5C 158.167,116.5 157.833,116.5 157.5,116.5C 157.5,115.5 157.5,114.5 157.5,113.5C 157.5,112.833 157.5,112.167 157.5,111.5C 159.5,110.833 161.5,110.167 163.5,109.5C 164.467,108.194 165.801,107.527 167.5,107.5 Z"/></g>
<g><path style="opacity:0.024" fill="#d4fffe" d="M 163.5,112.5 C 164.833,113.167 164.833,113.167 163.5,112.5 Z"/></g>
<g><path style="opacity:0.015" fill="#fefffe" d="M 303.5,112.5 C 303.657,113.873 303.49,115.207 303,116.5C 302.235,114.934 302.402,113.601 303.5,112.5 Z"/></g>
<g><path style="opacity:1" fill="#1d2e55" d="M 75.5,100.5 C 75.5,102.5 75.5,104.5 75.5,106.5C 75.5792,107.93 75.2458,109.264 74.5,110.5C 75.7701,111.288 76.7701,112.288 77.5,113.5C 76.8166,115.176 75.4832,115.843 73.5,115.5C 73.7373,114.209 73.404,113.209 72.5,112.5C 72.5,110.833 72.5,109.167 72.5,107.5C 73.6515,105.221 74.6515,102.888 75.5,100.5 Z"/></g>
<g><path style="opacity:0.019" fill="#fafffa" d="M 102.5,113.5 C 104.308,114.918 104.975,116.918 104.5,119.5C 102.692,118.082 102.025,116.082 102.5,113.5 Z"/></g>
<g><path style="opacity:1" fill="#192d57" d="M 191.5,106.5 C 191.5,106.167 191.5,105.833 191.5,105.5C 192.833,105.5 194.167,105.5 195.5,105.5C 197.494,108.51 198.494,111.843 198.5,115.5C 197.539,117.265 197.205,119.265 197.5,121.5C 195.821,121.285 194.821,121.952 194.5,123.5C 191.263,122.003 190.597,119.67 192.5,116.5C 192.995,114.548 193.328,112.548 193.5,110.5C 193.415,108.667 192.748,107.334 191.5,106.5 Z"/></g>
<g><path style="opacity:1" fill="#0f234f" d="M 328.5,105.5 C 327.411,107.117 325.744,107.95 323.5,108C 324.428,108.388 325.095,109.055 325.5,110C 324.115,111.597 323.449,113.43 323.5,115.5C 321.883,114.962 320.216,114.629 318.5,114.5C 318.5,113.167 318.5,111.833 318.5,110.5C 319.075,108.589 320.075,106.922 321.5,105.5C 322.5,105.5 323.5,105.5 324.5,105.5C 324.351,104.448 324.517,103.448 325,102.5C 325.422,104.426 326.589,105.426 328.5,105.5 Z"/></g>
<g><path style="opacity:1" fill="#132754" d="M 115.5,113.5 C 115.5,115.167 115.5,116.833 115.5,118.5C 115.267,120.062 114.6,121.395 113.5,122.5C 111.876,122.64 110.71,121.973 110,120.5C 109.292,121.381 108.458,122.047 107.5,122.5C 106.167,119.833 106.167,117.167 107.5,114.5C 108.832,112.868 110.165,111.201 111.5,109.5C 112.333,110.5 113.167,111.5 114,112.5C 115.107,111.288 115.607,111.621 115.5,113.5 Z"/></g>
<g><path style="opacity:1" fill="#1f2f5b" d="M 219.5,107.5 C 217.688,109.461 216.688,111.794 216.5,114.5C 215.566,115.568 215.232,116.901 215.5,118.5C 214.833,119.5 214.167,120.5 213.5,121.5C 213.631,120.761 213.464,120.094 213,119.5C 210.08,123.514 209.247,123.347 210.5,119C 208.867,118.52 207.534,117.687 206.5,116.5C 206.263,115.209 206.596,114.209 207.5,113.5C 207.369,114.376 207.702,115.043 208.5,115.5C 209.466,113.604 209.799,111.604 209.5,109.5C 210.822,109.33 211.989,109.663 213,110.5C 214.508,108.162 216.675,107.162 219.5,107.5 Z"/></g>
<g><path style="opacity:0.014" fill="#fefffe" d="M 216.5,114.5 C 217.573,115.251 217.74,116.251 217,117.5C 216.517,116.552 216.351,115.552 216.5,114.5 Z"/></g>
<g><path style="opacity:1" fill="#152853" d="M 289.5,111.5 C 290.874,111.792 292.207,112.125 293.5,112.5C 293.5,115.167 293.5,117.833 293.5,120.5C 293.5,121.833 293.5,123.167 293.5,124.5C 292.833,125.5 292.167,126.5 291.5,127.5C 291.025,124.47 290.025,121.47 288.5,118.5C 288.918,117.778 289.584,117.278 290.5,117C 289.584,116.626 288.75,116.126 288,115.5C 287.292,116.381 286.458,117.047 285.5,117.5C 285.796,115.597 286.463,113.93 287.5,112.5C 287.369,113.239 287.536,113.906 288,114.5C 288.232,113.263 288.732,112.263 289.5,111.5 Z"/></g>
<g><path style="opacity:1" fill="#192b51" d="M 157.5,113.5 C 157.5,114.5 157.5,115.5 157.5,116.5C 157.5,116.833 157.5,117.167 157.5,117.5C 156.833,117.5 156.5,117.833 156.5,118.5C 154.938,118.733 153.605,119.4 152.5,120.5C 151.766,119.292 151.433,117.959 151.5,116.5C 150.5,116.5 149.5,116.5 148.5,116.5C 148.78,119.388 147.447,120.888 144.5,121C 145.381,121.708 146.047,122.542 146.5,123.5C 144.5,123.833 142.5,124.167 140.5,124.5C 140.351,123.448 140.517,122.448 141,121.5C 143.956,119.278 146.79,116.945 149.5,114.5C 152.096,113.735 154.763,113.401 157.5,113.5 Z"/></g>
<g><path style="opacity:1" fill="#253356" d="M 318.5,110.5 C 318.5,111.833 318.5,113.167 318.5,114.5C 320.216,114.629 321.883,114.962 323.5,115.5C 321.488,118.205 319.488,120.872 317.5,123.5C 317.665,120.482 317.498,117.482 317,114.5C 316.583,115.756 315.75,116.423 314.5,116.5C 315.34,114.147 316.674,112.147 318.5,110.5 Z"/></g>
<g><path style="opacity:1" fill="#072049" d="M 97.5,117.5 C 97.7837,120.632 98.617,123.632 100,126.5C 100.198,124.618 100.698,122.952 101.5,121.5C 101.5,123.5 101.5,125.5 101.5,127.5C 98.5,127.5 95.5,127.5 92.5,127.5C 92.5,126.5 92.5,125.5 92.5,124.5C 92.2739,121.751 92.6072,119.084 93.5,116.5C 94,116.167 94.5,115.833 95,115.5C 96.0111,116.056 96.8444,116.722 97.5,117.5 Z"/></g>
<g><path style="opacity:0.016" fill="#fdfcff" d="M 159.5,115.5 C 161.842,115.775 161.842,116.608 159.5,118C 160.5,118.333 161.5,118.667 162.5,119C 160.288,119.789 158.288,119.622 156.5,118.5C 157.167,118.5 157.5,118.167 157.5,117.5C 158.167,117.5 158.5,117.167 158.5,116.5C 159.167,116.5 159.5,116.167 159.5,115.5 Z"/></g>
<g><path style="opacity:1" fill="#0a2152" d="M 177.5,116.5 C 176.522,118.532 175.022,120.198 173,121.5C 172.79,119.942 172.29,118.609 171.5,117.5C 171.5,116.5 171.5,115.5 171.5,114.5C 174.467,112.734 176.467,113.401 177.5,116.5 Z"/></g>
<g><path style="opacity:1" fill="#343f5f" d="M 198.5,115.5 C 199.5,115.5 200.5,115.5 201.5,115.5C 201.567,116.959 201.234,118.292 200.5,119.5C 199.094,119.973 198.427,120.973 198.5,122.5C 197.833,122.5 197.5,122.833 197.5,123.5C 196.833,123.5 196.5,123.833 196.5,124.5C 195.833,124.5 195.167,124.5 194.5,124.5C 194.5,124.167 194.5,123.833 194.5,123.5C 194.821,121.952 195.821,121.285 197.5,121.5C 197.205,119.265 197.539,117.265 198.5,115.5 Z"/></g>
<g><path style="opacity:1" fill="#082254" d="M 311.5,111.5 C 312.301,113.042 312.634,114.708 312.5,116.5C 311.175,115.047 310.342,115.381 310,117.5C 309.502,120.482 309.335,123.482 309.5,126.5C 308.388,124.401 307.721,122.067 307.5,119.5C 308.247,116.413 309.58,113.746 311.5,111.5 Z"/></g>
<g><path style="opacity:1" fill="#082554" d="M 39.5,117.5 C 40.1667,117.5 40.8333,117.5 41.5,117.5C 43.0109,118.502 44.6776,119.169 46.5,119.5C 44.8611,121.231 43.1944,123.065 41.5,125C 41.8333,125.333 42.1667,125.667 42.5,126C 38.1794,126.499 33.8461,126.666 29.5,126.5C 29.2594,124.102 29.9261,122.102 31.5,120.5C 31.3118,122.103 31.8118,123.437 33,124.5C 35.0693,123.736 37.236,123.236 39.5,123C 40.1383,121.293 40.1383,119.46 39.5,117.5 Z"/></g>
<g><path style="opacity:1" fill="#3391f8" d="M 58.5,120.5 C 57.6851,121.429 56.8518,122.429 56,123.5C 55.5,123 55,122.5 54.5,122C 54.8333,121 55.1667,120 55.5,119C 54.9747,118.308 54.3081,117.808 53.5,117.5C 52.2404,119.353 52.2404,121.186 53.5,123C 52.6477,124.728 51.6477,124.895 50.5,123.5C 51.1495,121.565 51.4828,119.565 51.5,117.5C 51.5,117.167 51.5,116.833 51.5,116.5C 53.1644,115.051 53.9977,113.051 54,110.5C 54.3333,112.167 54.6667,113.833 55,115.5C 57.1718,116.509 58.3385,118.176 58.5,120.5 Z"/></g>
<g><path style="opacity:1" fill="#17274f" d="M 79.5,117.5 C 79.5,118.833 79.5,120.167 79.5,121.5C 78.5655,122.568 78.2322,123.901 78.5,125.5C 78.1667,125.5 77.8333,125.5 77.5,125.5C 77.1667,125.5 76.8333,125.5 76.5,125.5C 76.8919,122.278 76.3919,119.278 75,116.5C 73.8752,119.89 72.3752,123.057 70.5,126C 72.4727,126.495 74.4727,126.662 76.5,126.5C 73.8333,127.833 71.1667,127.833 68.5,126.5C 69.2327,121.555 70.566,116.888 72.5,112.5C 73.404,113.209 73.7373,114.209 73.5,115.5C 75.4832,115.843 76.8166,115.176 77.5,113.5C 78.2216,113.082 78.7216,112.416 79,111.5C 79.4955,113.473 79.6621,115.473 79.5,117.5 Z"/></g>
<g><path style="opacity:1" fill="#092353" d="M 76.5,125.5 C 76.5,125.833 76.5,126.167 76.5,126.5C 74.4727,126.662 72.4727,126.495 70.5,126C 72.3752,123.057 73.8752,119.89 75,116.5C 76.3919,119.278 76.8919,122.278 76.5,125.5 Z"/></g>
<g><path style="opacity:0.037" fill="#e5e5ff" d="M 89.5,116.5 C 90.5735,117.251 90.7401,118.251 90,119.5C 89.5172,118.552 89.3505,117.552 89.5,116.5 Z"/></g>
<g><path style="opacity:0.012" fill="#fefffe" d="M 125.5,118.5 C 123.621,119.341 121.621,119.675 119.5,119.5C 120.997,118.694 122.664,118.028 124.5,117.5C 125.107,117.624 125.44,117.957 125.5,118.5 Z"/></g>
<g><path style="opacity:0.035" fill="#f7f1f1" d="M 240.5,113.5 C 241.234,114.878 241.901,116.378 242.5,118C 244.167,118.333 245.833,118.667 247.5,119C 245.19,119.497 242.857,119.663 240.5,119.5C 240.5,117.5 240.5,115.5 240.5,113.5 Z"/></g>
<g><path style="opacity:0.017" fill="#f5f5f5" d="M 274.5,114.5 C 276.408,118.743 279.242,119.41 283,116.5C 283.464,117.094 283.631,117.761 283.5,118.5C 282.833,118.5 282.5,118.833 282.5,119.5C 280.143,119.663 277.81,119.497 275.5,119C 274.62,117.644 274.286,116.144 274.5,114.5 Z"/></g>
<g><path style="opacity:1" fill="#0a2153" d="M 317.5,123.5 C 316.167,123.5 314.833,123.5 313.5,123.5C 313.298,121.05 313.631,118.717 314.5,116.5C 315.75,116.423 316.583,115.756 317,114.5C 317.498,117.482 317.665,120.482 317.5,123.5 Z"/></g>
<g><path style="opacity:1" fill="#122550" d="M 31.5,112.5 C 32.9432,113.335 33.9432,114.668 34.5,116.5C 35.6199,115.167 36.9532,114.667 38.5,115C 37.944,115.383 37.6107,115.883 37.5,116.5C 35.5856,117.185 33.5856,117.685 31.5,118C 32.7736,118.977 32.7736,119.811 31.5,120.5C 29.9261,122.102 29.2594,124.102 29.5,126.5C 27.8958,125.713 27.2291,124.38 27.5,122.5C 28.1621,119.852 28.8288,117.185 29.5,114.5C 29.7472,113.287 30.4138,112.62 31.5,112.5 Z"/></g>
<g><path style="opacity:0.009" fill="#f9faf6" d="M 181.5,112.5 C 182.461,114.265 182.795,116.265 182.5,118.5C 184.527,118.338 186.527,118.505 188.5,119C 186.19,119.497 183.857,119.663 181.5,119.5C 181.5,117.167 181.5,114.833 181.5,112.5 Z"/></g>
<g><path style="opacity:0.035" fill="#e2e3fe" d="M 215.5,118.5 C 216.833,119.167 216.833,119.167 215.5,118.5 Z"/></g>
<g><path style="opacity:1" fill="#162b50" d="M 232.5,107.5 C 232.833,107.5 233.167,107.5 233.5,107.5C 235.139,111.253 235.806,115.253 235.5,119.5C 235.5,119.833 235.5,120.167 235.5,120.5C 233.692,119.082 233.025,117.082 233.5,114.5C 232.5,114.5 231.5,114.5 230.5,114.5C 230.721,111.933 231.388,109.599 232.5,107.5 Z"/></g>
<g><path style="opacity:0.016" fill="#fefffe" d="M 304.5,118.5 C 303.833,119.167 303.833,119.167 304.5,118.5 Z"/></g>
<g><path style="opacity:1" fill="#1f3259" d="M 312.5,116.5 C 312.833,116.5 313.167,116.5 313.5,116.5C 313.833,116.5 314.167,116.5 314.5,116.5C 313.631,118.717 313.298,121.05 313.5,123.5C 314.833,123.5 316.167,123.5 317.5,123.5C 314.324,129.189 310.658,134.523 306.5,139.5C 307.788,135.566 309.121,131.566 310.5,127.5C 310.376,126.893 310.043,126.56 309.5,126.5C 309.335,123.482 309.502,120.482 310,117.5C 310.342,115.381 311.175,115.047 312.5,116.5 Z"/></g>
<g><path style="opacity:1" fill="#062654" d="M 37.5,116.5 C 38.1667,116.833 38.8333,117.167 39.5,117.5C 40.1383,119.46 40.1383,121.293 39.5,123C 37.236,123.236 35.0693,123.736 33,124.5C 31.8118,123.437 31.3118,122.103 31.5,120.5C 32.7736,119.811 32.7736,118.977 31.5,118C 33.5856,117.685 35.5856,117.185 37.5,116.5 Z"/></g>
<g><path style="opacity:0.025" fill="#fefffe" d="M 80.5,121.5 C 80.369,120.761 80.5357,120.094 81,119.5C 81.6917,120.437 81.525,121.103 80.5,121.5 Z"/></g>
<g><path style="opacity:0.02" fill="#f7f8fd" d="M 170.5,121.5 C 170.328,122.492 170.662,123.158 171.5,123.5C 171.631,124.376 171.298,125.043 170.5,125.5C 169.473,124.209 168.473,124.209 167.5,125.5C 167.5,123.833 167.5,122.167 167.5,120.5C 165.278,119.053 166.278,119.386 170.5,121.5 Z"/></g>
<g><path style="opacity:0.017" fill="#f8fafc" d="M 200.5,119.5 C 201.5,119.5 202.5,119.5 203.5,119.5C 203.5,120.833 203.5,122.167 203.5,123.5C 202.698,124.952 202.198,126.618 202,128.5C 202.256,124.564 200.756,123.231 197.5,124.5C 197.5,124.167 197.5,123.833 197.5,123.5C 198.167,123.5 198.5,123.167 198.5,122.5C 199.906,122.027 200.573,121.027 200.5,119.5 Z"/></g>
<g><path style="opacity:1" fill="#28345c" d="M 206.5,116.5 C 207.534,117.687 208.867,118.52 210.5,119C 209.247,123.347 210.08,123.514 213,119.5C 213.464,120.094 213.631,120.761 213.5,121.5C 213.326,123.861 212.993,126.194 212.5,128.5C 209.5,128.5 206.5,128.5 203.5,128.5C 203.5,126.833 203.5,125.167 203.5,123.5C 204.651,121.221 205.651,118.888 206.5,116.5 Z"/></g>
<g><path style="opacity:0.014" fill="#f8f4f8" d="M 260.5,119.5 C 261.5,119.5 262.5,119.5 263.5,119.5C 263.657,120.873 263.49,122.207 263,123.5C 262.097,122.299 260.931,121.465 259.5,121C 260.056,120.617 260.389,120.117 260.5,119.5 Z"/></g>
<g><path style="opacity:1" fill="#132251" d="M 100.5,115.5 C 101.301,117.042 101.634,118.708 101.5,120.5C 101.5,120.833 101.5,121.167 101.5,121.5C 100.698,122.952 100.198,124.618 100,126.5C 98.617,123.632 97.7837,120.632 97.5,117.5C 98.2223,116.449 99.2223,115.782 100.5,115.5 Z"/></g>
<g><path style="opacity:0.031" fill="#dcf0ff" d="M 227.5,121.5 C 226.475,121.103 226.308,120.437 227,119.5C 227.464,120.094 227.631,120.761 227.5,121.5 Z"/></g>
<g><path style="opacity:1" fill="#07214d" d="M 255.5,110.5 C 255.325,112.621 255.659,114.621 256.5,116.5C 255.733,117.172 255.066,118.005 254.5,119C 255.337,120.011 255.67,121.178 255.5,122.5C 254.325,122.719 253.325,122.386 252.5,121.5C 251.162,119.187 251.162,116.52 252.5,113.5C 253.29,112.391 253.79,111.058 254,109.5C 254.383,110.056 254.883,110.389 255.5,110.5 Z"/></g>
<g><path style="opacity:1" fill="#05224b" d="M 288.5,118.5 C 290.025,121.47 291.025,124.47 291.5,127.5C 288.615,127.806 285.948,127.473 283.5,126.5C 284.873,126.657 286.207,126.49 287.5,126C 284.983,123.242 285.316,120.742 288.5,118.5 Z"/></g>
<g><path style="opacity:0.016" fill="#fafcfb" d="M 293.5,124.5 C 294.434,123.432 294.768,122.099 294.5,120.5C 295.423,119.697 296.423,119.53 297.5,120C 296.907,123.645 295.574,126.979 293.5,130C 290.5,130.667 287.5,130.667 284.5,130C 287.167,129.667 289.833,129.333 292.5,129C 293.38,127.644 293.714,126.144 293.5,124.5 Z"/></g>
<g><path style="opacity:0.008" fill="#f5f5f5" d="M 26.5,122.5 C 25.5655,123.568 25.2322,124.901 25.5,126.5C 24.2355,124.228 24.4022,121.895 26,119.5C 26.4828,120.448 26.6495,121.448 26.5,122.5 Z"/></g>
<g><path style="opacity:0.015" fill="#fefffe" d="M 79.5,121.5 C 79.8333,121.5 80.1667,121.5 80.5,121.5C 80.7678,123.099 80.4345,124.432 79.5,125.5C 79.5,124.167 79.5,122.833 79.5,121.5 Z"/></g>
<g><path style="opacity:1" fill="#142954" d="M 230.5,114.5 C 231.5,114.5 232.5,114.5 233.5,114.5C 233.025,117.082 233.692,119.082 235.5,120.5C 235.5,121.5 235.5,122.5 235.5,123.5C 234.063,122.278 232.563,122.278 231,123.5C 229.989,122.944 229.156,122.278 228.5,121.5C 228.927,118.99 229.593,116.657 230.5,114.5 Z"/></g>
<g><path style="opacity:1" fill="#192954" d="M 238.5,110.5 C 239.338,110.842 239.672,111.508 239.5,112.5C 239.194,115.385 239.527,118.052 240.5,120.5C 241.918,122.308 243.918,122.975 246.5,122.5C 242.942,123.865 239.275,124.198 235.5,123.5C 235.5,122.5 235.5,121.5 235.5,120.5C 235.5,120.167 235.5,119.833 235.5,119.5C 237.582,118.415 237.916,116.915 236.5,115C 238.037,113.89 238.703,112.39 238.5,110.5 Z"/></g>
<g><path style="opacity:1" fill="#27365a" d="M 252.5,113.5 C 251.162,116.52 251.162,119.187 252.5,121.5C 253.325,122.386 254.325,122.719 255.5,122.5C 255.67,121.178 255.337,120.011 254.5,119C 255.066,118.005 255.733,117.172 256.5,116.5C 257.222,117.551 258.222,118.218 259.5,118.5C 257.444,122.888 254.111,125.888 249.5,127.5C 249.574,125.589 250.574,124.422 252.5,124C 250.655,122.872 248.655,122.372 246.5,122.5C 243.918,122.975 241.918,122.308 240.5,120.5C 246.875,122.311 250.875,119.977 252.5,113.5 Z"/></g>
<g><path style="opacity:1" fill="#092355" d="M 269.5,114.5 C 270.285,118.708 271.118,119.042 272,115.5C 272.232,116.737 272.732,117.737 273.5,118.5C 274.167,119.5 274.833,120.5 275.5,121.5C 275.5,123.167 275.5,124.833 275.5,126.5C 273.143,126.663 270.81,126.497 268.5,126C 269.38,124.644 269.714,123.144 269.5,121.5C 268.5,121.5 267.5,121.5 266.5,121.5C 266.337,119.143 266.503,116.81 267,114.5C 267.77,113.402 268.603,113.402 269.5,114.5 Z"/></g>
<g><path style="opacity:1" fill="#283657" d="M 127.5,117.5 C 127.029,119.579 126.363,121.579 125.5,123.5C 125.167,124.167 124.833,124.833 124.5,125.5C 124.5,126.167 124.167,126.5 123.5,126.5C 123.5,125.167 123.5,123.833 123.5,122.5C 119.652,121.882 116.319,121.882 113.5,122.5C 114.6,121.395 115.267,120.062 115.5,118.5C 116.222,119.551 117.222,120.218 118.5,120.5C 119.946,121.613 121.613,121.78 123.5,121C 124.756,120.583 125.423,119.75 125.5,118.5C 126.167,118.167 126.833,117.833 127.5,117.5 Z M 125.5,118.5 C 125.423,119.75 124.756,120.583 123.5,121C 121.613,121.78 119.946,121.613 118.5,120.5C 119.167,120.5 119.5,120.167 119.5,119.5C 121.621,119.675 123.621,119.341 125.5,118.5 Z"/></g>
<g><path style="opacity:1" fill="#0a2555" d="M 126.5,124.5 C 126.5,124.167 126.5,123.833 126.5,123.5C 129.021,121.97 130.021,119.636 129.5,116.5C 130.833,116.5 132.167,116.5 133.5,116.5C 133.74,119.579 133.407,122.579 132.5,125.5C 130.194,126.771 128.194,126.438 126.5,124.5 Z"/></g>
<g><path style="opacity:1" fill="#172c59" d="M 152.5,120.5 C 156.97,121.486 161.637,121.819 166.5,121.5C 166.737,122.791 166.404,123.791 165.5,124.5C 163.603,123.195 161.269,122.529 158.5,122.5C 156.167,122.667 153.833,122.833 151.5,123C 153.786,124.465 153.286,125.299 150,125.5C 148.45,125.127 147.283,124.46 146.5,123.5C 146.047,122.542 145.381,121.708 144.5,121C 147.447,120.888 148.78,119.388 148.5,116.5C 149.5,116.5 150.5,116.5 151.5,116.5C 151.433,117.959 151.766,119.292 152.5,120.5 Z"/></g>
<g><path style="opacity:1" fill="#2e3b60" d="M 180.5,114.5 C 179.502,120.167 181.836,122.501 187.5,121.5C 187.5,121.833 187.5,122.167 187.5,122.5C 184.843,122.162 182.51,122.829 180.5,124.5C 178.803,123.636 177.637,122.303 177,120.5C 175.916,121.665 175.083,122.998 174.5,124.5C 179.02,126.114 183.686,126.78 188.5,126.5C 189.167,126.5 189.5,126.833 189.5,127.5C 185.702,128.483 181.702,128.817 177.5,128.5C 175.208,127.21 173.208,125.543 171.5,123.5C 171.672,122.508 171.338,121.842 170.5,121.5C 170.833,120.167 171.167,118.833 171.5,117.5C 172.29,118.609 172.79,119.942 173,121.5C 175.022,120.198 176.522,118.532 177.5,116.5C 177.312,118.103 177.812,119.437 179,120.5C 179.191,118.292 179.691,116.292 180.5,114.5 Z"/></g>
<g><path style="opacity:1" fill="#223058" d="M 192.5,116.5 C 190.597,119.67 191.263,122.003 194.5,123.5C 194.5,123.833 194.5,124.167 194.5,124.5C 193.341,126.25 191.674,127.25 189.5,127.5C 189.5,126.833 189.167,126.5 188.5,126.5C 188.167,125.167 187.833,123.833 187.5,122.5C 187.5,122.167 187.5,121.833 187.5,121.5C 189.386,120.07 191.053,118.403 192.5,116.5 Z"/></g>
<g><path style="opacity:1" fill="#102253" d="M 288.5,118.5 C 285.316,120.742 284.983,123.242 287.5,126C 286.207,126.49 284.873,126.657 283.5,126.5C 283.5,126.167 283.5,125.833 283.5,125.5C 284.833,125.167 284.833,124.833 283.5,124.5C 283.082,123.778 282.416,123.278 281.5,123C 283.464,121.549 284.797,119.716 285.5,117.5C 286.458,117.047 287.292,116.381 288,115.5C 288.75,116.126 289.584,116.626 290.5,117C 289.584,117.278 288.918,117.778 288.5,118.5 Z"/></g>
<g><path style="opacity:0.01" fill="#fbfcf8" d="M 104.5,119.5 C 105.203,121.629 106.203,123.629 107.5,125.5C 107.5,125.833 107.5,126.167 107.5,126.5C 106.504,126.414 105.671,126.748 105,127.5C 104.503,124.854 104.336,122.187 104.5,119.5 Z"/></g>
<g><path style="opacity:1" fill="#1e2f58" d="M 246.5,122.5 C 248.655,122.372 250.655,122.872 252.5,124C 250.574,124.422 249.574,125.589 249.5,127.5C 245.039,129.205 240.872,128.538 237,125.5C 236.722,126.416 236.222,127.082 235.5,127.5C 235.5,126.167 235.5,124.833 235.5,123.5C 239.275,124.198 242.942,123.865 246.5,122.5 Z"/></g>
<g><path style="opacity:1" fill="#14264e" d="M 285.5,117.5 C 284.797,119.716 283.464,121.549 281.5,123C 282.416,123.278 283.082,123.778 283.5,124.5C 280.833,125.167 278.167,125.833 275.5,126.5C 275.5,124.833 275.5,123.167 275.5,121.5C 277.527,121.662 279.527,121.495 281.5,121C 282.056,120.617 282.389,120.117 282.5,119.5C 283.167,119.5 283.5,119.167 283.5,118.5C 284.167,118.167 284.833,117.833 285.5,117.5 Z"/></g>
<g><path style="opacity:1" fill="#1d2c55" d="M 113.5,122.5 C 116.319,121.882 119.652,121.882 123.5,122.5C 123.5,123.833 123.5,125.167 123.5,126.5C 118.577,129.151 113.577,129.151 108.5,126.5C 108.5,125.833 108.167,125.5 107.5,125.5C 107.5,124.5 107.5,123.5 107.5,122.5C 108.458,122.047 109.292,121.381 110,120.5C 110.71,121.973 111.876,122.64 113.5,122.5 Z"/></g>
<g><path style="opacity:0.027" fill="#bcd8e8" d="M 125.5,123.5 C 125.833,123.5 126.167,123.5 126.5,123.5C 126.5,123.833 126.5,124.167 126.5,124.5C 126.5,125.167 126.167,125.5 125.5,125.5C 125.167,125.5 124.833,125.5 124.5,125.5C 124.833,124.833 125.167,124.167 125.5,123.5 Z"/></g>
<g><path style="opacity:0.011" fill="#f3f6f1" d="M 135.5,125.5 C 136.738,123.786 137.405,121.786 137.5,119.5C 138.552,119.351 139.552,119.517 140.5,120C 139.286,122.351 138.452,124.851 138,127.5C 137.333,126.167 136.667,126.167 136,127.5C 135.536,126.906 135.369,126.239 135.5,125.5 Z"/></g>
<g><path style="opacity:1" fill="#082353" d="M 187.5,122.5 C 187.833,123.833 188.167,125.167 188.5,126.5C 183.686,126.78 179.02,126.114 174.5,124.5C 175.083,122.998 175.916,121.665 177,120.5C 177.637,122.303 178.803,123.636 180.5,124.5C 182.51,122.829 184.843,122.162 187.5,122.5 Z"/></g>
<g><path style="opacity:0.012" fill="#fefffe" d="M 196.5,124.5 C 196.833,124.5 197.167,124.5 197.5,124.5C 197.315,125.17 196.981,125.17 196.5,124.5 Z"/></g>
<g><path style="opacity:0.02" fill="#f2f3f8" d="M 226.5,125.5 C 225.566,126.568 225.232,127.901 225.5,129.5C 224.236,127.228 224.402,124.895 226,122.5C 226.483,123.448 226.649,124.448 226.5,125.5 Z"/></g>
<g><path style="opacity:1" fill="#071f4f" d="M 228.5,121.5 C 229.156,122.278 229.989,122.944 231,123.5C 232.563,122.278 234.063,122.278 235.5,123.5C 235.5,124.833 235.5,126.167 235.5,127.5C 234.844,128.278 234.011,128.944 233,129.5C 231.423,128.449 229.923,127.449 228.5,126.5C 228.5,124.833 228.5,123.167 228.5,121.5 Z"/></g>
<g><path style="opacity:1" fill="#1f2c52" d="M 48.5,118.5 C 48.2444,121.598 47.5778,124.598 46.5,127.5C 39.6457,127.824 32.979,127.491 26.5,126.5C 26.5,125.167 26.5,123.833 26.5,122.5C 26.8333,122.5 27.1667,122.5 27.5,122.5C 27.2291,124.38 27.8958,125.713 29.5,126.5C 33.8461,126.666 38.1794,126.499 42.5,126C 42.1667,125.667 41.8333,125.333 41.5,125C 43.1944,123.065 44.8611,121.231 46.5,119.5C 47.2216,119.082 47.7216,118.416 48,117.5C 48.3988,117.728 48.5654,118.062 48.5,118.5 Z"/></g>
<g><path style="opacity:0.008" fill="#fefffe" d="M 78.5,125.5 C 78.8333,125.5 79.1667,125.5 79.5,125.5C 79.3147,126.17 78.9813,126.17 78.5,125.5 Z"/></g>
<g><path style="opacity:1" fill="#061d48" d="M 165.5,124.5 C 165.5,125.5 165.5,126.5 165.5,127.5C 157.167,127.5 148.833,127.5 140.5,127.5C 140.5,126.5 140.5,125.5 140.5,124.5C 142.5,124.167 144.5,123.833 146.5,123.5C 147.283,124.46 148.45,125.127 150,125.5C 153.286,125.299 153.786,124.465 151.5,123C 153.833,122.833 156.167,122.667 158.5,122.5C 161.269,122.529 163.603,123.195 165.5,124.5 Z"/></g>
<g><path style="opacity:0.008" fill="#fefffe" d="M 167.5,125.5 C 166.833,126.167 166.833,126.167 167.5,125.5 Z"/></g>
<g><path style="opacity:1" fill="#7d859d" d="M 227.5,121.5 C 227.833,121.5 228.167,121.5 228.5,121.5C 228.5,123.167 228.5,124.833 228.5,126.5C 227.833,127.167 227.167,127.833 226.5,128.5C 226.5,127.5 226.5,126.5 226.5,125.5C 227.434,124.432 227.768,123.099 227.5,121.5 Z"/></g>
<g><path style="opacity:1" fill="#5695e0" d="M 61.5,116.5 C 60.99,119.539 60.3234,122.539 59.5,125.5C 56.5118,127.273 53.1785,127.94 49.5,127.5C 49.5,126.167 49.5,124.833 49.5,123.5C 49.2594,121.102 49.9261,119.102 51.5,117.5C 51.4828,119.565 51.1495,121.565 50.5,123.5C 50.5,124.5 50.5,125.5 50.5,126.5C 52.8333,126.5 55.1667,126.5 57.5,126.5C 57.6287,124.784 57.962,123.117 58.5,121.5C 59.0652,119.58 60.0652,117.913 61.5,116.5 Z"/></g>
<g><path style="opacity:1" fill="#3095fe" d="M 58.5,120.5 C 58.5,120.833 58.5,121.167 58.5,121.5C 57.962,123.117 57.6287,124.784 57.5,126.5C 55.1667,126.5 52.8333,126.5 50.5,126.5C 50.5,125.5 50.5,124.5 50.5,123.5C 51.6477,124.895 52.6477,124.728 53.5,123C 52.2404,121.186 52.2404,119.353 53.5,117.5C 54.3081,117.808 54.9747,118.308 55.5,119C 55.1667,120 54.8333,121 54.5,122C 55,122.5 55.5,123 56,123.5C 56.8518,122.429 57.6851,121.429 58.5,120.5 Z"/></g>
<g><path style="opacity:0.004" fill="#fefffe" d="M 107.5,126.5 C 107.833,126.5 108.167,126.5 108.5,126.5C 108.315,127.17 107.981,127.17 107.5,126.5 Z"/></g>
<g><path style="opacity:1" fill="#2f385b" d="M 266.5,121.5 C 267.5,121.5 268.5,121.5 269.5,121.5C 269.714,123.144 269.38,124.644 268.5,126C 270.81,126.497 273.143,126.663 275.5,126.5C 278.167,125.833 280.833,125.167 283.5,124.5C 284.833,124.833 284.833,125.167 283.5,125.5C 279.253,128.254 274.587,129.088 269.5,128C 267.676,127.34 266.343,126.173 265.5,124.5C 266.404,123.791 266.737,122.791 266.5,121.5 Z"/></g>
<g><path style="opacity:0.249" fill="#b2b8c7" d="M 25.5,126.5 C 25.8333,126.5 26.1667,126.5 26.5,126.5C 32.979,127.491 39.6457,127.824 46.5,127.5C 43.1833,128.165 39.6833,128.499 36,128.5C 32.0982,128.488 28.5982,127.821 25.5,126.5 Z"/></g>
<g><path style="opacity:0.323" fill="#add1f0" d="M 49.5,123.5 C 49.5,124.833 49.5,126.167 49.5,127.5C 53.1785,127.94 56.5118,127.273 59.5,125.5C 59.5,126.5 59.5,127.5 59.5,128.5C 55.8333,128.5 52.1667,128.5 48.5,128.5C 48.2155,126.585 48.5489,124.919 49.5,123.5 Z"/></g>
<g><path style="opacity:0.251" fill="#acb3c1" d="M 76.5,125.5 C 76.8333,125.5 77.1667,125.5 77.5,125.5C 77.5,126.5 77.5,127.5 77.5,128.5C 74.1016,128.82 70.7683,128.487 67.5,127.5C 67.6236,126.893 67.9569,126.56 68.5,126.5C 71.1667,127.833 73.8333,127.833 76.5,126.5C 76.5,126.167 76.5,125.833 76.5,125.5 Z"/></g>
<g><path style="opacity:0.259" fill="#bbc1d1" d="M 101.5,120.5 C 102.473,122.948 102.806,125.615 102.5,128.5C 98.9581,128.813 95.6248,128.479 92.5,127.5C 95.5,127.5 98.5,127.5 101.5,127.5C 101.5,125.5 101.5,123.5 101.5,121.5C 101.5,121.167 101.5,120.833 101.5,120.5 Z"/></g>
<g><path style="opacity:0.251" fill="#a8afbf" d="M 134.5,125.5 C 134.5,126.5 134.5,127.5 134.5,128.5C 131.287,128.81 128.287,128.477 125.5,127.5C 128.855,127.909 131.855,127.242 134.5,125.5 Z"/></g>
<g><path style="opacity:0.254" fill="#adb3c4" d="M 140.5,124.5 C 140.5,125.5 140.5,126.5 140.5,127.5C 148.833,127.5 157.167,127.5 165.5,127.5C 157.016,128.493 148.349,128.826 139.5,128.5C 139.232,126.901 139.566,125.568 140.5,124.5 Z"/></g>
<g><path style="opacity:0.356" fill="#a7a9ba" d="M 283.5,126.5 C 285.948,127.473 288.615,127.806 291.5,127.5C 288.645,128.803 285.645,128.803 282.5,127.5C 282.624,126.893 282.957,126.56 283.5,126.5 Z"/></g>
<g><path style="opacity:0.008" fill="#fefffe" d="M 177.5,128.5 C 176.833,129.167 176.833,129.167 177.5,128.5 Z"/></g>
<g><path style="opacity:0.018" fill="#f8f9f9" d="M 236.5,128.5 C 237.5,128.5 238.5,128.5 239.5,128.5C 239.415,130.929 238.415,132.929 236.5,134.5C 236.08,132.674 236.08,130.674 236.5,128.5 Z"/></g>
<g><path style="opacity:0.004" fill="#fefffe" d="M 204.5,130.5 C 204.897,129.475 205.563,129.308 206.5,130C 205.906,130.464 205.239,130.631 204.5,130.5 Z"/></g>
<g><path style="opacity:1" fill="#223054" d="M 228.5,126.5 C 229.923,127.449 231.423,128.449 233,129.5C 234.011,128.944 234.844,128.278 235.5,127.5C 234.915,131.591 233.915,135.591 232.5,139.5C 229.572,140.484 226.572,140.817 223.5,140.5C 223.721,137.933 224.388,135.599 225.5,133.5C 225.5,132.167 225.5,130.833 225.5,129.5C 226.167,129.5 226.5,129.167 226.5,128.5C 227.167,127.833 227.833,127.167 228.5,126.5 Z"/></g>
<g><path style="opacity:1" fill="#12254f" d="M 307.5,119.5 C 307.721,122.067 308.388,124.401 309.5,126.5C 310.043,126.56 310.376,126.893 310.5,127.5C 309.121,131.566 307.788,135.566 306.5,139.5C 303.813,139.664 301.146,139.497 298.5,139C 299.252,138.329 299.586,137.496 299.5,136.5C 301.167,133.176 303.334,130.176 306,127.5C 306.495,125.527 306.662,123.527 306.5,121.5C 306.328,120.508 306.662,119.842 307.5,119.5 Z"/></g>
<g><path style="opacity:0.031" fill="#f1fffe" d="M 298.5,131.5 C 299.776,132.386 299.776,133.386 298.5,134.5C 297.913,133.767 297.913,132.767 298.5,131.5 Z"/></g>
<g><path style="opacity:0.011" fill="#fbfbff" d="M 221.5,134.5 C 222.376,134.369 223.043,134.702 223.5,135.5C 222.846,137.115 222.346,138.782 222,140.5C 221.505,138.527 221.338,136.527 221.5,134.5 Z"/></g>
<g><path style="opacity:1" fill="#082152" d="M 225.5,133.5 C 226.265,133.923 227.098,134.257 228,134.5C 229.3,133.293 230.8,132.626 232.5,132.5C 233.265,137.906 230.931,139.906 225.5,138.5C 225.5,136.833 225.5,135.167 225.5,133.5 Z"/></g>
<g><path style="opacity:0.875" fill="#616a7b" d="M 299.5,136.5 C 299.586,137.496 299.252,138.329 298.5,139C 301.146,139.497 303.813,139.664 306.5,139.5C 303.36,140.641 300.027,140.808 296.5,140C 297.163,138.482 298.163,137.315 299.5,136.5 Z"/></g>
<g><path style="opacity:0.008" fill="#fefffe" d="M 223.5,141.5 C 224.833,142.167 224.833,142.167 223.5,141.5 Z"/></g>
</svg>
