<?xml version="1.0" encoding="UTF-8"?>
<!DOCTYPE svg PUBLIC "-//W3C//DTD SVG 1.1//EN" "http://www.w3.org/Graphics/SVG/1.1/DTD/svg11.dtd">
<svg xmlns="http://www.w3.org/2000/svg" version="1.1" width="500px" height="500px" style="shape-rendering:geometricPrecision; text-rendering:geometricPrecision; image-rendering:optimizeQuality; fill-rule:evenodd; clip-rule:evenodd" xmlns:xlink="http://www.w3.org/1999/xlink">
<g><path style="opacity:0.686" fill="#f2827f" d="M 385.5,23.5 C 385.5,23.8333 385.5,24.1667 385.5,24.5C 381.131,24.4672 376.798,24.8005 372.5,25.5C 373.5,24.8333 374.5,24.1667 375.5,23.5C 378.885,22.372 382.219,22.372 385.5,23.5 Z"/></g>
<g><path style="opacity:0.216" fill="#fdbdbc" d="M 385.5,24.5 C 385.5,24.1667 385.5,23.8333 385.5,23.5C 389.16,23.1588 392.493,23.8255 395.5,25.5C 392.193,24.9492 388.86,24.6159 385.5,24.5 Z"/></g>
<g><path style="opacity:0.631" fill="#f5a0a3" d="M 375.5,23.5 C 374.5,24.1667 373.5,24.8333 372.5,25.5C 371.209,25.2627 370.209,25.596 369.5,26.5C 368.167,26.5 366.833,26.5 365.5,26.5C 368.505,24.7234 371.838,23.7234 375.5,23.5 Z"/></g>
<g><path style="opacity:0.529" fill="#f19c8c" d="M 295.5,27.5 C 278.5,27.5 261.5,27.5 244.5,27.5C 261.501,24.861 278.501,24.861 295.5,27.5 Z"/></g>
<g><path style="opacity:1" fill="#dc3b2c" d="M 385.5,24.5 C 388.86,24.6159 392.193,24.9492 395.5,25.5C 398.912,26.0421 401.912,27.3754 404.5,29.5C 404.833,30.1667 405.167,30.8333 405.5,31.5C 401.484,29.8294 397.484,28.1627 393.5,26.5C 385.696,25.9057 377.696,25.9057 369.5,26.5C 370.209,25.596 371.209,25.2627 372.5,25.5C 376.798,24.8005 381.131,24.4672 385.5,24.5 Z"/></g>
<g><path style="opacity:0.678" fill="#f8a196" d="M 244.5,27.5 C 242.833,28.1667 241.167,28.8333 239.5,29.5C 236.5,29.5 233.5,29.5 230.5,29.5C 234.919,28.0285 239.586,27.3618 244.5,27.5 Z"/></g>
<g><path style="opacity:1" fill="#fd2204" d="M 311.5,31.5 C 314.86,31.6159 318.193,31.9492 321.5,32.5C 323.099,32.2322 324.432,32.5655 325.5,33.5C 327.32,34.0627 328.653,35.2294 329.5,37C 327.125,40.8781 325.458,45.0447 324.5,49.5C 323.326,50.5137 322.66,51.847 322.5,53.5C 321.364,62.0884 321.198,70.7551 322,79.5C 322.21,81.0581 322.71,82.3915 323.5,83.5C 323.541,87.2364 324.874,90.2364 327.5,92.5C 327.229,94.3797 327.896,95.713 329.5,96.5C 330.338,96.8417 330.672,97.5084 330.5,98.5C 330.427,100.027 331.094,101.027 332.5,101.5C 332.738,103.404 333.738,104.738 335.5,105.5C 336.419,108.089 338.086,110.089 340.5,111.5C 341.5,112.167 342.5,112.833 343.5,113.5C 343.831,116.038 345.164,117.704 347.5,118.5C 347.5,119.5 347.5,120.5 347.5,121.5C 351.455,121.974 355.121,123.308 358.5,125.5C 358.291,126.086 357.957,126.586 357.5,127C 361.77,128.075 366.103,128.575 370.5,128.5C 370.5,129.5 370.5,130.5 370.5,131.5C 375.717,131.242 380.884,131.575 386,132.5C 391.5,129.658 397.333,127.491 403.5,126C 404.381,125.292 405.047,124.458 405.5,123.5C 406.167,123.5 406.833,123.5 407.5,123.5C 413.129,123.414 417.462,121.08 420.5,116.5C 424.671,117.985 426.338,116.652 425.5,112.5C 426.63,111.378 427.297,110.044 427.5,108.5C 427.5,108.167 427.5,107.833 427.5,107.5C 429.017,107.489 430.184,106.823 431,105.5C 435.237,108.372 439.403,111.372 443.5,114.5C 443.5,116.167 443.5,117.833 443.5,119.5C 444.5,119.5 445.5,119.5 446.5,119.5C 446.714,121.144 446.38,122.644 445.5,124C 446.449,124.617 447.282,124.451 448,123.5C 448.438,126.376 449.438,129.043 451,131.5C 451.333,130.833 451.667,130.167 452,129.5C 453.113,130.305 454.279,130.972 455.5,131.5C 456.167,131.833 456.833,132.167 457.5,132.5C 458.674,133.514 459.34,134.847 459.5,136.5C 459.427,138.027 460.094,139.027 461.5,139.5C 461.157,141.483 461.824,142.817 463.5,143.5C 463.157,145.483 463.824,146.817 465.5,147.5C 467.73,155.202 470.73,162.535 474.5,169.5C 475.256,173.767 476.589,177.767 478.5,181.5C 478.41,184.152 479.076,186.485 480.5,188.5C 480.448,190.903 480.781,193.236 481.5,195.5C 481.887,205.656 483.22,215.656 485.5,225.5C 485.5,228.167 485.5,230.833 485.5,233.5C 457.167,233.5 428.833,233.5 400.5,233.5C 400.737,232.209 400.404,231.209 399.5,230.5C 399.044,218 396.044,206.334 390.5,195.5C 389.82,190.478 387.82,186.144 384.5,182.5C 383.662,182.158 383.328,181.492 383.5,180.5C 381.942,175.636 379.276,171.636 375.5,168.5C 375.573,166.973 374.906,165.973 373.5,165.5C 372.879,161.915 370.879,159.581 367.5,158.5C 367.5,156.5 366.5,155.5 364.5,155.5C 364.5,155.167 364.5,154.833 364.5,154.5C 362.712,150.896 360.045,148.23 356.5,146.5C 355.089,144.086 353.089,142.419 350.5,141.5C 350.027,140.094 349.027,139.427 347.5,139.5C 346.738,137.738 345.404,136.738 343.5,136.5C 343.027,135.094 342.027,134.427 340.5,134.5C 340.158,131.645 338.491,130.145 335.5,130C 335.957,129.586 336.291,129.086 336.5,128.5C 334.257,127.526 331.924,127.192 329.5,127.5C 328.552,126.022 327.219,125.022 325.5,124.5C 325.5,123.5 325.5,122.5 325.5,121.5C 320.803,121.656 316.47,120.489 312.5,118C 313.579,115.957 315.246,114.624 317.5,114C 316.101,113.405 314.768,113.572 313.5,114.5C 312.808,113.975 312.308,113.308 312,112.5C 309.546,114.294 306.88,115.627 304,116.5C 301.218,115.528 298.385,114.695 295.5,114C 296.5,113.667 297.5,113.333 298.5,113C 278.067,111.849 257.734,112.515 237.5,115C 231.456,117.07 225.456,119.237 219.5,121.5C 217.944,120.453 216.277,119.786 214.5,119.5C 214.934,122.166 213.934,123.333 211.5,123C 210.941,122.275 210.608,121.442 210.5,120.5C 213.782,117.191 213.782,114.191 210.5,111.5C 209.719,112.729 209.219,114.062 209,115.5C 205.945,113.74 204.112,111.073 203.5,107.5C 202.583,106.873 201.583,106.539 200.5,106.5C 199.207,102.88 197.207,99.8798 194.5,97.5C 193.326,96.4863 192.66,95.153 192.5,93.5C 191.805,90.0846 190.138,87.4179 187.5,85.5C 186.326,84.4863 185.66,83.153 185.5,81.5C 185.573,79.9731 184.906,78.9731 183.5,78.5C 182.326,77.4863 181.66,76.153 181.5,74.5C 178.767,68.7019 175.767,63.0353 172.5,57.5C 172.326,55.139 171.993,52.8056 171.5,50.5C 175.683,49.6863 179.683,48.353 183.5,46.5C 185.198,47.6808 186.865,47.6808 188.5,46.5C 187.975,45.8076 187.308,45.3076 186.5,45C 189.361,44.4601 192.028,43.4601 194.5,42C 195.381,41.2917 196.047,40.4584 196.5,39.5C 197.167,39.5 197.833,39.5 198.5,39.5C 212.197,36.1606 225.864,32.8273 239.5,29.5C 263.616,27.6298 287.616,28.2965 311.5,31.5 Z"/></g>
<g><path style="opacity:0.439" fill="#f9b9b5" d="M 362.5,27.5 C 362.027,28.9063 361.027,29.573 359.5,29.5C 359.973,28.0937 360.973,27.427 362.5,27.5 Z"/></g>
<g><path style="opacity:1" fill="#e95137" d="M 244.5,27.5 C 261.5,27.5 278.5,27.5 295.5,27.5C 300.414,27.3618 305.081,28.0285 309.5,29.5C 310.167,30.1667 310.833,30.8333 311.5,31.5C 287.616,28.2965 263.616,27.6298 239.5,29.5C 241.167,28.8333 242.833,28.1667 244.5,27.5 Z"/></g>
<g><path style="opacity:0.4" fill="#faafa5" d="M 309.5,29.5 C 313.837,29.5841 317.837,30.5841 321.5,32.5C 318.193,31.9492 314.86,31.6159 311.5,31.5C 310.833,30.8333 310.167,30.1667 309.5,29.5 Z"/></g>
<g><path style="opacity:0.176" fill="#fbb6b6" d="M 404.5,29.5 C 406.027,29.427 407.027,30.0937 407.5,31.5C 407.167,31.5 406.833,31.5 406.5,31.5C 406.167,31.5 405.833,31.5 405.5,31.5C 405.167,30.8333 404.833,30.1667 404.5,29.5 Z"/></g>
<g><path style="opacity:0.635" fill="#fda391" d="M 225.5,30.5 C 223.095,31.7682 220.428,32.4349 217.5,32.5C 219.838,30.9605 222.505,30.2938 225.5,30.5 Z"/></g>
<g><path style="opacity:0.024" fill="#fab8b9" d="M 407.5,31.5 C 409.027,31.427 410.027,32.0937 410.5,33.5C 408.973,33.573 407.973,32.9063 407.5,31.5 Z"/></g>
<g><path style="opacity:1" fill="#ea4328" d="M 230.5,29.5 C 233.5,29.5 236.5,29.5 239.5,29.5C 225.864,32.8273 212.197,36.1606 198.5,39.5C 203.5,37.5 208.5,35.5 213.5,33.5C 214.568,32.5655 215.901,32.2322 217.5,32.5C 220.428,32.4349 223.095,31.7682 225.5,30.5C 226.919,29.5489 228.585,29.2155 230.5,29.5 Z"/></g>
<g><path style="opacity:1" fill="#d12f29" d="M 406.5,31.5 C 406.833,31.5 407.167,31.5 407.5,31.5C 407.973,32.9063 408.973,33.573 410.5,33.5C 411.5,33.8333 412.167,34.5 412.5,35.5C 412.5,36.1667 412.5,36.8333 412.5,37.5C 411.176,36.0654 409.509,35.0654 407.5,34.5C 406.614,33.675 406.281,32.675 406.5,31.5 Z"/></g>
<g><path style="opacity:0.718" fill="#f8a494" d="M 213.5,33.5 C 208.5,35.5 203.5,37.5 198.5,39.5C 197.833,39.5 197.167,39.5 196.5,39.5C 195.833,39.5 195.167,39.5 194.5,39.5C 200.4,36.436 206.733,34.436 213.5,33.5 Z"/></g>
<g><path style="opacity:0.914" fill="#ef8383" d="M 359.5,29.5 C 354.913,33.7481 350.246,38.0814 345.5,42.5C 348.885,36.7815 353.552,32.4481 359.5,29.5 Z"/></g>
<g><path style="opacity:0.78" fill="#f29d9e" d="M 412.5,35.5 C 414.914,36.9108 416.581,38.9108 417.5,41.5C 415.833,40.1667 414.167,38.8333 412.5,37.5C 412.5,36.8333 412.5,36.1667 412.5,35.5 Z"/></g>
<g><path style="opacity:0.118" fill="#fabeb1" d="M 325.5,33.5 C 328.056,33.1322 330.056,33.9655 331.5,36C 329.527,40.7813 327.194,45.2813 324.5,49.5C 325.458,45.0447 327.125,40.8781 329.5,37C 328.653,35.2294 327.32,34.0627 325.5,33.5 Z"/></g>
<g><path style="opacity:0.373" fill="#faaa9e" d="M 417.5,41.5 C 418.906,41.9731 419.573,42.9731 419.5,44.5C 418.094,44.0269 417.427,43.0269 417.5,41.5 Z"/></g>
<g><path style="opacity:0.271" fill="#fdb7b5" d="M 345.5,42.5 C 345.5,43.1667 345.5,43.8333 345.5,44.5C 344.833,44.8333 344.167,45.1667 343.5,45.5C 343.427,43.9731 344.094,42.9731 345.5,42.5 Z"/></g>
<g><path style="opacity:0.847" fill="#f18c7d" d="M 194.5,39.5 C 188.356,43.2305 181.689,45.8971 174.5,47.5C 180.692,43.8752 187.359,41.2085 194.5,39.5 Z"/></g>
<g><path style="opacity:1" fill="#eb2c12" d="M 194.5,39.5 C 195.167,39.5 195.833,39.5 196.5,39.5C 196.047,40.4584 195.381,41.2917 194.5,42C 192.028,43.4601 189.361,44.4601 186.5,45C 187.308,45.3076 187.975,45.8076 188.5,46.5C 186.865,47.6808 185.198,47.6808 183.5,46.5C 179.683,48.353 175.683,49.6863 171.5,50.5C 171.993,52.8056 172.326,55.139 172.5,57.5C 172.167,57.5 171.833,57.5 171.5,57.5C 170.986,55.6336 170.32,53.8003 169.5,52C 169.743,51.0979 170.077,50.2646 170.5,49.5C 172.483,49.8432 173.817,49.1765 174.5,47.5C 181.689,45.8971 188.356,43.2305 194.5,39.5 Z"/></g>
<g><path style="opacity:0.271" fill="#f9adac" d="M 419.5,44.5 C 420.906,44.9731 421.573,45.9731 421.5,47.5C 420.094,47.0269 419.427,46.0269 419.5,44.5 Z"/></g>
<g><path style="opacity:0.937" fill="#f08e80" d="M 174.5,47.5 C 173.817,49.1765 172.483,49.8432 170.5,49.5C 171.514,48.3263 172.847,47.6596 174.5,47.5 Z"/></g>
<g><path style="opacity:1" fill="#e70405" d="M 405.5,31.5 C 405.833,31.5 406.167,31.5 406.5,31.5C 406.281,32.675 406.614,33.675 407.5,34.5C 409.509,35.0654 411.176,36.0654 412.5,37.5C 414.167,38.8333 415.833,40.1667 417.5,41.5C 417.427,43.0269 418.094,44.0269 419.5,44.5C 419.427,46.0269 420.094,47.0269 421.5,47.5C 422.074,51.3246 423.241,54.9913 425,58.5C 425.5,64.8246 425.666,71.1579 425.5,77.5C 425.5,77.8333 425.5,78.1667 425.5,78.5C 423.286,82.6038 421.286,86.9371 419.5,91.5C 418.094,91.9731 417.427,92.9731 417.5,94.5C 415.413,95.5846 414.08,97.2512 413.5,99.5C 410.545,101.122 407.878,103.122 405.5,105.5C 403.819,107.008 401.819,108.008 399.5,108.5C 397.708,108.366 396.042,108.699 394.5,109.5C 387.524,110.232 380.524,110.565 373.5,110.5C 372.209,110.737 371.209,110.404 370.5,109.5C 366.96,107.077 362.96,105.744 358.5,105.5C 358.027,104.094 357.027,103.427 355.5,103.5C 354.089,101.086 352.089,99.4194 349.5,98.5C 349.262,96.5956 348.262,95.2623 346.5,94.5C 346.573,92.9731 345.906,91.9731 344.5,91.5C 343.5,88.8333 342.5,86.1667 341.5,83.5C 340.412,73.8676 340.245,64.2009 341,54.5C 342.802,51.27 344.302,47.9367 345.5,44.5C 345.5,43.8333 345.5,43.1667 345.5,42.5C 350.246,38.0814 354.913,33.7481 359.5,29.5C 361.027,29.573 362.027,28.9063 362.5,27.5C 363.391,26.8902 364.391,26.5569 365.5,26.5C 366.833,26.5 368.167,26.5 369.5,26.5C 377.696,25.9057 385.696,25.9057 393.5,26.5C 397.484,28.1627 401.484,29.8294 405.5,31.5 Z"/></g>
<g><path style="opacity:0.62" fill="#f9c4bb" d="M 170.5,49.5 C 170.077,50.2646 169.743,51.0979 169.5,52C 170.32,53.8003 170.986,55.6336 171.5,57.5C 169.694,55.9106 168.361,53.9106 167.5,51.5C 168.005,50.0815 169.005,49.4148 170.5,49.5 Z"/></g>
<g><path style="opacity:0.506" fill="#fd9988" d="M 324.5,49.5 C 324.567,50.9587 324.234,52.2921 323.5,53.5C 323.167,53.5 322.833,53.5 322.5,53.5C 322.66,51.847 323.326,50.5137 324.5,49.5 Z"/></g>
<g><path style="opacity:0.337" fill="#f8a8a9" d="M 342.5,47.5 C 342.245,49.9674 341.245,51.9674 339.5,53.5C 339.755,51.0326 340.755,49.0326 342.5,47.5 Z"/></g>
<g><path style="opacity:0.302" fill="#fabcba" d="M 339.5,53.5 C 339.326,55.861 338.993,58.1944 338.5,60.5C 338.167,60.5 337.833,60.5 337.5,60.5C 337.41,57.8478 338.076,55.5145 339.5,53.5 Z"/></g>
<g><path style="opacity:0.333" fill="#fad8a9" d="M 154.5,61.5 C 153.127,61.3433 151.793,61.51 150.5,62C 148.609,63.4424 146.609,64.6091 144.5,65.5C 146.845,62.902 149.678,60.902 153,59.5C 154.03,59.8361 154.53,60.5028 154.5,61.5 Z"/></g>
<g><path style="opacity:0.373" fill="#fdb6a7" d="M 171.5,57.5 C 171.833,57.5 172.167,57.5 172.5,57.5C 175.767,63.0353 178.767,68.7019 181.5,74.5C 177.414,69.3351 174.08,63.6685 171.5,57.5 Z"/></g>
<g><path style="opacity:1" fill="#fd8505" d="M 154.5,61.5 C 155.338,61.8417 155.672,62.5084 155.5,63.5C 155.427,65.0269 156.094,66.0269 157.5,66.5C 157.241,68.9893 158.241,70.656 160.5,71.5C 161.674,72.5137 162.34,73.847 162.5,75.5C 162.427,77.0269 163.094,78.0269 164.5,78.5C 164.232,80.099 164.566,81.4324 165.5,82.5C 166.06,84.8008 166.56,87.1341 167,89.5C 167.77,88.4019 168.603,88.4019 169.5,89.5C 170.167,89.8333 170.833,90.1667 171.5,90.5C 171.209,95.5959 173.209,99.2626 177.5,101.5C 177.427,103.027 178.094,104.027 179.5,104.5C 180.674,105.514 181.34,106.847 181.5,108.5C 181.427,110.027 182.094,111.027 183.5,111.5C 183.166,114.491 184.166,116.824 186.5,118.5C 186.624,122.383 188.291,125.383 191.5,127.5C 192.167,127.833 192.833,128.167 193.5,128.5C 194.674,129.514 195.34,130.847 195.5,132.5C 195.657,133.873 195.49,135.207 195,136.5C 193.008,137.328 191.508,138.661 190.5,140.5C 190.167,141.5 189.5,142.167 188.5,142.5C 185.112,143.348 182.779,145.348 181.5,148.5C 181.167,148.5 180.833,148.5 180.5,148.5C 177.833,149.167 176.167,150.833 175.5,153.5C 174.833,154.833 173.833,155.833 172.5,156.5C 170.086,157.911 168.419,159.911 167.5,162.5C 166.094,162.973 165.427,163.973 165.5,165.5C 164.094,165.973 163.427,166.973 163.5,168.5C 163.068,169.71 162.401,170.71 161.5,171.5C 160.094,171.973 159.427,172.973 159.5,174.5C 158.094,174.973 157.427,175.973 157.5,177.5C 152.933,182.635 149.933,188.635 148.5,195.5C 146.619,197.93 145.285,200.596 144.5,203.5C 142.87,205.026 142.037,207.026 142,209.5C 141.667,209.167 141.333,208.833 141,208.5C 138.982,220.125 137.482,231.792 136.5,243.5C 136.509,247.893 137.176,251.893 138.5,255.5C 138.335,258.518 138.502,261.518 139,264.5C 139.815,270.143 141.315,275.476 143.5,280.5C 144.759,285.264 146.759,289.597 149.5,293.5C 149.166,296.491 150.166,298.824 152.5,300.5C 152.031,303.393 153.031,305.393 155.5,306.5C 155.407,312.665 158.073,316.999 163.5,319.5C 164.004,323.92 166.337,326.92 170.5,328.5C 173.833,333.833 178.167,338.167 183.5,341.5C 184.833,342.5 186.167,343.5 187.5,344.5C 188.638,347.086 190.638,348.753 193.5,349.5C 193.904,350.756 194.571,351.923 195.5,353C 194.257,355.575 192.924,358.075 191.5,360.5C 188.482,361.855 187.149,364.188 187.5,367.5C 185.066,371.272 183.066,375.272 181.5,379.5C 179.896,380.287 179.229,381.62 179.5,383.5C 177.469,384.539 176.136,386.205 175.5,388.5C 174.033,387.708 172.7,387.708 171.5,388.5C 172.374,390.747 172.708,393.08 172.5,395.5C 170.259,396.3 169.259,397.966 169.5,400.5C 166.479,403.206 164.479,406.539 163.5,410.5C 161.896,411.287 161.229,412.62 161.5,414.5C 160.094,414.973 159.427,415.973 159.5,417.5C 157.896,418.287 157.229,419.62 157.5,421.5C 155.952,421.821 155.285,422.821 155.5,424.5C 154.518,425.141 153.518,425.807 152.5,426.5C 151.583,425.873 150.583,425.539 149.5,425.5C 149.027,424.094 148.027,423.427 146.5,423.5C 146.027,422.094 145.027,421.427 143.5,421.5C 142.738,419.738 141.404,418.738 139.5,418.5C 138.738,416.738 137.404,415.738 135.5,415.5C 134.415,413.413 132.749,412.08 130.5,411.5C 129.089,409.086 127.089,407.419 124.5,406.5C 119.833,401.167 114.833,396.167 109.5,391.5C 109.512,388.858 108.179,387.525 105.5,387.5C 104.92,385.251 103.587,383.585 101.5,382.5C 100.5,382.167 99.8333,381.5 99.5,380.5C 99.4456,378.368 98.4456,377.035 96.5,376.5C 95.0891,370.304 91.7558,365.637 86.5,362.5C 86.573,360.973 85.9063,359.973 84.5,359.5C 83.6618,359.158 83.3284,358.492 83.5,357.5C 83.1298,354.733 81.7964,352.733 79.5,351.5C 79.5,351.167 79.5,350.833 79.5,350.5C 78.3656,347.099 77.0323,343.766 75.5,340.5C 75.2623,337.931 73.929,336.265 71.5,335.5C 71.5,335.167 71.5,334.833 71.5,334.5C 70.9579,331.088 69.6246,328.088 67.5,325.5C 67.2671,322.458 66.2671,319.792 64.5,317.5C 64.2671,314.458 63.2671,311.792 61.5,309.5C 61.6621,307.473 61.4955,305.473 61,303.5C 60.6174,302.944 60.1174,302.611 59.5,302.5C 59.3259,300.139 58.9926,297.806 58.5,295.5C 60.4147,295.784 62.0813,295.451 63.5,294.5C 65.9479,293.527 68.6146,293.194 71.5,293.5C 78.1946,293.243 84.5279,291.576 90.5,288.5C 91.4252,287.643 92.0919,286.643 92.5,285.5C 93.5,285.5 94.5,285.5 95.5,285.5C 96.9217,285.291 98.255,284.791 99.5,284C 103.91,280.453 107.243,276.286 109.5,271.5C 109.5,270.833 109.5,270.167 109.5,269.5C 110.906,269.027 111.573,268.027 111.5,266.5C 113.408,265.514 114.408,263.848 114.5,261.5C 115.458,261.047 116.292,260.381 117,259.5C 118.15,255.888 118.983,252.222 119.5,248.5C 119.325,246.379 119.659,244.379 120.5,242.5C 121.653,236.347 121.82,230.014 121,223.5C 120.722,222.584 120.222,221.918 119.5,221.5C 120.047,216.965 118.714,213.298 115.5,210.5C 115.771,208.62 115.104,207.287 113.5,206.5C 113.649,205.448 113.483,204.448 113,203.5C 111.383,201.237 109.55,199.237 107.5,197.5C 106.5,197.167 105.833,196.5 105.5,195.5C 104.652,192.112 102.652,189.779 99.5,188.5C 99.0269,187.094 98.0269,186.427 96.5,186.5C 95.656,184.241 93.9893,183.241 91.5,183.5C 91.0269,182.094 90.0269,181.427 88.5,181.5C 88.1667,181.5 87.8333,181.5 87.5,181.5C 86.8166,179.824 85.4832,179.157 83.5,179.5C 82.4097,178.143 81.0764,177.143 79.5,176.5C 77.5254,174.91 75.1921,173.743 72.5,173C 70.5273,172.505 68.5273,172.338 66.5,172.5C 66.281,171.325 66.6143,170.325 67.5,169.5C 71.3813,167.973 72.048,165.807 69.5,163C 69.6667,162.167 69.8333,161.333 70,160.5C 71.6461,159.221 72.8128,157.555 73.5,155.5C 74.7202,156.711 75.8869,156.711 77,155.5C 76.7468,152.867 76.7468,150.2 77,147.5C 78.5909,144.648 79.9242,141.648 81,138.5C 81.2492,139.624 81.7492,140.624 82.5,141.5C 82.8333,141.167 83.1667,140.833 83.5,140.5C 83.6697,136.191 85.3364,132.691 88.5,130C 87.2888,129.107 87.2888,128.274 88.5,127.5C 89.1667,128.167 89.8333,128.833 90.5,129.5C 91.2432,128.092 92.0766,126.759 93,125.5C 93.1805,123.512 93.0138,121.512 92.5,119.5C 95.4701,119.254 96.8034,117.588 96.5,114.5C 97.8333,114.5 99.1667,114.5 100.5,114.5C 100.5,112.5 100.5,110.5 100.5,108.5C 113.232,92.1004 127.899,77.767 144.5,65.5C 146.609,64.6091 148.609,63.4424 150.5,62C 151.793,61.51 153.127,61.3433 154.5,61.5 Z"/></g>
<g><path style="opacity:0.298" fill="#fcdda2" d="M 155.5,63.5 C 156.906,63.9731 157.573,64.9731 157.5,66.5C 156.094,66.0269 155.427,65.0269 155.5,63.5 Z"/></g>
<g><path style="opacity:0.084" fill="#fbc9c0" d="M 322.5,53.5 C 322.833,53.5 323.167,53.5 323.5,53.5C 322.167,63.5 322.167,73.5 323.5,83.5C 322.71,82.3915 322.21,81.0581 322,79.5C 321.198,70.7551 321.364,62.0884 322.5,53.5 Z"/></g>
<g><path style="opacity:0.705" fill="#f5908b" d="M 337.5,60.5 C 337.833,60.5 338.167,60.5 338.5,60.5C 338.326,67.5352 338.659,74.5352 339.5,81.5C 336.79,74.7976 336.123,67.7976 337.5,60.5 Z"/></g>
<g><path style="opacity:1" fill="#db211d" d="M 345.5,44.5 C 344.302,47.9367 342.802,51.27 341,54.5C 340.245,64.2009 340.412,73.8676 341.5,83.5C 340.833,83.1667 340.167,82.8333 339.5,82.5C 339.5,82.1667 339.5,81.8333 339.5,81.5C 338.659,74.5352 338.326,67.5352 338.5,60.5C 338.993,58.1944 339.326,55.861 339.5,53.5C 341.245,51.9674 342.245,49.9674 342.5,47.5C 342.328,46.5084 342.662,45.8417 343.5,45.5C 344.167,45.1667 344.833,44.8333 345.5,44.5 Z"/></g>
<g><path style="opacity:0.478" fill="#f5a7a6" d="M 421.5,47.5 C 427.395,56.9553 428.728,66.9553 425.5,77.5C 425.666,71.1579 425.5,64.8246 425,58.5C 423.241,54.9913 422.074,51.3246 421.5,47.5 Z"/></g>
<g><path style="opacity:1" fill="#fbc07e" d="M 157.5,66.5 C 158.89,67.8993 159.89,69.5659 160.5,71.5C 158.241,70.656 157.241,68.9893 157.5,66.5 Z"/></g>
<g><path style="opacity:0.298" fill="#f9ce95" d="M 144.5,65.5 C 127.899,77.767 113.232,92.1004 100.5,108.5C 98.8333,109.833 97.1667,111.167 95.5,112.5C 108.918,93.7473 125.252,78.0806 144.5,65.5 Z"/></g>
<g><path style="opacity:0.263" fill="#ffe0b2" d="M 162.5,75.5 C 163.906,75.9731 164.573,76.9731 164.5,78.5C 163.094,78.0269 162.427,77.0269 162.5,75.5 Z"/></g>
<g><path style="opacity:0.145" fill="#ffc9c1" d="M 183.5,78.5 C 184.906,78.9731 185.573,79.9731 185.5,81.5C 184.094,81.0269 183.427,80.0269 183.5,78.5 Z"/></g>
<g><path style="opacity:0.161" fill="#fad39b" d="M 164.5,78.5 C 165.89,79.8993 166.89,81.5659 167.5,83.5C 166.833,83.1667 166.167,82.8333 165.5,82.5C 164.566,81.4324 164.232,80.099 164.5,78.5 Z"/></g>
<g><path style="opacity:0.898" fill="#f7a690" d="M 187.5,85.5 C 190.138,87.4179 191.805,90.0846 192.5,93.5C 190.347,91.2063 188.68,88.5396 187.5,85.5 Z"/></g>
<g><path style="opacity:0.894" fill="#f69b8b" d="M 323.5,83.5 C 325.204,86.2558 326.537,89.2558 327.5,92.5C 324.874,90.2364 323.541,87.2364 323.5,83.5 Z"/></g>
<g><path style="opacity:0.337" fill="#fca9ad" d="M 339.5,82.5 C 340.167,82.8333 340.833,83.1667 341.5,83.5C 342.5,86.1667 343.5,88.8333 344.5,91.5C 342.076,88.9922 340.41,85.9922 339.5,82.5 Z"/></g>
<g><path style="opacity:0.2" fill="#fec0b8" d="M 425.5,78.5 C 424.82,83.5224 422.82,87.8557 419.5,91.5C 421.286,86.9371 423.286,82.6038 425.5,78.5 Z"/></g>
<g><path style="opacity:1" fill="#f49a3b" d="M 165.5,82.5 C 166.167,82.8333 166.833,83.1667 167.5,83.5C 168.674,84.5137 169.34,85.847 169.5,87.5C 169.5,88.1667 169.5,88.8333 169.5,89.5C 168.603,88.4019 167.77,88.4019 167,89.5C 166.56,87.1341 166.06,84.8008 165.5,82.5 Z"/></g>
<g><path style="opacity:0.224" fill="#fee4b5" d="M 169.5,87.5 C 170.906,87.9731 171.573,88.9731 171.5,90.5C 170.833,90.1667 170.167,89.8333 169.5,89.5C 169.5,88.8333 169.5,88.1667 169.5,87.5 Z"/></g>
<g><path style="opacity:0.031" fill="#ffc1c0" d="M 344.5,91.5 C 345.906,91.9731 346.573,92.9731 346.5,94.5C 345.094,94.0269 344.427,93.0269 344.5,91.5 Z"/></g>
<g><path style="opacity:0.035" fill="#ffd6d4" d="M 419.5,91.5 C 419.573,93.0269 418.906,94.0269 417.5,94.5C 417.427,92.9731 418.094,91.9731 419.5,91.5 Z"/></g>
<g><path style="opacity:0.024" fill="#fac4ba" d="M 327.5,92.5 C 328.674,93.5137 329.34,94.847 329.5,96.5C 327.896,95.713 327.229,94.3797 327.5,92.5 Z"/></g>
<g><path style="opacity:0.027" fill="#ffcac6" d="M 346.5,94.5 C 348.262,95.2623 349.262,96.5956 349.5,98.5C 347.738,97.7377 346.738,96.4044 346.5,94.5 Z"/></g>
<g><path style="opacity:1" fill="#f4a95d" d="M 171.5,90.5 C 174.258,93.678 176.258,97.3447 177.5,101.5C 173.209,99.2626 171.209,95.5959 171.5,90.5 Z"/></g>
<g><path style="opacity:0.922" fill="#faa496" d="M 194.5,97.5 C 197.207,99.8798 199.207,102.88 200.5,106.5C 200.5,106.833 200.5,107.167 200.5,107.5C 198.012,104.534 196.012,101.201 194.5,97.5 Z"/></g>
<g><path style="opacity:0.035" fill="#ffd3cd" d="M 417.5,94.5 C 416.92,96.7488 415.587,98.4154 413.5,99.5C 414.08,97.2512 415.413,95.5846 417.5,94.5 Z"/></g>
<g><path style="opacity:0.667" fill="#fb9f9d" d="M 349.5,98.5 C 352.089,99.4194 354.089,101.086 355.5,103.5C 352.911,102.581 350.911,100.914 349.5,98.5 Z"/></g>
<g><path style="opacity:0.357" fill="#fdb99d" d="M 330.5,98.5 C 331.906,98.9731 332.573,99.9731 332.5,101.5C 331.094,101.027 330.427,100.027 330.5,98.5 Z"/></g>
<g><path style="opacity:0.827" fill="#f7b0a0" d="M 438.5,106.5 C 436.519,104.856 434.519,103.19 432.5,101.5C 431.145,103.521 429.479,105.188 427.5,106.5C 428.761,103.901 430.427,101.568 432.5,99.5C 435.266,101.259 437.266,103.593 438.5,106.5 Z"/></g>
<g><path style="opacity:0.286" fill="#fedda7" d="M 177.5,101.5 C 178.906,101.973 179.573,102.973 179.5,104.5C 178.094,104.027 177.427,103.027 177.5,101.5 Z"/></g>
<g><path style="opacity:0.439" fill="#fbb696" d="M 332.5,101.5 C 334.262,102.262 335.262,103.596 335.5,105.5C 333.738,104.738 332.738,103.404 332.5,101.5 Z"/></g>
<g><path style="opacity:0.133" fill="#fec8c4" d="M 413.5,99.5 C 411.687,102.647 409.02,104.647 405.5,105.5C 407.878,103.122 410.545,101.122 413.5,99.5 Z"/></g>
<g><path style="opacity:0.314" fill="#faabab" d="M 355.5,103.5 C 357.027,103.427 358.027,104.094 358.5,105.5C 356.973,105.573 355.973,104.906 355.5,103.5 Z"/></g>
<g><path style="opacity:1" fill="#ef3017" d="M 438.5,106.5 C 439.419,109.089 441.086,111.089 443.5,112.5C 443.5,113.167 443.5,113.833 443.5,114.5C 439.403,111.372 435.237,108.372 431,105.5C 430.184,106.823 429.017,107.489 427.5,107.5C 427.5,107.167 427.5,106.833 427.5,106.5C 429.479,105.188 431.145,103.521 432.5,101.5C 434.519,103.19 436.519,104.856 438.5,106.5 Z"/></g>
<g><path style="opacity:1" fill="#d8453b" d="M 358.5,105.5 C 362.96,105.744 366.96,107.077 370.5,109.5C 369.167,109.5 367.833,109.5 366.5,109.5C 363.515,108.674 360.849,107.341 358.5,105.5 Z"/></g>
<g><path style="opacity:0.431" fill="#fbc1af" d="M 335.5,105.5 C 337.914,106.911 339.581,108.911 340.5,111.5C 338.086,110.089 336.419,108.089 335.5,105.5 Z"/></g>
<g><path style="opacity:0.718" fill="#f0928b" d="M 399.5,108.5 C 398.22,109.931 396.553,110.598 394.5,110.5C 394.5,110.167 394.5,109.833 394.5,109.5C 396.042,108.699 397.708,108.366 399.5,108.5 Z"/></g>
<g><path style="opacity:0.627" fill="#f5a9a4" d="M 366.5,109.5 C 367.833,109.5 369.167,109.5 370.5,109.5C 371.209,110.404 372.209,110.737 373.5,110.5C 373.5,110.833 373.5,111.167 373.5,111.5C 370.848,111.59 368.515,110.924 366.5,109.5 Z"/></g>
<g><path style="opacity:0.294" fill="#fcdda1" d="M 181.5,108.5 C 182.906,108.973 183.573,109.973 183.5,111.5C 182.094,111.027 181.427,110.027 181.5,108.5 Z"/></g>
<g><path style="opacity:0.988" fill="#e96f67" d="M 394.5,109.5 C 394.5,109.833 394.5,110.167 394.5,110.5C 387.672,112.643 380.672,112.976 373.5,111.5C 373.5,111.167 373.5,110.833 373.5,110.5C 380.524,110.565 387.524,110.232 394.5,109.5 Z"/></g>
<g><path style="opacity:0.431" fill="#fba99d" d="M 427.5,106.5 C 427.5,106.833 427.5,107.167 427.5,107.5C 427.5,107.833 427.5,108.167 427.5,108.5C 424.767,111.239 421.767,113.573 418.5,115.5C 421.167,112.167 424.167,109.167 427.5,106.5 Z"/></g>
<g><path style="opacity:0.161" fill="#ffcbc1" d="M 201.5,109.5 C 203.25,110.659 204.25,112.326 204.5,114.5C 202.75,113.341 201.75,111.674 201.5,109.5 Z"/></g>
<g><path style="opacity:0.227" fill="#fec1ac" d="M 438.5,106.5 C 440.914,107.911 442.581,109.911 443.5,112.5C 441.086,111.089 439.419,109.089 438.5,106.5 Z"/></g>
<g><path style="opacity:0.533" fill="#fcbba2" d="M 443.5,112.5 C 444.906,112.973 445.573,113.973 445.5,115.5C 444.833,115.167 444.167,114.833 443.5,114.5C 443.5,113.833 443.5,113.167 443.5,112.5 Z"/></g>
<g><path style="opacity:1" fill="#f7b777" d="M 183.5,111.5 C 185.588,113.336 186.921,115.669 187.5,118.5C 187.167,118.5 186.833,118.5 186.5,118.5C 184.166,116.824 183.166,114.491 183.5,111.5 Z"/></g>
<g><path style="opacity:1" fill="#fa9382" d="M 343.5,113.5 C 346.473,115.147 349.14,117.147 351.5,119.5C 350.167,119.167 348.833,118.833 347.5,118.5C 345.164,117.704 343.831,116.038 343.5,113.5 Z"/></g>
<g><path style="opacity:0.529" fill="#f6a79e" d="M 418.5,115.5 C 418.027,116.906 417.027,117.573 415.5,117.5C 415.973,116.094 416.973,115.427 418.5,115.5 Z"/></g>
<g><path style="opacity:0.427" fill="#fbcc94" d="M 95.5,112.5 C 95.031,115.643 93.3644,117.977 90.5,119.5C 91.7859,116.883 93.4525,114.55 95.5,112.5 Z"/></g>
<g><path style="opacity:0.027" fill="#fdc3bb" d="M 205.5,116.5 C 206.906,116.973 207.573,117.973 207.5,119.5C 206.094,119.027 205.427,118.027 205.5,116.5 Z"/></g>
<g><path style="opacity:0.616" fill="#f9a59d" d="M 415.5,117.5 C 415.027,118.906 414.027,119.573 412.5,119.5C 412.973,118.094 413.973,117.427 415.5,117.5 Z"/></g>
<g><path style="opacity:0.196" fill="#fcc0ad" d="M 445.5,115.5 C 447.587,116.585 448.92,118.251 449.5,120.5C 447.413,119.415 446.08,117.749 445.5,115.5 Z"/></g>
<g><path style="opacity:0.38" fill="#fbaaa1" d="M 351.5,119.5 C 353.153,119.66 354.486,120.326 355.5,121.5C 353.62,121.771 352.287,121.104 351.5,119.5 Z"/></g>
<g><path style="opacity:0.22" fill="#ffdcb3" d="M 90.5,119.5 C 90.2503,121.674 89.2503,123.341 87.5,124.5C 87.7497,122.326 88.7497,120.659 90.5,119.5 Z"/></g>
<g><path style="opacity:1" fill="#f39d44" d="M 186.5,118.5 C 186.833,118.5 187.167,118.5 187.5,118.5C 189.083,120.663 190.416,122.996 191.5,125.5C 191.5,126.167 191.5,126.833 191.5,127.5C 188.291,125.383 186.624,122.383 186.5,118.5 Z"/></g>
<g><path style="opacity:1" fill="#f14326" d="M 200.5,106.5 C 201.583,106.539 202.583,106.873 203.5,107.5C 204.112,111.073 205.945,113.74 209,115.5C 209.219,114.062 209.719,112.729 210.5,111.5C 213.782,114.191 213.782,117.191 210.5,120.5C 210.608,121.442 210.941,122.275 211.5,123C 213.934,123.333 214.934,122.166 214.5,119.5C 216.277,119.786 217.944,120.453 219.5,121.5C 225.456,119.237 231.456,117.07 237.5,115C 257.734,112.515 278.067,111.849 298.5,113C 297.5,113.333 296.5,113.667 295.5,114C 298.385,114.695 301.218,115.528 304,116.5C 306.88,115.627 309.546,114.294 312,112.5C 312.308,113.308 312.808,113.975 313.5,114.5C 314.768,113.572 316.101,113.405 317.5,114C 315.246,114.624 313.579,115.957 312.5,118C 316.47,120.489 320.803,121.656 325.5,121.5C 325.5,122.5 325.5,123.5 325.5,124.5C 324.167,124.5 322.833,124.5 321.5,124.5C 318.808,121.819 315.475,120.486 311.5,120.5C 309.901,120.768 308.568,120.434 307.5,119.5C 305.562,117.837 303.228,117.171 300.5,117.5C 298.162,115.96 295.495,115.294 292.5,115.5C 292.167,115.5 291.833,115.5 291.5,115.5C 287.79,113.864 283.79,113.198 279.5,113.5C 270.161,113.334 260.827,113.5 251.5,114C 250.584,114.278 249.918,114.778 249.5,115.5C 249.167,115.5 248.833,115.5 248.5,115.5C 240.452,116.095 232.785,118.095 225.5,121.5C 222.47,123.403 219.137,124.737 215.5,125.5C 213.142,125.747 211.142,125.081 209.5,123.5C 208.326,122.486 207.66,121.153 207.5,119.5C 207.573,117.973 206.906,116.973 205.5,116.5C 204.662,116.158 204.328,115.492 204.5,114.5C 204.25,112.326 203.25,110.659 201.5,109.5C 200.662,109.158 200.328,108.492 200.5,107.5C 200.5,107.167 200.5,106.833 200.5,106.5 Z"/></g>
<g><path style="opacity:0.788" fill="#f79d88" d="M 311.5,120.5 C 315.475,120.486 318.808,121.819 321.5,124.5C 317.873,123.679 314.54,122.346 311.5,120.5 Z"/></g>
<g><path style="opacity:0.071" fill="#fcc8b1" d="M 248.5,115.5 C 240.979,117.631 233.312,119.631 225.5,121.5C 232.785,118.095 240.452,116.095 248.5,115.5 Z"/></g>
<g><path style="opacity:0.694" fill="#f4aea1" d="M 300.5,117.5 C 303.228,117.171 305.562,117.837 307.5,119.5C 304.933,119.279 302.599,118.612 300.5,117.5 Z"/></g>
<g><path style="opacity:0.682" fill="#f8af9a" d="M 292.5,115.5 C 295.495,115.294 298.162,115.96 300.5,117.5C 297.572,117.435 294.905,116.768 292.5,115.5 Z"/></g>
<g><path style="opacity:0.463" fill="#f7a08e" d="M 279.5,114.5 C 279.5,114.167 279.5,113.833 279.5,113.5C 283.79,113.198 287.79,113.864 291.5,115.5C 287.452,115.605 283.452,115.272 279.5,114.5 Z"/></g>
<g><path style="opacity:0.11" fill="#fdc6b7" d="M 279.5,113.5 C 279.5,113.833 279.5,114.167 279.5,114.5C 269.476,114.334 259.476,114.668 249.5,115.5C 249.918,114.778 250.584,114.278 251.5,114C 260.827,113.5 270.161,113.334 279.5,113.5 Z"/></g>
<g><path style="opacity:1" fill="#ee331a" d="M 427.5,108.5 C 427.297,110.044 426.63,111.378 425.5,112.5C 426.338,116.652 424.671,117.985 420.5,116.5C 417.462,121.08 413.129,123.414 407.5,123.5C 407.833,122.833 408.167,122.167 408.5,121.5C 409.514,120.326 410.847,119.66 412.5,119.5C 414.027,119.573 415.027,118.906 415.5,117.5C 417.027,117.573 418.027,116.906 418.5,115.5C 421.767,113.573 424.767,111.239 427.5,108.5 Z"/></g>
<g><path style="opacity:0.776" fill="#f6a28f" d="M 408.5,121.5 C 408.167,122.167 407.833,122.833 407.5,123.5C 406.833,123.5 406.167,123.5 405.5,123.5C 404.833,123.5 404.167,123.5 403.5,123.5C 404.93,122.463 406.597,121.796 408.5,121.5 Z"/></g>
<g><path style="opacity:0.239" fill="#ffc8bf" d="M 449.5,120.5 C 450.906,120.973 451.573,121.973 451.5,123.5C 450.094,123.027 449.427,122.027 449.5,120.5 Z"/></g>
<g><path style="opacity:0.227" fill="#fdbcac" d="M 355.5,121.5 C 359.127,122.321 362.46,123.654 365.5,125.5C 361.642,125.23 358.309,123.897 355.5,121.5 Z"/></g>
<g><path style="opacity:0.592" fill="#f0b9a5" d="M 209.5,123.5 C 211.142,125.081 213.142,125.747 215.5,125.5C 212.39,128.552 210.39,127.886 209.5,123.5 Z"/></g>
<g><path style="opacity:1" fill="#ee674b" d="M 321.5,124.5 C 322.833,124.5 324.167,124.5 325.5,124.5C 327.219,125.022 328.552,126.022 329.5,127.5C 329.5,127.833 329.5,128.167 329.5,128.5C 326.515,127.674 323.849,126.341 321.5,124.5 Z"/></g>
<g><path style="opacity:0.251" fill="#ffc2b8" d="M 451.5,123.5 C 452.906,123.973 453.573,124.973 453.5,126.5C 452.094,126.027 451.427,125.027 451.5,123.5 Z"/></g>
<g><path style="opacity:0.396" fill="#fdd297" d="M 87.5,124.5 C 87.573,126.027 86.9063,127.027 85.5,127.5C 85.427,125.973 86.0937,124.973 87.5,124.5 Z"/></g>
<g><path style="opacity:0.188" fill="#ffe4ba" d="M 191.5,125.5 C 192.906,125.973 193.573,126.973 193.5,128.5C 192.833,128.167 192.167,127.833 191.5,127.5C 191.5,126.833 191.5,126.167 191.5,125.5 Z"/></g>
<g><path style="opacity:1" fill="#f13018" d="M 443.5,114.5 C 444.167,114.833 444.833,115.167 445.5,115.5C 446.08,117.749 447.413,119.415 449.5,120.5C 449.427,122.027 450.094,123.027 451.5,123.5C 451.427,125.027 452.094,126.027 453.5,126.5C 453.427,128.027 454.094,129.027 455.5,129.5C 455.5,130.167 455.5,130.833 455.5,131.5C 454.279,130.972 453.113,130.305 452,129.5C 451.667,130.167 451.333,130.833 451,131.5C 449.438,129.043 448.438,126.376 448,123.5C 447.282,124.451 446.449,124.617 445.5,124C 446.38,122.644 446.714,121.144 446.5,119.5C 445.5,119.5 444.5,119.5 443.5,119.5C 443.5,117.833 443.5,116.167 443.5,114.5 Z"/></g>
<g><path style="opacity:0.239" fill="#ffc3ba" d="M 453.5,126.5 C 454.906,126.973 455.573,127.973 455.5,129.5C 454.094,129.027 453.427,128.027 453.5,126.5 Z"/></g>
<g><path style="opacity:0.306" fill="#fedaa8" d="M 85.5,127.5 C 85.573,129.027 84.9063,130.027 83.5,130.5C 83.427,128.973 84.0937,127.973 85.5,127.5 Z"/></g>
<g><path style="opacity:0.208" fill="#fdc8be" d="M 331.5,129.5 C 333.027,129.427 334.027,130.094 334.5,131.5C 332.973,131.573 331.973,130.906 331.5,129.5 Z"/></g>
<g><path style="opacity:1" fill="#f13016" d="M 347.5,118.5 C 348.833,118.833 350.167,119.167 351.5,119.5C 352.287,121.104 353.62,121.771 355.5,121.5C 358.309,123.897 361.642,125.23 365.5,125.5C 365.833,125.5 366.167,125.5 366.5,125.5C 367.99,127.28 369.99,127.946 372.5,127.5C 375.146,128.164 377.979,128.498 381,128.5C 385.442,128.674 389.609,128.007 393.5,126.5C 394.919,125.549 396.585,125.216 398.5,125.5C 400.698,125.88 402.365,125.213 403.5,123.5C 404.167,123.5 404.833,123.5 405.5,123.5C 405.047,124.458 404.381,125.292 403.5,126C 397.333,127.491 391.5,129.658 386,132.5C 380.884,131.575 375.717,131.242 370.5,131.5C 370.5,130.5 370.5,129.5 370.5,128.5C 366.103,128.575 361.77,128.075 357.5,127C 357.957,126.586 358.291,126.086 358.5,125.5C 355.121,123.308 351.455,121.974 347.5,121.5C 347.5,120.5 347.5,119.5 347.5,118.5 Z"/></g>
<g><path style="opacity:0.467" fill="#f8816d" d="M 393.5,126.5 C 389.609,128.007 385.442,128.674 381,128.5C 377.979,128.498 375.146,128.164 372.5,127.5C 373.5,127.5 374.5,127.5 375.5,127.5C 381.529,127.575 387.529,127.241 393.5,126.5 Z"/></g>
<g><path style="opacity:0.459" fill="#f5aa9b" d="M 366.5,125.5 C 369.727,125.676 372.727,126.343 375.5,127.5C 374.5,127.5 373.5,127.5 372.5,127.5C 369.99,127.946 367.99,127.28 366.5,125.5 Z"/></g>
<g><path style="opacity:0.725" fill="#f6a397" d="M 403.5,123.5 C 402.365,125.213 400.698,125.88 398.5,125.5C 399.93,124.463 401.597,123.796 403.5,123.5 Z"/></g>
<g><path style="opacity:1" fill="#ee543b" d="M 329.5,127.5 C 331.924,127.192 334.257,127.526 336.5,128.5C 336.291,129.086 335.957,129.586 335.5,130C 338.491,130.145 340.158,131.645 340.5,134.5C 338.181,134.008 336.181,133.008 334.5,131.5C 334.027,130.094 333.027,129.427 331.5,129.5C 330.508,129.672 329.842,129.338 329.5,128.5C 329.5,128.167 329.5,127.833 329.5,127.5 Z"/></g>
<g><path style="opacity:0.169" fill="#fdd2c4" d="M 455.5,129.5 C 456.906,129.973 457.573,130.973 457.5,132.5C 456.833,132.167 456.167,131.833 455.5,131.5C 455.5,130.833 455.5,130.167 455.5,129.5 Z"/></g>
<g><path style="opacity:0.992" fill="#f6b974" d="M 83.5,130.5 C 83.7841,133.857 82.4507,136.191 79.5,137.5C 80.0787,134.669 81.412,132.336 83.5,130.5 Z"/></g>
<g><path style="opacity:0.663" fill="#f9d29d" d="M 195.5,132.5 C 197.273,133.314 197.773,134.648 197,136.5C 195.028,138.232 192.861,139.565 190.5,140.5C 191.508,138.661 193.008,137.328 195,136.5C 195.49,135.207 195.657,133.873 195.5,132.5 Z"/></g>
<g><path style="opacity:0.404" fill="#fba992" d="M 340.5,134.5 C 342.027,134.427 343.027,135.094 343.5,136.5C 341.973,136.573 340.973,135.906 340.5,134.5 Z"/></g>
<g><path style="opacity:1" fill="#f48a16" d="M 100.5,108.5 C 100.5,110.5 100.5,112.5 100.5,114.5C 99.1667,114.5 97.8333,114.5 96.5,114.5C 96.8034,117.588 95.4701,119.254 92.5,119.5C 93.0138,121.512 93.1805,123.512 93,125.5C 92.0766,126.759 91.2432,128.092 90.5,129.5C 89.8333,128.833 89.1667,128.167 88.5,127.5C 87.2888,128.274 87.2888,129.107 88.5,130C 85.3364,132.691 83.6697,136.191 83.5,140.5C 83.1667,140.833 82.8333,141.167 82.5,141.5C 81.7492,140.624 81.2492,139.624 81,138.5C 79.9242,141.648 78.5909,144.648 77,147.5C 76.7468,150.2 76.7468,152.867 77,155.5C 75.8869,156.711 74.7202,156.711 73.5,155.5C 72.8128,157.555 71.6461,159.221 70,160.5C 69.8333,161.333 69.6667,162.167 69.5,163C 72.048,165.807 71.3813,167.973 67.5,169.5C 66.6143,170.325 66.281,171.325 66.5,172.5C 68.5273,172.338 70.5273,172.505 72.5,173C 75.1921,173.743 77.5254,174.91 79.5,176.5C 74.5468,175.589 69.5468,174.922 64.5,174.5C 66.1145,169.595 67.4479,164.595 68.5,159.5C 70.8337,157.824 71.8337,155.491 71.5,152.5C 71.6596,150.847 72.3263,149.514 73.5,148.5C 76.1347,146.661 77.4681,143.994 77.5,140.5C 78.9063,140.027 79.573,139.027 79.5,137.5C 82.4507,136.191 83.7841,133.857 83.5,130.5C 84.9063,130.027 85.573,129.027 85.5,127.5C 86.9063,127.027 87.573,126.027 87.5,124.5C 89.2503,123.341 90.2503,121.674 90.5,119.5C 93.3644,117.977 95.031,115.643 95.5,112.5C 97.1667,111.167 98.8333,109.833 100.5,108.5 Z"/></g>
<g><path style="opacity:0.412" fill="#feb7a8" d="M 343.5,136.5 C 345.404,136.738 346.738,137.738 347.5,139.5C 345.596,139.262 344.262,138.262 343.5,136.5 Z"/></g>
<g><path style="opacity:0.224" fill="#fdc5af" d="M 459.5,136.5 C 460.906,136.973 461.573,137.973 461.5,139.5C 460.094,139.027 459.427,138.027 459.5,136.5 Z"/></g>
<g><path style="opacity:0.216" fill="#ffdfb4" d="M 79.5,137.5 C 79.573,139.027 78.9063,140.027 77.5,140.5C 77.427,138.973 78.0937,137.973 79.5,137.5 Z"/></g>
<g><path style="opacity:0.314" fill="#ffc0b3" d="M 347.5,139.5 C 349.027,139.427 350.027,140.094 350.5,141.5C 348.973,141.573 347.973,140.906 347.5,139.5 Z"/></g>
<g><path style="opacity:0.945" fill="#ed917c" d="M 461.5,139.5 C 462.674,140.514 463.34,141.847 463.5,143.5C 461.824,142.817 461.157,141.483 461.5,139.5 Z"/></g>
<g><path style="opacity:0.427" fill="#ffbaa7" d="M 350.5,141.5 C 353.089,142.419 355.089,144.086 356.5,146.5C 353.911,145.581 351.911,143.914 350.5,141.5 Z"/></g>
<g><path style="opacity:0.047" fill="#ffe2b5" d="M 188.5,142.5 C 186.393,144.727 184.06,146.727 181.5,148.5C 182.779,145.348 185.112,143.348 188.5,142.5 Z"/></g>
<g><path style="opacity:0.776" fill="#fcab94" d="M 356.5,146.5 C 360.045,148.23 362.712,150.896 364.5,154.5C 363.761,154.631 363.094,154.464 362.5,154C 360.666,151.337 358.666,148.837 356.5,146.5 Z"/></g>
<g><path style="opacity:0.965" fill="#ee8c7c" d="M 463.5,143.5 C 464.674,144.514 465.34,145.847 465.5,147.5C 463.824,146.817 463.157,145.483 463.5,143.5 Z"/></g>
<g><path style="opacity:1" fill="#f6be7e" d="M 77.5,140.5 C 77.4681,143.994 76.1347,146.661 73.5,148.5C 74.3257,145.515 75.659,142.849 77.5,140.5 Z"/></g>
<g><path style="opacity:0.29" fill="#f8cb88" d="M 180.5,148.5 C 179.167,150.5 177.5,152.167 175.5,153.5C 176.167,150.833 177.833,149.167 180.5,148.5 Z"/></g>
<g><path style="opacity:0.957" fill="#f5a08e" d="M 465.5,147.5 C 469.571,154.321 472.571,161.654 474.5,169.5C 470.73,162.535 467.73,155.202 465.5,147.5 Z"/></g>
<g><path style="opacity:0.451" fill="#ffc3a9" d="M 364.5,155.5 C 366.5,155.5 367.5,156.5 367.5,158.5C 366.167,157.833 365.167,156.833 364.5,155.5 Z"/></g>
<g><path style="opacity:0.851" fill="#f7c384" d="M 71.5,152.5 C 71.8337,155.491 70.8337,157.824 68.5,159.5C 68.7073,156.759 69.7073,154.426 71.5,152.5 Z"/></g>
<g><path style="opacity:1" fill="#f08767" d="M 367.5,158.5 C 370.879,159.581 372.879,161.915 373.5,165.5C 371.273,163.393 369.273,161.06 367.5,158.5 Z"/></g>
<g><path style="opacity:0.078" fill="#fdddae" d="M 172.5,156.5 C 171.581,159.089 169.914,161.089 167.5,162.5C 168.419,159.911 170.086,157.911 172.5,156.5 Z"/></g>
<g><path style="opacity:0.125" fill="#fddfb6" d="M 167.5,162.5 C 167.573,164.027 166.906,165.027 165.5,165.5C 165.427,163.973 166.094,162.973 167.5,162.5 Z"/></g>
<g><path style="opacity:0.012" fill="#ffdace" d="M 373.5,165.5 C 374.906,165.973 375.573,166.973 375.5,168.5C 374.094,168.027 373.427,167.027 373.5,165.5 Z"/></g>
<g><path style="opacity:0.082" fill="#ffecc2" d="M 165.5,165.5 C 165.573,167.027 164.906,168.027 163.5,168.5C 163.427,166.973 164.094,165.973 165.5,165.5 Z"/></g>
<g><path style="opacity:0.824" fill="#fdb3a7" d="M 375.5,168.5 C 379.276,171.636 381.942,175.636 383.5,180.5C 380.474,176.795 377.808,172.795 375.5,168.5 Z"/></g>
<g><path style="opacity:0.714" fill="#f9ca8f" d="M 68.5,159.5 C 67.4479,164.595 66.1145,169.595 64.5,174.5C 69.5468,174.922 74.5468,175.589 79.5,176.5C 81.0764,177.143 82.4097,178.143 83.5,179.5C 76.7319,177.056 69.7319,175.723 62.5,175.5C 63.5361,169.715 65.5361,164.382 68.5,159.5 Z"/></g>
<g><path style="opacity:0.078" fill="#ffeac6" d="M 161.5,171.5 C 161.573,173.027 160.906,174.027 159.5,174.5C 159.427,172.973 160.094,171.973 161.5,171.5 Z"/></g>
<g><path style="opacity:0.514" fill="#fcb6a6" d="M 474.5,169.5 C 476.806,173.085 478.139,177.085 478.5,181.5C 476.589,177.767 475.256,173.767 474.5,169.5 Z"/></g>
<g><path style="opacity:0.122" fill="#fee0b8" d="M 159.5,174.5 C 159.573,176.027 158.906,177.027 157.5,177.5C 157.427,175.973 158.094,174.973 159.5,174.5 Z"/></g>
<g><path style="opacity:0.812" fill="#fbcfa1" d="M 83.5,179.5 C 85.4832,179.157 86.8166,179.824 87.5,181.5C 85.847,181.34 84.5137,180.674 83.5,179.5 Z"/></g>
<g><path style="opacity:0.192" fill="#ffdfb8" d="M 88.5,181.5 C 90.0269,181.427 91.0269,182.094 91.5,183.5C 89.9731,183.573 88.9731,182.906 88.5,181.5 Z"/></g>
<g><path style="opacity:1" fill="#f7bd7d" d="M 91.5,183.5 C 93.9893,183.241 95.656,184.241 96.5,186.5C 94.5659,185.89 92.8993,184.89 91.5,183.5 Z"/></g>
<g><path style="opacity:0.475" fill="#fbcf96" d="M 157.5,177.5 C 154.869,183.754 151.869,189.754 148.5,195.5C 149.933,188.635 152.933,182.635 157.5,177.5 Z"/></g>
<g><path style="opacity:0.267" fill="#ffbead" d="M 384.5,182.5 C 387.82,186.144 389.82,190.478 390.5,195.5C 388.13,191.414 386.13,187.081 384.5,182.5 Z"/></g>
<g><path style="opacity:0.553" fill="#ffd79c" d="M 96.5,186.5 C 98.0269,186.427 99.0269,187.094 99.5,188.5C 97.9731,188.573 96.9731,187.906 96.5,186.5 Z"/></g>
<g><path style="opacity:0.475" fill="#feb2a5" d="M 478.5,181.5 C 479.924,183.515 480.59,185.848 480.5,188.5C 479.076,186.485 478.41,184.152 478.5,181.5 Z"/></g>
<g><path style="opacity:0.71" fill="#f5a094" d="M 71.5,191.5 C 64.825,191.334 58.1583,191.5 51.5,192C 49.5087,192.374 47.842,193.207 46.5,194.5C 44.5648,195.15 42.5648,195.483 40.5,195.5C 50.3283,189.857 60.6617,188.524 71.5,191.5 Z"/></g>
<g><path style="opacity:1" fill="#e03721" d="M 71.5,191.5 C 72.1667,192.167 72.8333,192.833 73.5,193.5C 64.3384,191.955 55.3384,192.288 46.5,194.5C 47.842,193.207 49.5087,192.374 51.5,192C 58.1583,191.5 64.825,191.334 71.5,191.5 Z"/></g>
<g><path style="opacity:1" fill="#fc2204" d="M 73.5,193.5 C 75.5,193.833 77.5,194.167 79.5,194.5C 81.8185,194.992 83.8185,195.992 85.5,197.5C 86.5387,199.531 88.2054,200.864 90.5,201.5C 91.4194,204.089 93.086,206.089 95.5,207.5C 95.3433,208.873 95.51,210.207 96,211.5C 97.6338,213.837 99.4671,215.837 101.5,217.5C 101.584,220.327 102.25,222.994 103.5,225.5C 103.666,230.844 103.499,236.177 103,241.5C 101.443,244.666 100.61,248 100.5,251.5C 99.596,252.209 99.2627,253.209 99.5,254.5C 98.5592,256.05 97.8925,257.716 97.5,259.5C 96.0937,259.973 95.427,260.973 95.5,262.5C 95.5,263.167 95.1667,263.5 94.5,263.5C 92.8333,264.833 91.1667,266.167 89.5,267.5C 88.1667,267.5 86.8333,267.5 85.5,267.5C 85.5,268.5 85.5,269.5 85.5,270.5C 83.8212,270.285 82.8212,270.952 82.5,272.5C 78.2613,272.782 74.2613,273.949 70.5,276C 64.1667,276.667 57.8333,276.667 51.5,276C 45.9302,274.292 40.5968,272.125 35.5,269.5C 34.8333,269.5 34.1667,269.5 33.5,269.5C 32.7377,267.738 31.4044,266.738 29.5,266.5C 28.8645,264.205 27.5311,262.539 25.5,261.5C 25.573,259.973 24.9063,258.973 23.5,258.5C 23.573,256.973 22.9063,255.973 21.5,255.5C 21.7709,253.62 21.1042,252.287 19.5,251.5C 19.3259,249.139 18.9926,246.806 18.5,244.5C 18.1712,238.794 18.5046,233.128 19.5,227.5C 20.086,227.291 20.586,226.957 21,226.5C 21.392,221.268 22.5587,216.268 24.5,211.5C 25.8016,210.193 27.135,210.193 28.5,211.5C 29.4274,209.887 30.2607,208.221 31,206.5C 32.1096,204.963 33.6096,204.297 35.5,204.5C 35.3433,203.127 35.51,201.793 36,200.5C 37.7583,198.917 39.2583,197.25 40.5,195.5C 42.5648,195.483 44.5648,195.15 46.5,194.5C 55.3384,192.288 64.3384,191.955 73.5,193.5 Z"/></g>
<g><path style="opacity:0.49" fill="#f9aca1" d="M 71.5,191.5 C 74.5418,191.733 77.2084,192.733 79.5,194.5C 77.5,194.167 75.5,193.833 73.5,193.5C 72.8333,192.833 72.1667,192.167 71.5,191.5 Z"/></g>
<g><path style="opacity:0.008" fill="#fedeb5" d="M 99.5,188.5 C 102.652,189.779 104.652,192.112 105.5,195.5C 103.273,193.393 101.273,191.06 99.5,188.5 Z"/></g>
<g><path style="opacity:0.294" fill="#ffbead" d="M 480.5,188.5 C 481.924,190.515 482.59,192.848 482.5,195.5C 482.167,195.5 481.833,195.5 481.5,195.5C 480.781,193.236 480.448,190.903 480.5,188.5 Z"/></g>
<g><path style="opacity:0.804" fill="#f9a99e" d="M 85.5,197.5 C 87.754,198.124 89.4206,199.457 90.5,201.5C 88.2054,200.864 86.5387,199.531 85.5,197.5 Z"/></g>
<g><path style="opacity:0.349" fill="#fdddad" d="M 148.5,195.5 C 146.146,203.599 143.813,211.599 141.5,219.5C 142.079,214.093 143.079,208.76 144.5,203.5C 145.285,200.596 146.619,197.93 148.5,195.5 Z"/></g>
<g><path style="opacity:0.847" fill="#f39480" d="M 36.5,197.5 C 35.4154,199.587 33.7488,200.92 31.5,201.5C 32.5846,199.413 34.2512,198.08 36.5,197.5 Z"/></g>
<g><path style="opacity:0.4" fill="#ffddb3" d="M 107.5,197.5 C 109.55,199.237 111.383,201.237 113,203.5C 113.483,204.448 113.649,205.448 113.5,206.5C 110.759,204.025 108.759,201.025 107.5,197.5 Z"/></g>
<g><path style="opacity:1" fill="#ec3116" d="M 40.5,195.5 C 39.2583,197.25 37.7583,198.917 36,200.5C 35.51,201.793 35.3433,203.127 35.5,204.5C 33.6096,204.297 32.1096,204.963 31,206.5C 30.2607,208.221 29.4274,209.887 28.5,211.5C 27.135,210.193 25.8016,210.193 24.5,211.5C 24.5,210.833 24.5,210.167 24.5,209.5C 27.2195,207.781 29.2195,205.447 30.5,202.5C 30.5,201.833 30.8333,201.5 31.5,201.5C 33.7488,200.92 35.4154,199.587 36.5,197.5C 37.5137,196.326 38.847,195.66 40.5,195.5 Z"/></g>
<g><path style="opacity:0.773" fill="#f7a697" d="M 90.5,201.5 C 92.914,202.911 94.5806,204.911 95.5,207.5C 93.086,206.089 91.4194,204.089 90.5,201.5 Z"/></g>
<g><path style="opacity:0.604" fill="#f8a599" d="M 30.5,202.5 C 29.2195,205.447 27.2195,207.781 24.5,209.5C 25.8103,206.527 27.8103,204.193 30.5,202.5 Z"/></g>
<g><path style="opacity:0.216" fill="#fde1b5" d="M 113.5,206.5 C 115.104,207.287 115.771,208.62 115.5,210.5C 114.326,209.486 113.66,208.153 113.5,206.5 Z"/></g>
<g><path style="opacity:0.18" fill="#fdbbb2" d="M 390.5,195.5 C 396.044,206.334 399.044,218 399.5,230.5C 399.5,232.167 399.5,233.833 399.5,235.5C 397.799,222.014 394.799,208.681 390.5,195.5 Z"/></g>
<g><path style="opacity:0.149" fill="#ffc9b7" d="M 483.5,200.5 C 485.137,205.927 486.137,211.593 486.5,217.5C 484.548,212.127 483.548,206.46 483.5,200.5 Z"/></g>
<g><path style="opacity:1" fill="#ef7059" d="M 95.5,207.5 C 98.5023,210.161 100.502,213.495 101.5,217.5C 99.4671,215.837 97.6338,213.837 96,211.5C 95.51,210.207 95.3433,208.873 95.5,207.5 Z"/></g>
<g><path style="opacity:0.675" fill="#fbcb91" d="M 115.5,210.5 C 118.714,213.298 120.047,216.965 119.5,221.5C 118.193,217.919 116.859,214.253 115.5,210.5 Z"/></g>
<g><path style="opacity:1" fill="#e85137" d="M 481.5,195.5 C 481.833,195.5 482.167,195.5 482.5,195.5C 483.451,196.919 483.784,198.585 483.5,200.5C 483.548,206.46 484.548,212.127 486.5,217.5C 486.5,218.5 486.5,219.5 486.5,220.5C 486.5,222.167 486.5,223.833 486.5,225.5C 486.167,225.5 485.833,225.5 485.5,225.5C 483.22,215.656 481.887,205.656 481.5,195.5 Z"/></g>
<g><path style="opacity:1" fill="#f18677" d="M 24.5,209.5 C 24.5,210.167 24.5,210.833 24.5,211.5C 23.8999,212.9 22.8999,213.9 21.5,214.5C 21.7497,212.326 22.7497,210.659 24.5,209.5 Z"/></g>
<g><path style="opacity:0.996" fill="#ed876e" d="M 101.5,217.5 C 103.585,219.684 104.585,222.351 104.5,225.5C 104.167,225.5 103.833,225.5 103.5,225.5C 102.25,222.994 101.584,220.327 101.5,217.5 Z"/></g>
<g><path style="opacity:0.576" fill="#f89685" d="M 19.5,218.5 C 19.7406,220.898 19.0739,222.898 17.5,224.5C 17.2594,222.102 17.9261,220.102 19.5,218.5 Z"/></g>
<g><path style="opacity:1" fill="#ea3116" d="M 24.5,211.5 C 22.5587,216.268 21.392,221.268 21,226.5C 20.586,226.957 20.086,227.291 19.5,227.5C 18.5046,233.128 18.1712,238.794 18.5,244.5C 17.5093,238.021 17.176,231.354 17.5,224.5C 19.0739,222.898 19.7406,220.898 19.5,218.5C 19.6596,216.847 20.3263,215.514 21.5,214.5C 22.8999,213.9 23.8999,212.9 24.5,211.5 Z"/></g>
<g><path style="opacity:0.189" fill="#fad7aa" d="M 119.5,221.5 C 120.222,221.918 120.722,222.584 121,223.5C 121.82,230.014 121.653,236.347 120.5,242.5C 120.674,235.465 120.341,228.465 119.5,221.5 Z"/></g>
<g><path style="opacity:0.376" fill="#feb6ad" d="M 104.5,225.5 C 105.653,231.653 105.82,237.986 105,244.5C 104.768,245.737 104.268,246.737 103.5,247.5C 104.35,240.201 104.683,232.868 104.5,225.5 Z"/></g>
<g><path style="opacity:0.747" fill="#ef9e8f" d="M 17.5,224.5 C 17.176,231.354 17.5093,238.021 18.5,244.5C 18.9926,246.806 19.3259,249.139 19.5,251.5C 15.1591,242.737 14.4925,233.737 17.5,224.5 Z"/></g>
<g><path style="opacity:1" fill="#d92611" d="M 485.5,225.5 C 485.833,225.5 486.167,225.5 486.5,225.5C 486.5,228.5 486.5,231.5 486.5,234.5C 457.662,234.831 428.995,234.498 400.5,233.5C 428.833,233.5 457.167,233.5 485.5,233.5C 485.5,230.833 485.5,228.167 485.5,225.5 Z"/></g>
<g><path style="opacity:1" fill="#f18a20" d="M 144.5,203.5 C 143.079,208.76 142.079,214.093 141.5,219.5C 141.5,219.833 141.5,220.167 141.5,220.5C 140.778,220.918 140.278,221.584 140,222.5C 138.752,233.464 138.252,244.464 138.5,255.5C 137.176,251.893 136.509,247.893 136.5,243.5C 137.482,231.792 138.982,220.125 141,208.5C 141.333,208.833 141.667,209.167 142,209.5C 142.037,207.026 142.87,205.026 144.5,203.5 Z"/></g>
<g><path style="opacity:0.593" fill="#fda89b" d="M 486.5,220.5 C 487.325,224.499 487.992,228.665 488.5,233C 488.491,234.404 487.991,235.57 487,236.5C 457.997,236.831 428.831,236.498 399.5,235.5C 399.5,233.833 399.5,232.167 399.5,230.5C 400.404,231.209 400.737,232.209 400.5,233.5C 428.995,234.498 457.662,234.831 486.5,234.5C 486.5,231.5 486.5,228.5 486.5,225.5C 486.5,223.833 486.5,222.167 486.5,220.5 Z"/></g>
<g><path style="opacity:0.336" fill="#fdd69c" d="M 141.5,220.5 C 138.833,235.833 138.833,251.167 141.5,266.5C 140.097,262.934 139.097,259.267 138.5,255.5C 138.252,244.464 138.752,233.464 140,222.5C 140.278,221.584 140.778,220.918 141.5,220.5 Z"/></g>
<g><path style="opacity:1" fill="#e1331e" d="M 103.5,225.5 C 103.833,225.5 104.167,225.5 104.5,225.5C 104.683,232.868 104.35,240.201 103.5,247.5C 102.143,248.59 101.143,249.924 100.5,251.5C 100.61,248 101.443,244.666 103,241.5C 103.499,236.177 103.666,230.844 103.5,225.5 Z"/></g>
<g><path style="opacity:0.588" fill="#fbd29d" d="M 119.5,248.5 C 118.983,252.222 118.15,255.888 117,259.5C 116.292,260.381 115.458,261.047 114.5,261.5C 115.931,256.989 117.598,252.655 119.5,248.5 Z"/></g>
<g><path style="opacity:1" fill="#e7775f" d="M 103.5,247.5 C 103.293,250.241 102.293,252.574 100.5,254.5C 100.167,254.5 99.8333,254.5 99.5,254.5C 99.2627,253.209 99.596,252.209 100.5,251.5C 101.143,249.924 102.143,248.59 103.5,247.5 Z"/></g>
<g><path style="opacity:0.821" fill="#ed897b" d="M 487.5,258.5 C 487.167,258.5 486.833,258.5 486.5,258.5C 486.5,256.833 486.5,255.167 486.5,253.5C 457.662,253.169 428.995,253.502 400.5,254.5C 400.665,257.85 400.498,261.183 400,264.5C 399.844,267.191 399.011,269.524 397.5,271.5C 397.5,270.5 397.5,269.5 397.5,268.5C 397.808,262.914 398.474,257.414 399.5,252C 428.833,251.333 458.167,251.333 487.5,252C 488.811,254.274 488.811,256.44 487.5,258.5 Z"/></g>
<g><path style="opacity:0.302" fill="#fcb8b0" d="M 19.5,251.5 C 21.1042,252.287 21.7709,253.62 21.5,255.5C 20.3263,254.486 19.6596,253.153 19.5,251.5 Z"/></g>
<g><path style="opacity:1" fill="#e02c11" d="M 400.5,254.5 C 428.995,253.502 457.662,253.169 486.5,253.5C 486.5,255.167 486.5,256.833 486.5,258.5C 485.968,264.152 485.635,269.819 485.5,275.5C 485.5,275.833 485.5,276.167 485.5,276.5C 485.167,276.5 484.833,276.5 484.5,276.5C 484.629,269.155 484.962,261.822 485.5,254.5C 457.167,254.5 428.833,254.5 400.5,254.5 Z"/></g>
<g><path style="opacity:0.263" fill="#fcbfb3" d="M 99.5,254.5 C 99.8333,254.5 100.167,254.5 100.5,254.5C 100.25,256.674 99.2503,258.341 97.5,259.5C 97.8925,257.716 98.5592,256.05 99.5,254.5 Z"/></g>
<g><path style="opacity:0.137" fill="#fecebf" d="M 21.5,255.5 C 22.9063,255.973 23.573,256.973 23.5,258.5C 22.0937,258.027 21.427,257.027 21.5,255.5 Z"/></g>
<g><path style="opacity:0.031" fill="#fdc3b8" d="M 23.5,258.5 C 24.9063,258.973 25.573,259.973 25.5,261.5C 24.0937,261.027 23.427,260.027 23.5,258.5 Z"/></g>
<g><path style="opacity:0.055" fill="#ffd0c0" d="M 97.5,259.5 C 97.573,261.027 96.9063,262.027 95.5,262.5C 95.427,260.973 96.0937,259.973 97.5,259.5 Z"/></g>
<g><path style="opacity:1" fill="#eb9130" d="M 138.5,255.5 C 139.097,259.267 140.097,262.934 141.5,266.5C 141.5,267.167 141.5,267.833 141.5,268.5C 141.294,271.495 141.96,274.162 143.5,276.5C 143.5,277.833 143.5,279.167 143.5,280.5C 141.315,275.476 139.815,270.143 139,264.5C 138.502,261.518 138.335,258.518 138.5,255.5 Z"/></g>
<g><path style="opacity:0.514" fill="#f8aa99" d="M 25.5,261.5 C 27.5311,262.539 28.8645,264.205 29.5,266.5C 27.457,265.421 26.1237,263.754 25.5,261.5 Z"/></g>
<g><path style="opacity:0.169" fill="#fbc1b1" d="M 486.5,258.5 C 486.833,258.5 487.167,258.5 487.5,258.5C 487.55,264.389 486.884,270.056 485.5,275.5C 485.635,269.819 485.968,264.152 486.5,258.5 Z"/></g>
<g><path style="opacity:0.961" fill="#fac187" d="M 114.5,261.5 C 114.408,263.848 113.408,265.514 111.5,266.5C 111.75,264.326 112.75,262.659 114.5,261.5 Z"/></g>
<g><path style="opacity:0.725" fill="#f99f8c" d="M 29.5,266.5 C 31.4044,266.738 32.7377,267.738 33.5,269.5C 31.5956,269.262 30.2623,268.262 29.5,266.5 Z"/></g>
<g><path style="opacity:1" fill="#ea593d" d="M 89.5,267.5 C 89.1667,268.167 88.8333,268.833 88.5,269.5C 88.1667,270.5 87.5,271.167 86.5,271.5C 85.0413,271.433 83.7079,271.766 82.5,272.5C 82.8212,270.952 83.8212,270.285 85.5,270.5C 85.5,269.5 85.5,268.5 85.5,267.5C 86.8333,267.5 88.1667,267.5 89.5,267.5 Z"/></g>
<g><path style="opacity:0.031" fill="#ffd2c9" d="M 94.5,263.5 C 93.5,266.5 91.5,268.5 88.5,269.5C 88.8333,268.833 89.1667,268.167 89.5,267.5C 91.1667,266.167 92.8333,264.833 94.5,263.5 Z"/></g>
<g><path style="opacity:0.341" fill="#fdd89c" d="M 111.5,266.5 C 111.573,268.027 110.906,269.027 109.5,269.5C 109.427,267.973 110.094,266.973 111.5,266.5 Z"/></g>
<g><path style="opacity:0.875" fill="#f19383" d="M 33.5,269.5 C 34.1667,269.5 34.8333,269.5 35.5,269.5C 36.1667,270.5 36.8333,271.5 37.5,272.5C 35.5956,272.262 34.2623,271.262 33.5,269.5 Z"/></g>
<g><path style="opacity:0.051" fill="#ffcebf" d="M 86.5,271.5 C 85.4863,272.674 84.153,273.34 82.5,273.5C 82.5,273.167 82.5,272.833 82.5,272.5C 83.7079,271.766 85.0413,271.433 86.5,271.5 Z"/></g>
<g><path style="opacity:0.745" fill="#faca91" d="M 141.5,268.5 C 142.768,270.905 143.435,273.572 143.5,276.5C 141.96,274.162 141.294,271.495 141.5,268.5 Z"/></g>
<g><path style="opacity:0.486" fill="#fcb9b1" d="M 397.5,268.5 C 397.5,269.5 397.5,270.5 397.5,271.5C 396.101,278.362 394.101,285.028 391.5,291.5C 391.167,291.5 390.833,291.5 390.5,291.5C 393.006,283.791 395.339,276.125 397.5,268.5 Z"/></g>
<g><path style="opacity:0.157" fill="#fdcbc0" d="M 39.5,273.5 C 41.0269,273.427 42.0269,274.094 42.5,275.5C 40.9731,275.573 39.9731,274.906 39.5,273.5 Z"/></g>
<g><path style="opacity:0.078" fill="#febab1" d="M 82.5,273.5 C 81.4863,274.674 80.153,275.34 78.5,275.5C 79.287,273.896 80.6203,273.229 82.5,273.5 Z"/></g>
<g><path style="opacity:0.902" fill="#f49986" d="M 43.5,275.5 C 47.0839,275.975 50.4172,276.975 53.5,278.5C 49.7144,278.68 46.381,277.68 43.5,275.5 Z"/></g>
<g><path style="opacity:1" fill="#e4361d" d="M 35.5,269.5 C 40.5968,272.125 45.9302,274.292 51.5,276C 57.8333,276.667 64.1667,276.667 70.5,276C 74.2613,273.949 78.2613,272.782 82.5,272.5C 82.5,272.833 82.5,273.167 82.5,273.5C 80.6203,273.229 79.287,273.896 78.5,275.5C 70.3522,277.871 62.0189,278.871 53.5,278.5C 50.4172,276.975 47.0839,275.975 43.5,275.5C 43.1667,275.5 42.8333,275.5 42.5,275.5C 42.0269,274.094 41.0269,273.427 39.5,273.5C 38.5084,273.672 37.8417,273.338 37.5,272.5C 36.8333,271.5 36.1667,270.5 35.5,269.5 Z"/></g>
<g><path style="opacity:0.29" fill="#fec6b8" d="M 78.5,275.5 C 75.5784,277.531 72.2451,278.698 68.5,279C 63.3158,279.816 58.3158,279.65 53.5,278.5C 62.0189,278.871 70.3522,277.871 78.5,275.5 Z"/></g>
<g><path style="opacity:0.486" fill="#f8ca8f" d="M 109.5,269.5 C 109.5,270.167 109.5,270.833 109.5,271.5C 105.167,276.5 100.5,281.167 95.5,285.5C 94.5,285.5 93.5,285.5 92.5,285.5C 98.7966,280.871 104.463,275.538 109.5,269.5 Z"/></g>
<g><path style="opacity:1" fill="#e88a20" d="M 109.5,271.5 C 107.243,276.286 103.91,280.453 99.5,284C 98.255,284.791 96.9217,285.291 95.5,285.5C 100.5,281.167 105.167,276.5 109.5,271.5 Z"/></g>
<g><path style="opacity:0.859" fill="#f9cd94" d="M 143.5,276.5 C 145.871,281.941 147.871,287.608 149.5,293.5C 146.759,289.597 144.759,285.264 143.5,280.5C 143.5,279.167 143.5,277.833 143.5,276.5 Z"/></g>
<g><path style="opacity:0.4" fill="#f7b5a4" d="M 484.5,276.5 C 484.833,276.5 485.167,276.5 485.5,276.5C 485.57,280.425 484.903,284.091 483.5,287.5C 483.423,283.785 483.756,280.119 484.5,276.5 Z"/></g>
<g><path style="opacity:1" fill="#e93c21" d="M 484.5,276.5 C 483.756,280.119 483.423,283.785 483.5,287.5C 481.988,292.548 480.321,297.548 478.5,302.5C 479.564,296.223 480.564,289.89 481.5,283.5C 481.974,280.783 482.974,278.45 484.5,276.5 Z"/></g>
<g><path style="opacity:0.059" fill="#ffcfc0" d="M 483.5,287.5 C 482.354,296.588 480.02,305.254 476.5,313.5C 476.851,310.097 477.518,306.763 478.5,303.5C 478.5,303.167 478.5,302.833 478.5,302.5C 480.321,297.548 481.988,292.548 483.5,287.5 Z"/></g>
<g><path style="opacity:0.745" fill="#facc98" d="M 92.5,285.5 C 92.0919,286.643 91.4252,287.643 90.5,288.5C 84.5279,291.576 78.1946,293.243 71.5,293.5C 78.7432,291.639 85.7432,288.972 92.5,285.5 Z"/></g>
<g><path style="opacity:0.231" fill="#f9deb2" d="M 63.5,294.5 C 62.0813,295.451 60.4147,295.784 58.5,295.5C 58.9926,297.806 59.3259,300.139 59.5,302.5C 58.282,300.172 57.282,297.672 56.5,295C 57.0253,294.308 57.6919,293.808 58.5,293.5C 60.0709,294.309 61.7376,294.643 63.5,294.5 Z"/></g>
<g><path style="opacity:0.855" fill="#facb90" d="M 149.5,293.5 C 151.065,295.509 152.065,297.843 152.5,300.5C 150.166,298.824 149.166,296.491 149.5,293.5 Z"/></g>
<g><path style="opacity:0.992" fill="#fabe78" d="M 152.5,300.5 C 154.008,302.181 155.008,304.181 155.5,306.5C 153.031,305.393 152.031,303.393 152.5,300.5 Z"/></g>
<g><path style="opacity:0.902" fill="#f59080" d="M 390.5,291.5 C 390.833,291.5 391.167,291.5 391.5,291.5C 389.422,298.662 386.089,304.996 381.5,310.5C 384.263,303.976 387.263,297.643 390.5,291.5 Z"/></g>
<g><path style="opacity:0.267" fill="#f8d099" d="M 59.5,302.5 C 60.1174,302.611 60.6174,302.944 61,303.5C 61.4955,305.473 61.6621,307.473 61.5,309.5C 60.3882,307.401 59.7215,305.067 59.5,302.5 Z"/></g>
<g><path style="opacity:0.353" fill="#fddba7" d="M 61.5,309.5 C 63.2671,311.792 64.2671,314.458 64.5,317.5C 62.7329,315.208 61.7329,312.542 61.5,309.5 Z"/></g>
<g><path style="opacity:1" fill="#f8af64" d="M 155.5,306.5 C 158.414,310.658 161.081,314.991 163.5,319.5C 158.073,316.999 155.407,312.665 155.5,306.5 Z"/></g>
<g><path style="opacity:0.192" fill="#ffcabd" d="M 381.5,310.5 C 381.573,312.027 380.906,313.027 379.5,313.5C 379.427,311.973 380.094,310.973 381.5,310.5 Z"/></g>
<g><path style="opacity:1" fill="#ec4b2b" d="M 478.5,303.5 C 477.518,306.763 476.851,310.097 476.5,313.5C 474.345,315.617 473.345,318.284 473.5,321.5C 473.672,322.492 473.338,323.158 472.5,323.5C 470.794,325.612 469.461,327.945 468.5,330.5C 468.457,327.413 468.29,324.413 468,321.5C 468.667,322.167 469.333,322.833 470,323.5C 472.127,316.278 474.96,309.612 478.5,303.5 Z"/></g>
<g><path style="opacity:0.38" fill="#ffc4b5" d="M 476.5,313.5 C 476.02,316.443 475.02,319.11 473.5,321.5C 473.345,318.284 474.345,315.617 476.5,313.5 Z"/></g>
<g><path style="opacity:0.349" fill="#ffc0b5" d="M 378.5,315.5 C 378.262,317.404 377.262,318.738 375.5,319.5C 375.738,317.596 376.738,316.262 378.5,315.5 Z"/></g>
<g><path style="opacity:0.427" fill="#fedba8" d="M 64.5,317.5 C 66.2671,319.792 67.2671,322.458 67.5,325.5C 65.7329,323.208 64.7329,320.542 64.5,317.5 Z"/></g>
<g><path style="opacity:0.475" fill="#fcb1b0" d="M 375.5,319.5 C 375.573,321.027 374.906,322.027 373.5,322.5C 373.427,320.973 374.094,319.973 375.5,319.5 Z"/></g>
<g><path style="opacity:0.549" fill="#fdc785" d="M 163.5,319.5 C 166.209,322.208 168.542,325.208 170.5,328.5C 166.337,326.92 164.004,323.92 163.5,319.5 Z"/></g>
<g><path style="opacity:0.408" fill="#febbb2" d="M 373.5,322.5 C 372.92,324.749 371.587,326.415 369.5,327.5C 370.08,325.251 371.413,323.585 373.5,322.5 Z"/></g>
<g><path style="opacity:0.294" fill="#fdd6a2" d="M 67.5,325.5 C 69.6246,328.088 70.9579,331.088 71.5,334.5C 69.3754,331.912 68.0421,328.912 67.5,325.5 Z"/></g>
<g><path style="opacity:0.137" fill="#ffcbbf" d="M 472.5,323.5 C 471.903,328.017 470.237,332.017 467.5,335.5C 467.629,333.784 467.962,332.117 468.5,330.5C 469.461,327.945 470.794,325.612 472.5,323.5 Z"/></g>
<g><path style="opacity:1" fill="#f06241" d="M 468.5,330.5 C 467.962,332.117 467.629,333.784 467.5,335.5C 465.824,336.183 465.157,337.517 465.5,339.5C 465.34,341.153 464.674,342.486 463.5,343.5C 463.068,338.233 464.735,333.899 468.5,330.5 Z"/></g>
<g><path style="opacity:0.576" fill="#fbd19c" d="M 170.5,328.5 C 175.167,332.5 179.5,336.833 183.5,341.5C 178.167,338.167 173.833,333.833 170.5,328.5 Z"/></g>
<g><path style="opacity:0.024" fill="#f9bcb0" d="M 467.5,335.5 C 467.34,337.153 466.674,338.486 465.5,339.5C 465.157,337.517 465.824,336.183 467.5,335.5 Z"/></g>
<g><path style="opacity:1" fill="#ec9e4d" d="M 71.5,335.5 C 73.929,336.265 75.2623,337.931 75.5,340.5C 74.8333,339.833 74.1667,339.167 73.5,338.5C 72.5987,337.71 71.9321,336.71 71.5,335.5 Z"/></g>
<g><path style="opacity:0.161" fill="#fddbaa" d="M 73.5,338.5 C 74.1667,339.167 74.8333,339.833 75.5,340.5C 77.0323,343.766 78.3656,347.099 79.5,350.5C 76.4598,347.086 74.4598,343.086 73.5,338.5 Z"/></g>
<g><path style="opacity:0.522" fill="#feac9d" d="M 369.5,327.5 C 363.863,334.804 357.53,341.471 350.5,347.5C 349.833,347.5 349.167,347.5 348.5,347.5C 355.474,340.861 362.474,334.194 369.5,327.5 Z"/></g>
<g><path style="opacity:0.588" fill="#fbd4a3" d="M 187.5,344.5 C 189.909,345.701 191.909,347.367 193.5,349.5C 190.638,348.753 188.638,347.086 187.5,344.5 Z"/></g>
<g><path style="opacity:0.051" fill="#ffdfd0" d="M 463.5,343.5 C 463.771,345.38 463.104,346.713 461.5,347.5C 461.5,347.167 461.5,346.833 461.5,346.5C 461.932,345.29 462.599,344.29 463.5,343.5 Z"/></g>
<g><path style="opacity:0.451" fill="#fcb1a5" d="M 348.5,347.5 C 347.738,349.262 346.404,350.262 344.5,350.5C 345.262,348.738 346.596,347.738 348.5,347.5 Z"/></g>
<g><path style="opacity:0.58" fill="#ec896f" d="M 460.5,346.5 C 460.833,346.5 461.167,346.5 461.5,346.5C 461.5,346.833 461.5,347.167 461.5,347.5C 461.5,347.833 461.5,348.167 461.5,348.5C 460.833,348.833 460.167,349.167 459.5,349.5C 459.557,348.391 459.89,347.391 460.5,346.5 Z"/></g>
<g><path style="opacity:0.714" fill="#fbdba9" d="M 79.5,351.5 C 81.7964,352.733 83.1298,354.733 83.5,357.5C 81.684,355.882 80.3507,353.882 79.5,351.5 Z"/></g>
<g><path style="opacity:0.761" fill="#f6cd94" d="M 193.5,349.5 C 195.2,350.016 196.533,351.016 197.5,352.5C 195.977,356.229 193.977,359.562 191.5,362.5C 191.5,361.833 191.5,361.167 191.5,360.5C 192.924,358.075 194.257,355.575 195.5,353C 194.571,351.923 193.904,350.756 193.5,349.5 Z"/></g>
<g><path style="opacity:0.588" fill="#fca799" d="M 344.5,350.5 C 344.027,351.906 343.027,352.573 341.5,352.5C 341.973,351.094 342.973,350.427 344.5,350.5 Z"/></g>
<g><path style="opacity:1" fill="#eb321c" d="M 348.5,347.5 C 349.167,347.5 349.833,347.5 350.5,347.5C 347.037,353.036 342.037,356.37 335.5,357.5C 335.833,356.833 336.167,356.167 336.5,355.5C 336.842,354.662 337.508,354.328 338.5,354.5C 340.027,354.573 341.027,353.906 341.5,352.5C 343.027,352.573 344.027,351.906 344.5,350.5C 346.404,350.262 347.738,349.262 348.5,347.5 Z"/></g>
<g><path style="opacity:0.616" fill="#ffa094" d="M 341.5,352.5 C 341.027,353.906 340.027,354.573 338.5,354.5C 338.973,353.094 339.973,352.427 341.5,352.5 Z"/></g>
<g><path style="opacity:0.576" fill="#f6afa4" d="M 336.5,355.5 C 336.167,356.167 335.833,356.833 335.5,357.5C 334.833,357.5 334.167,357.5 333.5,357.5C 333.973,356.094 334.973,355.427 336.5,355.5 Z"/></g>
<g><path style="opacity:1" fill="#ec3519" d="M 460.5,346.5 C 459.89,347.391 459.557,348.391 459.5,349.5C 456.566,354.368 453.9,359.368 451.5,364.5C 450.094,364.973 449.427,365.973 449.5,367.5C 448.833,367.5 448.167,367.5 447.5,367.5C 449.004,364.061 450.337,360.394 451.5,356.5C 452.274,355.289 453.107,355.289 454,356.5C 454.494,354.866 454.66,353.199 454.5,351.5C 455.5,351.5 456.5,351.5 457.5,351.5C 457.5,349.833 457.5,348.167 457.5,346.5C 458.5,346.5 459.5,346.5 460.5,346.5 Z"/></g>
<g><path style="opacity:0.055" fill="#ffe7c3" d="M 84.5,359.5 C 85.9063,359.973 86.573,360.973 86.5,362.5C 85.0937,362.027 84.427,361.027 84.5,359.5 Z"/></g>
<g><path style="opacity:0.776" fill="#f29c88" d="M 215.5,362.5 C 213.142,362.253 211.142,362.919 209.5,364.5C 210.39,360.114 212.39,359.448 215.5,362.5 Z"/></g>
<g><path style="opacity:0.169" fill="#fdcbba" d="M 461.5,348.5 C 459.165,354.514 455.831,359.848 451.5,364.5C 453.9,359.368 456.566,354.368 459.5,349.5C 460.167,349.167 460.833,348.833 461.5,348.5 Z"/></g>
<g><path style="opacity:0.969" fill="#f1ab5d" d="M 191.5,360.5 C 191.5,361.167 191.5,361.833 191.5,362.5C 190.89,364.434 189.89,366.101 188.5,367.5C 188.167,367.5 187.833,367.5 187.5,367.5C 187.149,364.188 188.482,361.855 191.5,360.5 Z"/></g>
<g><path style="opacity:0.988" fill="#ec8872" d="M 329.5,359.5 C 328.878,361.335 327.544,362.502 325.5,363C 322.28,364.352 318.947,365.186 315.5,365.5C 320.099,363.539 324.765,361.539 329.5,359.5 Z"/></g>
<g><path style="opacity:0.482" fill="#f29782" d="M 215.5,362.5 C 218.443,362.98 221.11,363.98 223.5,365.5C 220.189,365.693 217.522,364.693 215.5,362.5 Z"/></g>
<g><path style="opacity:1" fill="#fc2104" d="M 400.5,254.5 C 428.833,254.5 457.167,254.5 485.5,254.5C 484.962,261.822 484.629,269.155 484.5,276.5C 482.974,278.45 481.974,280.783 481.5,283.5C 480.564,289.89 479.564,296.223 478.5,302.5C 478.5,302.833 478.5,303.167 478.5,303.5C 474.96,309.612 472.127,316.278 470,323.5C 469.333,322.833 468.667,322.167 468,321.5C 468.29,324.413 468.457,327.413 468.5,330.5C 464.735,333.899 463.068,338.233 463.5,343.5C 462.599,344.29 461.932,345.29 461.5,346.5C 461.167,346.5 460.833,346.5 460.5,346.5C 459.5,346.5 458.5,346.5 457.5,346.5C 457.5,348.167 457.5,349.833 457.5,351.5C 456.5,351.5 455.5,351.5 454.5,351.5C 454.66,353.199 454.494,354.866 454,356.5C 453.107,355.289 452.274,355.289 451.5,356.5C 450.337,360.394 449.004,364.061 447.5,367.5C 447.167,368.833 446.833,370.167 446.5,371.5C 443.444,373.949 441.111,376.949 439.5,380.5C 438.094,380.973 437.427,381.973 437.5,383.5C 435.5,383.5 434.5,384.5 434.5,386.5C 434.5,387.167 434.167,387.5 433.5,387.5C 429.521,390.812 425.854,394.479 422.5,398.5C 420.833,399.666 419.166,399.666 417.5,398.5C 417.573,396.973 416.906,395.973 415.5,395.5C 414.864,393.205 413.531,391.539 411.5,390.5C 411.5,388.5 410.5,387.5 408.5,387.5C 407.5,386.167 406.5,384.833 405.5,383.5C 405.027,382.094 404.027,381.427 402.5,381.5C 401.522,378.675 399.522,377.342 396.5,377.5C 395.817,375.824 394.483,375.157 392.5,375.5C 390.165,372.835 387.165,371.502 383.5,371.5C 381.379,371.675 379.379,371.341 377.5,370.5C 377.082,369.778 376.416,369.278 375.5,369C 369.167,368.333 362.833,368.333 356.5,369C 353.809,369.156 351.476,369.989 349.5,371.5C 347.102,371.259 345.102,371.926 343.5,373.5C 342.041,373.433 340.708,373.766 339.5,374.5C 338.448,374.351 337.448,374.517 336.5,375C 334.681,375.74 333.348,376.907 332.5,378.5C 331.833,378.833 331.167,379.167 330.5,379.5C 327.143,379.77 324.809,379.104 323.5,377.5C 321.29,381.142 320.29,385.142 320.5,389.5C 319.167,389.5 317.833,389.5 316.5,389.5C 315.36,392.025 314.693,394.692 314.5,397.5C 313.662,397.842 313.328,398.508 313.5,399.5C 309.753,401.145 307.92,404.145 308,408.5C 307.692,407.692 307.192,407.025 306.5,406.5C 303.318,418.394 302.818,430.394 305,442.5C 305.608,444.066 306.442,445.4 307.5,446.5C 307.953,448.565 308.953,450.232 310.5,451.5C 310.5,453.167 310.5,454.833 310.5,456.5C 300.366,457.883 290.366,459.216 280.5,460.5C 268.462,460.772 256.462,460.438 244.5,459.5C 237.233,456.663 229.566,455.33 221.5,455.5C 212.475,451.589 203.142,448.589 193.5,446.5C 191.565,445.85 189.565,445.517 187.5,445.5C 187.167,445.5 186.833,445.5 186.5,445.5C 182.839,442.171 178.506,440.171 173.5,439.5C 172.713,437.896 171.38,437.229 169.5,437.5C 169.5,436.167 169.5,434.833 169.5,433.5C 170.167,433.167 170.833,432.833 171.5,432.5C 174.829,428.839 176.829,424.506 177.5,419.5C 178.167,419.167 178.833,418.833 179.5,418.5C 180.89,417.101 181.89,415.434 182.5,413.5C 182.5,412.833 182.5,412.167 182.5,411.5C 183.376,411.631 184.043,411.298 184.5,410.5C 186.214,407.472 187.88,404.472 189.5,401.5C 189.5,400.833 189.5,400.167 189.5,399.5C 193.791,397.263 195.791,393.596 195.5,388.5C 196.906,388.027 197.573,387.027 197.5,385.5C 199.144,385.19 200.144,384.19 200.5,382.5C 201.75,382.423 202.583,381.756 203,380.5C 204.333,380.5 205.667,380.5 207,380.5C 207.175,377.843 207.008,375.176 206.5,372.5C 207.822,372.33 208.989,372.663 210,373.5C 211.101,371.606 212.434,370.939 214,371.5C 214.543,369.369 215.376,367.369 216.5,365.5C 219.825,366.828 223.158,368.161 226.5,369.5C 226.291,370.086 225.957,370.586 225.5,371C 228.167,371 230.833,371 233.5,371C 232.742,372.364 233.242,373.531 235,374.5C 235.956,373.106 237.289,372.439 239,372.5C 241.166,373.164 243.166,374.164 245,375.5C 261.15,375.629 277.316,375.296 293.5,374.5C 297.794,374.504 301.461,373.171 304.5,370.5C 308.323,369.011 311.99,367.344 315.5,365.5C 318.947,365.186 322.28,364.352 325.5,363C 327.544,362.502 328.878,361.335 329.5,359.5C 330.514,358.326 331.847,357.66 333.5,357.5C 334.167,357.5 334.833,357.5 335.5,357.5C 342.037,356.37 347.037,353.036 350.5,347.5C 357.53,341.471 363.863,334.804 369.5,327.5C 371.587,326.415 372.92,324.749 373.5,322.5C 374.906,322.027 375.573,321.027 375.5,319.5C 377.262,318.738 378.262,317.404 378.5,315.5C 378.328,314.508 378.662,313.842 379.5,313.5C 380.906,313.027 381.573,312.027 381.5,310.5C 386.089,304.996 389.422,298.662 391.5,291.5C 394.101,285.028 396.101,278.362 397.5,271.5C 399.011,269.524 399.844,267.191 400,264.5C 400.498,261.183 400.665,257.85 400.5,254.5 Z"/></g>
<g><path style="opacity:1" fill="#f7b46d" d="M 86.5,362.5 C 91.7558,365.637 95.0891,370.304 96.5,376.5C 92.6882,372.223 89.3548,367.557 86.5,362.5 Z"/></g>
<g><path style="opacity:1" fill="#ed3117" d="M 215.5,362.5 C 217.522,364.693 220.189,365.693 223.5,365.5C 223.611,366.117 223.944,366.617 224.5,367C 228.112,368.15 231.778,368.983 235.5,369.5C 237.78,371.223 240.447,371.889 243.5,371.5C 245.515,372.924 247.848,373.59 250.5,373.5C 259.664,374.461 268.664,374.461 277.5,373.5C 282.179,373.666 286.845,373.499 291.5,373C 292.416,372.722 293.082,372.222 293.5,371.5C 294.167,371.5 294.833,371.5 295.5,371.5C 298.57,371.632 301.57,371.299 304.5,370.5C 301.461,373.171 297.794,374.504 293.5,374.5C 277.316,375.296 261.15,375.629 245,375.5C 243.166,374.164 241.166,373.164 239,372.5C 237.289,372.439 235.956,373.106 235,374.5C 233.242,373.531 232.742,372.364 233.5,371C 230.833,371 228.167,371 225.5,371C 225.957,370.586 226.291,370.086 226.5,369.5C 223.158,368.161 219.825,366.828 216.5,365.5C 215.376,367.369 214.543,369.369 214,371.5C 212.434,370.939 211.101,371.606 210,373.5C 208.989,372.663 207.822,372.33 206.5,372.5C 207.008,375.176 207.175,377.843 207,380.5C 205.667,380.5 204.333,380.5 203,380.5C 202.583,381.756 201.75,382.423 200.5,382.5C 200.833,381.167 201.167,379.833 201.5,378.5C 201.66,376.847 202.326,375.514 203.5,374.5C 204.906,374.027 205.573,373.027 205.5,371.5C 207.093,370.652 208.26,369.319 209,367.5C 209.483,366.552 209.649,365.552 209.5,364.5C 211.142,362.919 213.142,362.253 215.5,362.5 Z"/></g>
<g><path style="opacity:0.635" fill="#f8a79a" d="M 223.5,365.5 C 227.784,366.261 231.784,367.595 235.5,369.5C 231.778,368.983 228.112,368.15 224.5,367C 223.944,366.617 223.611,366.117 223.5,365.5 Z"/></g>
<g><path style="opacity:0.055" fill="#ffd8d1" d="M 451.5,364.5 C 451.573,366.027 450.906,367.027 449.5,367.5C 449.427,365.973 450.094,364.973 451.5,364.5 Z"/></g>
<g><path style="opacity:0.608" fill="#faa89d" d="M 315.5,365.5 C 311.99,367.344 308.323,369.011 304.5,370.5C 301.57,371.299 298.57,371.632 295.5,371.5C 302.008,369.334 308.674,367.334 315.5,365.5 Z"/></g>
<g><path style="opacity:0.349" fill="#f8beb0" d="M 447.5,367.5 C 448.167,367.5 448.833,367.5 449.5,367.5C 449.262,369.404 448.262,370.738 446.5,371.5C 446.833,370.167 447.167,368.833 447.5,367.5 Z"/></g>
<g><path style="opacity:0.973" fill="#f18b75" d="M 209.5,364.5 C 209.649,365.552 209.483,366.552 209,367.5C 208.26,369.319 207.093,370.652 205.5,371.5C 206.079,368.669 207.412,366.336 209.5,364.5 Z"/></g>
<g><path style="opacity:0.212" fill="#f9b1a0" d="M 235.5,369.5 C 238.373,369.802 241.039,370.469 243.5,371.5C 240.447,371.889 237.78,371.223 235.5,369.5 Z"/></g>
<g><path style="opacity:0.01" fill="#ffbcad" d="M 377.5,370.5 C 368.113,369.141 358.78,369.474 349.5,371.5C 351.476,369.989 353.809,369.156 356.5,369C 362.833,368.333 369.167,368.333 375.5,369C 376.416,369.278 377.082,369.778 377.5,370.5 Z"/></g>
<g><path style="opacity:0.855" fill="#f5a696" d="M 383.5,371.5 C 387.165,371.502 390.165,372.835 392.5,375.5C 389.256,374.537 386.256,373.204 383.5,371.5 Z"/></g>
<g><path style="opacity:0.533" fill="#ee9383" d="M 243.5,371.5 C 246.059,371.198 248.393,371.532 250.5,372.5C 250.5,372.833 250.5,373.167 250.5,373.5C 247.848,373.59 245.515,372.924 243.5,371.5 Z"/></g>
<g><path style="opacity:0.776" fill="#f4b1a4" d="M 293.5,371.5 C 293.082,372.222 292.416,372.722 291.5,373C 286.845,373.499 282.179,373.666 277.5,373.5C 282.669,372.619 288.002,371.952 293.5,371.5 Z"/></g>
<g><path style="opacity:0.18" fill="#fec6b1" d="M 349.5,371.5 C 347.786,372.738 345.786,373.405 343.5,373.5C 345.102,371.926 347.102,371.259 349.5,371.5 Z"/></g>
<g><path style="opacity:0.012" fill="#ffd1c2" d="M 446.5,371.5 C 445.306,375.363 442.973,378.363 439.5,380.5C 441.111,376.949 443.444,373.949 446.5,371.5 Z"/></g>
<g><path style="opacity:0.161" fill="#ffcbc1" d="M 205.5,371.5 C 205.573,373.027 204.906,374.027 203.5,374.5C 203.427,372.973 204.094,371.973 205.5,371.5 Z"/></g>
<g><path style="opacity:0.233" fill="#ffc0b0" d="M 250.5,373.5 C 250.5,373.167 250.5,372.833 250.5,372.5C 259.491,373.041 268.491,373.374 277.5,373.5C 268.664,374.461 259.664,374.461 250.5,373.5 Z"/></g>
<g><path style="opacity:0.294" fill="#ffdeac" d="M 187.5,367.5 C 187.833,367.5 188.167,367.5 188.5,367.5C 186.957,372.024 184.623,376.024 181.5,379.5C 183.066,375.272 185.066,371.272 187.5,367.5 Z"/></g>
<g><path style="opacity:0.078" fill="#febdad" d="M 343.5,373.5 C 342.486,374.674 341.153,375.34 339.5,375.5C 339.5,375.167 339.5,374.833 339.5,374.5C 340.708,373.766 342.041,373.433 343.5,373.5 Z"/></g>
<g><path style="opacity:0.957" fill="#f38d7f" d="M 392.5,375.5 C 394.483,375.157 395.817,375.824 396.5,377.5C 394.847,377.34 393.514,376.674 392.5,375.5 Z"/></g>
<g><path style="opacity:1" fill="#ee7c62" d="M 339.5,374.5 C 339.5,374.833 339.5,375.167 339.5,375.5C 338.035,376.737 336.368,377.737 334.5,378.5C 333.833,378.5 333.167,378.5 332.5,378.5C 333.348,376.907 334.681,375.74 336.5,375C 337.448,374.517 338.448,374.351 339.5,374.5 Z"/></g>
<g><path style="opacity:0.467" fill="#fdd09f" d="M 96.5,376.5 C 98.4456,377.035 99.4456,378.368 99.5,380.5C 98.0256,379.564 97.0256,378.23 96.5,376.5 Z"/></g>
<g><path style="opacity:0.082" fill="#fecdb3" d="M 332.5,378.5 C 333.167,378.5 333.833,378.5 334.5,378.5C 333.101,379.89 331.434,380.89 329.5,381.5C 329.833,380.833 330.167,380.167 330.5,379.5C 331.167,379.167 331.833,378.833 332.5,378.5 Z"/></g>
<g><path style="opacity:0.376" fill="#fba396" d="M 396.5,377.5 C 399.522,377.342 401.522,378.675 402.5,381.5C 400.223,380.551 398.223,379.218 396.5,377.5 Z"/></g>
<g><path style="opacity:1" fill="#f1341a" d="M 330.5,379.5 C 330.167,380.167 329.833,380.833 329.5,381.5C 325.833,383.167 323.167,385.833 321.5,389.5C 321.167,390.5 320.5,391.167 319.5,391.5C 318.094,391.973 317.427,392.973 317.5,394.5C 316.094,394.973 315.427,395.973 315.5,397.5C 315.167,397.5 314.833,397.5 314.5,397.5C 314.693,394.692 315.36,392.025 316.5,389.5C 317.833,389.5 319.167,389.5 320.5,389.5C 320.29,385.142 321.29,381.142 323.5,377.5C 324.809,379.104 327.143,379.77 330.5,379.5 Z"/></g>
<g><path style="opacity:0.255" fill="#fddeac" d="M 181.5,379.5 C 181.34,381.153 180.674,382.486 179.5,383.5C 179.229,381.62 179.896,380.287 181.5,379.5 Z"/></g>
<g><path style="opacity:0.459" fill="#fdc0a2" d="M 402.5,381.5 C 404.027,381.427 405.027,382.094 405.5,383.5C 403.973,383.573 402.973,382.906 402.5,381.5 Z"/></g>
<g><path style="opacity:0.008" fill="#ffe0d3" d="M 439.5,380.5 C 439.573,382.027 438.906,383.027 437.5,383.5C 437.427,381.973 438.094,380.973 439.5,380.5 Z"/></g>
<g><path style="opacity:0.945" fill="#f58e78" d="M 201.5,378.5 C 201.167,379.833 200.833,381.167 200.5,382.5C 200.144,384.19 199.144,385.19 197.5,385.5C 198.079,382.669 199.412,380.336 201.5,378.5 Z"/></g>
<g><path style="opacity:0.016" fill="#ffe5b9" d="M 101.5,382.5 C 103.587,383.585 104.92,385.251 105.5,387.5C 103.413,386.415 102.08,384.749 101.5,382.5 Z"/></g>
<g><path style="opacity:0.486" fill="#f9ce97" d="M 179.5,383.5 C 178.32,386.54 176.653,389.206 174.5,391.5C 174.557,390.391 174.89,389.391 175.5,388.5C 176.136,386.205 177.469,384.539 179.5,383.5 Z"/></g>
<g><path style="opacity:0.004" fill="#ffd9cd" d="M 329.5,381.5 C 327.167,384.5 324.5,387.167 321.5,389.5C 323.167,385.833 325.833,383.167 329.5,381.5 Z"/></g>
<g><path style="opacity:0.071" fill="#fdc3b1" d="M 437.5,383.5 C 436.833,384.833 435.833,385.833 434.5,386.5C 434.5,384.5 435.5,383.5 437.5,383.5 Z"/></g>
<g><path style="opacity:0.2" fill="#ffe2b8" d="M 375.5,385.5 C 379.673,385.667 383.34,387 386.5,389.5C 385.5,389.5 384.5,389.5 383.5,389.5C 380.921,387.975 378.254,386.641 375.5,385.5 Z"/></g>
<g><path style="opacity:1" fill="#f2a557" d="M 375.5,385.5 C 378.254,386.641 380.921,387.975 383.5,389.5C 373.661,386.489 363.661,385.822 353.5,387.5C 354.5,386.833 355.5,386.167 356.5,385.5C 362.734,384.193 369.068,384.193 375.5,385.5 Z"/></g>
<g><path style="opacity:1" fill="#f8a34c" d="M 175.5,388.5 C 174.89,389.391 174.557,390.391 174.5,391.5C 174.34,393.153 173.674,394.486 172.5,395.5C 172.708,393.08 172.374,390.747 171.5,388.5C 172.7,387.708 174.033,387.708 175.5,388.5 Z"/></g>
<g><path style="opacity:0.196" fill="#fdcdbd" d="M 197.5,385.5 C 197.573,387.027 196.906,388.027 195.5,388.5C 195.427,386.973 196.094,385.973 197.5,385.5 Z"/></g>
<g><path style="opacity:1" fill="#fd8505" d="M 383.5,389.5 C 384.5,389.5 385.5,389.5 386.5,389.5C 388.294,393.235 391.294,395.235 395.5,395.5C 396.757,398.427 398.757,400.761 401.5,402.5C 401.427,404.027 402.094,405.027 403.5,405.5C 403.427,407.027 404.094,408.027 405.5,408.5C 406.674,409.514 407.34,410.847 407.5,412.5C 407.5,413.833 407.5,415.167 407.5,416.5C 408.872,426.88 408.539,437.213 406.5,447.5C 404.592,450.28 402.425,452.947 400,455.5C 399.517,456.448 399.351,457.448 399.5,458.5C 398.833,459.833 397.833,460.833 396.5,461.5C 395.5,461.833 394.833,462.5 394.5,463.5C 392.973,463.427 391.973,464.094 391.5,465.5C 387.911,466.816 384.244,467.983 380.5,469C 379.944,469.383 379.611,469.883 379.5,470.5C 378.833,470.5 378.167,470.5 377.5,470.5C 370.637,470.033 363.637,469.867 356.5,470C 354.139,469.803 352.472,468.636 351.5,466.5C 348.253,465.35 344.92,464.517 341.5,464C 339.886,461.873 337.886,460.373 335.5,459.5C 334.833,459.5 334.167,459.5 333.5,459.5C 333.262,457.596 332.262,456.262 330.5,455.5C 329.617,452.296 327.95,449.629 325.5,447.5C 322.403,437.003 321.737,426.336 323.5,415.5C 326.808,412.55 328.808,408.884 329.5,404.5C 333.5,399.833 337.833,395.5 342.5,391.5C 342.842,390.662 343.508,390.328 344.5,390.5C 347.574,389.698 350.574,388.698 353.5,387.5C 363.661,385.822 373.661,386.489 383.5,389.5 Z"/></g>
<g><path style="opacity:0.396" fill="#ffc8b4" d="M 408.5,387.5 C 410.5,387.5 411.5,388.5 411.5,390.5C 410.167,389.833 409.167,388.833 408.5,387.5 Z"/></g>
<g><path style="opacity:1" fill="#f3ae60" d="M 105.5,387.5 C 108.179,387.525 109.512,388.858 109.5,391.5C 107.833,390.5 106.5,389.167 105.5,387.5 Z"/></g>
<g><path style="opacity:0.537" fill="#fcd3a0" d="M 356.5,385.5 C 355.5,386.167 354.5,386.833 353.5,387.5C 350.574,388.698 347.574,389.698 344.5,390.5C 347.768,387.293 351.768,385.627 356.5,385.5 Z"/></g>
<g><path style="opacity:0.016" fill="#ffe1ab" d="M 109.5,391.5 C 114.833,396.167 119.833,401.167 124.5,406.5C 118.5,402.5 113.5,397.5 109.5,391.5 Z"/></g>
<g><path style="opacity:0.031" fill="#ffc1b7" d="M 319.5,391.5 C 319.573,393.027 318.906,394.027 317.5,394.5C 317.427,392.973 318.094,391.973 319.5,391.5 Z"/></g>
<g><path style="opacity:1" fill="#f8b773" d="M 386.5,389.5 C 390.025,390.759 393.025,392.759 395.5,395.5C 391.294,395.235 388.294,393.235 386.5,389.5 Z"/></g>
<g><path style="opacity:0.388" fill="#fdb7a7" d="M 411.5,390.5 C 413.531,391.539 414.864,393.205 415.5,395.5C 413.457,394.421 412.124,392.754 411.5,390.5 Z"/></g>
<g><path style="opacity:0.255" fill="#febfae" d="M 193.5,392.5 C 193.573,394.027 192.906,395.027 191.5,395.5C 191.427,393.973 192.094,392.973 193.5,392.5 Z"/></g>
<g><path style="opacity:1" fill="#ec6448" d="M 195.5,388.5 C 195.791,393.596 193.791,397.263 189.5,399.5C 189.66,397.847 190.326,396.514 191.5,395.5C 192.906,395.027 193.573,394.027 193.5,392.5C 193.66,390.847 194.326,389.514 195.5,388.5 Z"/></g>
<g><path style="opacity:0.059" fill="#ffd6c6" d="M 317.5,394.5 C 317.573,396.027 316.906,397.027 315.5,397.5C 315.427,395.973 316.094,394.973 317.5,394.5 Z"/></g>
<g><path style="opacity:0.792" fill="#fbd293" d="M 395.5,395.5 C 398.243,397.239 400.243,399.573 401.5,402.5C 398.757,400.761 396.757,398.427 395.5,395.5 Z"/></g>
<g><path style="opacity:0.027" fill="#ffc4b8" d="M 415.5,395.5 C 416.906,395.973 417.573,396.973 417.5,398.5C 416.094,398.027 415.427,397.027 415.5,395.5 Z"/></g>
<g><path style="opacity:0.565" fill="#fed6a2" d="M 342.5,391.5 C 337.833,395.5 333.5,399.833 329.5,404.5C 332.167,398.5 336.5,394.167 342.5,391.5 Z"/></g>
<g><path style="opacity:0.408" fill="#fbd2a1" d="M 172.5,395.5 C 171.89,397.434 170.89,399.101 169.5,400.5C 169.259,397.966 170.259,396.3 172.5,395.5 Z"/></g>
<g><path style="opacity:0.149" fill="#fdbeb3" d="M 433.5,387.5 C 430.069,392.107 426.403,396.607 422.5,401C 419.499,403.195 417.833,402.362 417.5,398.5C 419.166,399.666 420.833,399.666 422.5,398.5C 425.854,394.479 429.521,390.812 433.5,387.5 Z"/></g>
<g><path style="opacity:0.271" fill="#fdbfb0" d="M 189.5,399.5 C 189.5,400.167 189.5,400.833 189.5,401.5C 188.833,401.833 188.167,402.167 187.5,402.5C 187.427,400.973 188.094,399.973 189.5,399.5 Z"/></g>
<g><path style="opacity:0.067" fill="#ffd4c7" d="M 314.5,397.5 C 314.833,397.5 315.167,397.5 315.5,397.5C 315.25,399.674 314.25,401.341 312.5,402.5C 312.557,401.391 312.89,400.391 313.5,399.5C 313.328,398.508 313.662,397.842 314.5,397.5 Z"/></g>
<g><path style="opacity:0.333" fill="#fed9a1" d="M 401.5,402.5 C 402.906,402.973 403.573,403.973 403.5,405.5C 402.094,405.027 401.427,404.027 401.5,402.5 Z"/></g>
<g><path style="opacity:0.329" fill="#fec0a9" d="M 311.5,404.5 C 311.204,406.403 310.537,408.07 309.5,409.5C 309.12,407.302 309.787,405.635 311.5,404.5 Z"/></g>
<g><path style="opacity:0.749" fill="#f8cc8f" d="M 124.5,406.5 C 127.089,407.419 129.089,409.086 130.5,411.5C 127.911,410.581 125.911,408.914 124.5,406.5 Z"/></g>
<g><path style="opacity:0.259" fill="#fcd6a6" d="M 169.5,400.5 C 168,404.173 166,407.506 163.5,410.5C 164.479,406.539 166.479,403.206 169.5,400.5 Z"/></g>
<g><path style="opacity:0.239" fill="#fddeb4" d="M 403.5,405.5 C 404.906,405.973 405.573,406.973 405.5,408.5C 404.094,408.027 403.427,407.027 403.5,405.5 Z"/></g>
<g><path style="opacity:0.949" fill="#f1816c" d="M 189.5,401.5 C 187.88,404.472 186.214,407.472 184.5,410.5C 184.043,411.298 183.376,411.631 182.5,411.5C 183.41,408.008 185.076,405.008 187.5,402.5C 188.167,402.167 188.833,401.833 189.5,401.5 Z"/></g>
<g><path style="opacity:1" fill="#f9b66c" d="M 329.5,404.5 C 328.808,408.884 326.808,412.55 323.5,415.5C 324.22,411.055 326.22,407.388 329.5,404.5 Z"/></g>
<g><path style="opacity:0.427" fill="#fec2b4" d="M 309.5,409.5 C 306.969,418.303 305.969,427.303 306.5,436.5C 305.017,427.876 305.517,419.209 308,410.5C 308.383,409.944 308.883,409.611 309.5,409.5 Z"/></g>
<g><path style="opacity:0.322" fill="#fbd9a8" d="M 163.5,410.5 C 163.34,412.153 162.674,413.486 161.5,414.5C 161.229,412.62 161.896,411.287 163.5,410.5 Z"/></g>
<g><path style="opacity:0.525" fill="#facf94" d="M 130.5,411.5 C 132.749,412.08 134.415,413.413 135.5,415.5C 133.251,414.92 131.585,413.587 130.5,411.5 Z"/></g>
<g><path style="opacity:0.239" fill="#ffc4b8" d="M 182.5,411.5 C 182.5,412.167 182.5,412.833 182.5,413.5C 181.833,413.833 181.167,414.167 180.5,414.5C 180.427,412.973 181.094,411.973 182.5,411.5 Z"/></g>
<g><path style="opacity:0.733" fill="#f9ce93" d="M 135.5,415.5 C 137.404,415.738 138.738,416.738 139.5,418.5C 137.596,418.262 136.262,417.262 135.5,415.5 Z"/></g>
<g><path style="opacity:0.98" fill="#e46147" d="M 182.5,413.5 C 181.89,415.434 180.89,417.101 179.5,418.5C 179.5,417.833 179.5,417.167 179.5,416.5C 179.328,415.508 179.662,414.842 180.5,414.5C 181.167,414.167 181.833,413.833 182.5,413.5 Z"/></g>
<g><path style="opacity:0.125" fill="#fee4b5" d="M 161.5,414.5 C 161.573,416.027 160.906,417.027 159.5,417.5C 159.427,415.973 160.094,414.973 161.5,414.5 Z"/></g>
<g><path style="opacity:0.761" fill="#fdd190" d="M 139.5,418.5 C 141.404,418.738 142.738,419.738 143.5,421.5C 141.596,421.262 140.262,420.262 139.5,418.5 Z"/></g>
<g><path style="opacity:0.169" fill="#ffcdc2" d="M 179.5,416.5 C 179.5,417.167 179.5,417.833 179.5,418.5C 178.833,418.833 178.167,419.167 177.5,419.5C 177.427,417.973 178.094,416.973 179.5,416.5 Z"/></g>
<g><path style="opacity:0.294" fill="#fbddb0" d="M 159.5,417.5 C 159.34,419.153 158.674,420.486 157.5,421.5C 157.229,419.62 157.896,418.287 159.5,417.5 Z"/></g>
<g><path style="opacity:0.345" fill="#fedca4" d="M 143.5,421.5 C 145.027,421.427 146.027,422.094 146.5,423.5C 144.973,423.573 143.973,422.906 143.5,421.5 Z"/></g>
<g><path style="opacity:0.51" fill="#fdd7a7" d="M 157.5,421.5 C 157.715,423.179 157.048,424.179 155.5,424.5C 155.285,422.821 155.952,421.821 157.5,421.5 Z"/></g>
<g><path style="opacity:0.369" fill="#fcdca6" d="M 146.5,423.5 C 148.027,423.427 149.027,424.094 149.5,425.5C 147.973,425.573 146.973,424.906 146.5,423.5 Z"/></g>
<g><path style="opacity:1" fill="#ee7760" d="M 177.5,419.5 C 176.829,424.506 174.829,428.839 171.5,432.5C 171.5,431.833 171.5,431.167 171.5,430.5C 173.25,426.665 175.25,422.999 177.5,419.5 Z"/></g>
<g><path style="opacity:1" fill="#f04527" d="M 313.5,399.5 C 312.89,400.391 312.557,401.391 312.5,402.5C 312.672,403.492 312.338,404.158 311.5,404.5C 309.787,405.635 309.12,407.302 309.5,409.5C 308.883,409.611 308.383,409.944 308,410.5C 305.517,419.209 305.017,427.876 306.5,436.5C 307.369,438.717 307.702,441.05 307.5,443.5C 307.5,444.5 307.5,445.5 307.5,446.5C 306.442,445.4 305.608,444.066 305,442.5C 302.818,430.394 303.318,418.394 306.5,406.5C 307.192,407.025 307.692,407.692 308,408.5C 307.92,404.145 309.753,401.145 313.5,399.5 Z"/></g>
<g><path style="opacity:0.314" fill="#fddcb5" d="M 155.5,424.5 C 154.152,429.479 152.152,429.813 149.5,425.5C 150.583,425.539 151.583,425.873 152.5,426.5C 153.518,425.807 154.518,425.141 155.5,424.5 Z"/></g>
<g><path style="opacity:0.559" fill="#fccf93" d="M 323.5,415.5 C 321.737,426.336 322.403,437.003 325.5,447.5C 319.828,437.113 319.161,426.447 323.5,415.5 Z"/></g>
<g><path style="opacity:1" fill="#f09a3d" d="M 407.5,416.5 C 408.222,416.918 408.722,417.584 409,418.5C 409.705,426.861 409.538,435.194 408.5,443.5C 408.771,445.38 408.104,446.713 406.5,447.5C 408.539,437.213 408.872,426.88 407.5,416.5 Z"/></g>
<g><path style="opacity:0.727" fill="#fad49d" d="M 407.5,412.5 C 410.276,417.522 411.61,423.022 411.5,429C 411.565,434.18 410.565,439.014 408.5,443.5C 409.538,435.194 409.705,426.861 409,418.5C 408.722,417.584 408.222,416.918 407.5,416.5C 407.5,415.167 407.5,413.833 407.5,412.5 Z"/></g>
<g><path style="opacity:0.196" fill="#fecdbf" d="M 171.5,430.5 C 171.5,431.167 171.5,431.833 171.5,432.5C 170.833,432.833 170.167,433.167 169.5,433.5C 169.427,431.973 170.094,430.973 171.5,430.5 Z"/></g>
<g><path style="opacity:0.459" fill="#f6b2a1" d="M 169.5,433.5 C 169.5,434.833 169.5,436.167 169.5,437.5C 171.38,437.229 172.713,437.896 173.5,439.5C 171.559,439.131 169.725,438.464 168,437.5C 167.652,435.86 168.152,434.527 169.5,433.5 Z"/></g>
<g><path style="opacity:1" fill="#f28c79" d="M 173.5,439.5 C 178.506,440.171 182.839,442.171 186.5,445.5C 181.738,444.284 177.405,442.284 173.5,439.5 Z"/></g>
<g><path style="opacity:0.937" fill="#f69e8d" d="M 187.5,445.5 C 189.565,445.517 191.565,445.85 193.5,446.5C 197.008,447.783 200.342,449.449 203.5,451.5C 197.871,450.071 192.537,448.071 187.5,445.5 Z"/></g>
<g><path style="opacity:0.655" fill="#f7aa9a" d="M 307.5,443.5 C 308.871,445.936 309.871,448.603 310.5,451.5C 308.953,450.232 307.953,448.565 307.5,446.5C 307.5,445.5 307.5,444.5 307.5,443.5 Z"/></g>
<g><path style="opacity:1" fill="#e33116" d="M 193.5,446.5 C 203.142,448.589 212.475,451.589 221.5,455.5C 220.167,455.5 218.833,455.5 217.5,455.5C 213.493,453.342 209.16,452.009 204.5,451.5C 204.167,451.5 203.833,451.5 203.5,451.5C 200.342,449.449 197.008,447.783 193.5,446.5 Z"/></g>
<g><path style="opacity:0.341" fill="#fdd9aa" d="M 325.5,447.5 C 327.95,449.629 329.617,452.296 330.5,455.5C 328.05,453.371 326.383,450.704 325.5,447.5 Z"/></g>
<g><path style="opacity:0.647" fill="#f6a08c" d="M 204.5,451.5 C 209.16,452.009 213.493,453.342 217.5,455.5C 212.835,454.943 208.502,453.61 204.5,451.5 Z"/></g>
<g><path style="opacity:0.071" fill="#fedca9" d="M 406.5,447.5 C 405.343,451.976 403.01,455.642 399.5,458.5C 399.351,457.448 399.517,456.448 400,455.5C 402.425,452.947 404.592,450.28 406.5,447.5 Z"/></g>
<g><path style="opacity:1" fill="#ea5337" d="M 217.5,455.5 C 218.833,455.5 220.167,455.5 221.5,455.5C 229.566,455.33 237.233,456.663 244.5,459.5C 242.5,459.5 240.5,459.5 238.5,459.5C 237.833,459.5 237.167,459.5 236.5,459.5C 233.155,457.783 229.489,457.116 225.5,457.5C 222.572,457.435 219.905,456.768 217.5,455.5 Z"/></g>
<g><path style="opacity:0.012" fill="#fad9d0" d="M 311.5,453.5 C 312.931,454.78 313.598,456.447 313.5,458.5C 311.5,458.5 309.5,458.5 307.5,458.5C 308.568,457.566 309.901,457.232 311.5,457.5C 311.5,456.167 311.5,454.833 311.5,453.5 Z"/></g>
<g><path style="opacity:0.043" fill="#ffe7c0" d="M 330.5,455.5 C 332.262,456.262 333.262,457.596 333.5,459.5C 331.738,458.738 330.738,457.404 330.5,455.5 Z"/></g>
<g><path style="opacity:0.271" fill="#fbc4b3" d="M 225.5,457.5 C 229.489,457.116 233.155,457.783 236.5,459.5C 232.64,459.192 228.974,458.525 225.5,457.5 Z"/></g>
<g><path style="opacity:0.933" fill="#e96d54" d="M 310.5,451.5 C 311.338,451.842 311.672,452.508 311.5,453.5C 311.5,454.833 311.5,456.167 311.5,457.5C 309.901,457.232 308.568,457.566 307.5,458.5C 303.057,459.801 298.391,460.468 293.5,460.5C 289.167,460.5 284.833,460.5 280.5,460.5C 290.366,459.216 300.366,457.883 310.5,456.5C 310.5,454.833 310.5,453.167 310.5,451.5 Z"/></g>
<g><path style="opacity:0.722" fill="#fdd095" d="M 333.5,459.5 C 334.167,459.5 334.833,459.5 335.5,459.5C 337.167,461.5 338.833,463.5 340.5,465.5C 337.573,464.243 335.239,462.243 333.5,459.5 Z"/></g>
<g><path style="opacity:0.294" fill="#feb5a4" d="M 238.5,459.5 C 240.5,459.5 242.5,459.5 244.5,459.5C 256.462,460.438 268.462,460.772 280.5,460.5C 284.833,460.5 289.167,460.5 293.5,460.5C 275.119,463.238 256.785,462.905 238.5,459.5 Z"/></g>
<g><path style="opacity:0.004" fill="#ffedd7" d="M 396.5,461.5 C 396.5,462.833 395.833,463.5 394.5,463.5C 394.833,462.5 395.5,461.833 396.5,461.5 Z"/></g>
<g><path style="opacity:1" fill="#f3912b" d="M 335.5,459.5 C 337.886,460.373 339.886,461.873 341.5,464C 344.92,464.517 348.253,465.35 351.5,466.5C 352.472,468.636 354.139,469.803 356.5,470C 363.637,469.867 370.637,470.033 377.5,470.5C 376.833,471.167 376.167,471.833 375.5,472.5C 372.713,473.477 369.713,473.81 366.5,473.5C 362.242,472.592 357.908,471.925 353.5,471.5C 349.549,468.735 345.216,466.735 340.5,465.5C 338.833,463.5 337.167,461.5 335.5,459.5 Z"/></g>
<g><path style="opacity:0.027" fill="#ffecbe" d="M 394.5,463.5 C 394.027,464.906 393.027,465.573 391.5,465.5C 391.973,464.094 392.973,463.427 394.5,463.5 Z"/></g>
<g><path style="opacity:1" fill="#f7c07d" d="M 340.5,465.5 C 345.216,466.735 349.549,468.735 353.5,471.5C 348.494,470.829 344.161,468.829 340.5,465.5 Z"/></g>
<g><path style="opacity:1" fill="#efab5a" d="M 391.5,465.5 C 390.341,467.25 388.674,468.25 386.5,468.5C 384.167,469.167 381.833,469.833 379.5,470.5C 379.611,469.883 379.944,469.383 380.5,469C 384.244,467.983 387.911,466.816 391.5,465.5 Z"/></g>
<g><path style="opacity:0.204" fill="#fcdfae" d="M 386.5,468.5 C 383.374,470.99 379.708,472.323 375.5,472.5C 376.167,471.833 376.833,471.167 377.5,470.5C 378.167,470.5 378.833,470.5 379.5,470.5C 381.833,469.833 384.167,469.167 386.5,468.5 Z"/></g>
<g><path style="opacity:0.129" fill="#fee0aa" d="M 353.5,471.5 C 357.908,471.925 362.242,472.592 366.5,473.5C 366.44,474.043 366.107,474.376 365.5,474.5C 361.261,473.984 357.261,472.984 353.5,471.5 Z"/></g>
</svg>
